<svg width="468" height="395" viewBox="0 0 468 395" version="1.1" xmlns="http://www.w3.org/2000/svg" xmlns:xlink="http://www.w3.org/1999/xlink">
<title>AR</title>
<desc>Created using Figma</desc>
<g id="Canvas" transform="translate(-211 1324)">
<g id="AR">
<g id="Vector 5">
<use xlink:href="#path0_stroke" transform="translate(217 -1319)"/>
</g>
<g id="Star">
<use xlink:href="#path1_fill" transform="translate(283 -1234)"/>
</g>
</g>
</g>
<defs>
<path id="path0_stroke" d="M 0 0L 0 -5L -5.82544 -5L -4.9422 0.758091L 0 0ZM 12.1383 315.977L 7.13825 315.977L 7.13825 317.247L 7.74387 318.363L 12.1383 315.977ZM 38.4956 325.689L 37.2828 320.839L 38.4956 325.689ZM 50.9807 326.383L 55.9807 326.383L 55.9807 323.293L 53.2169 321.911L 50.9807 326.383ZM 50.9807 385L 45.9807 385L 45.9807 390L 50.9807 390L 50.9807 385ZM 316.635 385L 316.635 390L 317.598 390L 318.492 389.642L 316.635 385ZM 322.531 377.369L 317.611 376.475L 322.531 377.369ZM 320.797 356.559L 325.797 356.559L 325.797 356.332L 325.776 356.106L 320.797 356.559ZM 312.473 340.257L 307.473 340.257L 307.473 340.729L 307.562 341.192L 312.473 340.257ZM 316.635 327.077L 311.635 327.077L 311.635 327.625L 311.754 328.161L 316.635 327.077ZM 312.473 316.324L 317.466 316.602L 312.473 316.324ZM 324.612 302.104L 319.634 301.63L 324.612 302.104ZM 327.039 287.536L 331.89 288.749L 327.039 287.536ZM 327.039 282.68L 323.039 279.68L 327.039 282.68ZM 340.912 271.581L 336.349 269.536L 340.912 271.581ZM 335.363 259.095L 330.363 259.095L 330.363 259.71L 330.512 260.307L 335.363 259.095ZM 341.952 254.932L 341.13 250L 339.845 250.215L 338.828 251.028L 341.952 254.932ZM 345.42 249.036L 350.42 249.036L 350.42 248.787L 350.395 248.539L 345.42 249.036ZM 365.882 229.959L 370.625 231.54L 370.787 231.053L 370.847 230.544L 365.882 229.959ZM 364.148 220.941L 369.097 220.234L 369.008 219.605L 368.763 219.019L 364.148 220.941ZM 364.841 211.923L 368.638 215.177L 368.638 215.177L 364.841 211.923ZM 372.818 210.189L 374.675 214.831L 376.952 213.921L 377.625 211.563L 372.818 210.189ZM 370.737 202.212L 366.156 200.208L 365.737 201.166L 365.737 202.212L 370.737 202.212ZM 378.714 197.356L 378.714 202.356L 379.186 202.356L 379.649 202.268L 378.714 197.356ZM 387.384 188.338L 384.477 184.269L 384.394 184.329L 384.314 184.391L 387.384 188.338ZM 395.707 180.36L 390.928 178.89L 390.83 179.209L 390.775 179.538L 395.707 180.36ZM 396.054 168.221L 392.184 165.055L 391.395 166.019L 391.151 167.24L 396.054 168.221ZM 404.377 160.59L 401.949 156.219L 401.772 156.318L 401.604 156.43L 404.377 160.59ZM 414.088 130.414L 409.659 128.095L 409.577 128.25L 409.507 128.411L 414.088 130.414ZM 430.041 116.541L 434.973 117.362L 435.041 116.954L 435.041 116.541L 430.041 116.541ZM 432.469 103.36L 437.469 103.36L 437.469 103.168L 437.454 102.977L 432.469 103.36ZM 429.001 94.3423L 424.309 92.614L 424.126 93.111L 424.051 93.6353L 429.001 94.3423ZM 437.671 86.3649L 435.701 81.7692L 434.215 82.4062L 433.383 83.7926L 437.671 86.3649ZM 444.607 75.9595L 444.313 70.9681L 443.175 71.035L 442.179 71.5888L 444.607 75.9595ZM 456.398 75.2658L 459.934 78.8011L 460.89 77.8453L 461.234 76.5381L 456.398 75.2658ZM 454.318 64.1667L 458.222 61.0434L 457.875 60.6096L 457.441 60.2625L 454.318 64.1667ZM 446.341 57.5766L 444.585 62.2582L 445.136 62.4649L 445.721 62.538L 446.341 57.5766ZM 409.233 60.0045L 409.233 55.0045L 409.041 55.0045L 408.849 55.0192L 409.233 60.0045ZM 393.973 60.0045L 390.973 64.0043L 392.138 64.8781L 393.59 64.9898L 393.973 60.0045ZM 393.279 53.7613L 389.987 49.9986L 389.247 50.646L 388.807 51.5254L 393.279 53.7613ZM 401.603 42.6622L 405.473 45.8281L 405.557 45.7256L 405.635 45.6188L 401.603 42.6622ZM 414.088 29.482L 418.49 31.8523L 418.681 31.4978L 418.813 31.1174L 414.088 29.482ZM 420.33 20.464L 425.33 20.464L 425.33 18.3931L 423.866 16.9286L 420.33 20.464ZM 418.25 9.36486L 414.115 12.1762L 418.25 9.36486ZM 408.539 0L 409.361 -4.93195L 408.953 -5L 408.539 -5L 408.539 0ZM -4.9422 0.758091C 13.7323 122.308 7.14089 223.207 7.13825 315.977L 17.1383 315.977C 17.1356 223.532 23.7228 121.872 4.9422 -0.758091L -4.9422 0.758091ZM 7.74387 318.363C 11.041 324.437 14.4436 329.445 20.1479 331.553C 25.5827 333.561 31.9851 332.471 39.7084 330.54L 37.2828 320.839C 29.2538 322.846 25.7722 322.97 23.6137 322.173C 21.7248 321.475 19.8249 319.658 16.5326 313.592L 7.74387 318.363ZM 39.7084 330.54C 44.1668 329.425 47.7918 330.379 48.7444 330.855L 53.2169 321.911C 50.0078 320.306 43.9222 319.178 37.2828 320.839L 39.7084 330.54ZM 45.9807 326.383C 45.9807 331.932 45.9807 362.109 45.9807 385L 55.9807 385C 55.9807 362.109 55.9807 331.932 55.9807 326.383L 45.9807 326.383ZM 50.9807 390L 316.635 390L 316.635 380L 50.9807 380L 50.9807 390ZM 318.492 389.642C 321.568 388.412 323.67 385.988 324.943 384.054C 326.211 382.129 327.145 379.943 327.45 378.264L 317.611 376.475C 317.623 376.356 317.577 376.654 317.375 377.106C 317.155 377.625 316.958 378.009 316.591 378.554C 315.861 379.663 315.171 380.201 314.778 380.358L 318.492 389.642ZM 327.45 378.264C 328.186 374.217 325.939 370.667 325.015 369.103C 324.43 368.113 323.965 367.372 323.649 366.674C 323.331 366.014 323.428 365.737 323.369 365.923L 313.369 365.923C 313.369 369.528 315.598 372.824 316.405 374.19C 317.735 376.441 317.569 376.706 317.611 376.475L 327.45 378.264ZM 323.369 365.923C 323.391 366.15 323.395 365.543 323.577 364.882C 323.759 364.195 324.005 363.482 324.302 362.632C 324.599 361.784 324.939 360.832 325.207 359.946C 325.45 359.134 325.797 357.862 325.797 356.559L 315.797 356.559C 315.797 356.295 315.84 356.367 315.628 357.073C 315.441 357.705 315.174 358.443 314.864 359.329C 314.341 360.823 313.369 363.513 313.369 365.923L 323.369 365.923ZM 325.776 356.106C 325.106 350.921 322.628 347.375 320.755 345.099C 318.882 342.825 317.658 341.702 317.385 339.321L 307.562 341.192C 308.675 346.096 311.267 349.307 313.035 351.456C 314.804 353.602 315.794 354.566 315.817 357.011L 325.776 356.106ZM 317.473 340.257C 317.473 339.204 318.052 337.77 319.303 335.218C 319.863 334.077 320.523 332.725 320.987 331.45C 321.436 330.191 322.002 328.179 321.516 325.992L 311.754 328.161C 311.615 327.535 311.834 327.344 311.568 328.09C 311.317 328.82 310.893 329.657 310.325 330.814C 309.323 332.858 307.473 336.454 307.473 340.257L 317.473 340.257ZM 321.635 327.077C 321.635 323.569 319.703 320.454 318.809 318.92C 318.27 317.996 317.875 317.344 317.617 316.745C 317.365 316.182 317.487 316.219 317.466 316.602L 307.481 316.047C 307.373 317.988 307.972 319.671 308.485 320.82C 308.99 321.934 309.647 323.059 310.17 323.957C 311.4 326.066 311.635 326.769 311.635 327.077L 321.635 327.077ZM 317.466 316.602C 317.44 316.417 317.345 316.769 317.473 316.581C 317.562 316.366 317.542 316.414 317.883 316.098C 318.591 315.381 319.634 314.761 321.113 313.812C 323.646 312.186 328.979 308.989 329.589 302.578L 319.634 301.63C 319.551 302.502 318.988 303.294 315.712 305.396C 314.286 306.312 312.447 307.491 310.955 308.887C 309.285 310.491 307.66 312.818 307.481 316.047L 317.466 316.602ZM 329.589 302.578C 329.802 300.345 328.96 298.55 328.247 297.42C 327.587 296.409 326.694 295.399 326.071 294.747C 325.447 294.095 325.023 293.685 324.775 293.355C 324.446 292.937 325.103 293.548 325.103 294.82L 315.103 294.82C 315.103 297.132 316.356 298.827 316.915 299.537C 317.553 300.333 318.306 301.094 318.842 301.656C 319.379 302.218 319.629 302.465 319.79 302.755C 319.898 302.926 319.554 302.475 319.634 301.63L 329.589 302.578ZM 325.103 294.82C 325.103 296.1 324.378 296.683 324.625 296.437C 324.903 296.133 325.337 295.85 326.135 295.304C 326.933 294.758 328.018 294.022 328.951 293.221C 329.856 292.431 331.337 290.96 331.89 288.749L 322.189 286.323C 322.394 285.5 322.836 285.285 322.374 285.688C 321.943 286.079 321.336 286.471 320.487 287.052C 319.638 287.633 318.468 288.478 317.554 289.366C 316.608 290.311 315.103 292.152 315.103 294.82L 325.103 294.82ZM 331.89 288.749C 332.087 287.961 332.087 287.267 332.065 286.83C 332.041 286.45 331.978 285.962 331.928 285.673C 331.831 285.129 331.723 284.675 331.669 284.359C 331.611 284.036 331.637 284.038 331.626 284.201C 331.613 284.406 331.531 285.024 331.039 285.68L 323.039 279.68C 322.027 281.03 321.718 282.472 321.647 283.555C 321.61 284.459 321.721 285.526 321.824 286.117C 321.933 286.712 322.036 287.147 322.077 287.394C 322.149 287.805 321.97 287.199 322.189 286.323L 331.89 288.749ZM 331.039 285.68C 332.085 284.286 332.815 283.819 333.235 283.607C 333.791 283.27 334.407 283.207 335.677 282.883C 336.951 282.552 339.059 281.745 340.907 280.276C 342.733 278.706 344.181 276.512 345.474 273.626L 336.349 269.536C 335.388 271.679 334.69 272.434 334.386 272.695C 334.105 273.058 334.099 272.967 333.184 273.199C 332.265 273.439 330.616 273.788 328.739 274.675C 326.726 275.689 324.855 277.259 323.039 279.68L 331.039 285.68ZM 345.474 273.626C 346.634 271.038 345.885 268.537 345.374 267.227C 344.835 265.89 343.976 264.394 343.231 263.203C 342.489 262.02 341.757 260.922 341.169 259.903C 340.586 258.903 340.318 258.416 340.213 257.882L 330.512 260.307C 330.928 261.855 331.769 263.621 332.518 264.919C 333.263 266.199 334.086 267.442 334.757 268.513C 335.424 269.577 335.835 270.248 336.058 270.862C 336.308 271.503 335.811 270.737 336.349 269.536L 345.474 273.626ZM 340.363 259.095C 340.363 258.522 340.494 259.104 339.833 259.825C 339.2 260.514 338.535 260.56 338.756 260.526C 338.904 260.499 339.014 260.496 339.334 260.482C 339.653 260.467 340.08 260.455 340.539 260.424C 341.008 260.39 341.789 260.288 342.412 260.14C 343.15 259.951 344.135 259.589 345.076 258.837L 338.828 251.028C 339.72 250.315 340.536 250.4 339.843 250.449C 339.353 250.487 338.382 250.486 337.258 250.639C 336.048 250.823 334.061 251.323 332.464 253.064C 330.838 254.836 330.363 257.065 330.363 259.095L 340.363 259.095ZM 342.774 259.864C 344.423 259.589 346.039 258.999 347.403 257.892C 348.567 256.841 349.652 255.076 350.026 253.975C 350.667 251.89 350.42 249.074 350.42 249.036L 340.42 249.036C 340.421 249.394 340.435 249.765 340.445 250.048C 340.456 250.331 340.464 250.531 340.463 250.738C 340.463 251.142 340.426 251.171 340.468 251.034C 340.495 250.944 340.555 250.79 340.67 250.61C 340.789 250.425 340.937 250.26 341.096 250.131C 341.419 249.868 341.562 249.929 341.13 250L 342.774 259.864ZM 350.395 248.539C 350.243 247.479 350.585 247.127 350.397 247.374C 350.463 247.466 349.938 247.705 350.345 247.523C 350.764 247.276 351.281 247.15 352.266 246.866C 353.251 246.582 354.683 246.155 355.98 245.531L 351.507 236.587C 351.07 236.83 350.507 236.966 349.498 237.257C 348.489 237.547 347.013 238.006 345.697 238.669C 344.37 239.398 342.504 241.057 341.484 242.84C 340.444 244.884 340.209 247.176 340.445 249.533L 350.395 248.539ZM 355.98 245.531C 356.96 245.04 358.311 244.013 359.37 243.178C 360.588 242.217 362.091 240.964 363.508 239.716C 364.925 238.467 366.403 237.089 367.531 235.925C 368.11 235.325 368.718 234.647 369.153 234.101C 369.519 233.639 370.24 232.696 370.625 231.54L 361.138 228.378C 361.35 227.743 361.616 227.511 361.311 227.896C 361.076 228.197 360.797 228.504 360.342 228.974C 359.399 229.951 358.212 231.055 356.897 232.213C 354.27 234.53 351.083 236.77 351.507 236.587L 355.98 245.531ZM 370.847 230.544C 371.275 226.91 370.881 224.416 370.059 222.322C 369.699 221.431 369.359 220.791 369.192 220.429C 369.025 220.077 369.125 220.193 369.097 220.234L 359.198 221.648C 359.399 222.821 359.834 224.017 360.133 224.663C 360.432 225.297 360.634 225.655 360.751 225.978C 360.882 226.311 361.182 227.113 360.916 229.375L 370.847 230.544ZM 368.763 219.019C 368.255 217.799 368.229 216.827 368.331 216.16C 368.446 215.408 368.711 215.092 368.638 215.177L 361.045 208.67C 358.576 211.551 357.088 216.997 359.532 222.864L 368.763 219.019ZM 368.638 215.177C 368.197 215.692 367.797 215.441 369.102 215.404C 369.681 215.384 370.378 215.416 371.173 215.411C 371.825 215.406 373.275 215.392 374.675 214.831L 370.961 205.547C 371.494 205.334 371.773 205.406 371.092 205.412C 370.554 205.418 369.755 205.384 368.817 205.408C 367.088 205.457 363.566 205.727 361.045 208.67L 368.638 215.177ZM 377.625 211.563C 378.533 208.387 377.126 205.263 376.64 204.118C 376.306 203.331 376.018 202.713 375.833 202.218C 375.623 201.664 375.737 201.772 375.737 202.212L 365.737 202.212C 365.737 203.692 366.198 205.014 366.486 205.771C 366.799 206.587 367.162 207.379 367.435 208.023C 367.708 208.667 367.845 208.986 367.915 209.344C 367.978 209.611 367.86 209.343 368.01 208.816L 377.625 211.563ZM 375.318 204.216C 375.757 203.211 376.122 202.735 376.311 202.535C 376.44 202.385 376.348 202.463 376.469 202.392C 376.545 202.328 376.377 202.416 376.481 202.384C 376.615 202.297 376.504 202.341 376.946 202.332C 377.371 202.312 377.94 202.353 378.714 202.356L 378.714 192.356C 378.297 192.356 375.47 192.083 372.969 193.021C 369.951 194.153 367.731 196.607 366.156 200.208L 375.318 204.216ZM 379.649 202.268C 382.08 201.804 384.132 200.948 385.806 199.623C 387.299 198.359 388.52 196.601 389.103 195.429C 389.675 194.231 390 193.254 390.281 192.66C 390.54 192.075 390.575 192.293 390.454 192.284L 384.314 184.391C 382.875 185.614 381.713 187.376 381.191 188.492C 380.692 189.6 380.411 190.466 380.115 191.045C 379.832 191.65 379.925 191.605 379.598 191.783C 379.451 191.9 378.989 192.214 377.778 192.444L 379.649 202.268ZM 390.29 192.406C 392.751 190.648 394.977 188.995 396.6 187.528C 398.064 186.197 400.159 184.06 400.639 181.182L 390.775 179.538C 390.908 178.741 391.27 178.859 389.873 180.129C 388.634 181.264 386.872 182.559 384.477 184.269L 390.29 192.406ZM 400.486 181.831C 401.345 178.849 401.399 175.36 401.262 172.962C 401.191 171.745 401.092 170.677 401.037 169.872C 400.967 168.852 401.026 168.857 400.957 169.201L 391.151 167.24C 390.909 168.451 391.011 169.844 391.06 170.558C 391.125 171.487 391.22 172.5 391.279 173.538C 391.403 175.649 391.456 177.362 390.928 178.89L 400.486 181.831ZM 399.924 171.387C 402.727 167.925 404.248 166.677 407.151 164.75L 401.604 156.43C 398.264 158.665 395.624 160.886 392.184 165.055L 399.924 171.387ZM 406.806 164.961C 414.68 160.585 416.843 154.846 417.329 149.988L 407.379 148.994C 407.246 150.421 407.117 151.246 406.315 152.426C 405.664 153.487 404.444 154.833 401.949 156.219L 406.806 164.961ZM 417.329 149.988C 417.612 147.011 417.44 143.427 417.505 140.178C 417.568 136.823 417.881 134.219 418.669 132.418L 409.507 128.411C 407.867 132.159 407.573 136.493 407.506 139.988C 407.441 143.589 407.615 146.769 407.379 148.994L 417.329 149.988ZM 418.517 132.734C 419.674 130.525 422.212 128.733 425.792 126.604C 427.465 125.608 429.311 124.543 430.801 123.433C 432.159 122.41 434.458 120.456 434.973 117.362L 425.109 115.719C 425.278 114.706 425.886 114.616 424.784 115.446C 423.813 116.19 422.43 116.968 420.678 118.01C 417.408 119.956 412.316 123.02 409.659 128.095L 418.517 132.734ZM 435.041 116.541C 435.041 112.359 435.572 110.614 435.947 109.598C 436.342 108.441 437.269 106.666 437.469 103.36L 427.469 103.36C 427.668 103.87 427.381 104.003 426.563 106.141C 425.724 108.419 425.041 111.357 425.041 116.541L 435.041 116.541ZM 437.454 102.977C 437.071 99.6247 435.626 96.8806 434.715 95.4212C 434.253 94.6823 434 94.3195 433.883 94.0363C 433.816 93.8925 434.053 94.329 433.95 95.0494L 424.051 93.6353C 423.922 95.2286 424.359 97.2215 424.812 98.247C 425.259 99.1776 425.829 100.072 426.234 100.721C 427.057 102.036 427.52 102.587 427.483 103.744L 437.454 102.977ZM 433.692 96.0707C 434.415 94.1103 435.379 93.4014 436.266 92.9136C 436.85 92.5807 437.525 92.3226 438.337 91.9452C 438.899 91.6824 440.816 90.8412 441.958 88.9371L 433.383 83.7926C 434.005 82.7557 434.882 82.5214 434.1 82.8873C 433.568 83.1386 432.596 83.5308 431.446 84.1517C 428.865 85.5716 426.014 87.9843 424.309 92.614L 433.692 96.0707ZM 439.641 90.9605C 442.218 89.8557 443.198 87.592 443.595 86.5099C 443.978 85.4321 444.213 84.3863 444.472 83.5927C 444.893 82.2713 445.411 81.2324 447.035 80.3301L 442.179 71.5888C 437.56 74.1549 435.824 77.7985 434.945 80.5526C 434.554 81.7967 434.377 82.6368 434.207 83.0657C 434.051 83.4902 434.337 82.3538 435.701 81.7692L 439.641 90.9605ZM 444.901 80.9508C 446.89 80.824 449.306 80.9932 451.632 81.0307C 452.815 81.0482 454.186 81.0159 455.284 80.8769C 456.222 80.7509 458.331 80.4049 459.934 78.8011L 452.863 71.7304C 453.773 70.8204 454.636 70.874 453.953 70.9659C 453.429 71.0446 452.802 71.0482 451.786 71.0319C 449.715 71.0016 446.929 70.824 444.313 70.9681L 444.901 80.9508ZM 461.234 76.5381C 462.301 72.4834 462.193 69.1483 461.284 66.35C 460.333 63.728 458.872 61.8571 458.222 61.0434L 450.413 67.2899C 451.15 68.2105 451.597 68.5941 451.773 69.4405C 451.991 70.1107 452.23 71.4581 451.563 73.9934L 461.234 76.5381ZM 457.441 60.2625C 457.627 60.3978 456.972 59.8172 456.384 59.188C 455.791 58.5528 455.05 57.7427 454.255 56.9461C 453.459 56.1513 452.393 55.1893 451.403 54.477C 450.393 53.7615 448.853 52.8516 446.961 52.6152L 445.721 62.538C 445.217 62.4749 445.15 62.3022 445.624 62.6381C 446.12 62.9771 446.55 63.3808 447.184 64.0168C 447.82 64.6509 448.444 65.3365 449.075 66.0129C 449.713 66.6952 450.513 67.5124 451.194 68.0708L 457.441 60.2625ZM 448.097 52.895C 446.352 52.2407 444.207 52.2568 442.777 52.3028C 441.12 52.358 439.115 52.533 437.097 52.7304C 433.071 53.1245 428.719 53.6251 425.186 53.6171L 425.186 63.6171C 429.282 63.6092 434.121 63.0692 438.071 62.6829C 440.041 62.49 441.721 62.3399 443.099 62.2976C 444.704 62.246 444.943 62.3922 444.585 62.2582L 448.097 52.895ZM 425.186 53.6171C 422.6 53.6281 419.685 54.0058 416.969 54.3507C 414.252 54.6957 411.706 55.0136 409.233 55.0045L 409.233 65.0045C 412.308 64.9954 415.484 64.6196 418.229 64.271C 420.976 63.9221 423.263 63.6061 425.186 63.6171L 425.186 53.6171ZM 408.849 55.0192C 404.532 55.355 398.673 55.355 394.357 55.0192L 393.59 64.9898C 398.29 65.3477 404.916 65.3477 409.616 64.9898L 408.849 55.0192ZM 396.973 56.0047C 396.692 55.7937 396.513 55.6466 396.4 55.5464C 396.285 55.4443 396.29 55.4352 396.35 55.5093C 396.416 55.5912 396.561 55.7914 396.693 56.1062C 396.831 56.438 396.912 56.7984 396.929 57.1535C 396.946 57.4893 396.902 57.7281 396.88 57.8236C 396.861 57.9091 396.854 57.9012 396.912 57.7567C 396.968 57.6142 397.059 57.4088 397.207 57.0998C 397.359 56.7829 397.535 56.4307 397.752 55.9971L 388.807 51.5254C 388.374 52.3925 387.936 53.2776 387.621 54.058C 387.294 54.8798 386.867 56.1518 386.942 57.6528C 387.114 61.1011 389.717 63.062 390.973 64.0043L 396.973 56.0047ZM 396.572 57.524C 399.76 54.6902 401.546 52.2378 402.658 50.3612C 403.794 48.4195 404.3 47.1915 405.473 45.8281L 397.733 39.4962C 395.785 41.9482 394.903 43.8418 394.045 45.2818C 393.163 46.7869 392.348 47.9765 389.987 49.9986L 396.572 57.524ZM 405.635 45.6188C 407.182 43.4543 409.318 41.655 411.688 39.5488C 413.898 37.5835 416.785 35.0203 418.49 31.8523L 409.685 27.1117C 408.963 28.4527 407.515 29.8782 405.044 32.0751C 402.731 34.131 399.838 36.6673 397.571 39.7056L 405.635 45.6188ZM 418.813 31.1174C 420.175 27.1819 421.285 26.3163 421.45 26.1881C 421.574 26.0519 421.88 25.9301 422.521 25.5271C 422.916 25.2615 423.797 24.4804 424.341 23.7671C 424.802 22.9794 425.277 21.4067 425.33 20.464L 415.33 20.464C 415.33 19.8609 415.488 19.0129 416.039 18.1919C 416.508 17.4946 417.04 17.1633 417.066 17.1459C 417.107 17.1046 416.356 17.5208 415.31 18.295C 413.134 19.9877 411.122 22.7641 409.363 27.8466L 418.813 31.1174ZM 423.866 16.9286C 424.86 17.9225 425.329 19.3592 425.136 20.7388C 425.019 21.5691 424.669 22.1262 424.82 21.8387C 424.97 21.5496 425.582 20.4086 425.992 18.8604C 426.763 15.3883 425.707 11.4403 422.384 6.55353L 414.115 12.1762C 416.688 15.9606 416.152 17.0419 416.23 16.6914C 416.166 16.6787 416.254 16.6469 415.971 17.1816C 415.905 17.3059 415.392 18.2099 415.233 19.3491C 414.996 21.0376 415.541 22.7453 416.795 23.9993L 423.866 16.9286ZM 422.384 6.55353C 421.524 5.29974 419.334 2.70592 417.221 0.538094C 416.159 -0.547495 414.936 -1.70482 413.895 -2.5583C 413.347 -3.0031 412.652 -3.5095 412.1 -3.8513C 411.564 -4.17867 410.58 -4.72883 409.361 -4.93195L 407.717 4.93195C 407.018 4.81554 406.684 4.55803 406.891 4.68454C 407.083 4.79662 407.226 4.90534 407.576 5.19217C 408.329 5.80194 409.138 6.57396 410.067 7.5261C 411.935 9.43372 413.561 11.3489 414.115 12.1762L 422.384 6.55353ZM 408.539 -5L 0 -5L 0 5L 408.539 5L 408.539 -5Z"/>
<path id="path1_fill" d="M 42.7447 14.6353C 44.2415 10.0287 50.7585 10.0287 52.2553 14.6353L 57.0418 29.3668C 57.7112 31.4269 59.631 32.8217 61.7971 32.8217L 77.2868 32.8217C 82.1304 32.8217 84.1443 39.0198 80.2257 41.8668L 67.6943 50.9714C 65.9419 52.2446 65.2086 54.5014 65.878 56.5615L 70.6645 71.2931C 72.1613 75.8996 66.8889 79.7302 62.9703 76.8832L 50.4389 67.7786C 48.6865 66.5054 46.3135 66.5054 44.5611 67.7786L 32.0297 76.8832C 28.1111 79.7302 22.8387 75.8996 24.3355 71.2931L 29.122 56.5615C 29.7914 54.5014 29.0581 52.2446 27.3057 50.9714L 14.7743 41.8668C 10.8557 39.0198 12.8696 32.8217 17.7132 32.8217L 33.2029 32.8217C 35.369 32.8217 37.2888 31.4269 37.9582 29.3668L 42.7447 14.6353Z"/>
</defs>
</svg>
