<svg width="90" height="90" viewBox="0 0 90 90" version="1.1" xmlns="http://www.w3.org/2000/svg" xmlns:xlink="http://www.w3.org/1999/xlink">
<title>fb</title>
<desc>Created using Figma</desc>
<g id="Canvas" transform="translate(2086 2369)">
<g id="fb">
<g id="Group">
<g id="Facebook  x28 alt x29">
<use xlink:href="#path0_fill" transform="translate(-2086 -2369)" fill="#FFFFFF"/>
</g>
</g>
</g>
</g>
<defs>
<path id="path0_fill" d="M 90 15.001C 90 7.119 82.884 0 75 0L 15 0C 7.116 0 0 7.119 0 15.001L 0 74.999C 0 82.881 7.116 90 15.001 90L 45 90L 45 56L 34 56L 34 41L 45 41L 45 35.156C 45 25.077 52.568 16 61.875 16L 74 16L 74 31L 61.875 31C 60.548 31 59 32.611 59 35.024L 59 41L 74 41L 74 56L 59 56L 59 90L 75 90C 82.884 90 90 82.881 90 74.999L 90 15.001Z"/>
</defs>
</svg>
