<svg width="160" height="160" viewBox="0 0 160 160" version="1.1" xmlns="http://www.w3.org/2000/svg" xmlns:xlink="http://www.w3.org/1999/xlink">
<title>organizing-icon-b</title>
<desc>Created using Figma</desc>
<g id="Canvas" transform="translate(341 115)">
<g id="organizing-icon-b">
<g id="backing">
<g id="Rectangle 4">
<mask id="mask0_outline_ins">
<use xlink:href="#path0_fill" fill="white" transform="translate(-341 -115)"/>
</mask>
<g mask="url(#mask0_outline_ins)">
<use xlink:href="#path1_stroke_2x" transform="translate(-341 -115)" fill="#FFFFFF"/>
</g>
</g>
<g id="Ellipse 6">
<use xlink:href="#path2_fill" transform="translate(-324 -98)" fill="#FFFFFF"/>
<mask id="mask1_outline_ins">
<use xlink:href="#path2_fill" fill="white" transform="translate(-324 -98)"/>
</mask>
<g mask="url(#mask1_outline_ins)">
<use xlink:href="#path3_stroke_2x" transform="translate(-324 -98)"/>
</g>
</g>
</g>
<g id="clipboard">
<g id="lines">
<g id="Rectangle 5">
<use xlink:href="#path4_fill" transform="translate(-281.347 -54.7044)" fill="#1C1C1C"/>
</g>
<g id="Rectangle 5">
<use xlink:href="#path4_fill" transform="translate(-281.347 -46.3063)" fill="#1C1C1C"/>
</g>
<g id="Rectangle 5">
<use xlink:href="#path4_fill" transform="translate(-281.347 -37.9081)" fill="#1C1C1C"/>
</g>
<g id="Rectangle 5">
<use xlink:href="#path4_fill" transform="translate(-281.347 -29.5099)" fill="#1C1C1C"/>
</g>
<g id="Rectangle 5">
<use xlink:href="#path4_fill" transform="translate(-281.347 -21.1117)" fill="#1C1C1C"/>
</g>
<g id="Rectangle 5">
<use xlink:href="#path4_fill" transform="translate(-281.347 -12.7136)" fill="#1C1C1C"/>
</g>
</g>
<g id="Subtract">
<use xlink:href="#path5_fill" transform="translate(-292 -65.2021)" fill="#1C1C1C"/>
<mask id="mask2_outline_ins">
<use xlink:href="#path5_fill" fill="white" transform="translate(-292 -65.2021)"/>
</mask>
<g mask="url(#mask2_outline_ins)">
<use xlink:href="#path6_stroke_2x" transform="translate(-292 -65.2021)" fill="#1C1C1C"/>
</g>
</g>
<g id="Ellipse 2">
<use xlink:href="#path7_fill" transform="translate(-253.67 -20.1885)" fill="#FFFFFF"/>
</g>
<g id="clip">
<g id="Union">
<use xlink:href="#path8_fill" transform="translate(-276.323 -75)" fill="#FFFFFF"/>
<mask id="mask3_outline_out">
<rect id="mask3_outline_inv" fill="white" x="-3" y="-2" width="32" height="21" transform="translate(-276.323 -75)"/>
<use xlink:href="#path8_fill" fill="black" transform="translate(-276.323 -75)"/>
</mask>
<g mask="url(#mask3_outline_out)">
<use xlink:href="#path9_stroke_2x" transform="translate(-276.323 -75)" fill="#1C1C1C"/>
</g>
</g>
<g id="Ellipse">
<use xlink:href="#path10_fill" transform="translate(-265.601 -72.3173)" fill="#1C1C1C"/>
</g>
</g>
</g>
<g id="button">
<g id="head">
<g id="Ellipse 3">
<use xlink:href="#path11_fill" transform="translate(-243.167 -5.20883)"/>
</g>
<g id="Ellipse 5">
<use xlink:href="#path12_fill" transform="translate(-240.726 -2.36849)" fill="#FFFFFF"/>
</g>
<g id="Ellipse 5">
<use xlink:href="#path13_fill" transform="translate(-235.842 -2.36849)" fill="#FFFFFF"/>
</g>
<g id="Ellipse 4">
<use xlink:href="#path14_fill" transform="translate(-239.809 1.22427)" fill="#FFFFFF"/>
</g>
</g>
<g id="Ellipse 2">
<use xlink:href="#path15_stroke" transform="translate(-254.562 -21.4393)"/>
</g>
<g id="Group">
<g id="Rectangle 5">
<use xlink:href="#path16_fill" transform="matrix(1 0 0 -1 -251.306 -1.1512)"/>
</g>
<g id="Rectangle 5">
<use xlink:href="#path16_fill" transform="matrix(1 0 0 -1 -251.306 1.28337)"/>
</g>
</g>
<g id="Group">
<g id="Rectangle 5">
<use xlink:href="#path16_fill" transform="matrix(1 0 0 -1 -229.331 -1.1512)"/>
</g>
<g id="Rectangle 5">
<use xlink:href="#path16_fill" transform="matrix(1 0 0 -1 -229.331 1.28337)"/>
</g>
</g>
<g id="Group">
<g id="e">
<use xlink:href="#path17_fill" transform="matrix(0.978911 0.204289 -0.205425 0.978673 -232.153 -18.4395)"/>
</g>
<g id="v">
<use xlink:href="#path18_fill" transform="matrix(0.941217 -0.337802 0.339538 0.940592 -252.53 -17.1013)"/>
</g>
<g id="O">
<use xlink:href="#path19_fill" transform="matrix(0.996433 -0.0843822 0.0848686 0.996392 -244.795 -18.4554)"/>
</g>
<g id="t">
<use xlink:href="#path20_fill" transform="matrix(0.989923 0.141605 -0.14241 0.989808 -236.555 -22.2509)"/>
</g>
<g id="!">
<use xlink:href="#path21_fill" transform="matrix(0.956441 0.291927 -0.293476 0.955966 -226.671 -16.5702)"/>
</g>
</g>
</g>
</g>
</g>
<defs>
<path id="path0_fill" d="M 0 0L 160 0L 160 160L 0 160L 0 0Z"/>
<path id="path1_stroke_2x" d="M 0 0L 0 -1L -1 -1L -1 0L 0 0ZM 160 0L 161 0L 161 -1L 160 -1L 160 0ZM 160 160L 160 161L 161 161L 161 160L 160 160ZM 0 160L -1 160L -1 161L 0 161L 0 160ZM 0 1L 160 1L 160 -1L 0 -1L 0 1ZM 159 0L 159 160L 161 160L 161 0L 159 0ZM 160 159L 0 159L 0 161L 160 161L 160 159ZM 1 160L 1 0L -1 0L -1 160L 1 160Z"/>
<path id="path2_fill" d="M 125 62.5C 125 97.0178 97.0178 125 62.5 125C 27.9822 125 0 97.0178 0 62.5C 0 27.9822 27.9822 0 62.5 0C 97.0178 0 125 27.9822 125 62.5Z"/>
<path id="path3_stroke_2x" d="M 122 62.5C 122 95.3609 95.3609 122 62.5 122L 62.5 128C 98.6747 128 128 98.6747 128 62.5L 122 62.5ZM 62.5 122C 29.6391 122 3 95.3609 3 62.5L -3 62.5C -3 98.6747 26.3253 128 62.5 128L 62.5 122ZM 3 62.5C 3 29.6391 29.6391 3 62.5 3L 62.5 -3C 26.3253 -3 -3 26.3253 -3 62.5L 3 62.5ZM 62.5 3C 95.3609 3 122 29.6391 122 62.5L 128 62.5C 128 26.3253 98.6747 -3 62.5 -3L 62.5 3Z"/>
<path id="path4_fill" d="M 0 1.74962C 0 0.783331 0.783331 0 1.74962 0L 33.76 0C 34.7263 0 35.5096 0.783331 35.5096 1.74962L 35.5096 1.74962C 35.5096 2.71591 34.7263 3.49924 33.76 3.49924L 1.74962 3.49924C 0.783331 3.49924 0 2.71591 0 1.74962L 0 1.74962Z"/>
<path id="path5_fill" fill-rule="evenodd" d="M 0 4C 0 1.79086 1.79086 0 4 0L 53.5255 0C 55.7347 0 57.5255 1.79086 57.5255 4L 57.5255 44.2417C 55.9824 43.6019 54.3084 43.2077 52.5542 43.1088L 52.5542 8.89893C 52.5542 6.6898 50.7633 4.89893 48.5542 4.89893L 8.97134 4.89893C 6.76221 4.89893 4.97134 6.6898 4.97134 8.89893L 4.97134 56.7529C 4.97134 58.9621 6.76221 60.7529 8.97134 60.7529L 36.8707 60.7529C 37.2809 62.8551 38.1412 64.7997 39.349 66.4855L 4 66.4855C 1.79086 66.4855 0 64.6947 0 62.4855L 0 4Z"/>
<path id="path6_stroke_2x" d="M 57.5255 44.2417L 55.9935 47.9367L 61.5255 50.2304L 61.5255 44.2417L 57.5255 44.2417ZM 52.5542 43.1088L 48.5542 43.1088L 48.5542 46.8896L 52.329 47.1024L 52.5542 43.1088ZM 36.8707 60.7529L 40.7967 59.9869L 40.1656 56.7529L 36.8707 56.7529L 36.8707 60.7529ZM 39.349 66.4855L 39.349 70.4855L 47.1355 70.4855L 42.6006 64.1559L 39.349 66.4855ZM 4 -4C -0.418276 -4 -4 -0.418276 -4 4L 4 4L 4 -4ZM 53.5255 -4L 4 -4L 4 4L 53.5255 4L 53.5255 -4ZM 61.5255 4C 61.5255 -0.418276 57.9438 -4 53.5255 -4L 53.5255 4L 61.5255 4ZM 61.5255 44.2417L 61.5255 4L 53.5255 4L 53.5255 44.2417L 61.5255 44.2417ZM 52.329 47.1024C 53.7352 47.1664 54.7539 47.4086 55.9935 47.9367L 59.0576 40.5467C 57.2109 39.7952 54.8817 39.249 52.7793 39.1151L 52.329 47.1024ZM 56.5542 43.1088L 56.5542 8.89893L 48.5542 8.89893L 48.5542 43.1088L 56.5542 43.1088ZM 56.5542 8.89893C 56.5542 4.48066 52.9725 0.898933 48.5542 0.898933L 48.5542 8.89893L 56.5542 8.89893ZM 48.5542 0.898933L 8.97134 0.898933L 8.97134 8.89893L 48.5542 8.89893L 48.5542 0.898933ZM 8.97134 0.898933C 4.55307 0.898933 0.971344 4.48066 0.971344 8.89893L 8.97134 8.89893L 8.97134 0.898933ZM 0.971344 8.89893L 0.971344 56.7529L 8.97134 56.7529L 8.97134 8.89893L 0.971344 8.89893ZM 0.971344 56.7529C 0.971344 61.1712 4.55307 64.7529 8.97134 64.7529L 8.97134 56.7529L 0.971344 56.7529ZM 8.97134 64.7529L 36.8707 64.7529L 36.8707 56.7529L 8.97134 56.7529L 8.97134 64.7529ZM 42.6006 64.1559C 41.6142 62.8153 41.0967 61.6555 40.7967 59.9869L 32.9447 61.519C 33.465 64.0548 34.6681 66.7841 36.0974 68.8152L 42.6006 64.1559ZM 4 70.4855L 39.349 70.4855L 39.349 62.4855L 4 62.4855L 4 70.4855ZM -4 62.4855C -4 66.9038 -0.418275 70.4855 4 70.4855L 4 62.4855L -4 62.4855ZM -4 4L -4 62.4855L 4 62.4855L 4 4L -4 4Z"/>
<path id="path7_fill" d="M 20.8233 13.647C 20.8233 21.8484 20.6291 22.745 12.301 22.745C 1.957 22.2834 -0.891561 25.5295 0.22774 14.85C 0.22774 6.64857 6.97897 0 15.307 0C 23.6351 0 20.8233 5.4456 20.8233 13.647Z"/>
<path id="path8_fill" fill-rule="evenodd" d="M 15.813 6.89851C 16.5157 6.1659 16.9466 5.17664 16.9466 4.088C 16.9466 1.83026 15.093 0 12.8064 0C 10.5198 0 8.66613 1.83026 8.66613 4.088C 8.66613 5.17664 9.09709 6.1659 9.79979 6.89851L 3.7611 6.89851C 1.89406 6.89851 0.312152 8.27349 0.0520816 10.1223C -0.391797 13.2778 2.05815 16.0965 5.24471 16.0965L 20.4119 16.0965C 23.8387 16.0965 26.4733 13.0653 25.996 9.67197C 25.7723 8.08141 24.4113 6.89851 22.8051 6.89851L 15.813 6.89851Z"/>
<path id="path9_stroke_2x" d="M 15.813 6.89851L 14.3696 5.51406L 11.1233 8.89851L 15.813 8.89851L 15.813 6.89851ZM 9.79979 6.89851L 9.79979 8.89851L 14.4894 8.89851L 11.2432 5.51406L 9.79979 6.89851ZM 0.0520816 10.1223L 2.03258 10.4009L 2.03258 10.4009L 0.0520816 10.1223ZM 25.996 9.67197L 24.0155 9.95055L 24.0155 9.95056L 25.996 9.67197ZM 14.9466 4.088C 14.9466 4.63694 14.7319 5.13639 14.3696 5.51406L 17.2563 8.28295C 18.2995 7.19541 18.9466 5.71635 18.9466 4.088L 14.9466 4.088ZM 12.8064 2C 14.0124 2 14.9466 2.95871 14.9466 4.088L 18.9466 4.088C 18.9466 0.701813 16.1735 -2 12.8064 -2L 12.8064 2ZM 10.6661 4.088C 10.6661 2.95871 11.6003 2 12.8064 2L 12.8064 -2C 9.43926 -2 6.66613 0.701813 6.66613 4.088L 10.6661 4.088ZM 11.2432 5.51406C 10.8809 5.13639 10.6661 4.63694 10.6661 4.088L 6.66613 4.088C 6.66613 5.71635 7.31328 7.19541 8.35642 8.28295L 11.2432 5.51406ZM 3.7611 8.89851L 9.79979 8.89851L 9.79979 4.89851L 3.7611 4.89851L 3.7611 8.89851ZM 2.03258 10.4009C 2.15379 9.53928 2.89101 8.89851 3.7611 8.89851L 3.7611 4.89851C 0.897112 4.89851 -1.52948 7.0077 -1.92842 9.84373L 2.03258 10.4009ZM 5.24471 14.0965C 3.27352 14.0965 1.758 12.3529 2.03258 10.4009L -1.92842 9.84373C -2.5416 14.2027 0.842789 18.0965 5.24471 18.0965L 5.24471 14.0965ZM 20.4119 14.0965L 5.24471 14.0965L 5.24471 18.0965L 20.4119 18.0965L 20.4119 14.0965ZM 24.0155 9.95056C 24.3235 12.1404 22.6233 14.0965 20.4119 14.0965L 20.4119 18.0965C 25.054 18.0965 28.6231 13.9903 27.9765 9.39339L 24.0155 9.95056ZM 22.8051 8.89851C 23.4144 8.89851 23.9306 9.34722 24.0155 9.95055L 27.9765 9.3934C 27.6139 6.81561 25.4082 4.89851 22.8051 4.89851L 22.8051 8.89851ZM 15.813 8.89851L 22.8051 8.89851L 22.8051 4.89851L 15.813 4.89851L 15.813 8.89851Z"/>
<path id="path10_fill" d="M 4.0519 2.01206C 4.0519 3.12329 3.14485 4.02412 2.02595 4.02412C 0.907048 4.02412 0 3.12329 0 2.01206C 0 0.90083 0.907048 0 2.02595 0C 3.14485 0 4.0519 0.90083 4.0519 2.01206Z"/>
<path id="path11_fill" d="M 7.82666 11.885C 7.3608 13.7419 7.54034 12.6848 6.17327 12.6848C 5.56549 12.6848 5.20642 13.5657 5.04588 11.885C -2.83302 8.27435 -0.732717 0 6.17327 0C 13.0793 0 14.6241 8.27435 7.82666 11.885Z"/>
<path id="path12_fill" d="M 2.44163 1.21729C 2.44163 1.88958 1.89505 2.43458 1.22082 2.43458C 0.546578 2.43458 0 1.88958 0 1.21729C 0 0.544998 0.546578 0 1.22082 0C 1.89505 0 2.44163 0.544998 2.44163 1.21729Z"/>
<path id="path13_fill" d="M 2.44163 1.21729C 2.44163 1.88958 1.89505 2.43458 1.22082 2.43458C 0.546578 2.43458 0 1.88958 0 1.21729C 0 0.544998 0.546578 0 1.22082 0C 1.89505 0 2.44163 0.544998 2.44163 1.21729Z"/>
<path id="path14_fill" d="M 5.59761 0.384982C 5.59761 1.89531 4.34454 3.11968 2.79881 3.11968C 1.25307 3.11968 0 1.89531 0 0.384982C 0 -0.752424 0.710752 0.992689 2.79881 0.992689C 4.78014 0.992689 5.59761 -0.752425 5.59761 0.384982Z"/>
<path id="path15_stroke" d="M 33.5617 17.2197C 33.5617 26.1742 26.2758 33.4393 17.2808 33.4393L 17.2808 35.4393C 27.3737 35.4393 35.5617 27.2855 35.5617 17.2197L 33.5617 17.2197ZM 17.2808 33.4393C 8.28583 33.4393 1 26.1742 1 17.2197L -1 17.2197C -1 27.2855 7.18796 35.4393 17.2808 35.4393L 17.2808 33.4393ZM 1 17.2197C 1 8.26513 8.28583 1 17.2808 1L 17.2808 -1C 7.18796 -1 -1 7.15388 -1 17.2197L 1 17.2197ZM 17.2808 1C 26.2758 1 33.5617 8.26513 33.5617 17.2197L 35.5617 17.2197C 35.5617 7.15388 27.3737 -1 17.2808 -1L 17.2808 1Z"/>
<path id="path16_fill" d="M 0 0.811525C 0 0.363332 0.363332 0 0.811525 0L 5.69949 0C 6.14769 0 6.51102 0.363332 6.51102 0.811525L 6.51102 0.811525C 6.51102 1.25972 6.14769 1.62305 5.69949 1.62305L 0.811525 1.62305C 0.363332 1.62305 0 1.25972 0 0.811525L 0 0.811525Z"/>
<path id="path17_fill" d="M 2.76 9.22C 2.864 9.564 3.036 9.844 3.276 10.06C 3.516 10.276 3.848 10.384 4.272 10.384C 4.4 10.384 4.536 10.376 4.68 10.36C 4.832 10.336 4.98 10.308 5.124 10.276C 5.268 10.236 5.404 10.196 5.532 10.156C 5.66 10.108 5.772 10.064 5.868 10.024C 5.884 10.256 5.892 10.504 5.892 10.768C 5.9 11.024 5.904 11.28 5.904 11.536C 5.904 11.96 5.892 12.34 5.868 12.676C 5.244 12.98 4.544 13.132 3.768 13.132C 3.408 13.132 3.044 13.092 2.676 13.012C 2.308 12.932 1.952 12.78 1.608 12.556C 1.304 12.356 1.052 12.124 0.852 11.86C 0.66 11.588 0.508 11.312 0.396 11.032C 0.284 10.744 0.208 10.464 0.168 10.192C 0.128 9.92 0.108 9.676 0.108 9.46C 0.108 9.14 0.144 8.808 0.216 8.464C 0.296 8.112 0.416 7.78 0.576 7.468C 0.736 7.148 0.94 6.856 1.188 6.592C 1.436 6.328 1.728 6.12 2.064 5.968C 2.472 5.784 2.904 5.692 3.36 5.692C 3.84 5.692 4.272 5.788 4.656 5.98C 5.04 6.172 5.352 6.436 5.592 6.772C 5.824 7.092 5.968 7.448 6.024 7.84C 6.088 8.232 6.12 8.692 6.12 9.22L 2.76 9.22ZM 3.444 6.988C 3.276 6.988 3.116 7.06 2.964 7.204C 2.812 7.34 2.712 7.584 2.664 7.936L 4.236 7.936C 4.204 7.616 4.108 7.38 3.948 7.228C 3.796 7.068 3.628 6.988 3.444 6.988Z"/>
<path id="path18_fill" d="M 6.87 7.03L 4.845 16L 2.01 16L -0.045 7.03L 2.19 7.03L 3.06 11.8C 3.09 11.98 3.135 12.13 3.195 12.25C 3.265 12.37 3.35 12.43 3.45 12.43C 3.62 12.43 3.745 12.22 3.825 11.8L 4.635 7.03L 6.87 7.03Z"/>
<path id="path19_fill" d="M 3.648 3.04C 4.84 3.04 5.72 3.464 6.288 4.312C 6.856 5.16 7.14 6.392 7.14 8.008C 7.14 9.648 6.86 10.912 6.3 11.8C 5.748 12.688 4.864 13.132 3.648 13.132C 3.048 13.132 2.528 13.02 2.088 12.796C 1.648 12.564 1.284 12.232 0.996 11.8C 0.708 11.36 0.496 10.824 0.36 10.192C 0.224 9.552 0.156 8.824 0.156 8.008C 0.156 6.368 0.44 5.132 1.008 4.3C 1.576 3.46 2.456 3.04 3.648 3.04ZM 3.648 10.036C 3.904 10.036 4.128 9.98 4.32 9.868C 4.52 9.748 4.684 9.588 4.812 9.388C 4.94 9.18 5.036 8.936 5.1 8.656C 5.164 8.368 5.196 8.052 5.196 7.708C 5.196 7.364 5.164 7.048 5.1 6.76C 5.036 6.464 4.94 6.208 4.812 5.992C 4.684 5.776 4.52 5.608 4.32 5.488C 4.128 5.368 3.904 5.308 3.648 5.308C 3.392 5.308 3.168 5.372 2.976 5.5C 2.792 5.62 2.632 5.788 2.496 6.004C 2.368 6.22 2.272 6.476 2.208 6.772C 2.144 7.06 2.112 7.372 2.112 7.708C 2.112 8.052 2.144 8.368 2.208 8.656C 2.272 8.936 2.368 9.18 2.496 9.388C 2.632 9.588 2.792 9.748 2.976 9.868C 3.168 9.98 3.392 10.036 3.648 10.036Z"/>
<path id="path20_fill" d="M 1.275 5.862L 3.604 5.862L 3.604 7.834L 4.913 7.834L 4.913 12.356L 3.57 12.356L 3.57 14.736C 3.57 15.2007 3.60967 15.5123 3.689 15.671C 3.76833 15.8183 3.94967 15.892 4.233 15.892C 4.31233 15.892 4.42 15.8863 4.556 15.875C 4.692 15.8637 4.794 15.8467 4.862 15.824C 4.88467 15.9033 4.896 16.0677 4.896 16.317C 4.896 16.555 4.896 16.7987 4.896 17.048C 4.896 17.2633 4.896 17.4617 4.896 17.643C 4.896 17.813 4.89033 17.932 4.879 18C 4.743 18.0227 4.59 18.0397 4.42 18.051C 4.26133 18.0737 4.10267 18.0907 3.944 18.102C 3.79667 18.1133 3.655 18.119 3.519 18.119C 3.39433 18.1303 3.29233 18.136 3.213 18.136C 2.805 18.136 2.47067 18.0567 2.21 17.898C 1.94933 17.7393 1.74533 17.5297 1.598 17.269C 1.45067 16.997 1.34867 16.6967 1.292 16.368C 1.23533 16.028 1.207 15.6823 1.207 15.331C 1.207 15.195 1.207 14.9967 1.207 14.736C 1.21833 14.464 1.224 14.1807 1.224 13.886C 1.23533 13.5913 1.24667 13.308 1.258 13.036C 1.26933 12.7527 1.275 12.526 1.275 12.356L 0.255 12.356L 0.255 7.834L 1.275 7.834L 1.275 5.862Z"/>
<path id="path21_fill" d="M 3.346 3.464L 2.66 10.758L 0.966 10.758L 0.966 3.226L 3.346 3.464ZM 1.68 12.144C 1.91333 12.144 2.11867 12.1907 2.296 12.284C 2.48267 12.3773 2.63667 12.4987 2.758 12.648C 2.88867 12.788 2.98667 12.9467 3.052 13.124C 3.11733 13.292 3.15 13.4553 3.15 13.614C 3.15 13.8193 3.108 14.0153 3.024 14.202C 2.94933 14.3887 2.842 14.552 2.702 14.692C 2.57133 14.832 2.41267 14.944 2.226 15.028C 2.04867 15.112 1.862 15.154 1.666 15.154C 1.414 15.154 1.19467 15.112 1.008 15.028C 0.821333 14.9533 0.667333 14.8507 0.546 14.72C 0.424667 14.58 0.331333 14.426 0.266 14.258C 0.21 14.09 0.182 13.9173 0.182 13.74C 0.182 13.5533 0.214667 13.3667 0.28 13.18C 0.345333 12.984 0.438667 12.8113 0.56 12.662C 0.690667 12.5033 0.849333 12.3773 1.036 12.284C 1.22267 12.1907 1.43733 12.144 1.68 12.144Z"/>
</defs>
</svg>
