<svg width="160" height="160" viewBox="0 0 160 160" version="1.1" xmlns="http://www.w3.org/2000/svg" xmlns:xlink="http://www.w3.org/1999/xlink">
<title>people-icon-b</title>
<desc>Created using Figma</desc>
<g id="Canvas" transform="translate(186 287)">
<g id="people-icon-b">
<g id="Rectangle">
<mask id="mask0_outline_ins">
<use xlink:href="#path0_fill" fill="white" transform="translate(-186 -287)"/>
</mask>
<g mask="url(#mask0_outline_ins)">
<use xlink:href="#path1_stroke_2x" transform="translate(-186 -287)" fill="#FFFFFF"/>
</g>
</g>
<g id="Ellipse">
<use xlink:href="#path2_fill" transform="translate(-169 -270)" fill="#FFFFFF"/>
<mask id="mask1_outline_ins">
<use xlink:href="#path2_fill" fill="white" transform="translate(-169 -270)"/>
</mask>
<g mask="url(#mask1_outline_ins)">
<use xlink:href="#path3_stroke_2x" transform="translate(-169 -270)"/>
</g>
</g>
<g id="Group">
<g id="Group">
<g id="Union">
<mask id="mask2_outline_ins">
<use xlink:href="#path4_fill" fill="white" transform="matrix(0.973542 -0.228506 -0.23483 -0.972036 -143.048 -171.513)"/>
</mask>
<g mask="url(#mask2_outline_ins)">
<use xlink:href="#path5_stroke_2x" transform="matrix(0.973542 -0.228506 -0.23483 -0.972036 -143.048 -171.513)"/>
</g>
</g>
<g id="Ellipse 2">
<mask id="mask3_outline_ins">
<use xlink:href="#path6_fill" fill="white" transform="matrix(0.973542 -0.228506 0.23483 0.972036 -152.994 -221.457)"/>
</mask>
<g mask="url(#mask3_outline_ins)">
<use xlink:href="#path7_stroke_2x" transform="matrix(0.973542 -0.228506 0.23483 0.972036 -152.994 -221.457)"/>
</g>
</g>
</g>
<g id="Group">
<g id="Union">
<mask id="mask4_outline_ins">
<use xlink:href="#path8_fill" fill="white" transform="matrix(0.973559 0.228436 0.234758 -0.972054 -91.6103 -177.066)"/>
</mask>
<g mask="url(#mask4_outline_ins)">
<use xlink:href="#path9_stroke_2x" transform="matrix(0.973559 0.228436 0.234758 -0.972054 -91.6103 -177.066)"/>
</g>
</g>
<g id="Ellipse 2">
<mask id="mask5_outline_ins">
<use xlink:href="#path10_fill" fill="white" transform="matrix(0.973559 0.228436 -0.234758 0.972054 -77.6556 -226.069)"/>
</mask>
<g mask="url(#mask5_outline_ins)">
<use xlink:href="#path11_stroke_2x" transform="matrix(0.973559 0.228436 -0.234758 0.972054 -77.6556 -226.069)"/>
</g>
</g>
</g>
<g id="Group">
<g id="Union">
<use xlink:href="#path12_fill" transform="matrix(0.98572 -0.168391 -0.173173 -0.984891 -132.906 -169.763)"/>
<mask id="mask6_outline_ins">
<use xlink:href="#path12_fill" fill="white" transform="matrix(0.98572 -0.168391 -0.173173 -0.984891 -132.906 -169.763)"/>
</mask>
<g mask="url(#mask6_outline_ins)">
<use xlink:href="#path13_stroke_2x" transform="matrix(0.98572 -0.168391 -0.173173 -0.984891 -132.906 -169.763)"/>
</g>
</g>
<g id="Ellipse 2">
<use xlink:href="#path14_fill" transform="matrix(0.98572 -0.168391 0.173173 0.984891 -141.202 -231.236)"/>
<mask id="mask7_outline_ins">
<use xlink:href="#path14_fill" fill="white" transform="matrix(0.98572 -0.168391 0.173173 0.984891 -141.202 -231.236)"/>
</mask>
<g mask="url(#mask7_outline_ins)">
<use xlink:href="#path15_stroke_2x" transform="matrix(0.98572 -0.168391 0.173173 0.984891 -141.202 -231.236)"/>
</g>
</g>
</g>
<g id="Group">
<g id="Union">
<use xlink:href="#path16_fill" transform="matrix(0.985727 0.16835 0.173132 -0.984899 -107.087 -174.677)"/>
<mask id="mask8_outline_ins">
<use xlink:href="#path16_fill" fill="white" transform="matrix(0.985727 0.16835 0.173132 -0.984899 -107.087 -174.677)"/>
</mask>
<g mask="url(#mask8_outline_ins)">
<use xlink:href="#path17_stroke_2x" transform="matrix(0.985727 0.16835 0.173132 -0.984899 -107.087 -174.677)"/>
</g>
</g>
<g id="Ellipse 2">
<use xlink:href="#path18_fill" transform="matrix(0.985727 0.16835 -0.173132 0.984899 -93.9141 -235.318)"/>
<mask id="mask9_outline_ins">
<use xlink:href="#path18_fill" fill="white" transform="matrix(0.985727 0.16835 -0.173132 0.984899 -93.9141 -235.318)"/>
</mask>
<g mask="url(#mask9_outline_ins)">
<use xlink:href="#path19_stroke_2x" transform="matrix(0.985727 0.16835 -0.173132 0.984899 -93.9141 -235.318)"/>
</g>
</g>
</g>
<g id="Rectangle 2">
<use xlink:href="#path20_fill" transform="matrix(1 0 0 -1 -124.703 -164.627)" fill="#FFFFFF"/>
</g>
<g id="Rectangle 2">
<mask id="mask10_outline_ins">
<use xlink:href="#path21_fill" fill="white" transform="matrix(1 0 0 -1 -125.536 -164)"/>
</mask>
<g mask="url(#mask10_outline_ins)">
<use xlink:href="#path22_stroke_2x" transform="matrix(1 0 0 -1 -125.536 -164)"/>
</g>
</g>
<g id="Ellipse 2">
<use xlink:href="#path23_fill" transform="translate(-121.264 -248)" fill="#FFFFFF"/>
</g>
<g id="Ellipse 2">
<mask id="mask11_outline_ins">
<use xlink:href="#path24_fill" fill="white" transform="translate(-122.238 -248)"/>
</mask>
<g mask="url(#mask11_outline_ins)">
<use xlink:href="#path25_stroke_2x" transform="translate(-122.238 -248)"/>
</g>
</g>
</g>
</g>
</g>
<defs>
<path id="path0_fill" d="M 0 0L 160 0L 160 160L 0 160L 0 0Z"/>
<path id="path1_stroke_2x" d="M 0 0L 0 -1L -1 -1L -1 0L 0 0ZM 160 0L 161 0L 161 -1L 160 -1L 160 0ZM 160 160L 160 161L 161 161L 161 160L 160 160ZM 0 160L -1 160L -1 161L 0 161L 0 160ZM 0 1L 160 1L 160 -1L 0 -1L 0 1ZM 159 0L 159 160L 161 160L 161 0L 159 0ZM 160 159L 0 159L 0 161L 160 161L 160 159ZM 1 160L 1 0L -1 0L -1 160L 1 160Z"/>
<path id="path2_fill" d="M 125 62.5C 125 97.0178 97.0178 125 62.5 125C 27.9822 125 0 97.0178 0 62.5C 0 27.9822 27.9822 0 62.5 0C 97.0178 0 125 27.9822 125 62.5Z"/>
<path id="path3_stroke_2x" d="M 122 62.5C 122 95.3609 95.3609 122 62.5 122L 62.5 128C 98.6747 128 128 98.6747 128 62.5L 122 62.5ZM 62.5 122C 29.6391 122 3 95.3609 3 62.5L -3 62.5C -3 98.6747 26.3253 128 62.5 128L 62.5 122ZM 3 62.5C 3 29.6391 29.6391 3 62.5 3L 62.5 -3C 26.3253 -3 -3 26.3253 -3 62.5L 3 62.5ZM 62.5 3C 95.3609 3 122 29.6391 122 62.5L 128 62.5C 128 26.3253 98.6747 -3 62.5 -3L 62.5 3Z"/>
<path id="path4_fill" d="M 2.06095 7.92762C 4.09761 2.68309 6.18706 0.821706 12.1078 -1.09012e-05C 17.4225 0.480627 19.7183 2.06894 22.2438 7.92762C 22.2438 7.92762 26.8809 20.0671 22.2438 25.0784C 17.0144 30.7297 7.29034 30.7297 2.06095 25.0784C -2.5762 20.0671 2.06095 7.92762 2.06095 7.92762Z"/>
<path id="path5_stroke_2x" d="M 2.06095 7.92762L 0.196571 7.2036L 0.192625 7.21394L 2.06095 7.92762ZM 12.1078 -1.09012e-05L 12.2879 -1.99188L 12.0598 -2.01252L 11.8329 -1.98102L 12.1078 -1.09012e-05ZM 22.2438 7.92762L 24.1121 7.21394L 24.0971 7.17459L 24.0804 7.1359L 22.2438 7.92762ZM 22.2438 25.0784L 20.7758 23.72L 20.7758 23.72L 22.2438 25.0784ZM 2.06095 25.0784L 3.52891 23.72L 3.52891 23.72L 2.06095 25.0784ZM 3.92531 8.65162C 4.90261 6.13501 5.77725 4.75425 6.88348 3.86197C 7.98509 2.97343 9.56269 2.37239 12.3827 1.981L 11.8329 -1.98102C 8.73217 -1.55069 6.30468 -0.810178 4.37221 0.748531C 2.44438 2.3035 1.25596 4.4757 0.1966 7.20362L 3.92531 8.65162ZM 11.9277 1.99186C 14.4375 2.21884 15.8935 2.68358 17.0061 3.53518C 18.149 4.41004 19.1873 5.88955 20.4072 8.71933L 24.0804 7.1359C 22.7747 4.10701 21.4024 1.86302 19.4374 0.358896C 17.442 -1.16849 15.0928 -1.73823 12.2879 -1.99188L 11.9277 1.99186ZM 22.2438 7.92762C 20.3754 8.6413 20.3753 8.64092 20.3752 8.64058C 20.3752 8.64053 20.375 8.64024 20.375 8.64013C 20.375 8.64005 20.3749 8.6399 20.375 8.64005C 20.3753 8.64094 20.3755 8.64139 20.3761 8.64315C 20.3779 8.64781 20.3798 8.65297 20.3833 8.66212C 20.391 8.68279 20.4009 8.70967 20.4155 8.74967C 20.4464 8.83454 20.4881 8.9509 20.5431 9.11053C 20.6566 9.44003 20.8066 9.89355 20.9791 10.4736C 21.3316 11.656 21.735 13.2013 22.0073 14.9365C 22.2857 16.6837 22.4179 18.397 22.2138 20.0501C 22.0247 21.6541 21.5447 22.8891 20.7758 23.72L 23.7117 26.4367C 25.2614 24.762 25.9408 22.6004 26.1863 20.5187C 26.4169 18.4863 26.2593 16.2251 25.9581 14.311C 25.6508 12.3849 25.1847 10.5822 24.8127 9.33183C 24.6229 8.6955 24.4468 8.16147 24.3249 7.80752C 24.2621 7.62542 24.2087 7.47608 24.1739 7.38068C 24.1557 7.33055 24.1402 7.28865 24.1306 7.26307C 24.1254 7.2491 24.1208 7.23677 24.1181 7.22973C 24.1165 7.22563 24.115 7.22167 24.1143 7.21961C 24.1138 7.2183 24.1132 7.21687 24.113 7.21621C 24.1128 7.21574 24.1126 7.21517 24.1125 7.21494C 24.1123 7.21441 24.1121 7.21394 22.2438 7.92762ZM 20.7758 23.72C 16.3381 28.5158 7.96664 28.5158 3.52891 23.72L 0.593002 26.4367C 6.61404 32.9436 17.6907 32.9436 23.7117 26.4367L 20.7758 23.72ZM 3.52891 23.72C 2.76001 22.8891 2.28008 21.6541 2.09088 20.0501C 1.88679 18.397 2.01901 16.6837 2.29742 14.9365C 2.56974 13.2013 2.97317 11.656 3.32565 10.4736C 3.49818 9.89355 3.6481 9.44003 3.76167 9.11053C 3.81663 8.9509 3.85831 8.83454 3.88923 8.74967C 3.90379 8.70967 3.91375 8.68279 3.92147 8.66212C 3.92489 8.65297 3.92683 8.64781 3.92859 8.64315C 3.92925 8.64139 3.92942 8.64094 3.92976 8.64005C 3.92982 8.6399 3.92976 8.64005 3.92973 8.64013C 3.92969 8.64024 3.92958 8.64053 3.92956 8.64058C 3.92943 8.64092 3.92928 8.6413 2.06095 7.92762C 0.192625 7.21394 0.192443 7.21441 0.192243 7.21494C 0.192153 7.21517 0.191936 7.21574 0.191756 7.21621C 0.191505 7.21687 0.190964 7.2183 0.190464 7.21961C 0.189683 7.22167 0.188182 7.22563 0.186632 7.22973C 0.183974 7.23677 0.179333 7.2491 0.174117 7.26307C 0.16457 7.28865 0.149057 7.33055 0.13079 7.38068C 0.0960483 7.47608 0.0426279 7.62542 -0.0201514 7.80752C -0.142059 8.16147 -0.318192 8.6955 -0.507937 9.33183C -0.880016 10.5822 -1.34606 12.3849 -1.65338 14.311C -1.95461 16.2251 -2.11221 18.4863 -1.88158 20.5187C -1.63604 22.6004 -0.956684 24.762 0.593003 26.4367L 3.52891 23.72Z"/>
<path id="path6_fill" d="M 20.1828 9.68129C 20.1828 15.0281 15.6647 19.3626 10.0914 19.3626C 4.51808 19.3626 0 15.0281 0 9.68129C 0 4.33446 4.51808 0 10.0914 0C 15.6647 0 20.1828 4.33446 20.1828 9.68129Z"/>
<path id="path7_stroke_2x" d="M 18.1828 9.68129C 18.1828 13.8461 14.6392 17.3626 10.0914 17.3626L 10.0914 21.3626C 16.6903 21.3626 22.1828 16.2101 22.1828 9.68129L 18.1828 9.68129ZM 10.0914 17.3626C 5.54363 17.3626 2 13.8461 2 9.68129L -2 9.68129C -2 16.2101 3.49253 21.3626 10.0914 21.3626L 10.0914 17.3626ZM 2 9.68129C 2 5.51642 5.54363 2 10.0914 2L 10.0914 -2C 3.49253 -2 -2 3.1525 -2 9.68129L 2 9.68129ZM 10.0914 2C 14.6392 2 18.1828 5.51642 18.1828 9.68129L 22.1828 9.68129C 22.1828 3.1525 16.6903 -2 10.0914 -2L 10.0914 2Z"/>
<path id="path8_fill" d="M 2.06096 7.92761C 4.09761 2.68309 6.18706 0.821704 12.1078 -1.26443e-05C 17.4225 0.480625 19.7183 2.06893 22.2438 7.92761C 22.2438 7.92761 26.8809 20.0671 22.2438 25.0784C 17.0144 30.7297 7.29034 30.7297 2.06096 25.0784C -2.5762 20.0671 2.06096 7.92761 2.06096 7.92761Z"/>
<path id="path9_stroke_2x" d="M 2.06096 7.92761L 0.196572 7.2036L 0.192626 7.21393L 2.06096 7.92761ZM 12.1078 -1.26443e-05L 12.2879 -1.99188L 12.0598 -2.01252L 11.8329 -1.98102L 12.1078 -1.26443e-05ZM 22.2438 7.92761L 24.1121 7.21393L 24.0971 7.17458L 24.0804 7.1359L 22.2438 7.92761ZM 22.2438 25.0784L 23.7117 26.4367L 23.7117 26.4367L 22.2438 25.0784ZM 2.06096 25.0784L 0.593004 26.4367L 0.593004 26.4367L 2.06096 25.0784ZM 3.92531 8.65162C 4.90261 6.135 5.77725 4.75425 6.88348 3.86197C 7.98509 2.97342 9.56269 2.37238 12.3827 1.981L 11.8329 -1.98102C 8.73217 -1.55069 6.30468 -0.810181 4.37221 0.748528C 2.44438 2.3035 1.25596 4.4757 0.1966 7.20361L 3.92531 8.65162ZM 11.9277 1.99186C 14.4375 2.21884 15.8936 2.68358 17.0061 3.53518C 18.149 4.41003 19.1873 5.88955 20.4072 8.71933L 24.0804 7.1359C 22.7747 4.107 21.4024 1.86302 19.4374 0.358892C 17.442 -1.16849 15.0928 -1.73823 12.2879 -1.99188L 11.9277 1.99186ZM 22.2438 7.92761C 20.3755 8.6413 20.3753 8.64091 20.3752 8.64058C 20.3752 8.64052 20.375 8.64023 20.375 8.64013C 20.375 8.64005 20.3749 8.63989 20.375 8.64005C 20.3753 8.64094 20.3755 8.64139 20.3762 8.64314C 20.3779 8.64781 20.3799 8.65296 20.3833 8.66212C 20.391 8.68278 20.4009 8.70966 20.4155 8.74967C 20.4464 8.83453 20.4881 8.9509 20.5431 9.11052C 20.6566 9.44003 20.8066 9.89354 20.9791 10.4736C 21.3316 11.656 21.735 13.2013 22.0073 14.9365C 22.2857 16.6837 22.418 18.397 22.2139 20.0501C 22.0247 21.6541 21.5447 22.8891 20.7758 23.72L 23.7117 26.4367C 25.2614 24.762 25.9408 22.6003 26.1863 20.5187C 26.417 18.4863 26.2594 16.2251 25.9581 14.311C 25.6508 12.3849 25.1848 10.5822 24.8127 9.33182C 24.6229 8.69549 24.4468 8.16146 24.3249 7.80751C 24.2621 7.62541 24.2087 7.47607 24.174 7.38067C 24.1557 7.33054 24.1402 7.28864 24.1306 7.26306C 24.1254 7.2491 24.1208 7.23676 24.1181 7.22972C 24.1166 7.22562 24.1151 7.22166 24.1143 7.2196C 24.1138 7.21829 24.1132 7.21687 24.113 7.21621C 24.1128 7.21574 24.1126 7.21516 24.1125 7.21493C 24.1123 7.21441 24.1121 7.21393 22.2438 7.92761ZM 20.7758 23.72C 16.3381 28.5158 7.96664 28.5158 3.52891 23.72L 0.593004 26.4367C 6.61405 32.9436 17.6907 32.9436 23.7117 26.4367L 20.7758 23.72ZM 3.52891 23.72C 2.76001 22.8891 2.28008 21.6541 2.09088 20.0501C 1.88679 18.397 2.01901 16.6837 2.29742 14.9365C 2.56974 13.2013 2.97317 11.656 3.32565 10.4736C 3.49818 9.89354 3.6481 9.44003 3.76167 9.11052C 3.81663 8.9509 3.85831 8.83453 3.88923 8.74967C 3.90379 8.70966 3.91375 8.68278 3.92147 8.66212C 3.92489 8.65296 3.92683 8.64781 3.92859 8.64314C 3.92925 8.64139 3.92942 8.64094 3.92976 8.64005C 3.92982 8.63989 3.92976 8.64005 3.92973 8.64013C 3.92969 8.64023 3.92958 8.64052 3.92956 8.64058C 3.92943 8.64091 3.92928 8.6413 2.06096 7.92761C 0.192626 7.21393 0.192444 7.21441 0.192244 7.21493C 0.192154 7.21516 0.191936 7.21574 0.191756 7.21621C 0.191506 7.21687 0.190964 7.21829 0.190464 7.2196C 0.189684 7.22166 0.188182 7.22562 0.186633 7.22972C 0.183974 7.23676 0.179334 7.2491 0.174117 7.26306C 0.164571 7.28864 0.149058 7.33054 0.130791 7.38067C 0.0960489 7.47607 0.0426285 7.62541 -0.0201508 7.80751C -0.142059 8.16146 -0.318191 8.69549 -0.507937 9.33182C -0.880016 10.5822 -1.34606 12.3849 -1.65338 14.311C -1.95461 16.2251 -2.11221 18.4863 -1.88158 20.5187C -1.63604 22.6003 -0.956684 24.762 0.593004 26.4367L 3.52891 23.72Z"/>
<path id="path10_fill" d="M 20.1828 9.68128C 20.1828 15.0281 15.6647 19.3626 10.0914 19.3626C 4.51808 19.3626 0 15.0281 0 9.68128C 0 4.33446 4.51808 0 10.0914 0C 15.6647 0 20.1828 4.33446 20.1828 9.68128Z"/>
<path id="path11_stroke_2x" d="M 18.1828 9.68128C 18.1828 13.8461 14.6392 17.3626 10.0914 17.3626L 10.0914 21.3626C 16.6903 21.3626 22.1828 16.2101 22.1828 9.68128L 18.1828 9.68128ZM 10.0914 17.3626C 5.54363 17.3626 2 13.8461 2 9.68128L -2 9.68128C -2 16.2101 3.49253 21.3626 10.0914 21.3626L 10.0914 17.3626ZM 2 9.68128C 2 5.51642 5.54363 2 10.0914 2L 10.0914 -2C 3.49253 -2 -2 3.15249 -2 9.68128L 2 9.68128ZM 10.0914 2C 14.6392 2 18.1828 5.51642 18.1828 9.68128L 22.1828 9.68128C 22.1828 3.15249 16.6903 -2 10.0914 -2L 10.0914 2Z"/>
<path id="path12_fill" d="M 2.4752 9.65614C 4.92121 3.26812 7.43062 1.00088 14.5414 0C 20.9243 0.585435 23.6815 2.52005 26.7146 9.65614C 26.7146 9.65614 32.2838 24.4424 26.7146 30.5464C 20.4342 37.4299 8.75565 37.4299 2.4752 30.5464C -3.094 24.4424 2.4752 9.65614 2.4752 9.65614Z"/>
<path id="path13_stroke_2x" d="M 2.4752 9.65614L -0.326442 8.58338L -0.329377 8.59105L -0.33227 8.59873L 2.4752 9.65614ZM 26.7146 9.65614L 29.5221 8.59873L 29.5 8.54019L 29.4756 8.48263L 26.7146 9.65614ZM 26.7146 30.5464L 24.4984 28.5244L 26.7146 30.5464ZM 2.4752 30.5464L 4.69137 28.5244L 2.4752 30.5464ZM 14.5414 0L 14.8154 -2.98746L 14.4683 -3.01929L 14.1232 -2.97072L 14.5414 0ZM 26.7146 9.65614C 23.9072 10.7136 23.9069 10.713 23.9067 10.7125C 23.9067 10.7124 23.9065 10.7119 23.9064 10.7117C 23.9064 10.7117 23.9062 10.7111 23.9062 10.7111C 23.9066 10.712 23.9066 10.7121 23.9073 10.7139C 23.9093 10.7193 23.9113 10.7246 23.9151 10.7351C 23.9242 10.7596 23.9354 10.7904 23.9524 10.8377C 23.989 10.9397 24.0375 11.077 24.1025 11.2684C 24.2378 11.6665 24.4144 12.2082 24.6193 12.9072C 25.0401 14.3383 25.5165 16.1866 25.839 18.275C 26.1704 20.3813 26.3259 22.3966 26.0842 24.3606C 25.864 26.2544 25.3126 27.632 24.4984 28.5244L 28.9308 32.5684C 30.9012 30.4088 31.7422 27.6491 32.044 25.0538C 32.3245 22.5286 32.1319 19.7029 31.7672 17.3496C 31.3935 14.9784 30.8257 12.7486 30.3762 11.2166C 30.1461 10.434 29.9311 9.7728 29.7836 9.33841C 29.7072 9.1136 29.6415 8.92728 29.5992 8.80966C 29.5768 8.74724 29.5574 8.69419 29.5457 8.66238C 29.5392 8.64472 29.5333 8.62873 29.53 8.61984C 29.528 8.61453 29.526 8.60923 29.525 8.60657C 29.5244 8.60481 29.5236 8.60285 29.5233 8.60197C 29.5231 8.60131 29.5228 8.6005 29.5226 8.60017C 29.5224 8.59942 29.5221 8.59873 26.7146 9.65614ZM 24.4984 28.5244C 19.4077 34.1039 9.7821 34.1039 4.69137 28.5244L 0.259018 32.5684C 7.72921 40.7559 21.4606 40.7559 28.9308 32.5684L 24.4984 28.5244ZM 4.69137 28.5244C 3.8772 27.632 3.32587 26.2544 3.10561 24.3606C 2.86391 22.3966 3.01944 20.3813 3.35085 18.275C 3.67337 16.1866 4.14972 14.3383 4.57048 12.9072C 4.77543 12.2082 4.95203 11.6665 5.08733 11.2684C 5.1523 11.077 5.20081 10.9397 5.23744 10.8377C 5.25444 10.7904 5.26567 10.7596 5.27469 10.7351C 5.27856 10.7246 5.28053 10.7193 5.28253 10.7139C 5.28321 10.7121 5.28324 10.712 5.28358 10.7111C 5.2836 10.7111 5.28338 10.7117 5.28337 10.7117C 5.2833 10.7119 5.28312 10.7124 5.28308 10.7125C 5.28288 10.713 5.28266 10.7136 2.4752 9.65614C -0.33227 8.59873 -0.332532 8.59942 -0.332815 8.60017C -0.332938 8.6005 -0.333243 8.60131 -0.333488 8.60197C -0.333819 8.60285 -0.334556 8.60481 -0.335215 8.60657C -0.336211 8.60923 -0.338191 8.61453 -0.34017 8.61984C -0.343481 8.62873 -0.349411 8.64472 -0.355915 8.66238C -0.367622 8.69419 -0.386988 8.74724 -0.409417 8.80966C -0.451646 8.92728 -0.517355 9.1136 -0.593784 9.33841C -0.741293 9.7728 -0.956276 10.434 -1.18642 11.2166C -1.63585 12.7486 -2.20372 14.9784 -2.57735 17.3496C -2.94209 19.7029 -3.13464 22.5286 -2.85422 25.0538C -2.55237 27.6491 -1.7114 30.4088 0.259018 32.5684L 4.69137 28.5244ZM 5.27683 10.7289C 6.44079 7.68912 7.44852 6.11975 8.65852 5.12993C 9.8565 4.14993 11.6198 3.44081 14.9595 2.97072L 14.1232 -2.97072C 10.3522 -2.43992 7.30541 -1.51499 4.85949 0.485858C 2.4256 2.47688 0.955617 5.23514 -0.326442 8.58338L 5.27683 10.7289ZM 14.2674 2.98746C 17.2322 3.25939 18.842 3.80777 20.0445 4.74131C 21.2978 5.71426 22.4989 7.40701 23.9537 10.8297L 29.4756 8.48263C 27.8972 4.76919 26.2032 1.92659 23.7238 0.00184327C 21.1938 -1.96231 18.2335 -2.67396 14.8154 -2.98746L 14.2674 2.98746Z"/>
<path id="path14_fill" d="M 24.2394 11.7922C 24.2394 18.3048 18.8132 23.5843 12.1197 23.5843C 5.42618 23.5843 0 18.3048 0 11.7922C 0 5.27953 5.42618 0 12.1197 0C 18.8132 0 24.2394 5.27953 24.2394 11.7922Z"/>
<path id="path15_stroke_2x" d="M 21.2394 11.7922C 21.2394 16.571 17.2344 20.5843 12.1197 20.5843L 12.1197 26.5843C 20.3921 26.5843 27.2394 20.0386 27.2394 11.7922L 21.2394 11.7922ZM 12.1197 20.5843C 7.00502 20.5843 3 16.571 3 11.7922L -3 11.7922C -3 20.0386 3.84734 26.5843 12.1197 26.5843L 12.1197 20.5843ZM 3 11.7922C 3 7.01334 7.00502 3 12.1197 3L 12.1197 -3C 3.84734 -3 -3 3.54573 -3 11.7922L 3 11.7922ZM 12.1197 3C 17.2344 3 21.2394 7.01334 21.2394 11.7922L 27.2394 11.7922C 27.2394 3.54573 20.3921 -3 12.1197 -3L 12.1197 3Z"/>
<path id="path16_fill" d="M 2.4752 9.65614C 4.92121 3.26812 7.43062 1.00088 14.5414 0C 20.9243 0.585435 23.6815 2.52005 26.7146 9.65614C 26.7146 9.65614 32.2838 24.4424 26.7146 30.5464C 20.4342 37.4299 8.75565 37.4299 2.4752 30.5464C -3.094 24.4424 2.4752 9.65614 2.4752 9.65614Z"/>
<path id="path17_stroke_2x" d="M 2.4752 9.65614L -0.326441 8.58338L -0.329376 8.59104L -0.332269 8.59872L 2.4752 9.65614ZM 26.7146 9.65614L 29.5221 8.59872L 29.5001 8.54019L 29.4756 8.48263L 26.7146 9.65614ZM 26.7146 30.5464L 24.4985 28.5244L 24.4985 28.5244L 26.7146 30.5464ZM 2.4752 30.5464L 4.69137 28.5244L 4.69137 28.5244L 2.4752 30.5464ZM 14.5414 0L 14.8154 -2.98746L 14.4683 -3.01929L 14.1232 -2.97072L 14.5414 0ZM 26.7146 9.65614C 23.9072 10.7136 23.9069 10.713 23.9067 10.7124C 23.9067 10.7123 23.9065 10.7119 23.9065 10.7117C 23.9064 10.7116 23.9062 10.7111 23.9062 10.7111C 23.9066 10.712 23.9066 10.7121 23.9073 10.7139C 23.9093 10.7193 23.9113 10.7246 23.9151 10.7351C 23.9242 10.7596 23.9354 10.7903 23.9524 10.8377C 23.989 10.9397 24.0375 11.077 24.1025 11.2684C 24.2378 11.6665 24.4144 12.2082 24.6194 12.9072C 25.0401 14.3383 25.5165 16.1866 25.839 18.275C 26.1704 20.3813 26.3259 22.3966 26.0842 24.3606C 25.864 26.2544 25.3126 27.632 24.4985 28.5244L 28.9308 32.5684C 30.9012 30.4088 31.7422 27.6491 32.044 25.0538C 32.3245 22.5286 32.1319 19.7029 31.7672 17.3496C 31.3935 14.9784 30.8257 12.7486 30.3762 11.2166C 30.1461 10.434 29.9311 9.77279 29.7836 9.3384C 29.7072 9.11359 29.6415 8.92727 29.5992 8.80966C 29.5768 8.74724 29.5574 8.69419 29.5457 8.66237C 29.5392 8.64471 29.5333 8.62873 29.53 8.61983C 29.528 8.61452 29.526 8.60923 29.525 8.60656C 29.5244 8.60481 29.5236 8.60284 29.5233 8.60196C 29.5231 8.60131 29.5228 8.6005 29.5226 8.60017C 29.5224 8.59942 29.5221 8.59872 26.7146 9.65614ZM 24.4985 28.5244C 19.4077 34.1039 9.7821 34.1039 4.69137 28.5244L 0.259019 32.5684C 7.72921 40.7559 21.4606 40.7559 28.9308 32.5684L 24.4985 28.5244ZM 4.69137 28.5244C 3.8772 27.632 3.32587 26.2544 3.10561 24.3606C 2.86391 22.3966 3.01944 20.3813 3.35085 18.275C 3.67337 16.1866 4.14972 14.3383 4.57048 12.9072C 4.77543 12.2082 4.95203 11.6665 5.08733 11.2684C 5.15231 11.077 5.20081 10.9397 5.23744 10.8377C 5.25444 10.7903 5.26567 10.7596 5.2747 10.7351C 5.27856 10.7246 5.28053 10.7193 5.28253 10.7139C 5.28321 10.7121 5.28324 10.712 5.28358 10.7111C 5.2836 10.7111 5.28338 10.7116 5.28337 10.7117C 5.2833 10.7119 5.28312 10.7123 5.28308 10.7124C 5.28288 10.713 5.28266 10.7136 2.4752 9.65614C -0.332269 8.59872 -0.332531 8.59942 -0.332814 8.60017C -0.332937 8.6005 -0.333242 8.60131 -0.333487 8.60196C -0.333818 8.60284 -0.334555 8.60481 -0.335214 8.60656C -0.33621 8.60923 -0.33819 8.61452 -0.340169 8.61983C -0.34348 8.62873 -0.34941 8.64471 -0.355914 8.66237C -0.367621 8.69419 -0.386987 8.74724 -0.409416 8.80966C -0.451645 8.92727 -0.517354 9.11359 -0.593783 9.3384C -0.741292 9.77279 -0.956275 10.434 -1.18642 11.2166C -1.63585 12.7486 -2.20372 14.9784 -2.57735 17.3496C -2.94209 19.7029 -3.13464 22.5286 -2.85422 25.0538C -2.55237 27.6491 -1.7114 30.4088 0.25902 32.5684L 4.69137 28.5244ZM 5.27683 10.7289C 6.44079 7.68912 7.44852 6.11975 8.65852 5.12993C 9.85651 4.14993 11.6198 3.44081 14.9595 2.97072L 14.1232 -2.97072C 10.3522 -2.43992 7.30541 -1.51499 4.8595 0.485856C 2.4256 2.47688 0.955619 5.23514 -0.326441 8.58338L 5.27683 10.7289ZM 14.2674 2.98746C 17.2322 3.25939 18.842 3.80777 20.0445 4.74131C 21.2978 5.71426 22.4989 7.40701 23.9537 10.8297L 29.4756 8.48263C 27.8972 4.76918 26.2032 1.92658 23.7239 0.00184158C 21.1938 -1.96231 18.2335 -2.67396 14.8154 -2.98746L 14.2674 2.98746Z"/>
<path id="path18_fill" d="M 24.2394 11.7922C 24.2394 18.3048 18.8133 23.5843 12.1197 23.5843C 5.42618 23.5843 0 18.3048 0 11.7922C 0 5.27953 5.42618 0 12.1197 0C 18.8133 0 24.2394 5.27953 24.2394 11.7922Z"/>
<path id="path19_stroke_2x" d="M 21.2394 11.7922C 21.2394 16.571 17.2344 20.5843 12.1197 20.5843L 12.1197 26.5843C 20.3921 26.5843 27.2394 20.0386 27.2394 11.7922L 21.2394 11.7922ZM 12.1197 20.5843C 7.00502 20.5843 3 16.571 3 11.7922L -3 11.7922C -3 20.0386 3.84734 26.5843 12.1197 26.5843L 12.1197 20.5843ZM 3 11.7922C 3 7.01334 7.00502 3 12.1197 3L 12.1197 -3C 3.84734 -3 -3 3.54572 -3 11.7922L 3 11.7922ZM 12.1197 3C 17.2344 3 21.2394 7.01334 21.2394 11.7922L 27.2394 11.7922C 27.2394 3.54572 20.3921 -3 12.1197 -3L 12.1197 3Z"/>
<path id="path20_fill" fill-rule="evenodd" d="M 33.8154 40.5907C 41.2359 32.3199 33.5001 12.9284 33.5001 12.9284C 32.4855 10.5007 32.2347 8.51727 31.1841 6.89552C 30.9028 6.46137 30.9326 6.05314 30.6413 5.66925L 7.33135 5.66925C 7.02905 6.05428 6.73898 6.46251 6.45868 6.89552C 5.40276 8.5267 3.8281 10.5095 2.91734 12.9284C 2.91734 12.9284 -3.98162 32.162 3.43883 40.4328C 13.2127 49.5224 25.5089 48.2687 33.8154 40.5907Z"/>
<path id="path21_fill" d="M 35.5949 41.39C 43.0153 33.1192 35.5949 13.084 35.5949 13.084C 34.5802 10.6563 33.5887 8.67284 32.5381 7.05109C 29.4042 2.21357 25.7445 0.594092 19.3751 0C 13.2512 0.876585 9.68863 2.47004 7.0547 5.82482C 6.7524 6.20985 6.46233 6.61808 6.18203 7.05109C 5.12611 8.68227 4.20875 10.6651 3.29798 13.084C 3.29798 13.084 -4.12248 33.1192 3.29798 41.39C 11.6661 50.7171 27.2267 50.7171 35.5949 41.39Z"/>
<path id="path22_stroke_2x" d="M 35.5949 13.084L 37.4704 12.3893L 37.4561 12.3507L 37.4402 12.3127L 35.5949 13.084ZM 35.5949 41.39L 37.0835 42.7256L 37.0835 42.7256L 35.5949 41.39ZM 3.29798 41.39L 1.80931 42.7256L 1.80931 42.7256L 3.29798 41.39ZM 3.29798 13.084L 1.42624 12.3792L 1.42248 12.3893L 3.29798 13.084ZM 6.18203 7.05109L 4.5031 5.96426L 4.5031 5.96426L 6.18203 7.05109ZM 19.3751 0L 19.5608 -1.99136L 19.3256 -2.0133L 19.0917 -1.97982L 19.3751 0ZM 32.5381 7.05109L 30.8595 8.1385L 30.8595 8.1385L 32.5381 7.05109ZM 7.0547 5.82482L 8.62778 7.05989L 8.62779 7.05989L 7.0547 5.82482ZM 35.5949 13.084C 33.7194 13.7786 33.7193 13.7782 33.7192 13.778C 33.7192 13.778 33.7191 13.7778 33.7191 13.7778C 33.7192 13.7781 33.7192 13.7782 33.7195 13.7788C 33.7202 13.7807 33.7209 13.7826 33.7222 13.7863C 33.7253 13.7948 33.7293 13.8057 33.7354 13.8224C 33.7483 13.8582 33.766 13.9076 33.7906 13.977C 33.8413 14.1206 33.9118 14.3237 34.0023 14.5947C 34.1867 15.1467 34.4352 15.9223 34.7169 16.8986C 35.2873 18.8729 35.9534 21.5104 36.4007 24.4389C 36.8537 27.3792 37.0737 30.3933 36.7383 33.2507C 36.4166 36.0641 35.5819 38.4096 34.1062 40.0544L 37.0835 42.7256C 39.3181 40.235 40.3385 36.9746 40.7124 33.7052C 41.0727 30.4798 40.8289 26.9343 40.3544 23.832C 39.8741 20.7178 39.1489 17.8295 38.5599 15.7888C 38.2619 14.7576 37.9885 13.9033 37.7962 13.3273C 37.6983 13.0343 37.6166 12.7989 37.5623 12.645C 37.5342 12.5656 37.5112 12.5015 37.4965 12.4609C 37.4888 12.4395 37.4822 12.4215 37.4782 12.4107C 37.4761 12.4047 37.4741 12.3994 37.473 12.3964C 37.4723 12.3946 37.4717 12.3928 37.4713 12.3919C 37.4711 12.3913 37.4709 12.3907 37.4708 12.3904C 37.4706 12.3898 37.4704 12.3893 35.5949 13.084ZM 34.1062 40.0544C 26.5328 48.4956 12.36 48.4956 4.78665 40.0544L 1.80931 42.7256C 10.9722 52.9386 27.9206 52.9386 37.0835 42.7256L 34.1062 40.0544ZM 4.78665 40.0544C 3.31094 38.4096 2.47628 36.0641 2.15452 33.2507C 1.81917 30.3933 2.03912 27.3792 2.49216 24.4389C 2.93942 21.5104 3.60552 18.8729 4.17597 16.8986C 4.45767 15.9223 4.70612 15.1467 4.89058 14.5947C 4.98107 14.3237 5.05158 14.1206 5.10231 13.977C 5.12681 13.9076 5.14456 13.8582 5.1575 13.8224C 5.16355 13.8057 5.16753 13.7948 5.17065 13.7863C 5.172 13.7826 5.1727 13.7807 5.17338 13.7788C 5.17362 13.7782 5.17365 13.7781 5.17377 13.7778C 5.17377 13.7778 5.1737 13.778 5.17371 13.778C 5.17361 13.7782 5.17348 13.7786 3.29798 13.084C 1.42248 12.3893 1.4223 12.3898 1.42209 12.3904C 1.42198 12.3907 1.42174 12.3913 1.42152 12.3919C 1.42119 12.3928 1.42054 12.3946 1.41988 12.3964C 1.41878 12.3994 1.4168 12.4047 1.41461 12.4107C 1.41065 12.4215 1.4041 12.4395 1.39634 12.4609C 1.38166 12.5015 1.35864 12.5656 1.33061 12.645C 1.27626 12.7989 1.19459 13.0343 1.09668 13.3273C 0.904312 13.9033 0.631009 14.7576 0.332992 15.7888C -0.256007 17.8295 -0.981248 20.7178 -1.46154 23.832C -1.93606 26.9343 -2.17989 30.4798 -1.81957 33.7052C -1.44566 36.9746 -0.42521 40.235 1.80931 42.7256L 4.78665 40.0544ZM 5.1697 13.7887C 6.05342 11.4379 6.87751 9.64798 7.86096 8.13792L 4.5031 5.96426C 3.37471 7.71656 2.36408 9.8923 1.42626 12.3792L 5.1697 13.7887ZM 19.1894 1.99136C 22.2508 2.27303 24.3877 2.73153 26.2537 3.71202C 28.114 4.64822 29.4323 5.90975 30.8595 8.1385L 34.2167 5.96369C 32.5101 3.35491 30.4315 1.38794 28.0862 0.156495C 25.7464 -1.03065 22.8688 -1.67894 19.5608 -1.99136L 19.1894 1.99136ZM 30.8595 8.1385C 31.8523 9.66522 32.762 11.4895 33.7496 13.8552L 37.4402 12.3127C 36.3984 9.82301 35.3251 7.68046 34.2167 5.96369L 30.8595 8.1385ZM 7.86096 8.13792C 8.11736 7.74098 8.35458 7.40694 8.62778 7.05989L 5.48162 4.58974C 5.15023 5.01275 4.80731 5.49519 4.5031 5.96426L 7.86096 8.13792ZM 8.62779 7.05989C 10.8066 4.28473 13.7713 2.82252 19.6585 1.97982L 19.0917 -1.97982C 12.7311 -1.06935 8.57061 0.655364 5.48162 4.58974L 8.62779 7.05989Z"/>
<path id="path23_fill" fill-rule="evenodd" d="M 15.1338 31.0299C 24.0523 31.0299 30.2675 24.8028 30.2675 15.9782L 0 15.9782C 0 24.8028 6.21522 31.0299 15.1338 31.0299Z"/>
<path id="path24_fill" d="M 16.1484 31.9565C 25.067 31.9565 32.2969 24.8028 32.2969 15.9782C 32.2969 7.1537 25.067 0 16.1484 0C 7.2299 0 0 7.1537 0 15.9782C 0 24.8028 7.2299 31.9565 16.1484 31.9565Z"/>
<path id="path25_stroke_2x" d="M 30.2969 15.9782C 30.2969 23.6783 23.9824 29.9565 16.1484 29.9565L 16.1484 33.9565C 26.1515 33.9565 34.2969 25.9273 34.2969 15.9782L 30.2969 15.9782ZM 16.1484 29.9565C 8.31444 29.9565 2 23.6783 2 15.9782L -2 15.9782C -2 25.9273 6.14537 33.9565 16.1484 33.9565L 16.1484 29.9565ZM 2 15.9782C 2 8.2782 8.31444 2 16.1484 2L 16.1484 -2C 6.14537 -2 -2 6.0292 -2 15.9782L 2 15.9782ZM 16.1484 2C 23.9824 2 30.2969 8.2782 30.2969 15.9782L 34.2969 15.9782C 34.2969 6.0292 26.1515 -2 16.1484 -2L 16.1484 2Z"/>
</defs>
</svg>
