<svg width="160" height="160" viewBox="0 0 160 160" version="1.1" xmlns="http://www.w3.org/2000/svg" xmlns:xlink="http://www.w3.org/1999/xlink">
<title>people-icon-b</title>
<desc>Created using Figma</desc>
<g id="Canvas" transform="translate(186 287)">
<g id="people-icon-b">
<g id="Rectangle">
<mask id="mask0_outline_ins">
<use xlink:href="#path0_fill" fill="white" transform="translate(-186 -287)"/>
</mask>
<g mask="url(#mask0_outline_ins)">
<use xlink:href="#path1_stroke_2x" transform="translate(-186 -287)" fill="#FFFFFF"/>
</g>
</g>
<g id="Ellipse">
<use xlink:href="#path2_fill" transform="translate(-169 -270)" fill="#FFFFFF"/>
<mask id="mask1_outline_ins">
<use xlink:href="#path2_fill" fill="white" transform="translate(-169 -270)"/>
</mask>
<g mask="url(#mask1_outline_ins)">
<use xlink:href="#path3_stroke_2x" transform="translate(-169 -270)"/>
</g>
</g>
<g id="Group">
<g id="Group">
<g id="Union">
<mask id="mask2_outline_ins">
<use xlink:href="#path4_fill" fill="white" transform="matrix(0.973542 -0.228506 -0.23483 -0.972036 -143.048 -171.513)"/>
</mask>
<g mask="url(#mask2_outline_ins)">
<use xlink:href="#path5_stroke_2x" transform="matrix(0.973542 -0.228506 -0.23483 -0.972036 -143.048 -171.513)"/>
</g>
</g>
<g id="Ellipse 2">
<mask id="mask3_outline_ins">
<use xlink:href="#path6_fill" fill="white" transform="matrix(0.973542 -0.228506 0.23483 0.972036 -152.994 -221.457)"/>
</mask>
<g mask="url(#mask3_outline_ins)">
<use xlink:href="#path7_stroke_2x" transform="matrix(0.973542 -0.228506 0.23483 0.972036 -152.994 -221.457)"/>
</g>
</g>
</g>
<g id="Group">
<g id="Union">
<mask id="mask4_outline_ins">
<use xlink:href="#path8_fill" fill="white" transform="matrix(0.973559 0.228436 0.234758 -0.972054 -91.6103 -177.066)"/>
</mask>
<g mask="url(#mask4_outline_ins)">
<use xlink:href="#path9_stroke_2x" transform="matrix(0.973559 0.228436 0.234758 -0.972054 -91.6103 -177.066)"/>
</g>
</g>
<g id="Ellipse 2">
<mask id="mask5_outline_ins">
<use xlink:href="#path10_fill" fill="white" transform="matrix(0.973559 0.228436 -0.234758 0.972054 -77.6556 -226.069)"/>
</mask>
<g mask="url(#mask5_outline_ins)">
<use xlink:href="#path11_stroke_2x" transform="matrix(0.973559 0.228436 -0.234758 0.972054 -77.6556 -226.069)"/>
</g>
</g>
</g>
<g id="Group">
<g id="Union">
<use xlink:href="#path12_fill" transform="matrix(0.98572 -0.168391 -0.173173 -0.984891 -132.906 -169.763)"/>
<mask id="mask6_outline_ins">
<use xlink:href="#path12_fill" fill="white" transform="matrix(0.98572 -0.168391 -0.173173 -0.984891 -132.906 -169.763)"/>
</mask>
<g mask="url(#mask6_outline_ins)">
<use xlink:href="#path13_stroke_2x" transform="matrix(0.98572 -0.168391 -0.173173 -0.984891 -132.906 -169.763)"/>
</g>
</g>
<g id="Ellipse 2">
<use xlink:href="#path14_fill" transform="matrix(0.98572 -0.168391 0.173173 0.984891 -141.202 -231.236)"/>
<mask id="mask7_outline_ins">
<use xlink:href="#path14_fill" fill="white" transform="matrix(0.98572 -0.168391 0.173173 0.984891 -141.202 -231.236)"/>
</mask>
<g mask="url(#mask7_outline_ins)">
<use xlink:href="#path15_stroke_2x" transform="matrix(0.98572 -0.168391 0.173173 0.984891 -141.202 -231.236)"/>
</g>
</g>
</g>
<g id="Group">
<g id="Union">
<use xlink:href="#path16_fill" transform="matrix(0.985727 0.16835 0.173132 -0.984899 -107.087 -174.677)"/>
<mask id="mask8_outline_ins">
<use xlink:href="#path16_fill" fill="white" transform="matrix(0.985727 0.16835 0.173132 -0.984899 -107.087 -174.677)"/>
</mask>
<g mask="url(#mask8_outline_ins)">
<use xlink:href="#path17_stroke_2x" transform="matrix(0.985727 0.16835 0.173132 -0.984899 -107.087 -174.677)"/>
</g>
</g>
<g id="Ellipse 2">
<use xlink:href="#path18_fill" transform="matrix(0.985727 0.16835 -0.173132 0.984899 -93.9141 -235.318)"/>
<mask id="mask9_outline_ins">
<use xlink:href="#path18_fill" fill="white" transform="matrix(0.985727 0.16835 -0.173132 0.984899 -93.9141 -235.318)"/>
</mask>
<g mask="url(#mask9_outline_ins)">
<use xlink:href="#path19_stroke_2x" transform="matrix(0.985727 0.16835 -0.173132 0.984899 -93.9141 -235.318)"/>
</g>
</g>
</g>
<g id="Rectangle 2">
<use xlink:href="#path20_fill" transform="matrix(1 0 0 -1 -124.703 -164.627)" fill="#FFFFFF"/>
</g>
<g id="Rectangle 2">
<mask id="mask10_outline_ins">
<use xlink:href="#path21_fill" fill="white" transform="matrix(1 0 0 -1 -125.536 -164)"/>
</mask>
<g mask="url(#mask10_outline_ins)">
<use xlink:href="#path22_stroke_2x" transform="matrix(1 0 0 -1 -125.536 -164)"/>
</g>
</g>
<g id="Ellipse 2">
<use xlink:href="#path23_fill" transform="translate(-121.264 -248)" fill="#FFFFFF"/>
</g>
<g id="Ellipse 2">
<mask id="mask11_outline_ins">
<use xlink:href="#path24_fill" fill="white" transform="translate(-122.238 -248)"/>
</mask>
<g mask="url(#mask11_outline_ins)">
<use xlink:href="#path25_stroke_2x" transform="translate(-122.238 -248)"/>
</g>
</g>
</g>
</g>
</g>
<defs>
<path id="path0_fill" d="M 0 0L 160 0L 160 160L 0 160L 0 0Z"/>
<path id="path1_stroke_2x" d="M 0 0L 0 -1L -1 -1L -1 0L 0 0ZM 160 0L 161 0L 161 -1L 160 -1L 160 0ZM 160 160L 160 161L 161 161L 161 160L 160 160ZM 0 160L -1 160L -1 161L 0 161L 0 160ZM 0 1L 160 1L 160 -1L 0 -1L 0 1ZM 159 0L 159 160L 161 160L 161 0L 159 0ZM 160 159L 0 159L 0 161L 160 161L 160 159ZM 1 160L 1 0L -1 0L -1 160L 1 160Z"/>
<path id="path2_fill" d="M 125 62.5C 125 97.0178 97.0178 125 62.5 125C 27.9822 125 0 97.0178 0 62.5C 0 27.9822 27.9822 0 62.5 0C 97.0178 0 125 27.9822 125 62.5Z"/>
<path id="path3_stroke_2x" d="M 122 62.5C 122 95.3609 95.3609 122 62.5 122L 62.5 128C 98.6747 128 128 98.6747 128 62.5L 122 62.5ZM 62.5 122C 29.6391 122 3 95.3609 3 62.5L -3 62.5C -3 98.6747 26.3253 128 62.5 128L 62.5 122ZM 3 62.5C 3 29.6391 29.6391 3 62.5 3L 62.5 -3C 26.3253 -3 -3 26.3253 -3 62.5L 3 62.5ZM 62.5 3C 95.3609 3 122 29.6391 122 62.5L 128 62.5C 128 26.3253 98.6747 -3 62.5 -3L 62.5 3Z"/>
<path id="path4_fill" d="M 2.06096 7.92763C 4.09762 2.68311 6.18707 0.821717 12.1078 0C 17.4225 0.480638 19.7183 2.06895 22.2438 7.92763C 22.2438 7.92763 26.8809 20.0671 22.2438 25.0784C 17.0144 30.7297 7.29034 30.7297 2.06096 25.0784C -2.5762 20.0671 2.06096 7.92763 2.06096 7.92763Z"/>
<path id="path5_stroke_2x" d="M 2.06096 7.92763L -0.735574 6.84163L -0.738577 6.84936L -0.741536 6.8571L 2.06096 7.92763ZM 22.2438 7.92763L 25.0463 6.8571L 25.0237 6.79808L 24.9987 6.74006L 22.2438 7.92763ZM 22.2438 25.0784L 20.0419 23.0409L 20.0419 23.0409L 22.2438 25.0784ZM 2.06096 25.0784L 4.26289 23.0409L 4.26289 23.0409L 2.06096 25.0784ZM 12.1078 0L 12.378 -2.98781L 12.0358 -3.01876L 11.6954 -2.97152L 12.1078 0ZM 22.2438 7.92763C 19.4413 8.99816 19.4411 8.99756 19.4408 8.997C 19.4408 8.99688 19.4406 8.99637 19.4405 8.99612C 19.4405 8.99619 19.4401 8.99504 19.4402 8.99518C 19.4399 8.99458 19.4402 8.99534 19.4407 8.99651C 19.4422 9.00059 19.4435 9.00394 19.4464 9.01189C 19.4537 9.03134 19.4623 9.05446 19.4759 9.09193C 19.5059 9.17416 19.5446 9.28229 19.5976 9.43629C 19.7091 9.75968 19.8525 10.1931 20.0207 10.7591C 20.3683 11.9244 20.756 13.4054 21.0196 15.0929C 21.2923 16.7984 21.4182 18.3747 21.2207 19.933C 21.0456 21.4175 20.6155 22.4209 20.0419 23.0409L 24.4457 27.1159C 26.1906 25.2303 26.9198 22.8369 27.1794 20.6359C 27.4167 18.5086 27.2528 16.1105 26.9458 14.1547C 26.6297 12.1808 26.148 10.3138 25.7711 9.04639C 25.577 8.396 25.3943 7.84184 25.2703 7.48178C 25.2056 7.29406 25.1493 7.13648 25.1136 7.03844C 25.0944 6.98578 25.0775 6.94012 25.0675 6.91332C 25.0618 6.89815 25.0565 6.88402 25.0536 6.87639C 25.0518 6.8717 25.05 6.86686 25.0491 6.86451C 25.0485 6.86291 25.0478 6.86105 25.0475 6.86025C 25.0472 6.85963 25.0469 6.85884 25.0468 6.85853C 25.0465 6.8578 25.0463 6.8571 22.2438 7.92763ZM 20.0419 23.0409C 16 27.4089 8.30479 27.4089 4.26289 23.0409L -0.14097 27.1159C 6.2759 34.0506 18.0288 34.0506 24.4457 27.1159L 20.0419 23.0409ZM 4.26289 23.0409C 3.68919 22.4209 3.25911 21.4175 3.084 19.933C 2.88654 18.3747 3.01242 16.7984 3.28512 15.0929C 3.5487 13.4054 3.93647 11.9244 4.28405 10.7591C 4.45227 10.1931 4.59564 9.75968 4.70713 9.43629C 4.76013 9.28229 4.79888 9.17416 4.82884 9.09193C 4.84248 9.05446 4.85105 9.03134 4.85831 9.01189C 4.86128 9.00394 4.86254 9.00059 4.86408 8.99651C 4.86452 8.99534 4.86482 8.99458 4.86459 8.99518C 4.86464 8.99504 4.8642 8.99619 4.86423 8.99612C 4.86413 8.99637 4.86394 8.99688 4.86389 8.997C 4.86368 8.99756 4.86345 8.99816 2.06096 7.92763C -0.741536 6.8571 -0.7418 6.8578 -0.742082 6.85853C -0.7422 6.85884 -0.7425 6.85963 -0.742735 6.86025C -0.74304 6.86105 -0.743747 6.86291 -0.744357 6.86451C -0.745248 6.86686 -0.747083 6.8717 -0.748854 6.87639C -0.751736 6.88402 -0.757051 6.89815 -0.762718 6.91332C -0.772722 6.94012 -0.789623 6.98578 -0.808816 7.03844C -0.844513 7.13648 -0.900869 7.29406 -0.965603 7.48178C -1.08959 7.84184 -1.27228 8.396 -1.46633 9.04639C -1.84331 10.3138 -2.325 12.1808 -2.64107 14.1547C -2.94802 16.1105 -3.11196 18.5086 -2.87469 20.6359C -2.61506 22.8369 -1.88585 25.2303 -0.14097 27.1159L 4.26289 23.0409ZM 4.85749 9.01364C 5.81428 6.54985 6.61047 5.36695 7.5113 4.64034C 8.40519 3.91934 9.77032 3.35316 12.5202 2.97152L 11.6954 -2.97152C 8.52454 -2.53145 5.88458 -1.75607 3.7444 -0.0298178C 1.61116 1.69083 0.344296 4.06089 -0.735574 6.84163L 4.85749 9.01364ZM 11.8376 2.98781C 14.2737 3.20812 15.5064 3.64661 16.3983 4.32926C 17.3357 5.0468 18.2905 6.3352 19.4888 9.1152L 24.9987 6.74006C 23.6716 3.66138 22.2157 1.22628 20.0452 -0.435165C 17.8291 -2.1315 15.2566 -2.72748 12.378 -2.98781L 11.8376 2.98781Z"/>
<path id="path6_fill" d="M 20.1828 9.68129C 20.1828 15.0281 15.6647 19.3626 10.0914 19.3626C 4.51808 19.3626 0 15.0281 0 9.68129C 0 4.33446 4.51808 0 10.0914 0C 15.6647 0 20.1828 4.33446 20.1828 9.68129Z"/>
<path id="path7_stroke_2x" d="M 17.1828 9.68129C 17.1828 13.2552 14.1264 16.3626 10.0914 16.3626L 10.0914 22.3626C 17.2031 22.3626 23.1828 16.8011 23.1828 9.68129L 17.1828 9.68129ZM 10.0914 16.3626C 6.05641 16.3626 3 13.2552 3 9.68129L -3 9.68129C -3 16.8011 2.97975 22.3626 10.0914 22.3626L 10.0914 16.3626ZM 3 9.68129C 3 6.10741 6.05641 3 10.0914 3L 10.0914 -3C 2.97975 -3 -3 2.56151 -3 9.68129L 3 9.68129ZM 10.0914 3C 14.1264 3 17.1828 6.10741 17.1828 9.68129L 23.1828 9.68129C 23.1828 2.56151 17.2031 -3 10.0914 -3L 10.0914 3Z"/>
<path id="path8_fill" d="M 2.06096 7.92763C 4.09762 2.6831 6.18707 0.821717 12.1078 0C 17.4225 0.480638 19.7183 2.06895 22.2438 7.92763C 22.2438 7.92763 26.8809 20.0671 22.2438 25.0784C 17.0144 30.7297 7.29035 30.7297 2.06096 25.0784C -2.5762 20.0671 2.06096 7.92763 2.06096 7.92763Z"/>
<path id="path9_stroke_2x" d="M 2.06096 7.92763L -0.735573 6.84162L -0.738575 6.84935L -0.741535 6.8571L 2.06096 7.92763ZM 22.2438 7.92763L 25.0463 6.8571L 25.0237 6.79807L 24.9987 6.74005L 22.2438 7.92763ZM 22.2438 25.0784L 20.0419 23.0409L 20.0419 23.0409L 22.2438 25.0784ZM 2.06096 25.0784L 4.26289 23.0409L 4.26289 23.0409L 2.06096 25.0784ZM 12.1078 0L 12.378 -2.98781L 12.0358 -3.01876L 11.6954 -2.97152L 12.1078 0ZM 22.2438 7.92763C 19.4413 8.99815 19.4411 8.99755 19.4409 8.997C 19.4408 8.99688 19.4406 8.99637 19.4405 8.99612C 19.4405 8.99618 19.4401 8.99504 19.4402 8.99517C 19.4399 8.99457 19.4402 8.99534 19.4407 8.99651C 19.4422 9.00058 19.4435 9.00394 19.4464 9.01189C 19.4537 9.03133 19.4623 9.05445 19.4759 9.09193C 19.5059 9.17416 19.5446 9.28228 19.5976 9.43629C 19.7091 9.75968 19.8525 10.1931 20.0207 10.759C 20.3683 11.9244 20.7561 13.4054 21.0196 15.0929C 21.2923 16.7984 21.4182 18.3747 21.2207 19.933C 21.0456 21.4175 20.6156 22.4209 20.0419 23.0409L 24.4457 27.1159C 26.1906 25.2302 26.9198 22.8369 27.1794 20.6359C 27.4167 18.5086 27.2528 16.1105 26.9458 14.1547C 26.6297 12.1808 26.1481 10.3138 25.7711 9.04639C 25.577 8.39599 25.3943 7.84183 25.2704 7.48177C 25.2056 7.29405 25.1493 7.13647 25.1136 7.03844C 25.0944 6.98577 25.0775 6.94012 25.0675 6.91331C 25.0618 6.89814 25.0565 6.88401 25.0536 6.87638C 25.0518 6.87169 25.05 6.86685 25.0491 6.86451C 25.0485 6.8629 25.0478 6.86104 25.0475 6.86024C 25.0472 6.85962 25.0469 6.85884 25.0468 6.85853C 25.0465 6.85779 25.0463 6.8571 22.2438 7.92763ZM 20.0419 23.0409C 16 27.4089 8.30479 27.4089 4.26289 23.0409L -0.140968 27.1159C 6.2759 34.0505 18.0288 34.0505 24.4457 27.1159L 20.0419 23.0409ZM 4.26289 23.0409C 3.68919 22.4209 3.25911 21.4175 3.084 19.933C 2.88654 18.3747 3.01242 16.7984 3.28512 15.0929C 3.5487 13.4054 3.93647 11.9244 4.28405 10.759C 4.45228 10.1931 4.59564 9.75968 4.70713 9.43629C 4.76013 9.28228 4.79888 9.17416 4.82884 9.09193C 4.84248 9.05445 4.85105 9.03133 4.85831 9.01189C 4.86128 9.00394 4.86254 9.00058 4.86408 8.99651C 4.86452 8.99534 4.86482 8.99457 4.86459 8.99517C 4.86464 8.99504 4.8642 8.99618 4.86423 8.99612C 4.86413 8.99637 4.86394 8.99688 4.86389 8.997C 4.86368 8.99755 4.86345 8.99815 2.06096 7.92763C -0.741535 6.8571 -0.741799 6.85779 -0.742081 6.85853C -0.742198 6.85884 -0.742498 6.85962 -0.742733 6.86024C -0.743039 6.86104 -0.743746 6.8629 -0.744356 6.86451C -0.745247 6.86685 -0.747081 6.87169 -0.748853 6.87638C -0.751735 6.88401 -0.75705 6.89814 -0.762717 6.91331C -0.772721 6.94012 -0.789622 6.98577 -0.808815 7.03844C -0.844512 7.13647 -0.900868 7.29405 -0.965602 7.48177C -1.08959 7.84183 -1.27228 8.39599 -1.46633 9.04639C -1.84331 10.3138 -2.325 12.1808 -2.64107 14.1547C -2.94802 16.1105 -3.11196 18.5086 -2.87469 20.6359C -2.61506 22.8369 -1.88585 25.2302 -0.140968 27.1159L 4.26289 23.0409ZM 4.85749 9.01363C 5.81428 6.54984 6.61047 5.36695 7.51131 4.64034C 8.4052 3.91934 9.77032 3.35316 12.5202 2.97152L 11.6954 -2.97152C 8.52454 -2.53145 5.88458 -1.75607 3.7444 -0.0298199C 1.61116 1.69083 0.344298 4.06089 -0.735573 6.84162L 4.85749 9.01363ZM 11.8376 2.98781C 14.2737 3.20812 15.5064 3.64661 16.3983 4.32926C 17.3357 5.0468 18.2905 6.33519 19.4889 9.1152L 24.9987 6.74005C 23.6716 3.66138 22.2158 1.22628 20.0452 -0.435166C 17.8291 -2.1315 15.2566 -2.72748 12.378 -2.98781L 11.8376 2.98781Z"/>
<path id="path10_fill" d="M 20.1828 9.68128C 20.1828 15.0281 15.6647 19.3626 10.0914 19.3626C 4.51808 19.3626 0 15.0281 0 9.68128C 0 4.33446 4.51808 0 10.0914 0C 15.6647 0 20.1828 4.33446 20.1828 9.68128Z"/>
<path id="path11_stroke_2x" d="M 17.1828 9.68128C 17.1828 13.2552 14.1264 16.3626 10.0914 16.3626L 10.0914 22.3626C 17.2031 22.3626 23.1828 16.8011 23.1828 9.68128L 17.1828 9.68128ZM 10.0914 16.3626C 6.05641 16.3626 3 13.2552 3 9.68128L -3 9.68128C -3 16.8011 2.97975 22.3626 10.0914 22.3626L 10.0914 16.3626ZM 3 9.68128C 3 6.10741 6.05641 3 10.0914 3L 10.0914 -3C 2.97975 -3 -3 2.56151 -3 9.68128L 3 9.68128ZM 10.0914 3C 14.1264 3 17.1828 6.10741 17.1828 9.68128L 23.1828 9.68128C 23.1828 2.56151 17.2031 -3 10.0914 -3L 10.0914 3Z"/>
<path id="path12_fill" d="M 2.4752 9.65614C 4.92121 3.26812 7.43062 1.00088 14.5414 0C 20.9243 0.585435 23.6815 2.52005 26.7146 9.65614C 26.7146 9.65614 32.2838 24.4425 26.7146 30.5464C 20.4342 37.4299 8.75565 37.4299 2.4752 30.5464C -3.094 24.4425 2.4752 9.65614 2.4752 9.65614Z"/>
<path id="path13_stroke_2x" d="M 2.4752 9.65614L -0.326442 8.58338L -0.329377 8.59105L -0.33227 8.59873L 2.4752 9.65614ZM 26.7146 9.65614L 29.5221 8.59873L 29.5 8.54019L 29.4756 8.48263L 26.7146 9.65614ZM 26.7146 30.5464L 24.4984 28.5244L 24.4984 28.5244L 26.7146 30.5464ZM 2.4752 30.5464L 4.69137 28.5244L 4.69137 28.5244L 2.4752 30.5464ZM 14.5414 0L 14.8154 -2.98746L 14.4683 -3.01929L 14.1232 -2.97072L 14.5414 0ZM 26.7146 9.65614C 23.9072 10.7136 23.9069 10.713 23.9067 10.7125C 23.9067 10.7124 23.9065 10.7119 23.9064 10.7117C 23.9064 10.7117 23.9062 10.7111 23.9062 10.7111C 23.9066 10.712 23.9066 10.7121 23.9073 10.7139C 23.9093 10.7193 23.9113 10.7246 23.9151 10.7351C 23.9242 10.7596 23.9354 10.7904 23.9524 10.8377C 23.989 10.9397 24.0375 11.077 24.1025 11.2684C 24.2378 11.6665 24.4144 12.2082 24.6193 12.9072C 25.0401 14.3383 25.5165 16.1866 25.839 18.275C 26.1704 20.3813 26.3259 22.3966 26.0842 24.3606C 25.864 26.2544 25.3126 27.632 24.4984 28.5244L 28.9308 32.5684C 30.9012 30.4088 31.7422 27.6491 32.044 25.0538C 32.3245 22.5286 32.1319 19.7029 31.7672 17.3496C 31.3935 14.9784 30.8257 12.7486 30.3762 11.2166C 30.1461 10.434 29.9311 9.7728 29.7836 9.33841C 29.7072 9.11359 29.6415 8.92728 29.5992 8.80966C 29.5768 8.74724 29.5574 8.69419 29.5457 8.66238C 29.5392 8.64472 29.5333 8.62873 29.53 8.61984C 29.528 8.61453 29.526 8.60923 29.525 8.60657C 29.5244 8.60481 29.5236 8.60285 29.5233 8.60197C 29.5231 8.60131 29.5228 8.6005 29.5226 8.60017C 29.5224 8.59942 29.5221 8.59873 26.7146 9.65614ZM 24.4984 28.5244C 19.4077 34.1039 9.7821 34.1039 4.69137 28.5244L 0.259018 32.5684C 7.72921 40.7559 21.4606 40.7559 28.9308 32.5684L 24.4984 28.5244ZM 4.69137 28.5244C 3.8772 27.632 3.32587 26.2544 3.10561 24.3606C 2.86391 22.3966 3.01944 20.3813 3.35085 18.275C 3.67337 16.1866 4.14972 14.3383 4.57048 12.9072C 4.77543 12.2082 4.95203 11.6665 5.08733 11.2684C 5.1523 11.077 5.20081 10.9397 5.23744 10.8377C 5.25444 10.7904 5.26567 10.7596 5.27469 10.7351C 5.27856 10.7246 5.28053 10.7193 5.28253 10.7139C 5.28321 10.7121 5.28324 10.712 5.28358 10.7111C 5.2836 10.7111 5.28338 10.7117 5.28337 10.7117C 5.2833 10.7119 5.28312 10.7124 5.28308 10.7125C 5.28288 10.713 5.28266 10.7136 2.4752 9.65614C -0.33227 8.59873 -0.332532 8.59942 -0.332815 8.60017C -0.332938 8.6005 -0.333243 8.60131 -0.333488 8.60197C -0.333819 8.60285 -0.334556 8.60481 -0.335215 8.60657C -0.336211 8.60923 -0.338191 8.61453 -0.34017 8.61984C -0.343481 8.62873 -0.349411 8.64472 -0.355915 8.66238C -0.367622 8.69419 -0.386988 8.74724 -0.409417 8.80966C -0.451646 8.92728 -0.517355 9.11359 -0.593784 9.33841C -0.741293 9.7728 -0.956276 10.434 -1.18642 11.2166C -1.63585 12.7486 -2.20372 14.9784 -2.57735 17.3496C -2.94209 19.7029 -3.13464 22.5286 -2.85422 25.0538C -2.55237 27.6491 -1.7114 30.4088 0.259018 32.5684L 4.69137 28.5244ZM 5.27683 10.7289C 6.44079 7.68912 7.44852 6.11975 8.65852 5.12993C 9.8565 4.14993 11.6198 3.44081 14.9595 2.97072L 14.1232 -2.97072C 10.3522 -2.43992 7.30541 -1.51499 4.85949 0.485858C 2.4256 2.47688 0.955617 5.23514 -0.326442 8.58338L 5.27683 10.7289ZM 14.2674 2.98746C 17.2322 3.25939 18.842 3.80777 20.0445 4.74131C 21.2978 5.71426 22.4989 7.40701 23.9537 10.8297L 29.4756 8.48263C 27.8972 4.76919 26.2032 1.92659 23.7238 0.00184327C 21.1938 -1.96231 18.2335 -2.67396 14.8154 -2.98746L 14.2674 2.98746Z"/>
<path id="path14_fill" d="M 24.2394 11.7922C 24.2394 18.3048 18.8132 23.5843 12.1197 23.5843C 5.42618 23.5843 0 18.3048 0 11.7922C 0 5.27953 5.42618 0 12.1197 0C 18.8132 0 24.2394 5.27953 24.2394 11.7922Z"/>
<path id="path15_stroke_2x" d="M 21.2394 11.7922C 21.2394 16.571 17.2344 20.5843 12.1197 20.5843L 12.1197 26.5843C 20.3921 26.5843 27.2394 20.0386 27.2394 11.7922L 21.2394 11.7922ZM 12.1197 20.5843C 7.00502 20.5843 3 16.571 3 11.7922L -3 11.7922C -3 20.0386 3.84734 26.5843 12.1197 26.5843L 12.1197 20.5843ZM 3 11.7922C 3 7.01334 7.00502 3 12.1197 3L 12.1197 -3C 3.84734 -3 -3 3.54573 -3 11.7922L 3 11.7922ZM 12.1197 3C 17.2344 3 21.2394 7.01334 21.2394 11.7922L 27.2394 11.7922C 27.2394 3.54573 20.3921 -3 12.1197 -3L 12.1197 3Z"/>
<path id="path16_fill" d="M 2.4752 9.65614C 4.92121 3.26812 7.43062 1.00088 14.5414 0C 20.9243 0.585435 23.6815 2.52005 26.7146 9.65614C 26.7146 9.65614 32.2838 24.4424 26.7146 30.5464C 20.4342 37.4299 8.75565 37.4299 2.4752 30.5464C -3.094 24.4424 2.4752 9.65614 2.4752 9.65614Z"/>
<path id="path17_stroke_2x" d="M 2.4752 9.65614L -0.326441 8.58338L -0.329376 8.59104L -0.332269 8.59872L 2.4752 9.65614ZM 26.7146 9.65614L 29.5221 8.59872L 29.5001 8.54019L 29.4756 8.48263L 26.7146 9.65614ZM 26.7146 30.5464L 24.4985 28.5244L 24.4985 28.5244L 26.7146 30.5464ZM 2.4752 30.5464L 4.69137 28.5244L 4.69137 28.5244L 2.4752 30.5464ZM 14.5414 0L 14.8154 -2.98746L 14.4683 -3.01929L 14.1232 -2.97072L 14.5414 0ZM 26.7146 9.65614C 23.9072 10.7136 23.9069 10.713 23.9067 10.7124C 23.9067 10.7123 23.9065 10.7119 23.9065 10.7117C 23.9064 10.7117 23.9062 10.7111 23.9062 10.7111C 23.9066 10.712 23.9066 10.7121 23.9073 10.7139C 23.9093 10.7193 23.9113 10.7246 23.9151 10.7351C 23.9242 10.7596 23.9354 10.7903 23.9524 10.8377C 23.989 10.9397 24.0375 11.077 24.1025 11.2684C 24.2378 11.6665 24.4144 12.2082 24.6194 12.9072C 25.0401 14.3383 25.5165 16.1866 25.839 18.275C 26.1704 20.3813 26.3259 22.3966 26.0842 24.3606C 25.864 26.2544 25.3126 27.632 24.4985 28.5244L 28.9308 32.5684C 30.9012 30.4088 31.7422 27.6491 32.044 25.0538C 32.3245 22.5286 32.1319 19.7029 31.7672 17.3496C 31.3935 14.9784 30.8257 12.7486 30.3762 11.2166C 30.1461 10.434 29.9311 9.77279 29.7836 9.3384C 29.7072 9.11359 29.6415 8.92727 29.5992 8.80966C 29.5768 8.74724 29.5575 8.69419 29.5457 8.66237C 29.5392 8.64471 29.5333 8.62872 29.53 8.61983C 29.528 8.61452 29.526 8.60923 29.525 8.60656C 29.5244 8.60481 29.5236 8.60284 29.5233 8.60196C 29.5231 8.60131 29.5228 8.6005 29.5226 8.60017C 29.5224 8.59942 29.5221 8.59872 26.7146 9.65614ZM 24.4985 28.5244C 19.4077 34.1039 9.7821 34.1039 4.69137 28.5244L 0.259019 32.5684C 7.72921 40.7559 21.4606 40.7559 28.9308 32.5684L 24.4985 28.5244ZM 4.69137 28.5244C 3.8772 27.632 3.32587 26.2544 3.10561 24.3606C 2.86391 22.3966 3.01944 20.3813 3.35085 18.275C 3.67337 16.1866 4.14972 14.3383 4.57048 12.9072C 4.77543 12.2082 4.95203 11.6665 5.08733 11.2684C 5.15231 11.077 5.20081 10.9397 5.23744 10.8377C 5.25444 10.7903 5.26567 10.7596 5.2747 10.7351C 5.27856 10.7246 5.28053 10.7193 5.28253 10.7139C 5.28321 10.7121 5.28324 10.712 5.28358 10.7111C 5.2836 10.7111 5.28338 10.7117 5.28337 10.7117C 5.2833 10.7119 5.28312 10.7123 5.28308 10.7124C 5.28288 10.713 5.28266 10.7136 2.4752 9.65614C -0.332269 8.59872 -0.332531 8.59942 -0.332814 8.60017C -0.332937 8.6005 -0.333242 8.60131 -0.333487 8.60196C -0.333818 8.60284 -0.334555 8.60481 -0.335214 8.60656C -0.33621 8.60923 -0.33819 8.61452 -0.340169 8.61983C -0.34348 8.62872 -0.34941 8.64471 -0.355914 8.66237C -0.367621 8.69419 -0.386987 8.74724 -0.409416 8.80966C -0.451645 8.92727 -0.517354 9.11359 -0.593783 9.3384C -0.741292 9.77279 -0.956275 10.434 -1.18642 11.2166C -1.63585 12.7486 -2.20372 14.9784 -2.57735 17.3496C -2.94209 19.7029 -3.13464 22.5286 -2.85422 25.0538C -2.55237 27.6491 -1.7114 30.4088 0.25902 32.5684L 4.69137 28.5244ZM 5.27684 10.7289C 6.44079 7.68912 7.44852 6.11975 8.65852 5.12993C 9.85651 4.14993 11.6198 3.44081 14.9595 2.97072L 14.1232 -2.97072C 10.3522 -2.43992 7.30541 -1.51499 4.8595 0.485856C 2.4256 2.47688 0.955619 5.23514 -0.326441 8.58338L 5.27684 10.7289ZM 14.2674 2.98746C 17.2322 3.25939 18.842 3.80777 20.0445 4.74131C 21.2978 5.71426 22.4989 7.40701 23.9537 10.8297L 29.4756 8.48263C 27.8972 4.76918 26.2032 1.92658 23.7239 0.00184158C 21.1938 -1.96231 18.2335 -2.67396 14.8154 -2.98746L 14.2674 2.98746Z"/>
<path id="path18_fill" d="M 24.2394 11.7922C 24.2394 18.3048 18.8133 23.5843 12.1197 23.5843C 5.42618 23.5843 0 18.3048 0 11.7922C 0 5.27953 5.42618 0 12.1197 0C 18.8133 0 24.2394 5.27953 24.2394 11.7922Z"/>
<path id="path19_stroke_2x" d="M 21.2394 11.7922C 21.2394 16.571 17.2344 20.5843 12.1197 20.5843L 12.1197 26.5843C 20.3921 26.5843 27.2394 20.0386 27.2394 11.7922L 21.2394 11.7922ZM 12.1197 20.5843C 7.00502 20.5843 3 16.571 3 11.7922L -3 11.7922C -3 20.0386 3.84734 26.5843 12.1197 26.5843L 12.1197 20.5843ZM 3 11.7922C 3 7.01334 7.00502 3 12.1197 3L 12.1197 -3C 3.84734 -3 -3 3.54572 -3 11.7922L 3 11.7922ZM 12.1197 3C 17.2344 3 21.2394 7.01334 21.2394 11.7922L 27.2394 11.7922C 27.2394 3.54572 20.3921 -3 12.1197 -3L 12.1197 3Z"/>
<path id="path20_fill" fill-rule="evenodd" d="M 33.8154 40.5907C 41.2359 32.3199 33.5001 12.9284 33.5001 12.9284C 32.4855 10.5007 32.2347 8.51727 31.1841 6.89552C 30.9028 6.46137 30.9326 6.05314 30.6413 5.66925L 7.33135 5.66925C 7.02905 6.05428 6.73898 6.46251 6.45868 6.89552C 5.40276 8.5267 3.8281 10.5095 2.91734 12.9284C 2.91734 12.9284 -3.98162 32.162 3.43883 40.4328C 13.2127 49.5224 25.5089 48.2687 33.8154 40.5907Z"/>
<path id="path21_fill" d="M 35.5949 41.39C 43.0153 33.1192 35.5949 13.084 35.5949 13.084C 34.5802 10.6563 33.5887 8.67284 32.5381 7.05109C 29.4042 2.21357 25.7445 0.594092 19.3751 0C 13.2512 0.876585 9.68863 2.47004 7.0547 5.82482C 6.7524 6.20985 6.46233 6.61808 6.18203 7.05109C 5.12611 8.68227 4.20875 10.6651 3.29798 13.084C 3.29798 13.084 -4.12248 33.1192 3.29798 41.39C 11.6661 50.7171 27.2267 50.7171 35.5949 41.39Z"/>
<path id="path22_stroke_2x" d="M 35.5949 13.084L 38.4081 12.042L 38.3867 11.9841L 38.3628 11.9271L 35.5949 13.084ZM 35.5949 41.39L 37.8279 43.3934L 37.8279 43.3934L 35.5949 41.39ZM 3.29798 41.39L 1.06498 43.3934L 1.06498 43.3934L 3.29798 41.39ZM 3.29798 13.084L 0.490404 12.0268L 0.487549 12.0344L 0.484734 12.042L 3.29798 13.084ZM 6.18203 7.05109L 3.66364 5.42085L 3.66364 5.42085L 6.18203 7.05109ZM 19.3751 0L 19.6537 -2.98703L 19.3008 -3.01995L 18.95 -2.96973L 19.3751 0ZM 32.5381 7.05109L 30.0203 8.6822L 30.0203 8.6822L 32.5381 7.05109ZM 7.0547 5.82482L 9.41433 7.67743L 9.41433 7.67743L 7.0547 5.82482ZM 35.5949 13.084C 32.7816 14.1259 32.7814 14.1253 32.7812 14.1249C 32.7812 14.1248 32.7811 14.1244 32.781 14.1243C 32.781 14.1241 32.781 14.1241 32.7811 14.1245C 32.7817 14.126 32.7821 14.1271 32.7832 14.1302C 32.7861 14.1381 32.7894 14.1473 32.7951 14.1628C 32.8076 14.1974 32.824 14.2431 32.8476 14.31C 32.8974 14.451 32.9652 14.6461 33.0538 14.9116C 33.2363 15.4576 33.4785 16.2135 33.7561 17.176C 34.322 19.1338 34.9733 21.7086 35.4123 24.5906C 35.8599 27.4904 36.0739 30.3716 35.7448 33.1371C 35.4361 35.8365 34.6479 37.9532 33.3619 39.3866L 37.8279 43.3934C 40.2521 40.6914 41.319 37.2022 41.706 33.8188C 42.0725 30.5015 41.8227 26.8231 41.3428 23.6803C 40.8543 20.5196 40.1142 17.5687 39.5206 15.5114C 39.2185 14.4664 38.939 13.5924 38.7447 13.0104C 38.6449 12.7119 38.5604 12.4685 38.5052 12.312C 38.4763 12.2301 38.4519 12.1623 38.4368 12.1206C 38.4286 12.0979 38.4214 12.0782 38.4173 12.0668C 38.4149 12.0603 38.4126 12.0541 38.4114 12.0508C 38.4106 12.0487 38.4098 12.0465 38.4094 12.0455C 38.4091 12.0447 38.4088 12.0439 38.4087 12.0435C 38.4084 12.0427 38.4081 12.042 35.5949 13.084ZM 33.3619 39.3866C 26.1859 47.3849 12.707 47.3849 5.53098 39.3866L 1.06498 43.3934C 10.6253 54.0493 28.2676 54.0493 37.8279 43.3934L 33.3619 39.3866ZM 5.53098 39.3866C 4.24498 37.9532 3.45677 35.8365 3.14805 33.1371C 2.81894 30.3716 3.03292 27.4904 3.48058 24.5906C 3.91959 21.7086 4.5709 19.1338 5.13671 17.176C 5.41434 16.2135 5.65657 15.4576 5.83905 14.9116C 5.92769 14.6461 5.99541 14.451 6.04523 14.31C 6.06886 14.2431 6.08528 14.1974 6.09779 14.1628C 6.10342 14.1473 6.10676 14.1381 6.10966 14.1302C 6.11079 14.1271 6.11118 14.126 6.11176 14.1245C 6.11189 14.1241 6.1119 14.1241 6.11183 14.1243C 6.11178 14.1244 6.11163 14.1248 6.11161 14.1249C 6.11143 14.1253 6.11123 14.1259 3.29798 13.084C 0.484734 12.042 0.484471 12.0427 0.484181 12.0435C 0.484046 12.0439 0.483726 12.0447 0.483457 12.0455C 0.483075 12.0465 0.482267 12.0487 0.481505 12.0508C 0.480294 12.0541 0.478007 12.0603 0.475605 12.0668C 0.471429 12.0782 0.464239 12.0979 0.456048 12.1206C 0.440931 12.1623 0.416592 12.2301 0.387685 12.312C 0.332425 12.4685 0.247973 12.7119 0.148201 13.0104C -0.0461403 13.5924 -0.325657 14.4664 -0.627752 15.5114C -1.22139 17.5687 -1.96142 20.5196 -2.44996 23.6803C -2.92986 26.8231 -3.17966 30.5015 -2.81309 33.8188C -2.42615 37.2022 -1.35925 40.6914 1.06498 43.3934L 5.53098 39.3866ZM 6.10556 14.1411C 6.97575 11.8243 7.75321 10.1308 8.70042 8.68134L 3.66364 5.42085C 2.49901 7.2337 1.44175 9.50591 0.490404 12.0268L 6.10556 14.1411ZM 19.0965 2.98703C 22.0963 3.26103 24.0481 3.67207 25.7955 4.6009C 27.5347 5.46328 28.6628 6.54846 30.0203 8.6822L 35.0559 5.41998C 33.2795 2.7162 31.0109 0.572875 28.5443 -0.732387C 26.0861 -1.9712 23.0233 -2.66693 19.6537 -2.98703L 19.0965 2.98703ZM 30.0203 8.6822C 30.9841 10.1614 31.853 11.9061 32.8269 14.2408L 38.3628 11.9271C 37.3074 9.40639 36.1934 7.18428 35.0559 5.41998L 30.0203 8.6822ZM 8.70042 8.68134C 8.94487 8.30242 9.15566 8.00549 9.41433 7.67743L 4.69508 3.9722C 4.34914 4.4142 3.9798 4.93374 3.66364 5.42085L 8.70042 8.68134ZM 9.41433 7.67743C 11.3657 5.19207 14.0313 3.79549 19.8002 2.96973L 18.95 -2.96973C 12.471 -2.04232 8.0116 -0.251976 4.69508 3.9722L 9.41433 7.67743Z"/>
<path id="path23_fill" fill-rule="evenodd" d="M 15.1338 31.0299C 24.0523 31.0299 30.2675 24.8028 30.2675 15.9782L 0 15.9782C 0 24.8028 6.21522 31.0299 15.1338 31.0299Z"/>
<path id="path24_fill" d="M 16.1484 31.9565C 25.067 31.9565 32.2969 24.8028 32.2969 15.9782C 32.2969 7.1537 25.067 0 16.1484 0C 7.2299 0 0 7.1537 0 15.9782C 0 24.8028 7.2299 31.9565 16.1484 31.9565Z"/>
<path id="path25_stroke_2x" d="M 29.2969 15.9782C 29.2969 23.116 23.4402 28.9565 16.1484 28.9565L 16.1484 34.9565C 26.6938 34.9565 35.2969 26.4895 35.2969 15.9782L 29.2969 15.9782ZM 16.1484 28.9565C 8.85671 28.9565 3 23.116 3 15.9782L -3 15.9782C -3 26.4895 5.6031 34.9565 16.1484 34.9565L 16.1484 28.9565ZM 3 15.9782C 3 8.84045 8.85671 3 16.1484 3L 16.1484 -3C 5.6031 -3 -3 5.46696 -3 15.9782L 3 15.9782ZM 16.1484 3C 23.4402 3 29.2969 8.84045 29.2969 15.9782L 35.2969 15.9782C 35.2969 5.46696 26.6938 -3 16.1484 -3L 16.1484 3Z"/>
</defs>
</svg>
