<svg width="160" height="160" viewBox="0 0 160 160" version="1.1" xmlns="http://www.w3.org/2000/svg" xmlns:xlink="http://www.w3.org/1999/xlink">
<title>policy-icon-b</title>
<desc>Created using Figma</desc>
<g id="Canvas" transform="translate(420 324)">
<g id="policy-icon-b">
<g id="Rectangle">
<mask id="mask0_outline_ins">
<use xlink:href="#path0_fill" fill="white" transform="translate(-420 -324)"/>
</mask>
<g mask="url(#mask0_outline_ins)">
<use xlink:href="#path1_stroke_2x" transform="translate(-420 -324)" fill="#FFFFFF"/>
</g>
</g>
<g id="Ellipse 2">
<use xlink:href="#path2_fill" transform="translate(-403 -307)" fill="#FFFFFF"/>
<mask id="mask1_outline_ins">
<use xlink:href="#path2_fill" fill="white" transform="translate(-403 -307)"/>
</mask>
<g mask="url(#mask1_outline_ins)">
<use xlink:href="#path3_stroke_2x" transform="translate(-403 -307)"/>
</g>
</g>
<g id="scroll">
<g id="Vector">
<use xlink:href="#path4_stroke" transform="matrix(0.983224 0.182402 -0.181556 0.983381 -382.501 -284)"/>
</g>
<g id="Vector">
<use xlink:href="#path5_fill" transform="matrix(0.983224 0.182402 -0.181556 0.983381 -379.599 -283.462)"/>
<use xlink:href="#path6_stroke" transform="matrix(0.983224 0.182402 -0.181556 0.983381 -379.599 -283.462)"/>
</g>
<g id="Vector">
<use xlink:href="#path7_fill" transform="matrix(0.983224 0.182402 -0.181556 0.983381 -379.599 -283.462)"/>
<use xlink:href="#path8_fill" transform="matrix(0.983224 0.182402 -0.181556 0.983381 -379.599 -283.462)"/>
<use xlink:href="#path9_fill" transform="matrix(0.983224 0.182402 -0.181556 0.983381 -379.599 -283.462)"/>
<use xlink:href="#path10_fill" transform="matrix(0.983224 0.182402 -0.181556 0.983381 -379.599 -283.462)"/>
<use xlink:href="#path11_stroke" transform="matrix(0.983224 0.182402 -0.181556 0.983381 -379.599 -283.462)"/>
</g>
</g>
</g>
</g>
<defs>
<path id="path0_fill" d="M 0 0L 160 0L 160 160L 0 160L 0 0Z"/>
<path id="path1_stroke_2x" d="M 0 0L 0 -1L -1 -1L -1 0L 0 0ZM 160 0L 161 0L 161 -1L 160 -1L 160 0ZM 160 160L 160 161L 161 161L 161 160L 160 160ZM 0 160L -1 160L -1 161L 0 161L 0 160ZM 0 1L 160 1L 160 -1L 0 -1L 0 1ZM 159 0L 159 160L 161 160L 161 0L 159 0ZM 160 159L 0 159L 0 161L 160 161L 160 159ZM 1 160L 1 0L -1 0L -1 160L 1 160Z"/>
<path id="path2_fill" d="M 125 62.5C 125 97.0178 97.0178 125 62.5 125C 27.9822 125 0 97.0178 0 62.5C 0 27.9822 27.9822 0 62.5 0C 97.0178 0 125 27.9822 125 62.5Z"/>
<path id="path3_stroke_2x" d="M 122 62.5C 122 95.3609 95.3609 122 62.5 122L 62.5 128C 98.6747 128 128 98.6747 128 62.5L 122 62.5ZM 62.5 122C 29.6391 122 3 95.3609 3 62.5L -3 62.5C -3 98.6747 26.3253 128 62.5 128L 62.5 122ZM 3 62.5C 3 29.6391 29.6391 3 62.5 3L 62.5 -3C 26.3253 -3 -3 26.3253 -3 62.5L 3 62.5ZM 62.5 3C 95.3609 3 122 29.6391 122 62.5L 128 62.5C 128 26.3253 98.6747 -3 62.5 -3L 62.5 3Z"/>
<path id="path4_stroke" d="M 14.0339 26.9845L 13.104 27.3525L 14.0339 26.9845ZM 10.1714 19.5178L 10.8159 18.7532L 10.8159 18.7532L 10.1714 19.5178ZM 7.94703 29.4843L 7.4697 30.3631L 8.12373 30.7183L 8.65178 30.1938L 7.94703 29.4843ZM 51.6557 54.0441L 51.0177 54.8141L 51.0234 54.8188L 51.0291 54.8234L 51.6557 54.0441ZM 2.95159 19.3973L 2.32508 18.6179L 2.32508 18.6179L 2.95159 19.3973ZM 25.6071 4.48599L 25.0728 3.64071L 25.065 3.64563L 25.0573 3.65068L 25.6071 4.48599ZM 20.9556 28.6072L 20.3111 29.3719L 20.3176 29.3772L 20.9556 28.6072ZM 12.8036 31.7863L 13.4126 32.5794L 13.4126 32.5794L 12.8036 31.7863ZM 18.9846 26.946L 18.3401 27.7106L 18.3401 27.7106L 18.9846 26.946ZM 30.9682 1.09708L 31.5025 1.94235L 31.5025 1.94235L 30.9682 1.09708ZM 72.4063 29.0458L 71.7686 29.8161L 71.7884 29.8324L 71.8089 29.8477L 72.4063 29.0458ZM 12.8717 24.7379L 13.6557 24.1171L 13.6557 24.1171L 12.8717 24.7379ZM 11.7204 23.708L 12.3027 22.895L 12.3027 22.895L 11.7204 23.708ZM 13.1509 25.2403L 13.1452 26.2402L 14.2948 26.2467L 14.142 25.1074L 13.1509 25.2403ZM 11.3894 20.5444L 10.7449 21.309L 10.7449 21.309L 11.3894 20.5444ZM 5.09456 18.1668L 5.45151 19.1009L 5.45151 19.1009L 5.09456 18.1668ZM 39.283 1.62645L 38.6453 2.39676L 38.6453 2.39676L 39.283 1.62645ZM 57.6335 52.8558L 56.6516 52.6664L 56.6516 52.6664L 57.6335 52.8558ZM 69.8399 61.8657L 69.1315 61.1598L 69.1315 61.1598L 69.8399 61.8657ZM 58.6759 50.6282L 57.9833 49.9069L 57.9833 49.9069L 58.6759 50.6282ZM 63.3208 48.4625L 63.43 49.4565L 63.3208 48.4625ZM 60.9272 58.8684L 61.1683 57.8978L 61.1683 57.8978L 60.9272 58.8684ZM 62.4181 62.4556L 61.8784 63.2974L 61.9215 63.3251L 61.9672 63.3482L 62.4181 62.4556ZM 60.9272 61.4998L 60.3006 62.2791L 60.3424 62.3127L 60.3875 62.3416L 60.9272 61.4998ZM 67.5498 52.2899L 66.8813 53.0336L 66.8813 53.0336L 67.5498 52.2899ZM 64.4593 55.7984L 64.6226 56.785L 64.9375 56.7328L 65.164 56.5078L 64.4593 55.7984ZM 67.1083 58.4298L 67.6604 59.2635L 67.7296 59.2178L 67.7902 59.1612L 67.1083 58.4298ZM 68.4328 49.6304L 68.964 48.7831L 68.964 48.7831L 68.4328 49.6304ZM 66.2253 58.8684L 65.9811 57.8986L 65.9108 57.9163L 65.8437 57.944L 66.2253 58.8684ZM 64.9008 59.3069L 65.1375 60.2785L 64.9008 59.3069ZM 67.9826 62.9274L 68.162 63.9112L 68.2483 63.8954L 68.3305 63.8649L 67.9826 62.9274ZM 66.9665 63.1159L 67.2254 64.0818L 66.9665 63.1159ZM 95.3644 42.6414L 95.967 43.4394L 96.0211 43.3986L 96.0692 43.3508L 95.3644 42.6414ZM 58.0399 51.2978L 57.2138 50.7342L 57.2138 50.7342L 58.0399 51.2978ZM 85.6514 32.5543L 85.0992 31.7206L 85.0888 31.7275L 85.0786 31.7346L 85.6514 32.5543ZM 90.5079 31.2386L 90.5079 32.2386L 90.5079 32.2386L 90.5079 31.2386ZM 97.1304 37.8171L 98.1304 37.8171L 98.1304 37.8171L 97.1304 37.8171ZM 93.1569 31.6772L 92.6446 32.536L 92.6446 32.536L 93.1569 31.6772ZM 56.5125 15.889L 57.1502 15.1187L 57.1502 15.1187L 56.5125 15.889ZM 7.94703 32.4314C 4.104 32.4314 1 29.3385 1 25.5372L -1 25.5372C -1 30.4556 3.01202 34.4314 7.94703 34.4314L 7.94703 32.4314ZM 13.104 27.3525C 13.2344 27.6815 13.4123 28.1723 13.478 28.7267C 13.5503 29.2897 13.478 29.6874 13.3122 29.9212L 14.9439 31.0777C 15.5403 30.2362 15.5583 29.2238 15.4617 28.4718C 15.3584 27.7112 15.1082 26.9822 14.9637 26.6166L 13.104 27.3525ZM 1 25.5372C 1 23.3745 2.00249 21.4432 3.5781 20.1767L 2.32508 18.6179C 0.299791 20.2458 -1 22.7402 -1 25.5372L 1 25.5372ZM 20.3176 29.3772L 51.0177 54.8141L 52.2937 53.2741L 21.5936 27.8372L 20.3176 29.3772ZM 12.1945 30.9932C 10.9793 31.9412 9.60215 32.4467 7.94703 32.4314L 7.94703 34.4314C 9.94973 34.4162 11.9419 33.6943 13.4126 32.5794L 12.1945 30.9932ZM 18.3401 27.7106L 20.3111 29.3718L 21.6 27.8426L 19.629 26.1813L 18.3401 27.7106ZM 26.1414 5.33127L 31.5025 1.94235L 30.4339 0.251799L 25.0728 3.64071L 26.1414 5.33127ZM 8.42437 28.6056C 6.89094 27.7726 5.64749 26.7083 5.06139 25.7473C 4.77235 25.2734 4.69258 24.9073 4.71815 24.6485C 4.74018 24.4256 4.85152 24.1533 5.25378 23.8536L 4.0589 22.2498C 3.28382 22.8273 2.81416 23.5783 2.72784 24.4519C 2.64506 25.2896 2.92961 26.093 3.3539 26.7887C 4.19445 28.1669 5.77369 29.4418 7.4697 30.3631L 8.42437 28.6056ZM 5.09112 23.9523C 5.78107 23.6192 6.85992 23.4334 8.03195 23.5165C 9.22162 23.5955 10.2819 23.8898 11.1381 24.521L 12.3027 22.895C 11.1524 22.0891 9.56974 21.626 8.17349 21.5215C 6.75961 21.4212 5.30963 21.6259 4.22157 22.1512L 5.09112 23.9523ZM 11.1381 24.521C 11.4491 24.7438 11.9251 25.1534 12.0878 25.3588L 13.6557 24.1171C 13.3172 23.6898 12.6593 23.1505 12.3027 22.895L 11.1381 24.521ZM 12.0878 25.3588C 12.0977 25.3705 12.0878 25.359 12.0859 25.3549C 12.0847 25.354 12.0817 25.3467 12.0942 25.3719C 12.1225 25.4286 12.1737 25.5382 12.2756 25.7239L 14.0261 24.7566C 13.958 24.6346 13.9261 24.5643 13.8855 24.4824C 13.8397 24.3909 13.7589 24.2526 13.6557 24.1171L 12.0878 25.3588ZM 14.142 25.1074C 14.1449 25.1292 14.1622 25.2486 14.1352 25.4009C 14.1169 25.5047 13.9719 26.1171 13.2929 26.2124C 12.8391 26.2761 12.5396 26.0087 12.5374 26.007C 12.4652 25.9494 12.4197 25.8957 12.4067 25.8803C 12.3607 25.8256 12.3465 25.7935 12.3815 25.8533C 12.4338 25.9422 12.5077 26.0816 12.6 26.2643C 12.7874 26.6349 12.9954 27.0766 13.104 27.3525L 14.9637 26.6166C 14.8312 26.283 14.5851 25.7584 14.385 25.3622C 14.2835 25.1615 14.1802 24.9674 14.107 24.8421C 14.0646 24.7701 13.9921 24.6611 13.9366 24.5921C 13.909 24.5603 13.8357 24.4868 13.7848 24.4437C 13.7767 24.4372 13.4724 24.1676 13.015 24.2318C 12.3325 24.3276 12.1851 24.9433 12.1657 25.053C 12.1378 25.2114 12.1552 25.3396 12.1597 25.3732L 14.142 25.1074ZM 13.1565 24.2403C 11.8509 24.2329 10.8504 25.003 10.0146 25.822C 9.17015 26.6519 8.30842 27.7179 7.24229 28.7749L 8.65178 30.1938C 9.79315 29.0579 10.6503 27.9969 11.4144 27.2505C 12.1872 26.4932 12.6848 26.2376 13.1452 26.2402L 13.1565 24.2403ZM 13.4201 32.5737L 13.5386 32.4808L 12.3055 30.9062L 12.187 30.999L 13.4201 32.5737ZM 13.546 32.475C 14.0304 32.0865 14.5106 31.6109 14.9034 31.1311L 13.3527 29.8679C 13.0296 30.2668 12.7009 30.5923 12.2981 30.9121L 13.546 32.475ZM 5.31236 23.8065C 7.05897 22.2883 8.18623 21.3702 9.0589 20.9831C 9.46214 20.8043 9.72729 20.7798 9.92303 20.8122C 10.117 20.8444 10.3668 20.9529 10.7013 21.2701L 12.0774 19.8187C 11.5455 19.3144 10.9472 18.9546 10.2498 18.8391C 9.55414 18.7239 8.88456 18.8725 8.24797 19.1549C 7.04097 19.6903 5.66819 20.8473 4.00033 22.297L 5.31236 23.8065ZM 12.0338 19.7797L 10.8159 18.7532L 9.52694 20.2825L 10.7449 21.309L 12.0338 19.7797ZM 4.7376 17.2327C 4.40603 17.3599 4.05652 17.5188 3.74594 17.6827L 4.6819 19.4502C 4.93878 19.3136 5.17723 19.2052 5.45151 19.1009L 4.7376 17.2327ZM 3.66414 17.7311L 2.40181 18.562L 3.50137 20.2326L 4.7637 19.4018L 3.66414 17.7311ZM 4.7637 19.4018L 26.1569 5.3213L 25.0573 3.65068L 3.66414 17.7311L 4.7637 19.4018ZM 10.7658 21.3261C 10.7854 21.3416 10.795 21.3498 10.8151 21.3677L 12.143 19.8722C 12.1043 19.8379 12.0542 19.7957 12.013 19.7626L 10.7658 21.3261ZM 3.5781 20.1767C 3.93254 19.8904 4.27571 19.664 4.6819 19.4502L 3.74594 17.6827C 3.25598 17.9435 2.75415 18.2744 2.32508 18.6179L 3.5781 20.1767ZM 10.7449 21.309L 10.8346 21.3846L 12.1235 19.8553L 12.0338 19.7797L 10.7449 21.309ZM 12.2981 30.9121C 12.2626 30.9404 12.2305 30.9655 12.1945 30.9932L 13.4126 32.5794C 13.4562 32.546 13.5031 32.5092 13.546 32.475L 12.2981 30.9121ZM 71.8089 29.8477L 80.6389 36.4262L 81.8338 34.8224L 73.0038 28.2439L 71.8089 29.8477ZM 10.8159 18.7532C 9.27736 17.4565 7.00601 16.3658 4.7376 17.2327L 5.45151 19.1009C 6.69864 18.6243 8.19332 19.1584 9.52694 20.2825L 10.8159 18.7532ZM 31.5025 1.94235C 33.7297 0.53449 36.6183 0.718828 38.6453 2.39676L 39.9206 0.85613C 37.2263 -1.37424 33.3917 -1.61794 30.4339 0.251799L 31.5025 1.94235ZM 58.7037 54.6613C 58.4895 54.0816 58.4703 53.7546 58.6154 53.0452L 56.6516 52.6664C 56.4744 53.627 56.5297 54.4805 56.8173 55.3257L 58.7037 54.6613ZM 71.0998 55.5512C 71.3393 57.7008 70.5568 59.7294 69.1315 61.1598L 70.5483 62.5715C 72.3815 60.7316 73.3973 58.1098 73.0875 55.3297L 71.0998 55.5512ZM 59.3684 51.3496C 60.471 50.2748 61.7834 49.6222 63.43 49.4565L 63.2115 47.4685C 61.2225 47.7024 59.322 48.6379 57.9833 49.9069L 59.3684 51.3496ZM 61.1683 57.8978C 60.2103 57.6599 59.44 56.8609 58.7634 54.9925L 56.8829 55.6734C 57.6359 57.7527 58.7457 59.357 60.6862 59.8389L 61.1683 57.8978ZM 62.9578 61.6137L 61.467 60.6579L 60.3875 62.3416L 61.8784 63.2974L 62.9578 61.6137ZM 61.5539 60.7205L 52.2824 53.2648L 51.0291 54.8234L 60.3006 62.2791L 61.5539 60.7205ZM 68.2182 51.5461C 67.9016 51.2616 67.3151 50.7355 66.5055 50.4045C 65.6297 50.0681 64.5521 50.0047 63.2414 50.4704L 63.9111 52.355C 64.8079 52.0363 65.3921 52.1193 65.7885 52.2715C 66.2513 52.4291 66.5478 52.7338 66.8813 53.0336L 68.2182 51.5461ZM 63.1314 50.5171C 61.4107 51.3717 60.73 53.0283 61.0551 54.4817C 61.3859 55.9605 62.749 57.0951 64.6226 56.785L 64.2959 54.8118C 63.5205 54.9402 63.1176 54.5399 63.0069 54.0451C 62.8905 53.5249 63.0928 52.7694 64.0211 52.3083L 63.1314 50.5171ZM 66.8813 53.0336C 67.0105 53.1497 67.1731 53.4299 67.2086 53.9514L 69.204 53.8154C 69.1474 52.9844 68.8664 52.1286 68.2182 51.5461L 66.8813 53.0336ZM 67.2086 53.9514C 67.2116 53.9939 67.2131 54.0269 67.2143 54.0709L 69.2135 54.0174C 69.2118 53.9529 69.2083 53.8787 69.204 53.8154L 67.2086 53.9514ZM 67.2143 54.0708C 67.2556 55.6185 67.407 56.7841 66.4264 57.6984L 67.7902 59.1612C 69.578 57.4944 69.2447 55.1828 69.2135 54.0174L 67.2143 54.0708ZM 65.164 56.5078C 65.4694 56.2045 66.2451 55.6687 67.0185 55.2519C 67.3931 55.0495 67.6928 54.9094 67.9341 54.8344C 68.0361 54.8005 68.0243 54.8097 68.0223 54.805C 67.9969 54.8054 67.901 54.8051 67.7753 54.7571C 67.6337 54.703 67.4544 54.5863 67.3347 54.3736L 69.0779 53.3932C 68.7638 52.8347 68.1831 52.8023 67.9916 52.8053C 67.7958 52.813 67.5231 52.8674 67.3257 52.9292C 66.9679 53.0454 66.4989 53.2605 66.0696 53.4913C 65.2351 53.9411 64.2622 54.5847 63.7545 55.0889L 65.164 56.5078ZM 67.3347 54.3736C 67.1792 54.0971 67.2307 53.8539 67.2437 53.802L 69.1842 54.2862C 69.2318 54.0953 69.2764 53.7461 69.0779 53.3932L 67.3347 54.3736ZM 63.43 49.4565C 65.1126 49.2555 66.5705 49.6286 67.9015 50.4776L 68.964 48.7831C 67.3568 47.7897 65.251 47.2603 63.2115 47.4685L 63.43 49.4565ZM 67.9015 50.4776C 69.6303 51.5616 70.8584 53.3841 71.0998 55.5512L 73.0875 55.3297C 72.7753 52.5273 71.1845 50.1755 68.964 48.7831L 67.9015 50.4776ZM 64.0859 52.2731C 65.3026 51.544 66.9386 51.0594 68.6883 50.5972L 68.1773 48.6635C 66.395 49.1347 64.499 49.7125 63.0667 50.5523L 64.0859 52.2731ZM 66.5561 57.596C 66.4509 57.6659 66.3719 57.7214 66.3138 57.7613C 66.2575 57.8 66.2429 57.8105 66.2191 57.8229C 66.2122 57.8268 66.1787 57.8489 65.9811 57.8986L 66.4694 59.8381C 66.7473 59.7682 66.9688 59.6945 67.1913 59.5707C 67.3727 59.4663 67.5064 59.3646 67.6604 59.2635L 66.5561 57.596ZM 66.2253 58.8684C 65.8437 57.944 65.8438 57.944 65.8439 57.944C 65.8439 57.944 65.8439 57.9439 65.844 57.9439C 65.8439 57.9439 65.8441 57.9438 65.8441 57.9439C 65.8441 57.9439 65.8442 57.9438 65.8442 57.9438C 65.8441 57.9439 65.8441 57.9439 65.8437 57.944C 65.8428 57.9444 65.8418 57.9448 65.8399 57.9456C 65.8355 57.9474 65.83 57.9496 65.8215 57.953C 65.803 57.9605 65.7787 57.9702 65.7449 57.9833C 65.6744 58.0108 65.5816 58.0462 65.465 58.088C 65.2255 58.1741 64.9448 58.2678 64.6641 58.3353L 65.1375 60.2785C 65.4963 60.1903 65.8777 60.0647 66.1407 59.9704C 66.2753 59.9221 66.3936 59.877 66.4716 59.8466C 66.5121 59.8308 66.5462 59.8172 66.5677 59.8086C 66.5792 59.804 66.5891 59.8 66.5949 59.7976C 66.5982 59.7962 66.6012 59.795 66.6029 59.7943C 66.6038 59.7939 66.6048 59.7935 66.6053 59.7933C 66.6057 59.7932 66.606 59.793 66.6062 59.793C 66.6063 59.7929 66.6065 59.7929 66.6065 59.7928C 66.6066 59.7928 66.6067 59.7928 66.6067 59.7928C 66.6068 59.7927 66.6068 59.7927 66.2253 58.8684ZM 64.6641 58.3353C 63.7556 58.5567 62.5932 58.2517 61.1683 57.8978L 60.6862 59.8389C 61.8961 60.1393 63.6361 60.6443 65.1375 60.2785L 64.6641 58.3353ZM 66.4692 59.8382C 67.3502 59.6166 68.7584 59.0237 70.0018 58.3469C 70.6283 58.0054 71.2649 57.6103 71.7611 57.2331C 72.2359 56.8706 72.7507 56.4028 73.0016 55.8597L 71.1858 55.0212C 71.154 55.0902 70.9859 55.3087 70.5475 55.6433C 70.1304 55.9632 69.6234 56.2761 69.0455 56.5903C 67.8801 57.2247 66.6368 57.7337 65.9814 57.8986L 66.4692 59.8382ZM 69.1315 61.1598C 69.0608 61.2308 68.9954 61.2954 68.9297 61.3593L 70.3241 62.7931C 70.3956 62.7236 70.4721 62.6479 70.5483 62.5715L 69.1315 61.1598ZM 68.9297 61.3593C 68.6519 61.6295 68.4412 61.7371 68.2922 61.7945C 68.2023 61.8305 68.133 61.8482 68.0285 61.8751C 67.9259 61.9016 67.7777 61.9388 67.6347 61.9899L 68.3305 63.8649C 68.4388 63.8247 69.373 63.7181 70.324 62.7931L 68.9297 61.3593ZM 67.9826 62.9274C 67.8032 61.9436 67.8031 61.9436 67.8031 61.9436C 67.8031 61.9436 67.8031 61.9436 67.8031 61.9436C 67.8031 61.9436 67.803 61.9436 67.803 61.9437C 67.8028 61.9437 67.8027 61.9437 67.8024 61.9438C 67.8019 61.9438 67.8012 61.944 67.8003 61.9441C 67.7984 61.9445 67.7957 61.945 67.792 61.9456C 67.7848 61.947 67.7742 61.9489 67.7608 61.9514C 67.7339 61.9563 67.6953 61.9633 67.649 61.9718C 67.5565 61.9887 67.4324 62.0114 67.3073 62.0345C 67.1029 62.0721 66.7773 62.1313 66.7077 62.1499L 67.2254 64.0818C 67.185 64.0926 67.1531 64.0978 67.2095 64.0869C 67.2381 64.0815 67.2768 64.0742 67.3245 64.0652C 67.4204 64.0473 67.5449 64.0243 67.6692 64.0014C 67.7936 63.9786 67.9167 63.956 68.0089 63.9391C 68.055 63.9307 68.0933 63.9237 68.1201 63.9188C 68.1335 63.9164 68.144 63.9145 68.1511 63.9131C 68.1547 63.9125 68.1574 63.912 68.1593 63.9117C 68.1602 63.9115 68.1609 63.9114 68.1614 63.9113C 68.1616 63.9112 68.1618 63.9112 68.1619 63.9112C 68.1619 63.9112 68.162 63.9112 68.162 63.9112C 68.162 63.9112 68.162 63.9112 68.162 63.9112C 68.162 63.9112 68.162 63.9112 67.9826 62.9274ZM 68.4423 63.8155L 70.0866 62.9643L 69.1672 61.1882L 67.5229 62.0393L 68.4423 63.8155ZM 70.2295 62.8743L 95.967 43.4394L 94.7618 41.8433L 69.0243 61.2782L 70.2295 62.8743ZM 58.8659 51.8614C 58.8919 51.8202 58.9152 51.7956 58.9963 51.7124L 57.5602 50.3204C 57.4423 50.4425 57.3089 50.598 57.2138 50.7342L 58.8659 51.8614ZM 58.9963 51.7124C 59.0888 51.6167 59.2071 51.5044 59.3684 51.3496L 57.9833 49.9069C 57.8255 50.0584 57.6814 50.1957 57.5602 50.3204L 58.9963 51.7124ZM 85.0786 31.7346C 80.1812 35.157 73.3523 39.5332 67.7352 43.1769C 64.9262 44.999 62.4146 46.6417 60.6064 47.8857C 59.6991 48.5101 58.9491 49.0484 58.4323 49.4555C 58.1674 49.6646 57.9304 49.8677 57.772 50.0245C 57.6842 50.1127 57.5781 50.2342 57.5124 50.3247C 57.4636 50.3936 57.2782 50.6538 57.2782 51.0164L 59.2782 51.0164C 59.2782 51.1916 59.2288 51.3183 59.205 51.372C 59.1783 51.432 59.1526 51.4691 59.1454 51.4794C 59.1441 51.4837 59.1403 51.4837 59.1833 51.4416C 59.2867 51.3376 59.4363 51.2104 59.6704 51.0262C 60.1514 50.6467 60.849 50.1465 61.7401 49.5334C 63.5288 48.3026 66.0178 46.6749 68.8236 44.8548C 74.4361 41.2141 81.2938 36.819 86.2242 33.374L 85.0786 31.7346ZM 90.5079 30.2386C 88.3466 30.2486 86.5557 30.7697 85.0992 31.7206L 86.2035 33.3881C 87.3961 32.5846 88.6281 32.2287 90.5079 32.2386L 90.5079 30.2386ZM 96.0692 43.3508C 98.1377 41.2961 98.1304 39.1787 98.1304 37.8171L 96.1304 37.8171C 96.1304 39.0869 96.1232 40.4781 94.6597 41.9319L 96.0692 43.3508ZM 98.1304 37.8171C 98.1304 36.1909 97.8981 34.8906 97.1375 33.7368C 96.3986 32.6161 95.236 31.753 93.6692 30.8184L 92.6446 32.536C 94.1683 33.445 94.9925 34.1168 95.4677 34.8377C 95.9212 35.5255 96.1304 36.3734 96.1304 37.8171L 98.1304 37.8171ZM 93.6692 30.8184C 92.6589 30.2157 91.7824 30.2386 90.5079 30.2386L 90.5079 32.2386C 91.8824 32.2386 92.1846 32.2616 92.6446 32.536L 93.6692 30.8184ZM 61.9672 63.3482C 63.1413 63.9364 64.1655 64.2317 64.9771 64.3117C 65.8335 64.3817 66.6017 64.2481 67.2254 64.0818L 66.7077 62.1499C 66.1601 62.2975 65.7429 62.3838 65.1623 62.3202C 64.5369 62.2665 63.8726 62.0748 62.869 61.563L 61.9672 63.3482ZM 58.6154 53.0453C 58.6742 52.734 58.7003 52.4541 58.7436 52.2328C 58.7842 52.013 58.7921 51.9482 58.866 51.8613L 57.2138 50.7342C 56.9851 51.0909 56.8405 51.542 56.7789 51.8587C 56.7201 52.174 56.6943 52.4514 56.6516 52.6664L 58.6154 53.0453ZM 10.8346 21.3846L 17.6975 27.1689L 18.9864 25.6397L 12.1235 19.8553L 10.8346 21.3846ZM 17.6975 27.1689L 18.3401 27.7106L 19.629 26.1813L 18.9864 25.6397L 17.6975 27.1689ZM 14.825 31.2166L 19.0389 27.1214L 17.645 25.6872L 13.4311 29.7823L 14.825 31.2166ZM 38.6453 2.39676L 55.8749 16.6593L 57.1502 15.1187L 39.9206 0.85613L 38.6453 2.39676ZM 55.8749 16.6593L 71.7686 29.8161L 73.044 28.2755L 57.1502 15.1187L 55.8749 16.6593Z"/>
<path id="path5_fill" d="M 1.70476 23.0517C -0.64992 24.806 1.76601 27.7301 4.99545 29.4843C 7.20296 27.2915 8.43326 25.2303 10.1993 25.2403C 10.0292 24.9325 10.0331 24.8806 9.92015 24.7379C 9.66959 24.4216 9.10264 23.9471 8.76879 23.708C 6.76241 22.2709 3.48277 22.1933 1.70476 23.0517Z"/>
<path id="path6_stroke" d="M 7.21982 19.5178L 7.86429 18.7532L 7.86429 18.7532L 7.21982 19.5178ZM 11.1765 30.4995L 10.4795 29.7823L 10.4379 29.8228L 10.4012 29.8679L 11.1765 30.4995ZM 4.99545 29.4843L 4.51812 30.3631L 5.17214 30.7183L 5.70019 30.1938L 4.99545 29.4843ZM 48.7041 54.0441L 48.0661 54.8141L 48.0718 54.8188L 48.0775 54.8234L 48.7041 54.0441ZM 22.6555 4.48599L 22.1212 3.64071L 22.1134 3.64563L 22.1057 3.65068L 22.6555 4.48599ZM 18.004 28.6072L 17.3595 29.3719L 17.366 29.3772L 18.004 28.6072ZM 9.85197 31.7863L 10.4611 32.5794L 10.4611 32.5794L 9.85197 31.7863ZM 16.033 26.946L 15.3885 27.7106L 15.3885 27.7106L 16.033 26.946ZM 28.0166 1.09708L 28.5509 1.94235L 28.5509 1.94235L 28.0166 1.09708ZM 69.4547 29.0458L 68.8171 29.8161L 68.8368 29.8324L 68.8573 29.8477L 69.4547 29.0458ZM 9.92015 24.7379L 10.7041 24.1171L 10.7041 24.1171L 9.92015 24.7379ZM 8.76879 23.708L 9.3511 22.895L 9.3511 22.895L 8.76879 23.708ZM 10.1993 25.2403L 10.1936 26.2402L 11.8996 26.2499L 11.0745 24.7566L 10.1993 25.2403ZM 8.43778 20.5444L 7.79331 21.309L 7.79332 21.309L 8.43778 20.5444ZM 2.14297 18.1668L 2.49993 19.1009L 2.14297 18.1668ZM 36.3314 1.62645L 35.6937 2.39676L 35.6937 2.39676L 36.3314 1.62645ZM 54.6819 52.8558L 53.7 52.6664L 54.6819 52.8558ZM 66.8883 61.8657L 66.1799 61.1598L 66.1799 61.1598L 66.8883 61.8657ZM 55.7243 50.6282L 55.0317 49.9069L 55.0317 49.9069L 55.7243 50.6282ZM 60.3692 48.4625L 60.4784 49.4565L 60.4784 49.4565L 60.3692 48.4625ZM 57.9757 58.8684L 57.6458 59.8124L 57.6896 59.8277L 57.7346 59.8389L 57.9757 58.8684ZM 59.4665 62.4556L 58.9268 63.2974L 58.9699 63.3251L 59.0156 63.3482L 59.4665 62.4556ZM 57.9757 61.4998L 57.349 62.2791L 57.3908 62.3127L 57.4359 62.3416L 57.9757 61.4998ZM 64.5982 52.2899L 63.9298 53.0336L 63.9298 53.0336L 64.5982 52.2899ZM 61.5077 55.7984L 61.671 56.785L 61.986 56.7328L 62.2124 56.5078L 61.5077 55.7984ZM 64.1567 58.4298L 64.7088 59.2635L 64.778 59.2178L 64.8386 59.1612L 64.1567 58.4298ZM 65.4812 49.6304L 66.0124 48.7831L 66.0124 48.7831L 65.4812 49.6304ZM 63.2737 58.8684L 63.0296 57.8986L 62.9592 57.9163L 62.8922 57.944L 63.2737 58.8684ZM 61.9492 59.3069L 62.1859 60.2785L 61.9492 59.3069ZM 65.031 62.9274L 65.2105 63.9112L 65.2967 63.8954L 65.3789 63.8649L 65.031 62.9274ZM 64.015 63.1159L 64.2739 64.0818L 64.015 63.1159ZM 92.4128 42.6414L 93.0154 43.4394L 93.0695 43.3986L 93.1176 43.3508L 92.4128 42.6414ZM 55.0883 51.2978L 54.2623 50.7342L 54.2622 50.7342L 55.0883 51.2978ZM 55.3267 51.0164L 54.6086 50.3204L 54.6086 50.3204L 55.3267 51.0164ZM 87.5563 31.2386L 87.5563 32.2386L 87.5563 32.2386L 87.5563 31.2386ZM 94.1788 37.8171L 95.1788 37.8171L 95.1788 37.8171L 94.1788 37.8171ZM 90.2053 31.6772L 89.693 32.536L 89.693 32.536L 90.2053 31.6772ZM 17.366 29.3772L 48.0661 54.8141L 49.3421 53.2741L 18.642 27.8372L 17.366 29.3772ZM 9.24288 30.9932C 8.02767 31.9412 6.65056 32.4467 4.99545 32.4314L 4.99545 34.4314C 6.99815 34.4162 8.99027 33.6943 10.4611 32.5794L 9.24288 30.9932ZM 15.3885 27.7106L 17.3595 29.3718L 18.6485 27.8426L 16.6775 26.1813L 15.3885 27.7106ZM 23.1898 5.33127L 28.5509 1.94235L 27.4823 0.251799L 22.1212 3.64071L 23.1898 5.33127ZM 35.6937 2.39676L 68.8171 29.8161L 70.0924 28.2755L 36.969 0.85613L 35.6937 2.39676ZM 5.47278 28.6056C 3.93936 27.7726 2.69591 26.7083 2.1098 25.7473C 1.82076 25.2734 1.74099 24.9073 1.76656 24.6485C 1.78859 24.4256 1.89994 24.1533 2.3022 23.8536L 1.10732 22.2498C 0.332237 22.8273 -0.137428 23.5783 -0.223745 24.4519C -0.306524 25.2896 -0.0219737 26.093 0.402316 26.7887C 1.24286 28.1669 2.8221 29.4418 4.51812 30.3631L 5.47278 28.6056ZM 2.13953 23.9523C 2.82948 23.6192 3.90833 23.4334 5.08036 23.5165C 6.27003 23.5955 7.33034 23.8898 8.18648 24.521L 9.3511 22.895C 8.20085 22.0891 6.61815 21.626 5.22191 21.5215C 3.80802 21.4212 2.35805 21.6259 1.26998 22.1512L 2.13953 23.9523ZM 8.18648 24.521C 8.49753 24.7438 8.97353 25.1534 9.13623 25.3588L 10.7041 24.1171C 10.3656 23.6898 9.70774 23.1505 9.3511 22.895L 8.18648 24.521ZM 9.13623 25.3588C 9.1461 25.3705 9.13624 25.359 9.13431 25.3549C 9.13309 25.354 9.13016 25.3467 9.14265 25.3719C 9.17088 25.4286 9.22211 25.5382 9.324 25.7239L 11.0745 24.7566C 11.0064 24.6346 10.9745 24.5643 10.934 24.4824C 10.8881 24.3909 10.8074 24.2526 10.7041 24.1171L 9.13623 25.3588ZM 10.2049 24.2403C 8.89933 24.2329 7.8988 25.003 7.063 25.822C 6.21857 26.6519 5.35684 27.7179 4.2907 28.7749L 5.70019 30.1938C 6.84157 29.0579 7.69875 27.9969 8.46284 27.2505C 9.23558 26.4932 9.73321 26.2376 10.1936 26.2402L 10.2049 24.2403ZM 10.4685 32.5737L 10.587 32.4808L 9.35395 30.9062L 9.23543 30.999L 10.4685 32.5737ZM 10.5944 32.475C 11.0788 32.0865 11.559 31.6109 11.9518 31.1311L 10.4012 29.8679C 10.078 30.2668 9.74933 30.5923 9.34654 30.9121L 10.5944 32.475ZM 1.78601 17.2327C 1.45445 17.3599 1.10494 17.5188 0.794355 17.6827L 1.73031 19.4502C 1.98719 19.3136 2.22564 19.2052 2.49993 19.1009L 1.78601 17.2327ZM 0.712555 17.7311L -0.549779 18.562L 0.549779 20.2326L 1.81211 19.4018L 0.712555 17.7311ZM 1.81211 19.4018L 23.2053 5.3213L 22.1057 3.65068L 0.712555 17.7311L 1.81211 19.4018ZM 7.81417 21.3261C 7.83377 21.3416 7.84346 21.3498 7.86347 21.3677L 9.19146 19.8722C 9.1527 19.8379 9.10264 19.7957 9.06138 19.7626L 7.81417 21.3261ZM 7.79332 21.309L 7.883 21.3846L 9.17192 19.8553L 9.08224 19.7797L 7.79332 21.309ZM 9.34654 30.9121C 9.31104 30.9404 9.27896 30.9655 9.24288 30.9932L 10.4611 32.5794C 10.5046 32.546 10.5515 32.5092 10.5944 32.475L 9.34654 30.9121ZM 68.8573 29.8477L 77.6873 36.4262L 78.8822 34.8224L 70.0522 28.2439L 68.8573 29.8477ZM 7.86429 18.7532C 6.32577 17.4565 4.05442 16.3658 1.78601 17.2327L 2.49993 19.1009C 3.74706 18.6243 5.24173 19.1584 6.57536 20.2825L 7.86429 18.7532ZM 28.5509 1.94235C 30.7781 0.53449 33.6667 0.718828 35.6937 2.39676L 36.969 0.85613C 34.2747 -1.37424 30.4401 -1.61794 27.4823 0.251799L 28.5509 1.94235ZM 55.7923 54.8119C 55.7124 54.3961 55.6302 54.1685 55.6052 53.9593C 55.5689 53.7235 55.5666 53.525 55.6638 53.0453L 53.7 52.6664C 53.5755 53.3358 53.574 53.8667 53.6253 54.2427C 53.6879 54.6453 53.7801 54.912 53.8255 55.1751L 55.7923 54.8119ZM 68.1483 55.5512C 68.3877 57.7008 67.6052 59.7294 66.1799 61.1598L 67.5967 62.5715C 69.43 60.7316 70.4457 58.1098 70.136 55.3297L 68.1483 55.5512ZM 56.4168 51.3496C 57.5195 50.2748 58.8318 49.6222 60.4784 49.4565L 60.2599 47.4685C 58.2709 47.7024 56.3704 48.6379 55.0317 49.9069L 56.4168 51.3496ZM 58.3056 57.9243C 57.414 57.6128 56.6224 56.8372 56.3891 56.2556L 54.5329 57.0001C 55.0119 58.1945 56.2922 59.3394 57.6458 59.8124L 58.3056 57.9243ZM 60.0062 61.6137L 58.5154 60.6579L 57.4359 62.3416L 58.9268 63.2974L 60.0062 61.6137ZM 58.6023 60.7205L 49.3308 53.2648L 48.0775 54.8234L 57.349 62.2791L 58.6023 60.7205ZM 65.2666 51.5461C 64.95 51.2616 64.3635 50.7355 63.5539 50.4045C 62.6781 50.0681 61.6005 50.0047 60.2898 50.4704L 60.9595 52.355C 61.8563 52.0363 62.4405 52.1193 62.8369 52.2715C 63.2997 52.4291 63.5962 52.7338 63.9298 53.0336L 65.2666 51.5461ZM 60.1798 50.5171C 58.4591 51.3717 57.7784 53.0283 58.1035 54.4817C 58.4344 55.9605 59.7975 57.0951 61.671 56.785L 61.3443 54.8118C 60.5689 54.9402 60.166 54.5399 60.0553 54.0451C 59.9389 53.5249 60.1412 52.7694 61.0695 52.3083L 60.1798 50.5171ZM 63.9298 53.0336C 64.0589 53.1497 64.2215 53.4299 64.257 53.9514L 66.2524 53.8154C 66.1958 52.9844 65.9149 52.1286 65.2666 51.5461L 63.9298 53.0336ZM 64.257 53.9514C 64.26 53.9939 64.2615 54.0269 64.2627 54.0709L 66.262 54.0174C 66.2602 53.9529 66.2567 53.8787 66.2524 53.8154L 64.257 53.9514ZM 64.2627 54.0708C 64.304 55.6185 64.4554 56.7841 63.4748 57.6984L 64.8386 59.1612C 66.6264 57.4944 66.2931 55.1828 66.262 54.0174L 64.2627 54.0708ZM 62.2124 56.5078C 62.5178 56.2045 63.2935 55.6687 64.0669 55.2519C 64.4415 55.0495 64.7413 54.9094 64.9825 54.8344C 65.0845 54.8005 65.0727 54.8097 65.0708 54.805C 65.0453 54.8054 64.9495 54.8051 64.8237 54.7571C 64.6821 54.703 64.5028 54.5863 64.3831 54.3736L 66.1263 53.3932C 65.8122 52.8347 65.2315 52.8023 65.04 52.8053C 64.8443 52.813 64.5715 52.8674 64.3741 52.9292C 64.0163 53.0454 63.5474 53.2605 63.118 53.4913C 62.2836 53.9411 61.3106 54.5847 60.8029 55.0889L 62.2124 56.5078ZM 64.3831 54.3736C 64.2276 54.0971 64.2791 53.8539 64.2921 53.802L 66.2326 54.2862C 66.2802 54.0953 66.3248 53.7461 66.1263 53.3932L 64.3831 54.3736ZM 60.4784 49.4565C 62.161 49.2555 63.6189 49.6286 64.9499 50.4776L 66.0124 48.7831C 64.4052 47.7897 62.2994 47.2603 60.2599 47.4685L 60.4784 49.4565ZM 64.9499 50.4776C 66.6787 51.5616 67.9068 53.3841 68.1483 55.5512L 70.136 55.3297C 69.8238 52.5273 68.233 50.1755 66.0124 48.7831L 64.9499 50.4776ZM 61.1343 52.2731C 62.351 51.544 63.987 51.0594 65.7367 50.5972L 65.2257 48.6635C 63.4434 49.1347 61.5474 49.7125 60.1151 50.5523L 61.1343 52.2731ZM 63.6046 57.596C 63.4993 57.6659 63.4203 57.7214 63.3622 57.7613C 63.3059 57.8 63.2913 57.8105 63.2675 57.8229C 63.2606 57.8268 63.2271 57.8489 63.0296 57.8986L 63.5178 59.8381C 63.7957 59.7682 64.0172 59.6945 64.2397 59.5707C 64.4211 59.4663 64.5548 59.3646 64.7088 59.2635L 63.6046 57.596ZM 63.2737 58.8684C 62.8922 57.944 62.8922 57.944 62.8923 57.944C 62.8923 57.944 62.8923 57.9439 62.8924 57.9439C 62.8923 57.9439 62.8926 57.9438 62.8925 57.9439C 62.8925 57.9439 62.8926 57.9438 62.8926 57.9438C 62.8925 57.9439 62.8925 57.9439 62.8922 57.944C 62.8912 57.9444 62.8902 57.9448 62.8883 57.9456C 62.8839 57.9474 62.8784 57.9496 62.8699 57.953C 62.8514 57.9605 62.8271 57.9702 62.7933 57.9833C 62.7229 58.0108 62.63 58.0462 62.5134 58.088C 62.2739 58.1741 61.9932 58.2678 61.7125 58.3353L 62.1859 60.2785C 62.5447 60.1903 62.9262 60.0647 63.1891 59.9704C 63.3237 59.9221 63.442 59.877 63.52 59.8466C 63.5605 59.8308 63.5946 59.8172 63.6162 59.8086C 63.6276 59.804 63.6375 59.8 63.6433 59.7976C 63.6466 59.7962 63.6496 59.795 63.6513 59.7943C 63.6523 59.7939 63.6533 59.7935 63.6538 59.7933C 63.6541 59.7932 63.6545 59.793 63.6546 59.793C 63.6547 59.7929 63.6549 59.7929 63.655 59.7928C 63.655 59.7928 63.6551 59.7928 63.6551 59.7928C 63.6552 59.7927 63.6552 59.7927 63.2737 58.8684ZM 61.7125 58.3353C 60.804 58.5567 59.6416 58.2517 58.2167 57.8978L 57.7346 59.8389C 58.9445 60.1393 60.6845 60.6443 62.1859 60.2785L 61.7125 58.3353ZM 63.5176 59.8382C 64.3986 59.6166 65.8068 59.0237 67.0502 58.3469C 67.6767 58.0054 68.3133 57.6103 68.8095 57.2331C 69.2844 56.8706 69.7992 56.4028 70.05 55.8597L 68.2343 55.0212C 68.2024 55.0902 68.0343 55.3087 67.5959 55.6433C 67.1788 55.9632 66.6718 56.2761 66.0939 56.5903C 64.9286 57.2247 63.6852 57.7337 63.0298 57.8986L 63.5176 59.8382ZM 66.1799 61.1598C 66.1092 61.2308 66.0438 61.2954 65.9781 61.3593L 67.3725 62.7931C 67.444 62.7236 67.5205 62.6479 67.5967 62.5715L 66.1799 61.1598ZM 65.9781 61.3593C 65.7003 61.6295 65.4896 61.7371 65.3406 61.7945C 65.2507 61.8305 65.1814 61.8482 65.0769 61.8751C 64.9744 61.9016 64.8261 61.9388 64.6831 61.9899L 65.3789 63.8649C 65.4872 63.8247 66.4214 63.7181 67.3725 62.7931L 65.9781 61.3593ZM 65.031 62.9274C 64.8516 61.9436 64.8516 61.9436 64.8515 61.9436C 64.8515 61.9436 64.8515 61.9436 64.8515 61.9436C 64.8515 61.9436 64.8514 61.9436 64.8514 61.9437C 64.8513 61.9437 64.8511 61.9437 64.8508 61.9438C 64.8504 61.9438 64.8496 61.944 64.8487 61.9441C 64.8468 61.9445 64.8441 61.945 64.8405 61.9456C 64.8333 61.947 64.8227 61.9489 64.8092 61.9514C 64.7823 61.9563 64.7437 61.9633 64.6974 61.9718C 64.6049 61.9887 64.4808 62.0114 64.3558 62.0345C 64.1514 62.0721 63.8257 62.1313 63.7561 62.1499L 64.2739 64.0818C 64.2334 64.0926 64.2015 64.0978 64.258 64.0869C 64.2865 64.0815 64.3252 64.0742 64.3729 64.0652C 64.4688 64.0473 64.5933 64.0243 64.7176 64.0014C 64.842 63.9786 64.9651 63.956 65.0573 63.9391C 65.1034 63.9307 65.1417 63.9237 65.1685 63.9188C 65.1819 63.9164 65.1924 63.9145 65.1995 63.9131C 65.2031 63.9125 65.2058 63.912 65.2077 63.9117C 65.2086 63.9115 65.2093 63.9114 65.2098 63.9113C 65.21 63.9112 65.2102 63.9112 65.2103 63.9112C 65.2103 63.9112 65.2104 63.9112 65.2104 63.9112C 65.2104 63.9112 65.2104 63.9112 65.2104 63.9112C 65.2105 63.9112 65.2105 63.9112 65.031 62.9274ZM 65.4907 63.8155L 67.135 62.9643L 66.2156 61.1882L 64.5713 62.0393L 65.4907 63.8155ZM 67.2779 62.8743L 93.0154 43.4394L 91.8102 41.8433L 66.0727 61.2782L 67.2779 62.8743ZM 55.9144 51.8614C 55.9403 51.8202 55.9636 51.7956 56.0447 51.7124L 54.6086 50.3204C 54.4907 50.4425 54.3573 50.598 54.2623 50.7342L 55.9144 51.8614ZM 56.0447 51.7124C 56.1372 51.6167 56.2555 51.5044 56.4168 51.3496L 55.0317 49.9069C 54.8739 50.0584 54.7298 50.1957 54.6086 50.3204L 56.0447 51.7124ZM 87.5563 30.2386C 85.395 30.2486 83.6041 30.7697 82.1476 31.7206L 83.2519 33.3881C 84.4445 32.5846 85.6765 32.2287 87.5563 32.2386L 87.5563 30.2386ZM 93.1176 43.3508C 95.1861 41.2961 95.1788 39.1787 95.1788 37.8171L 93.1788 37.8171C 93.1788 39.0869 93.1716 40.4781 91.7081 41.9319L 93.1176 43.3508ZM 95.1788 37.8171C 95.1788 36.1909 94.9465 34.8906 94.1859 33.7368C 93.447 32.6161 92.2844 31.753 90.7176 30.8184L 89.693 32.536C 91.2167 33.445 92.0409 34.1168 92.5161 34.8377C 92.9696 35.5255 93.1788 36.3734 93.1788 37.8171L 95.1788 37.8171ZM 90.7176 30.8184C 89.7073 30.2157 88.8308 30.2386 87.5563 30.2386L 87.5563 32.2386C 88.9308 32.2386 89.233 32.2616 89.693 32.536L 90.7176 30.8184ZM 59.0156 63.3482C 60.1897 63.9364 61.2139 64.2317 62.0255 64.3117C 62.882 64.3817 63.6501 64.2481 64.2739 64.0818L 63.7561 62.1499C 63.2085 62.2975 62.7913 62.3838 62.2107 62.3202C 61.5853 62.2665 60.921 62.0748 59.9174 61.563L 59.0156 63.3482ZM 55.6638 53.0453C 55.7226 52.734 55.7488 52.4541 55.792 52.2328C 55.8327 52.013 55.8405 51.9482 55.9144 51.8613L 54.2622 50.7342C 54.0335 51.0909 53.8889 51.542 53.8273 51.8587C 53.7685 52.174 53.7427 52.4514 53.7 52.6664L 55.6638 53.0453ZM 7.883 21.3846L 14.7459 27.1689L 16.0348 25.6397L 9.17193 19.8553L 7.883 21.3846ZM 14.7459 27.1689L 15.3885 27.7106L 16.6775 26.1813L 16.0348 25.6397L 14.7459 27.1689ZM 11.8734 31.2166L 16.0873 27.1214L 14.6934 25.6872L 10.4795 29.7823L 11.8734 31.2166ZM 9.08224 19.7797L 8.73448 19.4866L 7.44555 21.0159L 7.79331 21.309L 9.08224 19.7797ZM 8.68298 19.446C 8.16071 19.0741 7.47188 18.8268 6.88416 18.8007C 6.31039 18.7994 5.62524 18.9869 5.03989 19.2764C 3.90729 19.8464 2.61211 20.9381 1.04874 22.297L 2.36077 23.8065C 3.98256 22.3968 5.07681 21.4968 5.93895 21.063C 6.35097 20.8506 6.56451 20.7832 6.8409 20.8002C 7.10333 20.7925 7.21612 20.837 7.49704 21.0565L 8.68298 19.446ZM 8.73448 19.4866L 7.86429 18.7532L 6.57536 20.2825L 7.44555 21.0159L 8.73448 19.4866ZM 7.49704 21.0565C 7.58649 21.1217 7.65475 21.1794 7.74976 21.2701L 9.12579 19.8187C 8.98804 19.6886 8.82484 19.5512 8.68298 19.446L 7.49704 21.0565Z"/>
<path id="path7_fill" d="M 64.3437 52.256C 63.6935 51.6716 62.5777 50.5943 60.3702 51.3788C 57.7212 52.6945 58.8587 56.237 61.5077 55.7984C 62.3207 54.9908 64.7506 53.4057 65.0002 53.8495C 64.9542 53.1733 64.7324 52.6053 64.3437 52.256Z"/>
<path id="path8_fill" d="M 60.3702 51.3788C 62.5777 50.5943 63.6935 51.6716 64.3437 52.256C 64.7324 52.6053 64.9542 53.1733 65.0002 53.8495C 65.0217 53.8877 65.0252 53.9407 65.0078 54.0102C 65.1103 54.4457 65.1897 57.5433 63.9022 58.3959C 63.5642 58.6197 63.0353 58.9894 62.6733 59.0915C 64.2785 58.6446 68.3368 56.5993 68.8876 55.4066C 68.6108 52.9218 67.2013 50.8346 65.2267 49.5965C 63.4607 50.0631 61.6947 50.5943 60.3702 51.3788Z"/>
<path id="path9_fill" d="M 78.2183 35.5747L 69.4547 29.0458L 50.6115 13.2926L 42.3613 6.55259C 47.8291 11.9854 77.5402 33.9259 61.0288 46.9442C 65.6723 43.8891 73.0417 39.0314 78.2183 35.5747Z"/>
<path id="path10_fill" d="M 16.033 26.946L 18.004 28.6072L 21.3795 31.4041L 28.7544 37.5145C 12.6783 24.1185 10.2148 12.6742 17.9476 7.5846L 1.26233 18.5665C 1.54606 18.4162 1.84005 18.2825 2.14297 18.1668C 3.90074 17.4951 5.78375 18.3074 7.21982 19.5178L 8.43778 20.5444C 8.46821 20.5686 8.49808 20.5939 8.52746 20.62L 15.3903 26.4043L 16.033 26.946Z"/>
<path id="path11_stroke" d="M 7.21982 19.5178L 7.86429 18.7532L 7.86429 18.7532L 7.21982 19.5178ZM 48.7041 54.0441L 48.0661 54.8141L 48.0718 54.8188L 48.0775 54.8234L 48.7041 54.0441ZM 0 19.3973L -0.626509 18.6179L 0.549779 20.2326L 0 19.3973ZM 22.6555 4.48599L 22.1212 3.64071L 22.1134 3.64563L 22.1057 3.65068L 22.6555 4.48599ZM 18.004 28.6072L 17.3595 29.3719L 17.366 29.3772L 18.004 28.6072ZM 16.033 26.946L 15.3885 27.7106L 15.3885 27.7106L 16.033 26.946ZM 28.0166 1.09708L 28.5509 1.94235L 28.5509 1.94235L 28.0166 1.09708ZM 69.4547 29.0458L 68.8133 29.813L 68.8348 29.8309L 68.8573 29.8477L 69.4547 29.0458ZM 8.43778 20.5444L 7.79331 21.309L 7.79332 21.309L 8.43778 20.5444ZM 2.14297 18.1668L 2.49993 19.1009L 2.14297 18.1668ZM 36.3314 1.62645L 35.6937 2.39678L 35.6987 2.40087L 36.3314 1.62645ZM 66.8883 61.8657L 66.1799 61.1598L 66.1799 61.1598L 66.8883 61.8657ZM 55.7243 50.6282L 55.0317 49.9069L 55.0317 49.9069L 55.7243 50.6282ZM 60.3692 48.4625L 60.4784 49.4565L 60.3692 48.4625ZM 57.9757 58.8684L 58.2167 57.8978L 58.2167 57.8978L 57.9757 58.8684ZM 59.4665 62.4556L 58.9268 63.2974L 58.9699 63.3251L 59.0157 63.3482L 59.4665 62.4556ZM 57.9757 61.4998L 57.349 62.2791L 57.3908 62.3127L 57.4359 62.3416L 57.9757 61.4998ZM 64.3437 52.256L 63.6753 52.9997L 63.6753 52.9997L 64.3437 52.256ZM 61.5077 55.7984L 61.671 56.785L 61.986 56.7328L 62.2124 56.5078L 61.5077 55.7984ZM 65.0078 54.0102L 64.0082 54.037L 64.0109 54.1395L 64.0344 54.2394L 65.0078 54.0102ZM 63.9022 58.3959L 64.4544 59.2297L 63.9022 58.3959ZM 65.2267 49.5965L 65.758 48.7492L 65.758 48.7492L 65.2267 49.5965ZM 63.2737 58.8684L 63.0296 57.8986L 62.9592 57.9163L 62.8922 57.944L 63.2737 58.8684ZM 61.9492 59.3069L 62.1859 60.2785L 61.9492 59.3069ZM 66.6753 62.0762L 67.3725 62.7931L 67.3725 62.7931L 66.6753 62.0762ZM 65.031 62.9274L 65.2105 63.9112L 65.2967 63.8954L 65.3789 63.8649L 65.031 62.9274ZM 64.015 63.1159L 64.2739 64.0818L 64.015 63.1159ZM 55.0883 51.2978L 54.2623 50.7342L 54.2622 50.7342L 55.0883 51.2978ZM 15.3903 26.4043L 14.7459 27.1689L 14.7459 27.1689L 15.3903 26.4043ZM 56.6556 49.8185L 56.1069 48.9824L 56.0839 48.9976L 56.0617 49.014L 56.6556 49.8185ZM 78.2183 35.5747L 78.8157 34.7728L 78.8157 34.7728L 78.2183 35.5747ZM 50.6115 13.2926L 51.2529 12.5254L 51.2442 12.5182L 50.6115 13.2926ZM 21.3795 31.4041L 22.0176 30.634L 22.0176 30.634L 21.3795 31.4041ZM 15.3885 27.7106L 17.3595 29.3718L 18.6485 27.8426L 16.6775 26.1813L 15.3885 27.7106ZM 23.1898 5.33127L 28.5509 1.94235L 27.4823 0.251799L 22.1212 3.64071L 23.1898 5.33127ZM 9.08224 19.7797L 7.86429 18.7532L 6.57536 20.2825L 7.79331 21.309L 9.08224 19.7797ZM 1.78601 17.2327C 1.45445 17.3599 1.10494 17.5188 0.794355 17.6827L 1.73031 19.4502C 1.98719 19.3136 2.22564 19.2052 2.49993 19.1009L 1.78601 17.2327ZM 0.712555 17.7311L -0.549779 18.562L 0.549779 20.2326L 1.81211 19.4018L 0.712555 17.7311ZM 7.81417 21.3261C 7.83377 21.3416 7.84346 21.3498 7.86347 21.3677L 9.19146 19.8722C 9.1527 19.8379 9.10264 19.7957 9.06138 19.7626L 7.81417 21.3261ZM 0.626509 20.1767C 0.980952 19.8904 1.32413 19.664 1.73031 19.4502L 0.794355 17.6827C 0.304397 17.9435 -0.197433 18.2744 -0.626509 18.6179L 0.626509 20.1767ZM 7.79332 21.309L 7.883 21.3846L 9.17192 19.8553L 9.08224 19.7797L 7.79332 21.309ZM 7.86429 18.7532C 6.32577 17.4565 4.05442 16.3658 1.78601 17.2327L 2.49993 19.1009C 3.74706 18.6243 5.24173 19.1584 6.57536 20.2825L 7.86429 18.7532ZM 28.5509 1.94235C 30.7781 0.53449 33.6667 0.718828 35.6937 2.39676L 36.969 0.85613C 34.2747 -1.37424 30.4401 -1.61794 27.4823 0.251799L 28.5509 1.94235ZM 67.8938 55.5173C 68.1425 57.75 67.5504 59.7844 66.1799 61.1598L 67.5967 62.5715C 69.4848 60.6766 70.1819 57.9928 69.8815 55.2959L 67.8938 55.5173ZM 56.4168 51.3496C 57.5195 50.2748 58.8318 49.6222 60.4784 49.4565L 60.2599 47.4685C 58.2709 47.7024 56.3704 48.6379 55.0317 49.9069L 56.4168 51.3496ZM 58.2167 57.8978C 57.7791 57.7892 57.2379 57.4189 56.7461 56.8063C 56.2393 56.185 55.9153 55.5289 55.7923 54.8119L 53.8255 55.1751C 54.0159 56.1553 54.5507 57.2567 55.1866 58.0585C 55.8374 58.8691 56.723 59.5876 57.7346 59.8389L 58.2167 57.8978ZM 60.0062 61.6137L 58.5154 60.6579L 57.4359 62.3416L 58.9268 63.2974L 60.0062 61.6137ZM 58.6023 60.7205L 49.3308 53.2648L 48.0775 54.8234L 57.349 62.2791L 58.6023 60.7205ZM 65.0121 51.5122C 64.6955 51.2277 64.109 50.7016 63.2994 50.3706C 62.4236 50.0342 61.3461 49.9708 60.0353 50.4366L 60.705 52.3211C 61.6018 52.0024 62.186 52.0854 62.5825 52.2376C 63.0452 52.3952 63.3417 52.6999 63.6753 52.9997L 65.0121 51.5122ZM 59.9254 50.4832C 58.167 51.3566 57.5744 53.0644 57.9907 54.5212C 58.4035 55.966 59.8061 57.0937 61.671 56.785L 61.3443 54.8118C 60.5602 54.9416 60.0696 54.5174 59.9137 53.9717C 59.7612 53.438 59.9244 52.7168 60.815 52.2744L 59.9254 50.4832ZM 63.6753 52.9997C 63.8044 53.1158 63.967 53.396 64.0026 53.9175L 65.9979 53.7815C 65.9413 52.9505 65.6604 52.0948 65.0121 51.5122L 63.6753 52.9997ZM 64.0026 53.9175C 64.0055 53.96 64.0071 53.993 64.0082 54.037L 66.0075 53.9835C 66.0057 53.9191 66.0022 53.8448 65.9979 53.7815L 64.0026 53.9175ZM 62.2124 56.5078C 62.5652 56.1537 63.2786 55.6291 63.9776 55.2134C 64.321 55.008 64.5867 54.8691 64.801 54.7946C 64.9031 54.758 64.9041 54.7706 64.8384 54.7723C 64.7991 54.7734 64.3724 54.7732 64.1286 54.3397L 65.8718 53.3593C 65.5656 52.8149 65.0084 52.7671 64.7853 52.7731C 64.5357 52.7797 64.2997 52.8497 64.1261 52.9119C 63.7892 53.035 63.3498 53.2596 62.9528 53.4959C 62.1712 53.9637 61.2632 54.6355 60.8029 55.0889L 62.2124 56.5078ZM 64.1286 54.3397C 63.9731 54.0632 64.0246 53.8201 64.0376 53.7681L 65.9781 54.2523C 66.0257 54.0614 66.0703 53.7122 65.8718 53.3593L 64.1286 54.3397ZM 60.4784 49.4565C 62.1516 49.2548 63.3559 49.591 64.6955 50.4437L 65.758 48.7492C 64.1593 47.7595 62.3087 47.261 60.2599 47.4685L 60.4784 49.4565ZM 64.6955 50.4437C 66.4242 51.5277 67.6523 53.3502 67.8938 55.5173L 69.8815 55.2959C 69.5693 52.4934 67.9785 50.1416 65.758 48.7492L 64.6955 50.4437ZM 60.8798 52.2392C 62.0965 51.5101 63.7325 51.0255 65.4822 50.5633L 64.9712 48.6296C 63.1889 49.1008 61.2929 49.6786 59.8606 50.5184L 60.8798 52.2392ZM 63.2737 58.8684C 62.8922 57.944 62.8922 57.944 62.8923 57.944C 62.8923 57.944 62.8923 57.9439 62.8924 57.9439C 62.8923 57.9439 62.8926 57.9438 62.8925 57.9439C 62.8925 57.9439 62.8926 57.9438 62.8926 57.9438C 62.8925 57.9439 62.8925 57.9439 62.8922 57.944C 62.8912 57.9444 62.8902 57.9448 62.8883 57.9456C 62.8839 57.9474 62.8784 57.9496 62.8699 57.953C 62.8514 57.9605 62.8271 57.9702 62.7933 57.9833C 62.7229 58.0108 62.63 58.0462 62.5134 58.088C 62.2739 58.1741 61.9932 58.2678 61.7125 58.3353L 62.1859 60.2785C 62.5447 60.1903 62.9262 60.0647 63.1891 59.9704C 63.3237 59.9221 63.442 59.877 63.52 59.8466C 63.5605 59.8308 63.5946 59.8172 63.6162 59.8086C 63.6276 59.804 63.6375 59.8 63.6433 59.7976C 63.6466 59.7962 63.6496 59.795 63.6513 59.7943C 63.6523 59.7939 63.6533 59.7935 63.6538 59.7933C 63.6541 59.7932 63.6545 59.793 63.6546 59.793C 63.6547 59.7929 63.6549 59.7929 63.655 59.7928C 63.655 59.7928 63.6551 59.7928 63.6551 59.7928C 63.6552 59.7927 63.6552 59.7927 63.2737 58.8684ZM 61.7125 58.3353C 60.804 58.5567 59.6416 58.2517 58.2167 57.8978L 57.7346 59.8389C 58.9445 60.1393 60.6845 60.6443 62.1859 60.2785L 61.7125 58.3353ZM 66.1799 61.1598C 66.1092 61.2308 66.0438 61.2954 65.9781 61.3593L 67.3725 62.7931C 67.444 62.7236 67.5205 62.6479 67.5967 62.5715L 66.1799 61.1598ZM 65.9781 61.3593C 65.7003 61.6295 65.4896 61.7371 65.3406 61.7945C 65.2507 61.8305 65.1814 61.8482 65.0769 61.8751C 64.9744 61.9016 64.8261 61.9388 64.6831 61.9899L 65.3789 63.8649C 65.4872 63.8247 66.4214 63.7181 67.3725 62.7931L 65.9781 61.3593ZM 65.031 62.9274C 64.8516 61.9436 64.8516 61.9436 64.8516 61.9436C 64.8515 61.9436 64.8515 61.9436 64.8515 61.9436C 64.8515 61.9436 64.8514 61.9436 64.8514 61.9437C 64.8513 61.9437 64.8511 61.9437 64.8508 61.9438C 64.8504 61.9438 64.8496 61.944 64.8487 61.9441C 64.8468 61.9445 64.8441 61.945 64.8405 61.9456C 64.8333 61.947 64.8227 61.9489 64.8092 61.9514C 64.7823 61.9563 64.7437 61.9633 64.6974 61.9718C 64.6049 61.9887 64.4809 62.0114 64.3558 62.0345C 64.1514 62.0721 63.8257 62.1313 63.7561 62.1499L 64.2739 64.0818C 64.2334 64.0926 64.2015 64.0978 64.258 64.0869C 64.2865 64.0815 64.3252 64.0742 64.3729 64.0652C 64.4688 64.0473 64.5933 64.0243 64.7176 64.0014C 64.842 63.9786 64.9651 63.956 65.0573 63.9391C 65.1034 63.9307 65.1417 63.9237 65.1685 63.9188C 65.1819 63.9164 65.1924 63.9145 65.1995 63.9131C 65.2031 63.9125 65.2058 63.912 65.2077 63.9117C 65.2086 63.9115 65.2093 63.9114 65.2098 63.9113C 65.21 63.9112 65.2102 63.9112 65.2103 63.9112C 65.2103 63.9112 65.2104 63.9112 65.2104 63.9112C 65.2104 63.9112 65.2104 63.9112 65.2104 63.9112C 65.2105 63.9112 65.2105 63.9112 65.031 62.9274ZM 65.4907 63.8155L 67.135 62.9643L 66.2156 61.1882L 64.5713 62.0393L 65.4907 63.8155ZM 55.9144 51.8614C 55.9403 51.8202 55.9636 51.7956 56.0447 51.7124L 54.6086 50.3204C 54.4907 50.4425 54.3573 50.598 54.2623 50.7342L 55.9144 51.8614ZM 56.0447 51.7124C 56.1372 51.6167 56.2555 51.5044 56.4168 51.3496L 55.0317 49.9069C 54.8739 50.0584 54.7298 50.1957 54.6086 50.3204L 56.0447 51.7124ZM 59.0157 63.3482C 60.1897 63.9364 61.2139 64.2317 62.0256 64.3117C 62.882 64.3817 63.6501 64.2481 64.2739 64.0818L 63.7561 62.1499C 63.2085 62.2975 62.7913 62.3838 62.2107 62.3202C 61.5853 62.2665 60.921 62.0748 59.9174 61.563L 59.0157 63.3482ZM 55.6638 53.0453C 55.7226 52.734 55.7488 52.4541 55.792 52.2328C 55.8327 52.013 55.8405 51.9482 55.9144 51.8613L 54.2622 50.7342C 54.0335 51.0909 53.8889 51.542 53.8273 51.8587C 53.7685 52.174 53.7427 52.4514 53.7 52.6664L 55.6638 53.0453ZM 7.883 21.3846L 14.7459 27.1689L 16.0348 25.6397L 9.17193 19.8553L 7.883 21.3846ZM 14.7459 27.1689L 15.3885 27.7106L 16.6775 26.1813L 16.0348 25.6397L 14.7459 27.1689ZM 56.0617 49.014C 55.6255 49.3361 55.2568 49.6267 55.0069 49.8494C 54.8738 49.9688 54.7345 50.1088 54.6446 50.2156C 54.5915 50.2809 54.5144 50.3918 54.4702 50.4696C 54.422 50.5584 54.3267 50.7552 54.3267 51.0164L 56.3267 51.0164C 56.3267 51.2396 56.2463 51.39 56.2277 51.4242C 56.2006 51.4742 56.1794 51.4979 56.1856 51.4904C 56.2125 51.4562 56.2464 51.4235 56.3396 51.3407C 56.5422 51.1589 56.838 50.9267 57.2495 50.623L 56.0617 49.014ZM 67.9798 54.9873C 67.9976 54.9345 67.938 55.0647 67.8126 55.1906C 67.6781 55.3299 67.5241 55.4607 67.3056 55.626C 66.8588 55.9662 66.3088 56.3099 65.6887 56.6554C 64.4371 57.3536 63.0995 57.9348 62.4051 58.1282L 62.9416 60.0549C 63.8524 59.8013 65.3465 59.1364 66.663 58.402C 67.327 58.0313 67.9952 57.612 68.5144 57.2193C 69.0028 56.8488 69.5445 56.3693 69.7955 55.8259L 67.9798 54.9873ZM 62.4019 58.1291C 62.3965 58.1306 62.437 58.1198 62.429 58.1218C 62.4379 58.1196 62.4639 58.1131 62.4978 58.1071C 62.5139 58.1043 62.5483 58.0985 62.5923 58.095C 62.6138 58.0935 62.6648 58.0919 62.6943 58.0921C 62.737 58.094 62.8448 58.1069 62.9092 58.1204C 63.0137 58.1521 63.2719 58.2919 63.4091 58.4162C 63.5592 58.6308 63.6717 59.109 63.6406 59.3399C 63.5942 59.4781 63.4809 59.6795 63.4277 59.7465C 63.3916 59.786 63.3269 59.8474 63.2996 59.8703C 63.2466 59.9129 63.2011 59.9405 63.1845 59.9504C 63.1627 59.9634 63.1446 59.973 63.134 59.9786C 63.1128 59.9896 63.0958 59.9975 63.0884 60.0008C 63.0725 60.0081 63.0601 60.0133 63.0565 60.0147C 63.0432 60.0202 63.0348 60.0233 63.0438 60.0199C 63.0554 60.0155 63.0744 60.0085 63.1023 59.9982C 63.159 59.9774 63.2385 59.9485 63.319 59.9191C 63.3995 59.8897 63.4822 59.8595 63.5417 59.8374C 63.5724 59.826 63.6033 59.8143 63.6236 59.8064C 63.6263 59.8053 63.6595 59.7926 63.6939 59.7766C 63.7078 59.7701 63.747 59.7502 63.7726 59.736C 63.7868 59.7279 63.8406 59.6971 63.9022 59.6476C 63.9298 59.6254 64.0003 59.567 64.0709 59.4746C 64.1049 59.4272 64.1745 59.3065 64.2071 59.2323C 64.242 59.1259 64.2758 58.8703 64.2654 58.7242C 64.2283 58.5636 64.0858 58.2816 63.9874 58.1654C 63.8989 58.0859 63.7261 57.9751 63.6471 57.9395C 63.4916 57.8773 63.3591 57.8707 63.3186 57.8689C 63.2191 57.8646 63.1415 57.8769 63.1262 57.8792C 63.076 57.8868 63.037 57.8967 63.0296 57.8986L 63.5178 59.8381C 63.5118 59.8396 63.4738 59.8494 63.4243 59.8569C 63.4094 59.8591 63.332 59.8713 63.2327 59.8671C 63.1923 59.8653 63.0599 59.8587 62.9044 59.7965C 62.8254 59.7609 62.6526 59.6501 62.5642 59.5706C 62.4658 59.4545 62.3233 59.1725 62.2862 59.0119C 62.2758 58.8658 62.3096 58.6102 62.3445 58.5038C 62.377 58.4296 62.4467 58.309 62.4807 58.2616C 62.5512 58.1692 62.6217 58.1109 62.6492 58.0888C 62.7106 58.0394 62.7642 58.0088 62.7781 58.0008C 62.8165 57.9788 62.8477 57.9645 62.8539 57.9616C 62.8833 57.948 62.9064 57.9394 62.8948 57.9439C 62.8864 57.9472 62.8717 57.9527 62.8452 57.9626C 62.7905 57.9829 62.7133 58.0111 62.6334 58.0403C 62.5535 58.0694 62.4722 58.099 62.4129 58.1208C 62.3828 58.1319 62.355 58.1422 62.3366 58.1491C 62.3255 58.1533 62.3059 58.161 62.2923 58.1665C 62.2855 58.1694 62.268 58.1769 62.2569 58.1819C 62.2478 58.1861 62.2245 58.1974 62.2103 58.2046C 62.1997 58.2103 62.1742 58.2244 62.1595 58.233C 62.1428 58.243 62.0972 58.2706 62.0442 58.3133C 62.0168 58.3362 61.9521 58.3976 61.916 58.4371C 61.8628 58.5041 61.7495 58.7055 61.7031 58.8438C 61.672 59.0747 61.7845 59.5528 61.9346 59.7675C 62.0718 59.8918 62.33 60.0316 62.4346 60.0633C 62.499 60.0768 62.6068 60.0897 62.6495 60.0916C 62.6791 60.0918 62.7301 60.0902 62.7516 60.0887C 62.7805 60.0859 62.8279 60.0796 62.8464 60.0765C 62.8685 60.0724 62.9033 60.0647 62.9162 60.0616C 62.9245 60.0595 62.9387 60.0557 62.9448 60.054L 62.4019 58.1291ZM 78.8157 34.7728L 70.0522 28.2439L 68.8573 29.8477L 77.6208 36.3767L 78.8157 34.7728ZM 77.6208 36.3767L 77.6873 36.4262L 78.8822 34.8224L 78.8157 34.7728L 77.6208 36.3767ZM 63.5176 59.8382C 63.516 59.8386 63.4632 59.8526 63.3956 59.8608C 63.3752 59.8633 63.3378 59.8672 63.2907 59.8679C 63.2575 59.8685 63.1506 59.8695 63.0193 59.8347C 62.9505 59.8139 62.7902 59.7425 62.7023 59.6876C 62.5889 59.5952 62.3917 59.3363 62.322 59.17C 62.2838 58.9979 62.2922 58.6851 62.3267 58.5519C 62.3617 58.4616 62.4403 58.318 62.479 58.2633C 62.5562 58.1616 62.6351 58.0993 62.6609 58.0792C 62.6965 58.0515 62.7269 58.0318 62.7439 58.0211C 62.7782 57.9996 62.8062 57.985 62.8176 57.9791C 62.8429 57.9661 62.863 57.9572 62.8687 57.9548C 62.8906 57.9451 62.9065 57.9392 62.8967 57.9429C 62.887 57.9467 62.8705 57.9529 62.8434 57.9629C 62.7877 57.9835 62.7097 58.012 62.6296 58.0412C 62.5496 58.0704 62.4681 58.1002 62.4091 58.1219C 62.379 58.133 62.3504 58.1436 62.3317 58.1507C 62.3198 58.1553 62.2956 58.1649 62.2786 58.1721C 62.2691 58.1762 62.2431 58.1882 62.2262 58.1964C 62.216 58.2015 62.1832 58.2179 62.1435 58.2426C 62.1253 58.2539 62.0827 58.281 62.0332 58.322C 62.0088 58.3429 61.9528 58.3965 61.9219 58.4299C 61.879 58.4819 61.7858 58.6274 61.7418 58.7233C 61.6939 58.881 61.6868 59.2664 61.7497 59.4797C 61.8523 59.6655 62.1086 59.9185 62.2379 59.9931C 62.3248 60.0299 62.4744 60.0723 62.5348 60.0825C 62.5761 60.0874 62.6474 60.0916 62.6773 60.0919C 62.7776 60.0913 62.8563 60.0748 62.8627 60.0735C 62.9044 60.0654 62.937 60.0562 62.9416 60.0549L 62.4051 58.1282C 62.4084 58.1272 62.44 58.1182 62.4811 58.1103C 62.4872 58.1091 62.5656 58.0925 62.6658 58.0919C 62.6956 58.0922 62.7669 58.0965 62.8082 58.1013C 62.8685 58.1115 63.0181 58.1539 63.105 58.1908C 63.2343 58.2654 63.4906 58.5183 63.5932 58.7041C 63.6561 58.9174 63.6489 59.3028 63.601 59.4605C 63.5571 59.5563 63.4639 59.7018 63.421 59.7538C 63.3902 59.7872 63.3341 59.8408 63.3098 59.8616C 63.2604 59.9026 63.2178 59.9297 63.1997 59.9409C 63.1602 59.9655 63.1277 59.9817 63.1178 59.9867C 63.0927 59.9992 63.0728 60.0077 63.0684 60.0096C 63.0492 60.0178 63.0354 60.0229 63.0454 60.0191C 63.0558 60.0151 63.0733 60.0086 63.1006 59.9986C 63.1563 59.978 63.2349 59.9493 63.3152 59.92C 63.3955 59.8907 63.478 59.8606 63.5378 59.8385C 63.5684 59.8271 63.5985 59.8159 63.6183 59.8082C 63.6312 59.8032 63.6583 59.7922 63.6774 59.784C 63.6875 59.7794 63.7145 59.7667 63.7317 59.758C 63.7461 59.7505 63.7835 59.7295 63.8063 59.7156C 63.8238 59.7044 63.8655 59.6754 63.8896 59.6572C 63.9155 59.6371 63.9944 59.5747 64.0717 59.473C 64.1104 59.4183 64.189 59.2747 64.224 59.1844C 64.2585 59.0511 64.2669 58.7383 64.2287 58.5662C 64.159 58.3999 63.9618 58.1409 63.8484 58.0486C 63.7604 57.9936 63.6001 57.9223 63.5313 57.9014C 63.4 57.8666 63.293 57.8677 63.2597 57.8682C 63.2284 57.8692 63.1758 57.873 63.1544 57.8754C 63.0863 57.8837 63.0326 57.8978 63.0298 57.8986L 63.5176 59.8382ZM 63.3501 57.5622C 63.1747 57.6783 62.9747 57.8157 62.7785 57.9342C 62.6809 57.9934 62.607 58.0357 62.5258 58.0755C 62.4491 58.1142 62.3693 58.1363 62.4019 58.1291L 62.9448 60.054C 63.2261 59.9688 63.5704 59.7924 63.8151 59.6446C 64.0583 59.4967 64.2918 59.3373 64.4544 59.2297L 63.3501 57.5622ZM 64.0344 54.2394C 64.0227 54.2009 64.0587 54.4405 64.0594 54.7641C 64.0613 55.1039 64.0445 55.4882 63.9855 55.9108C 63.928 56.3371 63.8509 56.6942 63.7081 57.0309C 63.5756 57.3522 63.4402 57.5025 63.3501 57.5622L 64.4544 59.2297C 65.008 58.863 65.3455 58.3064 65.557 57.7934C 65.7582 57.296 65.8963 56.6916 65.967 56.1825C 66.0363 55.6697 66.0609 55.1446 66.0594 54.7545C 66.0576 54.3848 66.0351 54.01 65.9812 53.7811L 64.0344 54.2394ZM 56.6556 49.8185C 57.2043 50.6545 57.2043 50.6545 57.2043 50.6545C 57.2043 50.6545 57.2043 50.6545 57.2043 50.6545C 57.2044 50.6544 57.2045 50.6544 57.2046 50.6543C 57.2048 50.6542 57.2051 50.654 57.2055 50.6537C 57.2064 50.6531 57.2077 50.6523 57.2094 50.6512C 57.2128 50.6489 57.2179 50.6456 57.2246 50.6412C 57.2381 50.6323 57.2582 50.6191 57.2848 50.6017C 57.3378 50.5669 57.4166 50.5152 57.5192 50.4478C 57.7245 50.313 58.0256 50.1153 58.4085 49.8637C 59.1743 49.3606 60.2679 48.6418 61.5784 47.7796L 60.4792 46.1088C 59.169 46.9708 58.076 47.6892 57.3103 48.1921C 56.9276 48.4436 56.6267 48.6412 56.4215 48.7759C 56.3189 48.8433 56.2403 48.8949 56.1873 48.9297C 56.1608 48.9471 56.1407 48.9603 56.1272 48.9691C 56.1205 48.9735 56.1154 48.9769 56.112 48.9791C 56.1103 48.9802 56.1091 48.981 56.1082 48.9816C 56.1078 48.9819 56.1075 48.9821 56.1073 48.9822C 56.1071 48.9823 56.1071 48.9823 56.107 48.9824C 56.107 48.9824 56.107 48.9824 56.107 48.9824C 56.1069 48.9824 56.1069 48.9824 56.6556 49.8185ZM 61.5784 47.7796C 66.2223 44.7243 73.5945 39.8647 78.7736 36.4064L 77.6629 34.7431C 72.4889 38.1982 65.1223 43.0539 60.4792 46.1088L 61.5784 47.7796ZM 49.9701 14.0599L 68.8133 29.813L 70.0961 28.2786L 51.2529 12.5254L 49.9701 14.0599ZM 35.6987 2.40087L 41.7286 7.32701L 42.9939 5.77816L 36.964 0.852022L 35.6987 2.40087ZM 41.7286 7.32701L 49.9788 14.0671L 51.2442 12.5182L 42.9939 5.77816L 41.7286 7.32701ZM 61.6479 47.7295C 66.0492 44.2593 67.4357 40.0986 66.8372 35.768C 66.2523 31.535 63.7873 27.2334 60.7272 23.2907C 54.6374 15.4444 45.6523 8.41284 43.0661 5.84321L 41.6564 7.26196C 44.5381 10.1252 53.1425 16.7803 59.1473 24.517C 62.1345 28.3658 64.3431 32.3298 64.8561 36.0418C 65.3555 39.6562 64.2641 43.1199 60.4097 46.1589L 61.6479 47.7295ZM 17.366 29.3772L 20.7415 32.1741L 22.0176 30.634L 18.642 27.8372L 17.366 29.3772ZM 17.3979 6.74929L 0.712555 17.7311L 1.81211 19.4018L 18.4974 8.41991L 17.3979 6.74929ZM 18.5139 8.40882C 19.8693 7.47736 21.4453 6.47964 23.2053 5.3213L 22.1057 3.65068C 20.3605 4.79939 18.7679 5.80798 17.3814 6.76039L 18.5139 8.40882ZM 18.4974 8.41991L 23.2053 5.3213L 22.1057 3.65068L 17.3979 6.74929L 18.4974 8.41991ZM 20.7415 32.1741L 28.1164 38.2846L 29.3924 36.7445L 22.0176 30.634L 20.7415 32.1741ZM 28.1164 38.2846L 48.0661 54.8141L 49.3421 53.2741L 29.3924 36.7445L 28.1164 38.2846ZM 17.3979 6.74929C 15.3354 8.12287 13.8302 10.0673 13.1561 12.2346C 12.4787 14.4705 12.5946 17.0094 13.4704 19.74C 15.2132 25.1736 20.0136 31.5326 28.1142 38.2828L 29.3945 36.7463C 21.4191 30.1004 16.9497 24.0392 15.3749 19.1292C 14.5919 16.6881 14.5371 14.5743 15.0702 12.8144C 15.6068 10.9858 16.6934 9.59113 18.4974 8.41991L 17.3979 6.74929Z"/>
</defs>
</svg>
