<svg width="100" height="100" viewBox="0 0 100 100" version="1.1" xmlns="http://www.w3.org/2000/svg" xmlns:xlink="http://www.w3.org/1999/xlink">
<title>smw-blue</title>
<desc>Created using Figma</desc>
<g id="Canvas" transform="translate(95 171)">
<g id="smw-blue">
<g id="Subtract">
<use xlink:href="#path0_fill" transform="translate(-95 -171)" fill="#0687E2"/>
</g>
</g>
</g>
<defs>
<path id="path0_fill" fill-rule="evenodd" d="M 100 50C 100 77.6142 77.6142 100 50 100C 31.8069 100 15.8833 90.2833 7.1356 75.7564C 7.94466 75.8563 8.83697 75.9062 9.8125 75.9062C 12.3542 75.9062 14.6458 75.4479 16.6875 74.5312C 18.75 73.6146 20.3854 72.25 21.5938 70.4375C 22.8021 68.6042 23.4062 66.375 23.4062 63.75C 23.4062 61.5833 22.9375 59.6875 22 58.0625C 21.0625 56.4167 19.8125 54.9792 18.25 53.75C 16.6875 52.5 14.5625 51.0312 11.875 49.3438C 11.2292 48.9479 9.96875 48.1875 8.09375 47.0625C 6.23959 45.9167 4.61459 44.6354 3.21875 43.2188C 2.11089 42.0943 1.44268 40.6878 1.21412 38.9991C 1.7243 36.7268 2.38917 34.513 3.19709 32.3693C 3.6895 31.8803 4.25922 31.4655 4.90625 31.125C 6.09375 30.5 7.4375 30.1875 8.9375 30.1875C 11.1875 30.1875 13.0625 30.7708 14.5625 31.9375C 16.0833 33.0833 17.2292 34.5833 18 36.4375C 18.7917 38.2917 19.2708 40.3125 19.4375 42.5L 20.9062 42.5C 20.9062 38.864 20.942 35.864 21.0134 33.5L 37.7173 80.1543C 38.3088 80.1029 39.2345 80.0771 40.4946 80.0771C 41.7547 80.0771 42.6805 80.1029 43.272 80.1543L 54.9214 44.936L 66.5708 80.1543C 67.1366 80.1029 68.0495 80.0771 69.3096 80.0771C 70.5954 80.0771 71.5212 80.1029 72.0869 80.1543L 86.0122 35.061C 87.5552 29.9692 89.8696 26.8319 92.9556 25.6489L 92.9556 24.3956C 97.4293 31.8848 100 40.6422 100 50ZM 92.7686 24.0852C 84.0008 9.6461 68.1269 0 50 0C 29.7019 0 12.2288 12.0953 4.39494 29.4717C 5.63997 29.1364 6.95624 28.9688 8.34375 28.9688C 9.65625 28.9688 10.7812 29.0833 11.7188 29.3125C 12.6771 29.5208 13.4688 29.7917 14.0938 30.125C 14.7188 30.4375 15.4062 30.8438 16.1562 31.3438C 17.1146 31.9479 17.8438 32.25 18.3438 32.25C 18.7396 32.25 19.0417 32.0312 19.25 31.5938C 19.4275 31.2032 19.5748 30.6234 19.6918 29.8546C 19.1545 28.5596 18.5025 27.582 17.7358 26.9219C 16.8358 26.1247 15.9357 25.7004 15.0356 25.6489L 15.0356 24.0674C 18.1987 24.2217 22.1333 24.2988 26.8394 24.2988C 31.2625 24.2988 34.4899 24.2217 36.5215 24.0674L 36.5215 25.6489C 34.6956 25.8804 33.7827 26.909 33.7827 28.7349C 33.7827 29.7121 34.0142 30.895 34.4771 32.2837L 46.0107 65.6118L 54.0342 42.1587L 49.9839 29.9307C 49.4696 28.3877 48.8524 27.3076 48.1323 26.6904C 47.4123 26.0732 46.5765 25.7261 45.625 25.6489L 45.625 24.0674C 48.5566 24.2217 52.3241 24.2988 56.9272 24.2988C 62.0448 24.2988 65.8379 24.2217 68.3066 24.0674L 68.3066 25.6489C 66.3779 25.7004 65.0021 25.9189 64.1792 26.3047C 63.3563 26.6904 62.9448 27.4491 62.9448 28.5806C 62.9448 29.4292 63.202 30.6636 63.7163 32.2837L 74.5171 65.3418L 82.0391 41.4644C 83.222 37.6069 83.8135 34.5339 83.8135 32.2451C 83.8135 29.9564 83.2477 28.3105 82.1162 27.3076C 81.0104 26.279 79.326 25.7261 77.063 25.6489L 77.063 24.0674C 80.6118 24.2217 83.8778 24.2988 86.8608 24.2988C 89.2574 24.2988 91.2266 24.2276 92.7686 24.0852ZM 9.375 74.625C 8.25919 74.625 7.22814 74.5108 6.28186 74.2824C 2.27983 67.0925 0 58.8125 0 50C 0 49.631 0.00399017 49.2629 0.0119476 48.8958C 0.503036 49.3987 1.03031 49.8709 1.59375 50.3125C 3.13541 51.5208 5.17709 52.8854 7.71875 54.4062C 10.0104 55.7812 11.8438 57.0104 13.2188 58.0938C 14.5938 59.1771 15.6771 60.375 16.4688 61.6875C 17.2812 62.9792 17.6875 64.4479 17.6875 66.0938C 17.6875 68.0104 17.2917 69.6146 16.5 70.9062C 15.7292 72.1771 14.7083 73.1146 13.4375 73.7188C 12.1875 74.3229 10.8333 74.625 9.375 74.625Z"/>
</defs>
</svg>
