<svg width="660" height="243" viewBox="0 0 660 243" version="1.1" xmlns="http://www.w3.org/2000/svg" xmlns:xlink="http://www.w3.org/1999/xlink">
<title>TN-2</title>
<desc>Created using Figma</desc>
<g id="Canvas" transform="translate(-20 179)">
<g id="TN-2">
<g id="Group">
<g id="Vector 2">
<use xlink:href="#path0_fill" transform="translate(26.097 -172.92)" fill="#0687E2"/>
</g>
<g id="Vector 2">
<use xlink:href="#path1_fill" transform="translate(26.097 -172.92)" fill="#FA4C60"/>
</g>
<g id="Vector 2">
<use xlink:href="#path2_fill" transform="translate(26 -173)" fill="#FFFFFF"/>
</g>
<g id="Vector 2">
<use xlink:href="#path3_stroke" transform="translate(26 -172.921)"/>
</g>
</g>
<g id="Star">
<use xlink:href="#path4_fill" transform="translate(102.138 -104.94)"/>
</g>
<g id="Star">
<use xlink:href="#path4_fill" transform="translate(404 -106)"/>
</g>
<g id="Star">
<use xlink:href="#path4_fill" transform="translate(265 -105)"/>
</g>
</g>
</g>
<defs>
<path id="path0_fill" d="M 0.10229 229.803C 9.46722 228.326 22.2195 230.697 31.5844 229.803C 45.1337 228.51 72.2322 230.56 85.1838 229.803C 110.489 228.326 152.532 231.951 171.062 229.803C 187.003 227.956 213.503 231.569 230.639 229.803C 250.365 227.771 308.548 233.129 324.089 229.803C 329.421 229.296 335.822 229.024 342.819 228.909L 342.819 1.05369C 312.28 1.14639 281.14 2.55033 275.073 1.84728C 252.756 -0.738917 219.282 1.84728 208.721 1.84728C 191.585 1.84728 146.554 -1.84729 137.986 1.84728C 137.986 7.5739 153.926 20.505 153.926 27.8941C 144.561 29.9262 104.113 25.3079 98.9323 27.8941C 93.5632 36.0461 92.5562 45.074 85.1838 48.7686C 78.8076 44.1503 77.4116 36.0461 72.4315 27.8941C 63.6643 27.8941 51.9083 24.7537 48.3218 27.8941C 45.6898 33.4714 53.3454 58.7816 54.2191 72.1745C 54.2977 73.3798 53.2249 74.2942 52.0172 74.2685C 36.5912 73.9414 34.3818 92.6222 40.7691 103.062C 41.8446 104.82 40.5188 108.284 38.4622 108.153C 28.0928 107.491 17.7571 106.071 14.2493 108.436C 15.8434 113.609 28.5956 122.845 31.5844 129.126C 29.9904 134.668 12.6553 143.35 14.2493 148.707C 15.8434 154.064 29.3926 159.976 31.5844 166.072C 28.9941 171.429 12.2568 179.557 12.2568 187.87C 12.2568 192.858 18.0352 197.291 18.0352 203.202C 16.0426 210.037 -1.49175 225.185 0.10229 229.803Z"/>
<path id="path1_fill" d="M 429.694 229.803C 445.236 228.326 474.327 232.02 480.105 229.803C 477.316 218.535 472.534 210.407 475.722 200.431C 477.67 194.335 484.688 190.456 484.688 187.131C 484.688 182.328 477.316 179.557 475.722 174.569C 477.714 170.321 486.282 172.168 488.474 170.321C 490.466 166.072 484.688 156.466 484.688 152.217C 492.314 155.463 498.636 160.53 504.215 160.53C 509.794 160.53 519.358 156.096 519.358 152.217C 521.351 149.077 517.964 138.547 519.358 135.407C 523.144 132.636 537.49 132.266 541.276 129.126C 542.87 124.508 535.099 121.921 535.099 118.596C 541.276 115.641 556.021 116.934 560.006 113.054C 561.799 107.328 553.232 100.493 553.232 94.9509C 553.232 89.409 562.796 76.478 569.172 73.8918C 571.961 73.8918 580.928 87.7465 584.913 94.9509C 584.913 86.0839 586.308 78.6947 590.293 73.8918C 597.466 73.8918 602.248 71.8597 604.639 69.0888C 602.447 63.7316 601.451 60.0371 604.639 57.0814C 612.211 57.0814 612.41 48.7686 618.786 48.7686C 622.373 45.2587 615.997 35.468 618.786 32.6971C 628.55 34.3597 646.482 27.7094 646.482 24.569C 648.276 17.5493 648.475 3.1404 646.482 0C 633.332 0 611.613 2.92486 604.639 1.84728C 590.293 -0.369459 567.777 3.32511 560.006 1.84728C 552.235 0.369459 535.099 3.22435 526.93 1.84728C 515.971 0 496.444 3.46365 488.474 1.84728C 475.722 -0.738918 446.83 2.46864 439.457 1.84728C 417.539 1.05703e-06 392.234 2.6877 378.486 1.84728C 367.899 1.20014 355.41 1.01547 342.819 1.05369L 342.819 228.909C 374.002 228.397 417 231.01 429.694 229.803Z"/>
<path id="path2_fill" fill-rule="evenodd" d="M 43.2672 108.469C 43.292 108.47 43.3168 108.47 43.3416 108.471C 44.0902 108.494 44.4256 107.394 43.8652 106.898L 43.8652 106.898C 44.4488 107.415 44.0741 108.494 43.2672 108.469ZM 53.37 74.4231C 53.401 74.4259 53.432 74.4287 53.4631 74.4316C 53.9071 74.4729 54.2997 74.1298 54.2871 73.684L 54.2871 73.684C 54.2998 74.1331 53.8524 74.4659 53.37 74.4231ZM 239.261 0.799477L 180.431 229.355C 183.301 229.452 271.045 230.085 273.969 230.19L 273.989 230.191C 294.605 230.933 315.643 231.69 324.089 229.883C 332.033 229.126 328.995 229.324 340.119 229.355L 394.316 1.9268C 391.878 1.99829 402.844 1.64779 400.519 1.72608C 391.895 2.01645 384.194 2.27575 378.486 1.9268C 367.955 1.28307 355.542 1.09695 343.018 1.13262C 336.66 1.15073 245.445 0.697874 239.261 0.799477Z"/>
<path id="path3_stroke" d="M 0.10229 229.803L -5.56936 231.761L -3.92889 236.514L 1.03755 235.73L 0.10229 229.803ZM 31.5844 229.803L 32.1545 235.776L 31.5844 229.803ZM 85.1838 229.803L 84.834 223.814L 85.1838 229.803ZM 171.062 229.803L 171.753 235.764L 171.062 229.803ZM 230.639 229.803L 230.024 223.835L 230.639 229.803ZM 324.089 229.803L 323.52 223.83L 323.174 223.863L 322.834 223.936L 324.089 229.803ZM 480.105 229.803L 482.254 235.405L 487.203 233.507L 485.929 228.362L 480.105 229.803ZM 475.722 200.431L 470.006 198.605L 475.722 200.431ZM 475.722 174.569L 470.289 172.022L 469.29 174.153L 470.006 176.396L 475.722 174.569ZM 488.474 170.321L 492.341 174.908L 493.347 174.06L 493.906 172.868L 488.474 170.321ZM 485.687 156.624L 479.998 158.532L 485.687 156.624ZM 519.358 152.217L 514.292 149.003L 513.358 150.474L 513.358 152.217L 519.358 152.217ZM 519.358 135.407L 515.815 130.565L 514.524 131.51L 513.875 132.971L 519.358 135.407ZM 541.276 129.126L 545.107 133.744L 546.4 132.671L 546.948 131.083L 541.276 129.126ZM 535.099 118.596L 532.51 113.184L 529.099 114.816L 529.099 118.596L 535.099 118.596ZM 560.006 113.054L 564.191 117.354L 565.279 116.295L 565.732 114.847L 560.006 113.054ZM 569.172 73.8918L 569.172 67.8918L 568.001 67.8918L 566.917 68.3317L 569.172 73.8918ZM 582.981 91.5975L 588.136 88.5272L 582.981 91.5975ZM 590.293 73.8918L 590.293 67.8918L 587.475 67.8918L 585.675 70.0605L 590.293 73.8918ZM 604.639 69.0888L 609.182 73.0086L 611.586 70.2226L 610.192 66.8168L 604.639 69.0888ZM 604.639 57.0814L 604.639 51.0814L 602.286 51.0814L 600.56 52.6814L 604.639 57.0814ZM 618.786 48.7686L 618.786 54.7686L 621.233 54.7686L 622.983 53.0568L 618.786 48.7686ZM 618.786 32.6971L 619.793 26.7822L 616.749 26.2638L 614.558 28.4403L 618.786 32.6971ZM 646.482 24.569L 640.669 23.0839L 640.482 23.8147L 640.482 24.569L 646.482 24.569ZM 646.482 0L 651.549 -3.21448L 649.781 -6L 646.482 -6L 646.482 0ZM 604.639 1.84728L 603.723 7.77692L 604.639 1.84728ZM 526.93 1.84728L 527.927 -4.06925L 526.93 1.84728ZM 488.474 1.84728L 489.666 -4.03301L 489.666 -4.03301L 488.474 1.84728ZM 439.457 1.84728L 438.954 7.82609L 439.457 1.84728ZM 378.486 1.84728L 378.852 -4.14154L 378.486 1.84728ZM 275.073 1.84728L 275.764 -4.11283L 275.073 1.84728ZM 137.986 1.84728L 135.61 -3.66231L 131.986 -2.09951L 131.986 1.84728L 137.986 1.84728ZM 153.926 27.8941L 155.199 33.7577L 159.926 32.7319L 159.926 27.8941L 153.926 27.8941ZM 98.9323 27.8941L 96.2524 22.5259L 94.8089 23.2465L 93.9215 24.5939L 98.9323 27.8941ZM 85.1838 48.7686L 81.6642 53.6278L 84.6148 55.765L 87.8719 54.1327L 85.1838 48.7686ZM 72.4315 27.8941L 77.5517 24.7662L 75.7971 21.8941L 72.4315 21.8941L 72.4315 27.8941ZM 48.3218 27.8941L 44.3692 23.38L 43.4289 24.2033L 42.8956 25.3335L 48.3218 27.8941ZM 54.2191 72.1745L 60.2063 71.7839L 54.2191 72.1745ZM 14.2493 108.436L 10.895 103.461L 7.20458 105.95L 8.51544 110.203L 14.2493 108.436ZM 31.5844 129.126L 37.3506 130.784L 37.9789 128.6L 37.0023 126.548L 31.5844 129.126ZM 31.5844 166.072L 36.9861 168.684L 38.0835 166.414L 37.2306 164.042L 31.5844 166.072ZM 18.0352 203.202L 23.7954 204.882L 24.0352 204.059L 24.0352 203.202L 18.0352 203.202ZM 343.018 1.0531L 343.036 7.05308L 343.018 1.0531ZM 488.788 154.161L 486.043 159.496L 488.788 154.161ZM 585.01 91.078L 591.002 91.3944L 585.01 91.078ZM 52.0172 74.2685L 52.1445 68.2699L 52.0172 74.2685ZM 38.4622 108.153L 38.08 114.141L 38.4622 108.153ZM 1.03755 235.73C 5.13294 235.054 10.0323 235.281 15.5221 235.576C 21.012 235.87 26.9872 236.25 32.1545 235.776L 31.0144 223.831C 26.8167 224.251 21.7333 223.892 16.1646 223.593C 10.5958 223.295 4.43657 223.075 -0.832968 223.877L 1.03755 235.73ZM 32.1545 235.776C 38.5886 235.152 48.389 235.344 58.4559 235.6C 68.5225 235.856 78.7862 236.181 85.5336 235.793L 84.834 223.814C 78.6298 224.182 68.8685 223.861 58.7606 223.604C 48.653 223.347 38.1295 223.161 31.0144 223.831L 32.1545 235.776ZM 85.5336 235.793C 97.9158 235.064 114.493 235.599 130.494 236.052C 146.495 236.506 162.07 236.871 171.753 235.764L 170.372 223.843C 161.524 224.883 146.812 224.51 130.833 224.057C 114.854 223.604 97.757 223.065 84.834 223.814L 85.5336 235.793ZM 171.753 235.764C 179.254 234.876 189.392 235.316 200.151 235.767C 210.909 236.219 222.252 236.683 231.254 235.772L 230.024 223.835C 221.89 224.689 211.415 224.229 200.654 223.778C 189.893 223.326 178.811 222.884 170.372 223.843L 171.753 235.764ZM 231.254 235.772C 240.582 234.811 259.455 235.604 278.722 236.285C 288.21 236.62 297.661 236.917 305.703 236.92C 313.59 236.923 320.75 236.654 325.345 235.671L 322.834 223.936C 319.658 224.616 313.717 224.923 305.707 224.92C 297.852 224.918 288.611 224.626 279.145 224.292C 260.504 223.633 240.423 222.764 230.024 223.835L 231.254 235.772ZM 324.658 235.776C 338.87 234.413 361.025 234.786 381.82 235.317C 402.282 235.838 422.016 236.561 430.262 235.776L 429.126 223.83C 421.831 224.524 403.307 223.861 382.126 223.32C 361.276 222.789 338.399 222.423 323.52 223.83L 324.658 235.776ZM 430.262 235.776C 437.6 235.063 448.335 235.612 458.282 236.074C 463.257 236.305 468.051 236.518 471.958 236.531C 473.936 236.536 475.864 236.484 477.412 236.359C 478.903 236.236 480.698 236.002 482.254 235.405L 477.956 224.201C 478.532 223.907 475.577 224.545 471.995 224.531C 468.336 224.521 463.803 224.318 458.839 224.087C 448.911 223.626 437.329 223.066 429.126 223.83L 430.262 235.776ZM 485.929 228.362C 484.429 222.354 482.539 217.513 481.5 213.208C 480.446 208.967 480.091 206.082 481.437 202.258L 470.006 198.605C 468.164 204.756 468.606 210.923 469.843 216.057C 471.096 221.127 472.992 225.985 474.281 231.245L 485.929 228.362ZM 481.437 202.258C 481.945 200.668 483.229 199.086 485.328 196.829C 486.306 195.779 487.464 194.544 488.377 193.333C 489.242 192.169 490.688 189.978 490.688 187.131L 478.688 187.131C 478.688 185.946 479.257 185.487 478.745 186.176C 478.282 186.818 477.564 187.558 476.543 188.655C 474.646 190.693 471.447 194.099 470.006 198.605L 481.437 202.258ZM 490.688 187.131C 490.565 184.722 489.463 181.926 488.411 180.38C 487.364 178.941 485.977 177.548 484.908 176.544C 482.351 174.144 481.646 173.396 481.437 172.743L 470.006 176.396C 471.392 180.73 475.169 183.861 476.697 185.295C 477.67 186.208 478.226 186.719 478.612 187.306C 478.992 187.787 478.565 187.124 478.688 187.131L 490.688 187.131ZM 481.154 177.117C 480.804 177.862 480.259 178.031 480.501 177.933C 481.003 177.691 481.529 177.636 482.695 177.507C 483.86 177.373 485.261 177.292 486.633 177.113C 487.659 176.976 490.296 176.632 492.341 174.908L 484.607 165.733C 485.556 164.933 486.3 165.051 485.041 165.219C 484.128 165.346 482.852 165.415 481.352 165.582C 479.852 165.753 477.725 166.148 475.992 166.812C 473.999 167.621 471.635 169.152 470.289 172.022L 481.154 177.117ZM 493.906 172.868C 495.675 169.096 494.646 164.798 493.99 162.441C 493.209 159.672 492.097 156.876 491.375 154.716L 479.998 158.532C 480.834 161.015 481.842 163.517 482.429 165.66C 482.722 166.701 482.856 167.278 482.884 167.927C 482.92 168.458 482.808 168.272 483.042 167.773L 493.906 172.868ZM 486.043 159.496C 488.818 160.921 491.62 162.557 494.408 163.89C 497.168 165.202 500.562 166.53 504.215 166.53L 504.215 154.53C 503.321 154.53 501.92 154.174 499.562 153.053C 497.234 151.951 494.596 150.403 491.532 148.825L 486.043 159.496ZM 504.215 166.53C 508.249 166.53 512.99 165.038 516.63 163.16C 518.473 162.198 520.575 160.771 521.97 159.444C 523.364 158.082 525.358 155.61 525.358 152.217L 513.358 152.217C 513.358 150.764 514.157 150.3 513.584 150.861C 513.011 151.456 512.373 151.865 511.128 152.496C 508.591 153.805 505.76 154.53 504.215 154.53L 504.215 166.53ZM 524.425 155.432C 525.942 153.04 526.019 150.201 526.002 148.644C 525.976 146.861 525.753 144.815 525.537 143.074C 525.321 141.333 525.112 139.81 525.039 138.551C 524.945 137.006 525.156 137.135 524.842 137.842L 513.875 132.971C 512.864 135.248 512.975 137.871 513.061 139.282C 513.169 140.979 513.42 142.873 513.628 144.55C 513.836 146.226 513.999 147.598 514.003 148.77C 514.018 150.169 513.771 149.824 514.292 149.003L 524.425 155.432ZM 522.902 140.248C 522.735 140.457 523.585 139.933 525.273 139.526C 527.024 139.095 529.118 138.725 531.4 138.306C 533.681 137.888 536.184 137.412 538.342 136.837C 540.32 136.307 543.068 135.435 545.107 133.744L 537.446 124.508C 537.585 124.287 536.876 124.814 535.232 125.247C 533.516 125.712 531.487 126.09 529.235 126.503C 526.983 126.916 524.545 127.354 522.423 127.87C 520.505 128.338 517.824 129.095 515.815 130.565L 522.902 140.248ZM 546.948 131.083C 549.133 124.752 544.32 120.344 542.896 119.005C 541.908 118.079 541.17 117.47 540.75 116.982C 540.258 116.436 541.099 117.092 541.099 118.596L 529.099 118.596C 529.099 121.763 530.912 123.989 531.828 125.007C 532.815 126.084 533.92 127.034 534.675 127.747C 535.432 128.455 535.764 129.08 535.692 128.828C 535.562 128.585 535.361 127.875 535.605 127.168L 546.948 131.083ZM 537.689 124.009C 538.617 123.524 539.845 123.278 541.947 122.96C 544.083 122.629 546.494 122.407 549.014 122.138C 551.536 121.867 554.302 121.521 556.651 120.988C 558.87 120.476 561.944 119.542 564.191 117.354L 555.821 108.755C 556.076 108.507 555.813 108.866 553.953 109.295C 552.223 109.703 550.169 109.945 547.735 110.206C 545.299 110.467 542.617 110.719 540.126 111.098C 537.602 111.49 534.671 112.191 532.51 113.184L 537.689 124.009ZM 565.732 114.847C 566.715 111.707 566.148 108.777 565.35 106.559C 564.596 104.532 563.404 102.42 562.402 100.789C 561.399 99.1611 560.504 97.806 559.88 96.5714C 559.264 95.3985 559.323 94.6106 559.232 94.9509L 547.232 94.9509C 547.232 97.7796 548.293 100.278 549.205 102.053C 550.131 103.838 551.266 105.588 552.181 107.077C 553.096 108.564 553.71 109.581 554.058 110.619C 554.425 111.54 554.084 111.414 554.28 111.261L 565.732 114.847ZM 559.232 94.9509C 559.305 95.4014 559.391 93.9682 560.213 92.3275C 561.062 90.5765 562.16 88.8384 563.61 86.914C 566.673 82.8314 569.836 80.0973 571.427 79.4518L 566.917 68.3317C 562.132 70.2725 557.324 75.297 554.011 79.7119C 552.274 82.0363 550.582 84.7317 549.438 87.0448C 548.335 89.2956 547.232 92.1563 547.232 94.9509L 559.232 94.9509ZM 569.172 79.8918C 568.285 79.8918 567.645 79.6641 567.359 79.5444C 567.054 79.4167 566.886 79.3 566.873 79.291C 566.737 79.2109 567.061 79.4269 567.441 79.8184C 568.31 80.6923 569.279 81.889 570.496 83.5292C 572.977 86.8614 575.662 91.032 577.826 94.6677L 588.136 88.5272C 585.862 84.7107 582.842 80.0285 580.128 76.3709C 578.747 74.5162 577.246 72.6837 575.995 71.4022C 575.314 70.7161 574.393 69.9124 573.671 69.4028C 572.996 68.9384 571.358 67.8918 569.172 67.8918L 569.172 79.8918ZM 591.002 91.3944C 591.355 84.7113 592.751 80.3255 594.91 77.723L 585.675 70.0605C 581.056 75.6283 579.42 83.1546 579.019 90.7615L 591.002 91.3944ZM 590.293 79.8918C 598.381 79.8918 605.202 77.6201 609.182 73.0086L 600.096 65.169C 599.294 66.0993 596.551 67.8918 590.293 67.8918L 590.293 79.8918ZM 610.192 66.8168C 609.074 64.0826 608.664 62.663 608.61 61.8046C 608.557 61.3619 608.698 61.4375 608.596 61.5784C 608.565 61.778 608.389 61.7354 608.718 61.4814L 600.56 52.6814C 597.532 55.4883 596.405 58.96 596.634 62.5645C 596.828 65.6316 598.013 68.7379 599.086 71.3608L 610.192 66.8168ZM 604.639 63.0814C 611.286 63.0814 614.794 59.0581 616.703 56.8448C 618.886 54.3158 618.785 54.7686 618.786 54.7686L 618.786 42.7686C 612.411 42.7686 609.023 47.3778 607.618 49.0052C 605.942 50.9483 605.563 51.0814 604.639 51.0814L 604.639 63.0814ZM 622.983 53.0568C 625.647 50.4493 625.977 47.1053 625.903 44.961C 625.807 42.9389 625.321 40.6874 624.911 39.0195C 624.499 37.3507 624.161 36.1453 624.078 35.2295C 623.951 34.0749 624.438 35.5396 623.014 36.9539L 614.558 28.4403C 611.739 31.2401 611.977 34.9677 612.149 36.5379C 612.365 38.3468 612.874 40.328 613.259 41.892C 613.645 43.4568 613.907 44.4843 613.91 45.3717C 613.937 46.1369 613.718 45.3329 614.59 44.4803L 622.983 53.0568ZM 617.779 38.612C 624.105 39.6891 632.15 38.0838 638.144 36.1422C 641.239 35.1341 644.343 33.8203 646.486 32.6178C 647.633 31.9606 648.956 31.0329 649.803 30.2586C 650.518 29.5869 652.482 27.6153 652.482 24.569L 640.482 24.569C 640.482 23.3337 640.916 22.4683 641.146 22.0879C 641.073 22.1984 641.493 21.6038 641.455 21.6545C 641.431 21.6777 641.565 21.5305 641.582 21.5176C 641.753 21.3335 641.256 21.7956 640.57 22.1775C 639.045 23.0532 637.056 23.887 634.447 24.7261C 629.034 26.4791 623.231 27.3676 619.793 26.7822L 617.779 38.612ZM 652.296 26.0541C 653.291 22.0826 653.87 15.9954 653.902 10.8604C 653.913 8.2719 653.788 5.57582 653.53 3.44556C 653.3 1.56712 652.846 -1.16922 651.549 -3.21448L 641.416 3.21448C 641.115 2.73942 641.383 2.98184 641.62 4.90767C 641.83 6.58169 641.916 8.51539 641.902 10.7991C 641.884 15.4086 641.467 20.0357 640.669 23.0839L 652.296 26.0541ZM 646.482 -6C 639.656 -5.99475 630.714 -5.24992 622.795 -4.65543C 614.477 -4.03093 608.184 -3.67623 605.555 -4.08235L 603.723 7.77692C 608.068 8.44838 616.121 7.87943 623.694 7.3109C 631.665 6.71235 640.158 5.99475 646.482 6L 646.482 -6ZM 605.555 -4.08235C 597.805 -5.25147 587.965 -4.88486 579.527 -4.42075C 575.305 -4.18837 571.387 -3.93829 568.059 -3.83823C 564.771 -3.73693 562.56 -3.75206 561.127 -4.04707L 558.885 7.74164C 561.338 8.18554 564.856 8.26277 568.423 8.15626C 571.95 8.0485 576.015 7.79057 580.186 7.56113C 588.535 7.1016 597.126 6.7293 603.723 7.77692L 605.555 -4.08235ZM 561.127 -4.04707C 556.336 -4.95825 549.202 -4.51771 543.277 -4.18083C 536.674 -3.80539 531.18 -3.52097 527.927 -4.06925L 525.933 7.76382C 530.849 8.5926 538.008 8.13811 543.958 7.79982C 550.586 7.42298 555.906 7.175 558.885 7.74164L 561.127 -4.04707ZM 527.927 -4.06925C 521.632 -5.13043 513.253 -4.64854 506.223 -4.22863C 498.492 -3.76679 492.671 -3.4237 489.666 -4.03301L 487.281 7.72758C 492.247 8.73464 500.175 8.15409 506.939 7.75001C 514.405 7.30401 521.269 6.97771 525.933 7.76382L 527.927 -4.06925ZM 489.666 -4.03301C 482.446 -5.4973 471.275 -5.27861 461.701 -4.88445C 456.789 -4.68204 452.08 -4.41977 448.17 -4.24851C 444.278 -4.07766 441.474 -3.99488 439.961 -4.13152L 438.954 7.82609C 441.127 8.00012 444.699 7.91497 448.696 7.73998C 452.676 7.5654 457.369 7.30391 462.195 7.10539C 472.099 6.69765 481.749 6.60567 487.281 7.72758L 489.666 -4.03301ZM 439.961 -4.13152C 428.697 -5.07306 416.546 -4.86446 405.721 -4.52738C 394.888 -4.18972 385.401 -3.73237 378.852 -4.14154L 378.12 7.83611C 385.319 8.26735 395.359 7.80106 406.095 7.4668C 416.839 7.13195 428.3 6.92035 438.954 7.82609L 439.961 -4.13152ZM 275.764 -4.11283C 253.034 -6.74685 218.359 -4.15272 208.721 -4.15272L 208.721 7.84728C 220.204 7.84728 252.478 5.26901 274.382 7.8074L 275.764 -4.11283ZM 208.721 -4.15272C 200.331 -4.15007 184.885 -5.07011 170.332 -5.53513C 163.051 -5.76733 155.896 -5.88441 150.061 -5.70859C 147.117 -5.61827 144.318 -5.44085 142.061 -5.16991C 139.862 -4.90353 137.508 -4.48082 135.61 -3.66231L 140.362 7.35688C 140.606 7.25174 141.533 6.98172 143.504 6.74299C 145.416 6.50881 147.675 6.36873 150.426 6.28586C 155.979 6.11531 162.76 6.22914 169.949 6.45876C 184.338 6.91739 199.975 7.84464 208.721 7.84728L 208.721 -4.15272ZM 131.986 1.84728C 131.986 5.41443 134.172 8.75216 135.563 10.7367C 137.208 13.0755 139.34 15.6343 141.312 18.0459C 143.285 20.458 145.064 22.666 146.378 24.7409C 147.657 26.7152 147.791 28.4722 147.926 27.8941L 159.926 27.8941C 159.926 24.2019 158.066 20.7476 156.493 18.2837C 154.819 15.6769 152.613 12.9087 150.601 10.4486C 148.588 7.98791 146.734 5.77848 145.391 3.85117C 143.792 1.56958 143.986 1.14344 143.986 1.84728L 131.986 1.84728ZM 152.654 22.0306C 151.124 22.3627 147.564 22.4986 142.235 22.389C 137.133 22.2847 131.121 21.9822 125.15 21.6933C 119.179 21.4044 113.224 21.1286 108.442 21.089C 106.026 21.0702 103.729 21.1167 101.936 21.2528C 100.393 21.3721 98.08 21.6135 96.2524 22.5259L 101.612 33.2624C 101.08 33.5282 101.164 33.3482 102.861 33.2171C 104.308 33.1028 106.094 33.07 108.345 33.0886C 112.897 33.1241 118.611 33.3909 124.57 33.6793C 130.53 33.9677 136.709 34.2772 141.988 34.3864C 147.039 34.4904 152.047 34.4416 155.199 33.7577L 152.654 22.0306ZM 93.9215 24.5939C 90.8953 29.2587 89.1436 33.8905 87.4287 37.3478C 85.7377 40.7747 84.376 42.4621 82.4956 43.4044L 87.8719 54.1327C 93.364 51.3804 96.192 46.7067 98.1898 42.658C 100.164 38.6396 101.6 34.6816 103.943 31.1944L 93.9215 24.5939ZM 88.7033 43.9093C 86.4015 42.3864 85.3144 40.3955 83.6758 37.0241C 82.0087 33.6206 80.2949 29.3006 77.5517 24.7662L 67.3113 31.0221C 69.5481 34.6397 71.0224 38.4478 72.8924 42.2889C 74.7909 46.1622 77.5899 50.5324 81.6642 53.6278L 88.7033 43.9093ZM 72.4315 21.8941C 68.503 21.9114 63.6329 21.1519 58.9573 20.7394C 56.5955 20.5338 54.0014 20.4231 51.8643 20.5906C 49.7739 20.7671 46.7508 21.2947 44.3692 23.38L 52.2743 32.4083C 51.686 32.9234 51.4774 32.6659 52.8739 32.548C 54.2238 32.421 55.7891 32.5066 57.9106 32.6936C 62.2013 33.0662 67.5928 33.8769 72.4315 33.8941L 72.4315 21.8941ZM 42.8956 25.3335C 42.0375 27.152 41.8361 29.1455 41.7869 30.6531C 41.7433 32.176 41.8497 34.0925 42.0443 35.9227C 42.4319 39.5 43.2112 43.858 44.0665 48.2504C 45.7751 57.0215 47.8418 66.3214 48.2318 72.5651L 60.2063 71.7839C 59.7227 64.6347 57.5248 54.5831 55.8452 45.9565C 55.0063 41.6501 54.3106 37.7978 53.9758 34.6423C 53.8091 33.106 53.7424 32.0255 53.7805 31.0444C 53.813 30.0481 53.9481 30.0306 53.7479 30.4547L 42.8956 25.3335ZM 52.1445 68.2699C 46.9968 68.1607 42.5346 69.6613 39.0472 72.5234C 36.004 75.1456 33.529 79.3214 32.4406 82.9914C 30.2954 90.5592 31.5959 99.5654 35.651 106.194L 45.8872 99.931C 43.5551 96.1191 42.7666 90.5649 43.9857 86.264C 44.5795 83.9997 45.1501 82.9141 46.6601 81.7994C 47.7259 80.9247 49.3247 80.2128 51.89 80.2672L 52.1445 68.2699ZM 38.8444 102.165C 33.7688 101.842 28.5003 101.315 23.98 101.163C 21.6857 101.089 19.2947 101.124 17.3603 101.341C 15.4461 101.564 12.98 102.056 10.895 103.461L 17.6036 113.411C 17.2726 113.634 17.4138 113.416 18.7482 113.261C 20.0623 113.1 21.561 113.088 23.5853 113.156C 27.7022 113.288 32.7862 113.802 38.08 114.141L 38.8444 102.165ZM 8.51544 110.203C 9.3181 112.808 11.1874 115.18 12.6766 116.898C 14.2863 118.749 16.2771 120.744 18.1626 122.619C 20.0479 124.495 21.852 126.277 23.3717 127.976C 24.8701 129.641 25.726 130.698 26.1666 131.704L 37.0023 126.548C 35.9484 124.413 34.0895 121.96 32.3064 119.965C 30.5447 118.004 28.5007 115.977 26.6251 114.111C 24.7497 112.246 23.0667 110.569 21.7436 109.037C 20.4642 107.573 19.936 106.26 19.9832 106.669L 8.51544 110.203ZM 25.8182 127.467C 25.9425 127.035 25.8353 127.591 23.9188 129.353C 22.2735 130.871 20.1445 132.531 17.9302 134.335C 15.7135 136.143 13.2574 138.258 11.517 140.249C 10.6008 141.325 9.5411 142.898 8.95223 144.201C 8.26993 145.801 7.78058 148.006 8.49851 150.418L 20.0001 146.996C 20.3196 148.069 20.0232 148.831 19.9901 148.909C 19.9298 149.128 20.0959 148.663 20.6056 148.085C 21.7171 146.768 23.3955 145.362 25.5125 143.636C 27.6319 141.908 30.036 140.023 32.0396 138.187C 33.7719 136.595 36.4293 133.987 37.3506 130.784L 25.8182 127.467ZM 8.49851 150.418C 9.39448 153.429 11.6291 155.742 13.2655 157.244C 15.0194 158.843 17.1585 160.455 19.0815 161.904C 21.0048 163.353 22.7083 164.635 24.0833 165.928C 24.7555 166.551 25.1381 166.946 25.5266 167.462C 25.8969 167.924 25.9925 168.334 25.9383 168.102L 37.2306 164.042C 36.1836 161.13 34.0497 158.814 32.2673 157.152C 30.4356 155.454 28.2412 153.781 26.3039 152.321C 24.3664 150.861 22.6823 149.609 21.3789 148.402C 19.9579 147.098 19.9012 146.663 20.0001 146.996L 8.49851 150.418ZM 26.1827 163.46C 26.3082 163 25.3502 164.501 23.5832 165.999C 21.7752 167.541 19.4693 169.295 17.1178 171.245C 14.7678 173.197 12.1531 175.583 10.2248 177.965C 8.27466 180.406 6.25679 183.793 6.25679 187.87L 18.2568 187.87C 18.2568 187.79 18.3311 187.044 19.6001 185.455C 20.8911 183.808 22.6226 182.269 24.7807 180.48C 26.9373 178.689 29.3014 176.887 31.3602 175.138C 33.1953 173.577 35.7122 171.318 36.9861 168.684L 26.1827 163.46ZM 6.25679 187.87C 6.25679 192.346 8.82587 196.268 9.96633 198.218C 11.5073 200.854 12.0352 202.1 12.0352 203.202L 24.0352 203.202C 24.0352 198.394 21.6738 194.467 20.3256 192.161C 18.5769 189.17 18.2568 188.381 18.2568 187.87L 6.25679 187.87ZM 12.2749 201.523C 12.1352 202.003 11.3673 203.409 9.42376 205.92C 7.63106 208.24 5.39005 210.814 3.15108 213.449C 0.910573 216.087 -1.41031 218.901 -3.04077 221.332C -3.88717 222.609 -4.76851 224.199 -5.27445 225.481C -5.77357 226.793 -6.45991 229.181 -5.56936 231.761L 5.77394 227.846C 6.26598 229.271 5.77889 230.175 5.94136 229.748C 6.097 229.292 6.33957 228.887 6.944 227.988C 8.21517 226.066 10.1035 223.8 12.2964 221.219C 14.4909 218.636 16.9074 215.853 18.913 213.266C 20.7677 210.869 22.9389 207.82 23.7954 204.882L 12.2749 201.523ZM 378.852 -4.14154C 368.183 -4.79211 355.578 -4.98246 343.001 -4.94687L 343.036 7.05308C 355.506 7.01732 367.727 7.19922 378.12 7.83611L 378.852 -4.14154ZM 343.001 -4.94687C 327.636 -4.90276 312.111 -4.527 299.716 -4.25142C 286.978 -3.9682 278.267 -3.82266 275.764 -4.11283L 274.382 7.8074C 277.958 8.22181 287.919 8.01385 299.983 7.74562C 312.39 7.46976 327.798 7.09614 343.036 7.05308L 343.001 -4.94687ZM 491.375 154.716C 491.753 155.842 491.553 157.745 489.949 158.993C 488.476 160.14 486.866 159.92 486.043 159.496L 491.532 148.825C 488.796 147.418 485.294 147.41 482.578 149.524C 479.731 151.74 478.937 155.367 479.998 158.532L 491.375 154.716ZM 577.826 94.6677C 579.726 97.8575 583.211 98.5008 585.67 97.8677C 588.115 97.2379 590.81 95.0313 591.002 91.3944L 579.019 90.7615C 579.156 88.1561 581.1 86.6529 582.677 86.2468C 584.267 85.8374 586.765 86.2248 588.136 88.5272L 577.826 94.6677ZM 48.2318 72.5651C 48.0334 69.5232 50.618 68.2375 52.1445 68.2699L 51.89 80.2672C 55.8317 80.3508 60.562 77.2365 60.2063 71.7839L 48.2318 72.5651ZM 35.651 106.194C 35.1876 105.436 35.1497 104.8 35.1518 104.563C 35.1542 104.301 35.2046 104.119 35.2675 103.971C 35.322 103.843 35.4995 103.472 35.9788 103.069C 36.509 102.623 37.5128 102.08 38.8444 102.165L 38.08 114.141C 42.9323 114.45 45.4816 110.619 46.3129 108.661C 47.21 106.549 47.7936 103.047 45.8872 99.931L 35.651 106.194Z"/>
<path id="path4_fill" d="M 41.9728 17.5548C 43.7693 12.0278 51.5885 12.0278 53.385 17.5548L 57.0361 28.7871C 57.8395 31.2589 60.1431 32.9324 62.7422 32.9324L 74.5523 32.9324C 80.3652 32.9324 82.7815 40.3713 78.0781 43.7871L 68.5276 50.7233C 66.4238 52.2511 65.5435 54.9601 66.3473 57.4328L 69.9962 68.6586C 71.7929 74.186 65.467 78.7835 60.7643 75.3681L 51.2047 68.4254C 49.1022 66.8984 46.2556 66.8984 44.1531 68.4254L 34.5936 75.3681C 29.8908 78.7835 23.5649 74.186 25.3616 68.6586L 29.0105 57.4328C 29.8143 54.9601 28.934 52.2511 26.8302 50.7233L 17.2797 43.7871C 12.5764 40.3713 14.9926 32.9324 20.8055 32.9324L 32.6156 32.9324C 35.2147 32.9324 37.5183 31.2589 38.3217 28.7871L 41.9728 17.5548Z"/>
</defs>
</svg>
