<svg width="658" height="241" viewBox="0 0 658 241" version="1.1" xmlns="http://www.w3.org/2000/svg" xmlns:xlink="http://www.w3.org/1999/xlink">
<title>TN-3</title>
<desc>Created using Figma</desc>
<g id="Canvas" transform="translate(-75 854)">
<g id="TN-3">
<g id="Vector 2">
<use xlink:href="#path0_stroke" transform="translate(80 -849)"/>
</g>
<g id="Star">
<use xlink:href="#path1_fill" transform="translate(309 -809.079)"/>
</g>
</g>
</g>
<defs>
<path id="path0_stroke" d="M 0.10229 229.803L -4.62409 231.435L -3.25703 235.395L 0.881672 234.742L 0.10229 229.803ZM 31.5844 229.803L 32.0595 234.781L 31.5844 229.803ZM 85.1838 229.803L 84.8923 224.812L 85.1838 229.803ZM 171.062 229.803L 171.638 234.77L 171.062 229.803ZM 230.639 229.803L 230.127 224.83L 230.639 229.803ZM 324.089 229.803L 323.615 224.826L 323.327 224.853L 323.043 224.914L 324.089 229.803ZM 480.105 229.803L 481.896 234.472L 486.02 232.89L 484.959 228.602L 480.105 229.803ZM 475.722 200.431L 470.959 198.909L 470.959 198.909L 475.722 200.431ZM 475.722 174.569L 471.195 172.446L 470.362 174.223L 470.959 176.091L 475.722 174.569ZM 488.474 170.321L 491.696 174.144L 492.535 173.437L 493.001 172.443L 488.474 170.321ZM 485.687 156.624L 480.946 158.214L 480.946 158.214L 485.687 156.624ZM 519.358 152.217L 515.136 149.538L 514.358 150.765L 514.358 152.217L 519.358 152.217ZM 519.358 135.407L 516.405 131.372L 515.33 132.159L 514.789 133.377L 519.358 135.407ZM 541.276 129.126L 544.469 132.974L 545.546 132.08L 546.003 130.757L 541.276 129.126ZM 535.099 118.596L 532.941 114.086L 530.099 115.446L 530.099 118.596L 535.099 118.596ZM 560.006 113.054L 563.494 116.637L 564.4 115.755L 564.778 114.549L 560.006 113.054ZM 569.172 73.8918L 569.172 68.8918L 568.196 68.8918L 567.292 69.2584L 569.172 73.8918ZM 582.981 91.5975L 587.277 89.0389L 582.981 91.5975ZM 590.293 73.8918L 590.293 68.8918L 587.944 68.8918L 586.445 70.6991L 590.293 73.8918ZM 604.639 69.0888L 608.425 72.3553L 610.428 70.0336L 609.267 67.1955L 604.639 69.0888ZM 604.639 57.0814L 604.639 52.0814L 602.678 52.0814L 601.24 53.4147L 604.639 57.0814ZM 618.786 48.7686L 618.786 53.7686L 620.826 53.7686L 622.283 52.3421L 618.786 48.7686ZM 618.786 32.6971L 619.625 27.7681L 617.088 27.336L 615.262 29.1497L 618.786 32.6971ZM 646.482 24.569L 641.638 23.3314L 641.482 23.9404L 641.482 24.569L 646.482 24.569ZM 646.482 0L 650.704 -2.67873L 649.231 -5L 646.482 -5L 646.482 0ZM 604.639 1.84728L 603.876 6.78864L 604.639 1.84728ZM 526.93 1.84728L 527.761 -3.08316L 526.93 1.84728ZM 488.474 1.84728L 489.468 -3.05296L 489.468 -3.05296L 488.474 1.84728ZM 439.457 1.84728L 439.038 6.82962L 439.457 1.84728ZM 378.486 1.84728L 378.791 -3.1434L 378.486 1.84728ZM 275.073 1.84728L 275.648 -3.11948L 275.073 1.84728ZM 137.986 1.84728L 136.006 -2.74404L 132.986 -1.44171L 132.986 1.84728L 137.986 1.84728ZM 153.926 27.8941L 154.987 32.7804L 158.926 31.9256L 158.926 27.8941L 153.926 27.8941ZM 98.9323 27.8941L 96.699 23.4206L 95.4961 24.0211L 94.7566 25.1439L 98.9323 27.8941ZM 85.1838 48.7686L 82.2508 52.818L 84.7096 54.5989L 87.4239 53.2387L 85.1838 48.7686ZM 72.4315 27.8941L 76.6983 25.2875L 75.2362 22.8941L 72.4315 22.8941L 72.4315 27.8941ZM 48.3218 27.8941L 45.028 24.1324L 44.2444 24.8184L 43.8 25.7603L 48.3218 27.8941ZM 54.2191 72.1745L 59.2085 71.849L 59.2085 71.849L 54.2191 72.1745ZM 14.2493 108.436L 11.4541 104.29L 8.37871 106.364L 9.47109 109.909L 14.2493 108.436ZM 31.5844 129.126L 36.3896 130.508L 36.9132 128.688L 36.0993 126.977L 31.5844 129.126ZM 31.5844 166.072L 36.0858 168.248L 37.0003 166.357L 36.2895 164.38L 31.5844 166.072ZM 18.0352 203.202L 22.8353 204.602L 23.0352 203.916L 23.0352 203.202L 18.0352 203.202ZM 343.018 1.0531L 343.033 6.05308L 343.018 1.0531ZM 488.788 154.161L 486.501 158.607L 488.788 154.161ZM 585.01 91.078L 590.003 91.3416L 585.01 91.078ZM 52.0172 74.2685L 52.1233 69.2697L 52.0172 74.2685ZM 38.4622 108.153L 38.1437 113.143L 38.4622 108.153ZM 0.881672 234.742C 5.07491 234.056 10.0793 234.282 15.5757 234.577C 21.0721 234.872 26.973 235.25 32.0595 234.781L 31.1094 224.826C 26.8309 225.251 21.6732 224.89 16.111 224.592C 10.5488 224.293 4.4946 224.073 -0.677092 224.865L 0.881672 234.742ZM 32.0595 234.781C 38.5504 234.153 48.411 234.345 58.4813 234.601C 68.5513 234.856 78.7731 235.181 85.4753 234.795L 84.8923 224.812C 78.6429 225.182 68.8396 224.86 58.7352 224.604C 48.631 224.347 38.1677 224.16 31.1094 224.826L 32.0595 234.781ZM 85.4753 234.795C 97.9025 234.064 114.523 234.599 130.522 235.053C 146.522 235.506 162.024 235.872 171.638 234.77L 170.487 224.837C 161.57 225.882 146.785 225.509 130.805 225.057C 114.824 224.604 97.7702 224.065 84.8923 224.812L 85.4753 234.795ZM 171.638 234.77C 179.217 233.876 189.434 234.317 200.193 234.768C 210.952 235.22 222.222 235.684 231.152 234.777L 230.127 224.83C 221.92 225.688 211.373 225.229 200.612 224.777C 189.851 224.325 178.848 223.883 170.487 224.837L 171.638 234.77ZM 231.152 234.777C 240.569 233.807 259.542 234.606 278.757 235.285C 288.243 235.62 297.677 235.917 305.703 235.92C 313.601 235.923 320.659 235.65 325.135 234.693L 323.043 224.914C 319.749 225.619 313.706 225.923 305.707 225.92C 297.836 225.918 288.577 225.626 279.11 225.291C 260.417 224.631 240.436 223.768 230.127 224.83L 231.152 234.777ZM 324.563 234.781C 338.831 233.414 361.046 233.786 381.845 234.317C 402.368 234.84 422 235.558 430.167 234.781L 429.221 224.826C 421.846 225.527 403.222 224.859 382.1 224.32C 361.255 223.788 338.439 223.422 323.615 224.826L 324.563 234.781ZM 430.167 234.781C 437.578 234.063 448.383 234.613 458.329 235.075C 463.302 235.306 468.075 235.518 471.961 235.531C 473.925 235.536 475.81 235.486 477.33 235.362C 478.802 235.24 480.479 235.015 481.896 234.472L 478.314 225.135C 478.567 225.012 477.671 225.305 476.506 225.396C 475.268 225.501 473.811 225.537 471.992 225.531C 468.313 225.521 463.757 225.317 458.793 225.086C 448.863 224.624 437.352 224.066 429.221 224.826L 430.167 234.781ZM 484.959 228.602C 483.476 222.656 481.585 217.814 480.529 213.445C 479.459 209.13 479.097 205.972 480.484 201.954L 470.959 198.909C 469.158 204.866 469.593 210.76 470.815 215.82C 472.05 220.826 473.945 225.682 475.252 231.005L 484.959 228.602ZM 480.484 201.954C 481.07 200.12 482.514 198.386 484.596 196.148C 485.577 195.094 486.699 193.9 487.575 192.737C 488.41 191.612 489.688 189.642 489.688 187.131L 479.688 187.131C 479.688 186.282 480.089 186.044 479.548 186.773C 479.047 187.462 478.292 188.243 477.275 189.336C 475.361 191.393 472.321 194.646 470.959 198.909L 480.484 201.954ZM 489.688 187.131C 489.586 184.924 488.59 182.414 487.594 180.957C 486.603 179.589 485.285 178.269 484.224 177.273C 481.753 174.954 480.791 174.007 480.484 173.047L 470.959 176.091C 472.246 180.119 475.768 183.052 477.381 184.565C 478.363 185.486 478.988 186.071 479.428 186.729C 479.864 187.299 479.586 187.325 479.688 187.131L 489.688 187.131ZM 480.249 176.692C 480.04 177.137 479.737 177.164 480.125 177.006C 480.73 176.729 481.389 176.645 482.583 176.513C 483.776 176.377 485.166 176.297 486.5 176.122C 487.546 175.982 489.901 175.657 491.696 174.144L 485.252 166.497C 485.951 165.908 486.413 166.044 485.173 166.21C 484.222 166.342 482.936 166.412 481.463 166.576C 479.992 166.743 477.999 167.11 476.368 167.739C 474.521 168.488 472.399 169.878 471.195 172.446L 480.249 176.692ZM 493.001 172.443C 494.596 169.042 493.687 165.083 493.026 162.709C 492.262 159.992 491.158 157.221 490.427 155.034L 480.946 158.214C 481.772 160.67 482.789 163.196 483.393 165.392C 484.1 167.931 483.806 168.499 483.947 168.198L 493.001 172.443ZM 486.501 158.607C 489.299 160.044 492.088 161.674 494.838 162.987C 497.564 164.283 500.791 165.53 504.215 165.53L 504.215 155.53C 503.091 155.53 501.524 155.093 499.133 153.956C 496.766 152.835 494.114 151.28 491.074 149.714L 486.501 158.607ZM 504.215 165.53C 508.042 165.53 512.623 164.102 516.171 162.272C 517.965 161.337 519.945 159.995 521.271 158.729C 522.597 157.434 524.358 155.206 524.358 152.217L 514.358 152.217C 514.358 151.168 514.925 150.949 514.283 151.576C 513.641 152.232 512.881 152.726 511.586 153.385C 508.958 154.741 505.967 155.53 504.215 155.53L 504.215 165.53ZM 523.58 154.896C 524.928 152.772 525.019 150.198 525.003 148.655C 524.978 146.922 524.76 144.933 524.545 143.197C 524.329 141.462 524.117 139.908 524.041 138.612C 523.947 137.078 524.131 136.978 523.928 137.436L 514.789 133.377C 513.888 135.405 513.973 137.799 514.059 139.221C 514.164 140.881 514.412 142.745 514.62 144.427C 514.829 146.109 514.997 147.537 515.003 148.76C 515.018 150.172 514.785 150.092 515.136 149.538L 523.58 154.896ZM 522.311 139.441C 522.015 139.731 523.306 138.973 525.035 138.555C 526.817 138.117 528.941 137.741 531.219 137.323C 533.498 136.905 535.962 136.437 538.082 135.872C 540.054 135.343 542.612 134.515 544.469 132.974L 538.084 125.278C 538.358 124.963 537.184 125.766 535.491 126.213C 533.739 126.687 531.67 127.073 529.415 127.487C 527.161 127.9 524.751 128.332 522.661 128.841C 520.74 129.31 518.237 130.031 516.405 131.372L 522.311 139.441ZM 546.003 130.757C 547.957 125.096 543.688 121.123 542.211 119.734C 541.242 118.825 540.473 118.188 540.006 117.651C 539.479 117.065 540.099 117.481 540.099 118.596L 530.099 118.596C 530.099 121.374 531.691 123.36 532.571 124.339C 533.511 125.366 534.586 126.288 535.36 127.019C 537.37 128.908 536.19 128.538 536.55 127.494L 546.003 130.757ZM 537.258 123.107C 538.288 122.579 539.658 122.296 541.795 121.971C 543.961 121.636 546.394 121.412 548.907 121.143C 551.422 120.874 554.129 120.536 556.426 120.013C 558.615 119.508 561.455 118.622 563.494 116.637L 556.519 109.472C 556.729 109.126 555.872 109.891 554.178 110.269C 552.396 110.687 550.283 110.939 547.842 111.2C 545.399 111.462 542.739 111.711 540.278 112.087C 537.789 112.472 535 113.135 532.941 114.086L 537.258 123.107ZM 564.778 114.549C 565.672 111.693 565.166 109.001 564.409 106.897C 563.689 104.953 562.545 102.932 561.55 101.313C 560.555 99.6967 559.64 98.3086 558.99 97.0282C 558.328 95.7399 558.232 95.1337 558.232 94.9509L 548.232 94.9509C 548.232 97.5391 549.206 99.8654 550.094 101.596C 550.995 103.335 552.11 105.053 553.033 106.553C 553.955 108.052 554.617 109.16 554.999 110.281C 555.345 111.243 555.237 111.552 555.235 111.56L 564.778 114.549ZM 558.232 94.9509C 558.252 95.1872 558.237 94.6428 558.433 94.0335C 558.635 93.3602 558.887 92.754 559.315 91.8872C 560.189 90.0894 561.336 88.2716 562.81 86.3139C 565.894 82.2035 569.194 79.2785 571.051 78.5251L 567.292 69.2584C 562.774 71.0912 558.103 75.9249 554.811 80.3121C 553.097 82.6031 551.455 85.2188 550.336 87.485C 549.25 89.6994 548.232 92.3912 548.232 94.9509L 558.232 94.9509ZM 569.172 78.8918C 567.9 78.8918 567.216 78.3133 567.439 78.467C 567.624 78.583 567.749 78.701 568.154 79.1171C 569.055 80.025 570.068 81.2746 571.299 82.9327C 573.799 86.292 576.512 90.5052 578.685 94.156L 587.277 89.0389C 585.012 85.2375 582.02 80.5979 579.325 76.9674C 577.958 75.1306 576.502 73.3511 575.282 72.1036C 574.627 71.442 573.778 70.7007 573.105 70.2268C 572.471 69.7906 571.043 68.8918 569.172 68.8918L 569.172 78.8918ZM 590.003 91.3416C 590.36 84.5816 591.776 79.934 594.141 77.0845L 586.445 70.6991C 582.03 76.0197 580.415 83.2843 580.017 90.8143L 590.003 91.3416ZM 590.293 78.8918C 598.229 78.8918 604.71 76.6601 608.425 72.3553L 600.854 65.8223C 599.786 67.0594 596.703 68.8918 590.293 68.8918L 590.293 78.8918ZM 609.267 67.1955C 608.152 64.4705 607.678 62.9104 607.612 61.8679C 607.574 61.2732 607.639 61.1183 608.038 60.748L 601.24 53.4147C 598.451 56.0001 597.42 59.1703 597.632 62.5011C 597.815 65.3842 598.934 68.3499 600.011 70.9821L 609.267 67.1955ZM 604.639 62.0814C 610.809 62.0814 614.056 58.3823 615.946 56.1915C 618.064 53.7376 618.254 53.7686 618.786 53.7686L 618.786 43.7686C 612.942 43.7686 609.845 47.9559 608.375 49.6585C 606.679 51.6241 606.04 52.0814 604.639 52.0814L 604.639 62.0814ZM 622.283 52.3421C 624.653 50.023 624.973 47.0246 624.904 44.9952C 624.815 43.0677 624.348 40.9182 623.94 39.2589C 623.53 37.5988 623.178 36.3288 623.084 35.3385C 622.953 34.1493 623.38 35.1813 622.31 36.2444L 615.262 29.1497C 612.797 31.5984 612.975 34.8933 613.143 36.4289C 613.348 38.1633 613.843 40.0799 614.23 41.6526C 614.618 43.2261 614.899 44.3555 614.91 45.3374C 614.94 46.2176 614.712 45.7592 615.289 45.195L 622.283 52.3421ZM 617.947 37.6261C 624.032 38.6624 631.89 37.1168 637.836 35.1909C 640.89 34.1968 643.902 32.9231 645.993 31.7478C 647.102 31.1135 648.327 30.2553 649.118 29.5302C 649.798 28.8906 651.482 27.173 651.482 24.569L 641.482 24.569C 641.482 22.7501 642.606 21.9274 642.267 22.246C 642.04 22.4792 641.787 22.6427 641.063 23.0475C 639.487 23.9505 637.404 24.8242 634.755 25.6774C 629.294 27.4462 623.304 28.3944 619.625 27.7681L 617.947 37.6261ZM 651.327 25.8066C 652.306 21.912 652.871 15.9465 652.902 10.8553C 652.913 8.29219 652.791 5.65964 652.538 3.5674C 652.307 1.68501 651.869 -0.843498 650.704 -2.67873L 642.26 2.67873C 642.092 2.4137 642.376 2.86395 642.612 4.78583C 642.826 6.49786 642.916 8.49509 642.902 10.8042C 642.883 15.4575 642.452 20.2063 641.638 23.3314L 651.327 25.8066ZM 646.482 -5C 639.698 -4.99562 630.793 -4.25307 622.87 -3.65823C 614.614 -3.0384 608.174 -2.66585 605.403 -3.09408L 603.876 6.78864C 608.078 7.438 615.984 6.8869 623.619 6.3137C 631.586 5.7155 640.116 4.99562 646.482 5L 646.482 -5ZM 605.403 -3.09408C 597.749 -4.25308 588.013 -3.88599 579.582 -3.42226C 575.364 -3.19012 571.434 -2.93939 568.089 -2.83869C 564.778 -2.73695 562.458 -2.75726 560.94 -3.06468L 559.072 6.75925C 561.44 7.19074 564.849 7.2628 568.392 7.15672C 571.903 7.0496 575.956 6.79232 580.132 6.56264C 588.488 6.10273 597.183 5.7309 603.876 6.78864L 605.403 -3.09408ZM 560.94 -3.06468C 556.3 -3.94715 549.317 -3.52265 543.334 -3.18244C 536.785 -2.8101 531.152 -2.51151 527.761 -3.08316L 526.099 6.77773C 530.877 7.58314 537.897 7.14282 543.901 6.80144C 550.471 6.42792 555.941 6.16389 559.072 6.75925L 560.94 -3.06468ZM 527.761 -3.08316C 521.602 -4.12142 513.349 -3.6525 506.283 -3.23041C 498.632 -2.77338 492.636 -2.41051 489.468 -3.05296L 487.48 6.74753C 492.282 7.72144 500.034 7.16068 506.879 6.75179C 514.309 6.30797 521.299 5.9687 526.099 6.77773L 527.761 -3.08316ZM 489.468 -3.05296C 482.388 -4.48872 471.344 -4.28058 461.743 -3.8853C 456.837 -3.68321 452.129 -3.42101 448.214 -3.24947C 444.313 -3.07827 441.445 -2.99529 439.877 -3.13505L 439.038 6.82962C 441.156 7.00054 444.664 6.91558 448.652 6.74094C 452.626 6.56663 457.321 6.30508 462.154 6.10623C 472.03 5.69963 481.807 5.59709 487.48 6.74753L 489.468 -3.05296ZM 439.877 -3.13505C 428.664 -4.07361 416.57 -3.86476 405.752 -3.52787C 394.927 -3.19049 385.394 -2.73239 378.791 -3.1434L 378.181 6.83797C 385.325 7.26737 395.319 6.80183 406.064 6.46728C 416.815 6.13225 428.333 5.9209 439.038 6.82962L 439.877 -3.13505ZM 275.648 -3.11948C 252.988 -5.74552 218.513 -3.15272 208.721 -3.15272L 208.721 6.84728C 220.051 6.84728 252.525 4.26769 274.497 6.81404L 275.648 -3.11948ZM 208.721 -3.15272C 200.302 -3.15051 184.84 -4.07116 170.3 -4.53564C 163.026 -4.76762 155.903 -4.88443 150.091 -4.70905C 147.163 -4.61936 144.41 -4.44505 142.181 -4.17717C 140.001 -3.9131 137.767 -3.5031 136.006 -2.74404L 139.966 6.43861C 140.348 6.27403 141.394 5.99129 143.384 5.75025C 145.325 5.513 147.629 5.36981 150.395 5.28632C 155.972 5.11533 162.784 5.22944 169.981 5.45927C 184.383 5.91844 200.005 6.84508 208.721 6.84728L 208.721 -3.15272ZM 132.986 1.84728C 132.986 5.05851 134.974 8.15361 136.382 10.1629C 138.002 12.4674 140.11 14.9971 142.086 17.4128C 144.062 19.8289 145.877 22.0836 147.221 24.2028C 148.65 26.4412 148.926 27.5843 148.926 27.8941L 158.926 27.8941C 158.926 24.5094 157.21 21.2652 155.65 18.8218C 154.006 16.2593 151.835 13.5378 149.827 11.0817C 147.817 8.62511 145.941 6.38656 144.572 4.42496C 142.991 2.16813 142.986 1.49936 142.986 1.84728L 132.986 1.84728ZM 152.866 23.0078C 151.2 23.3693 147.52 23.498 142.214 23.3888C 137.098 23.284 131.072 22.981 125.102 22.6922C 119.132 22.4033 113.197 22.1282 108.434 22.089C 106.032 22.0701 103.777 22.1156 102.013 22.2498C 100.457 22.3701 98.3299 22.6064 96.699 23.4206L 101.166 32.3677C 100.83 32.5353 101.1 32.3502 102.784 32.2201C 104.26 32.1039 106.089 32.07 108.354 32.0887C 112.924 32.1245 118.658 32.3921 124.619 32.6805C 130.579 32.9689 136.745 33.2778 142.008 33.3867C 147.082 33.4911 151.97 33.435 154.987 32.7804L 152.866 23.0078ZM 94.7566 25.1439C 91.7874 29.7106 90.0619 34.2863 88.3254 37.7903C 86.6089 41.269 85.125 43.2053 82.9436 44.2985L 87.4239 53.2387C 92.615 50.6372 95.3208 46.2123 97.2931 42.2154C 99.2455 38.2439 100.708 34.2296 103.108 30.6444L 94.7566 25.1439ZM 88.1167 44.7192C 85.6672 43.0653 84.4375 40.876 82.7772 37.4628C 81.0932 34.0228 79.3994 29.7455 76.6983 25.2875L 68.1647 30.5007C 70.4437 34.1948 71.938 38.0455 73.791 41.8502C 75.6678 45.6816 78.3242 49.8536 82.2508 52.818L 88.1167 44.7192ZM 72.4315 22.8941C 68.4272 22.9085 63.5136 22.1447 58.87 21.7355C 56.5283 21.5315 54.0199 21.4229 51.9484 21.587C 49.9158 21.7586 47.1621 22.2637 45.028 24.1324L 51.6156 31.6559C 51.2747 31.9543 51.3354 31.6743 52.7898 31.5516C 54.2053 31.4212 55.8563 31.5089 57.9978 31.6974C 62.3206 32.0733 67.6687 32.8797 72.4315 32.8941L 72.4315 22.8941ZM 43.8 25.7603C 43.03 27.3918 42.8341 29.2207 42.7863 30.6858C 42.7432 32.1635 42.8463 34.0103 43.0386 35.816C 43.4218 39.3581 44.1941 43.674 45.048 48.0593C 46.7543 56.8183 48.8319 66.1809 49.2297 72.5L 59.2085 71.849C 58.7326 64.7753 56.5456 54.7863 54.8636 46.1477C 54.0234 41.8341 53.3207 37.9396 52.9815 34.749C 52.8125 33.1883 52.7424 32.0381 52.781 31.0118C 52.7999 30.092 52.9227 29.971 52.8436 30.028L 43.8 25.7603ZM 52.1233 69.2697C 47.1908 69.1651 42.9672 70.5999 39.6816 73.2964C 36.7662 75.793 34.4499 79.7113 33.4027 83.2641C 31.3347 90.5596 32.5925 99.2782 36.504 105.672L 45.0342 100.453C 42.5585 96.4063 41.7273 90.5644 43.0237 85.9913C 43.6587 83.6098 44.3879 82.2668 46.0257 81.0264C 47.2933 79.9861 49.1307 79.2085 51.9112 79.2674L 52.1233 69.2697ZM 38.7807 103.163C 33.687 102.839 28.4338 102.313 23.9471 102.162C 21.6753 102.089 19.3587 102.122 17.476 102.335C 15.6101 102.552 13.3377 103.02 11.4541 104.29L 17.0446 112.582C 16.8811 112.773 17.3781 112.399 18.6325 112.267C 19.9983 112.102 21.5714 112.088 23.6182 112.157C 27.7687 112.29 32.8681 112.805 38.1437 113.143L 38.7807 103.163ZM 9.47109 109.909C 10.2064 112.295 11.9468 114.53 13.4322 116.243C 15.018 118.067 16.9831 120.036 18.8678 121.91C 20.7523 123.785 22.5764 125.588 24.1163 127.309C 25.6384 129.001 26.5779 130.174 27.0696 131.274L 36.0993 126.977C 35.0966 124.937 33.3212 122.6 31.5619 120.633C 29.8203 118.694 27.7963 116.687 25.9199 114.82C 24.0436 112.954 22.335 111.251 20.988 109.693C 20.3274 108.932 19.8797 108.371 19.4882 107.777C 19.1199 107.237 18.9852 106.753 19.0276 106.964L 9.47109 109.909ZM 26.7792 127.744C 26.7625 127.369 26.224 128.602 24.5955 130.089C 22.9204 131.634 20.7685 133.312 18.5621 135.11C 16.3536 136.911 13.9623 138.967 12.2744 140.902C 11.392 141.936 10.4169 143.38 9.87205 144.593C 9.24937 146.053 8.8255 148.011 9.45698 150.133L 19.0417 147.281C 19.2746 148.064 19.0438 148.579 19.0703 148.517C 19.1746 148.208 19.3046 148.051 19.8482 147.432C 21.0121 146.059 22.7553 144.593 24.8806 142.861C 27.008 141.127 29.3891 139.26 31.3629 137.451C 33.1105 135.845 35.5554 133.408 36.3896 130.508L 26.7792 127.744ZM 9.45698 150.133C 10.27 152.866 12.3232 155.022 13.9416 156.507C 15.6579 158.074 17.7592 159.655 19.6834 161.105C 21.6078 162.556 23.3523 163.87 24.7653 165.197C 26.2195 166.553 26.7472 167.396 26.8793 167.763L 36.2895 164.38C 35.3258 161.699 33.3378 159.518 31.5853 157.883C 29.7916 156.22 27.6382 154.579 25.702 153.119C 23.7657 151.66 22.0438 150.378 20.7028 149.139C 19.4119 147.97 19.0289 146.879 19.0417 147.281L 9.45698 150.133ZM 27.083 163.895C 27.1642 163.669 26.9023 164.221 26.3658 164.782C 25.7959 165.395 25.1338 165.994 24.2313 166.761C 22.4024 168.32 20.0916 170.078 17.7564 172.015C 15.4223 173.953 12.8812 176.269 11.0061 178.589C 9.11269 180.959 7.25679 184.126 7.25679 187.87L 17.2568 187.87C 17.2568 187.457 17.493 186.491 18.8189 184.831C 20.1629 183.123 21.968 181.513 24.1421 179.71C 26.315 177.906 28.6742 176.108 30.7121 174.377C 32.5636 172.801 34.9163 170.667 36.0858 168.248L 27.083 163.895ZM 7.25679 187.87C 7.25679 192.016 9.63846 195.676 10.8296 197.713C 12.3545 200.322 13.0352 201.791 13.0352 203.202L 23.0352 203.202C 23.0352 198.703 20.8266 194.999 19.4623 192.666C 17.7643 189.762 17.2568 188.712 17.2568 187.87L 7.25679 187.87ZM 13.235 201.803C 13.0355 202.487 12.1507 204.031 10.2145 206.532C 8.40409 208.874 6.14845 211.466 3.91319 214.097C 1.67665 216.73 -0.608189 219.498 -2.20871 221.886C -3.03494 223.132 -3.86305 224.623 -4.3398 225.837C -4.81086 227.075 -5.39942 229.188 -4.62409 231.435L 4.82867 228.172C 5.20549 229.264 4.81618 229.893 5.00671 229.393C 5.19154 228.867 5.48734 228.364 6.11193 227.433C 7.41305 225.469 9.33745 223.157 11.5343 220.571C 13.7325 217.984 16.1344 215.218 18.1222 212.653C 19.9843 210.248 22.0386 207.335 22.8353 204.602L 13.235 201.803ZM 378.791 -3.1434C 368.145 -3.79283 355.572 -3.98248 343.004 -3.94688L 343.033 6.05308C 355.512 6.01734 367.765 6.19994 378.181 6.83797L 378.791 -3.1434ZM 343.004 -3.94688C 327.65 -3.90285 312.135 -3.52727 299.739 -3.25166C 287.057 -2.9697 278.242 -2.81896 275.648 -3.11948L 274.497 6.81404C 277.984 7.2181 287.84 7.01534 299.961 6.74586C 312.367 6.47003 327.785 6.09623 343.033 6.05308L 343.004 -3.94688ZM 490.427 155.034C 490.685 155.803 490.568 157.245 489.335 158.204C 488.211 159.079 487.027 158.878 486.501 158.607L 491.074 149.714C 488.636 148.46 485.559 148.471 483.192 150.313C 480.716 152.241 480.005 155.407 480.946 158.214L 490.427 155.034ZM 578.685 94.156C 580.313 96.8881 583.299 97.4456 585.42 96.8993C 587.531 96.3558 589.839 94.4583 590.003 91.3416L 580.017 90.8143C 580.127 88.729 581.685 87.535 582.927 87.2152C 584.179 86.8927 586.178 87.1942 587.277 89.0389L 578.685 94.156ZM 49.2297 72.5C 49.1606 71.4419 49.6288 70.5422 50.2178 70.0011C 50.7692 69.4945 51.4531 69.2555 52.1233 69.2697L 51.9112 79.2674C 55.3972 79.3413 59.518 76.5937 59.2085 71.849L 49.2297 72.5ZM 36.504 105.672C 36.1627 105.114 36.1509 104.675 36.1518 104.572C 36.1529 104.449 36.1734 104.396 36.188 104.362C 36.1955 104.344 36.2893 104.114 36.6226 103.834C 36.9983 103.518 37.7568 103.098 38.7807 103.163L 38.1437 113.143C 42.3587 113.412 44.624 110.08 45.3924 108.27C 46.2157 106.332 46.7124 103.196 45.0342 100.453L 36.504 105.672Z"/>
<path id="path1_fill" d="M 42.7447 14.6353C 44.2415 10.0287 50.7585 10.0287 52.2553 14.6353L 57.0418 29.3668C 57.7112 31.4269 59.631 32.8217 61.7971 32.8217L 77.2868 32.8217C 82.1304 32.8217 84.1443 39.0198 80.2257 41.8668L 67.6943 50.9714C 65.9419 52.2446 65.2086 54.5014 65.878 56.5615L 70.6645 71.2931C 72.1613 75.8996 66.8889 79.7302 62.9703 76.8832L 50.4389 67.7786C 48.6865 66.5054 46.3135 66.5054 44.5611 67.7786L 32.0297 76.8832C 28.1111 79.7302 22.8387 75.8996 24.3355 71.2931L 29.122 56.5615C 29.7914 54.5014 29.0581 52.2446 27.3057 50.9714L 14.7743 41.8668C 10.8557 39.0198 12.8696 32.8217 17.7132 32.8217L 33.2029 32.8217C 35.369 32.8217 37.2888 31.4269 37.9582 29.3668L 42.7447 14.6353Z"/>
</defs>
</svg>
