<svg width="1662" height="661" viewBox="0 0 1662 661" version="1.1" xmlns="http://www.w3.org/2000/svg" xmlns:xlink="http://www.w3.org/1999/xlink">
<title>TN</title>
<desc>Created using Figma</desc>
<g id="Canvas" transform="translate(1017 585)">
<g id="TN">
<g id="Vector 2">
<use xlink:href="#path0_fill" transform="translate(-998.757 -567)" fill="#0687E2"/>
</g>
<g id="Vector 2">
<use xlink:href="#path1_fill" transform="translate(-998.757 -567)" fill="#FA4C60"/>
</g>
<g id="Vector 2">
<use xlink:href="#path2_fill" transform="translate(-999 -567.215)" fill="#FFFFFF"/>
</g>
<g id="Vector 2">
<use xlink:href="#path3_stroke" transform="translate(-999 -567)"/>
</g>
<g id="Star">
<use xlink:href="#path4_fill" transform="translate(-793 -383)"/>
</g>
<g id="Star">
<use xlink:href="#path4_fill" transform="translate(-38 -383)"/>
</g>
<g id="middle star">
<g id="Star">
<use xlink:href="#path4_fill" transform="translate(-416 -383)" fill="#0687E2"/>
</g>
<g id="Star">
<use xlink:href="#path5_fill" transform="translate(-409.686 -383)" fill="#FA4C60"/>
</g>
</g>
<g id="Star">
<use xlink:href="#path4_fill" transform="translate(-416 -383)"/>
</g>
</g>
</g>
<defs>
<path id="path0_fill" d="M 0.256683 622C 23.7567 618 55.7567 624.419 79.2567 622C 113.257 618.5 181.257 624.047 213.757 622C 277.257 618 382.757 627.813 429.257 622C 469.257 617 535.757 626.778 578.757 622C 628.257 616.5 774.257 631 813.257 622C 826.635 620.626 842.699 619.889 860.257 619.579L 860.257 2.85198C 783.624 3.10289 705.48 6.90289 690.257 4.99997C 634.257 -2 550.257 4.99997 523.757 4.99997C 480.757 4.99997 367.757 -5 346.257 4.99997C 346.257 20.5 386.257 55.5 386.257 75.5C 362.757 81 261.257 68.5 248.257 75.5C 234.784 97.5646 232.257 122 213.757 132C 197.757 119.5 194.253 97.5646 181.757 75.5C 159.757 75.5 130.257 67 121.257 75.5C 114.409 91.1519 135.313 164.222 136.226 199.222C 136.258 200.438 135.135 201.339 133.925 201.223C 86.5926 196.699 84.7602 264.919 110.074 289.12C 111.538 290.52 110.598 293.441 108.573 293.373C 78.9581 292.382 45.925 286.105 35.7567 293.5C 39.7567 307.5 71.7567 332.5 79.2567 349.5C 75.2567 364.5 31.7567 388 35.7567 402.5C 39.7567 417 73.7567 433 79.2567 449.5C 72.7567 464 30.7567 486 30.7567 508.5C 30.7567 522 45.2567 534 45.2567 550C 40.2567 568.5 -3.74334 609.5 0.256683 622Z"/>
<path id="path1_fill" d="M 1078.26 622C 1117.26 618 1190.26 628 1204.76 622C 1197.76 591.5 1185.76 569.5 1193.76 542.5C 1198.65 526 1216.26 515.5 1216.26 506.5C 1216.26 493.5 1197.76 486 1193.76 472.5C 1198.76 461 1220.26 466 1225.76 461C 1230.76 449.5 1216.26 423.5 1216.26 412C 1235.39 420.787 1251.26 434.5 1265.26 434.5C 1279.26 434.5 1303.26 422.5 1303.26 412C 1308.26 403.5 1299.76 375 1303.26 366.5C 1312.76 359 1348.76 358 1358.26 349.5C 1362.26 337 1342.76 330 1342.76 321C 1358.26 313 1395.26 316.5 1405.26 306C 1409.76 290.5 1388.26 272 1388.26 257C 1388.26 242 1412.26 207 1428.26 200C 1435.26 200 1457.76 237.5 1467.76 257C 1467.76 233 1471.26 213 1481.26 200C 1499.26 200 1511.26 194.5 1517.26 187C 1511.76 172.5 1509.26 162.5 1517.26 154.5C 1536.26 154.5 1536.76 132 1552.76 132C 1561.76 122.5 1545.76 96 1552.76 88.5C 1577.26 93 1622.26 75 1622.26 66.5C 1626.76 47.5 1627.26 8.5 1622.26 0C 1589.26 0 1534.76 7.91662 1517.26 4.99997C 1481.26 -1 1424.76 8.99995 1405.26 4.99997C 1385.76 1 1342.76 8.72722 1322.26 4.99997C 1294.76 0 1245.76 9.37493 1225.76 4.99997C 1193.76 -2 1121.26 6.68177 1102.76 4.99997C 1047.76 2.86102e-06 984.257 7.27469 949.757 4.99997C 923.191 3.24838 891.852 2.74853 860.257 2.85198L 860.257 619.579C 938.506 618.194 1046.4 625.267 1078.26 622Z"/>
<path id="path2_fill" fill-rule="evenodd" d="M 108.573 293.588L 108.573 293.588C 110.597 293.656 111.541 290.738 110.077 289.338C 110.076 289.337 110.075 289.336 110.074 289.335C 111.538 290.735 110.598 293.656 108.573 293.588ZM 133.925 201.438C 133.948 201.44 133.972 201.443 133.995 201.445C 135.192 201.561 136.257 200.64 136.226 199.438L 136.226 199.438C 136.258 200.653 135.135 201.554 133.925 201.438ZM 600.393 2.16391L 452.767 620.786C 459.968 621.049 680.148 622.762 687.486 623.047L 687.537 623.049C 739.27 625.057 792.063 627.106 813.257 622.215C 833.19 620.167 825.567 620.703 853.48 620.786L 989.48 5.2152C 983.362 5.40869 1010.88 4.46002 1005.05 4.6719C 983.406 5.45784 964.082 6.15969 949.757 5.2152C 923.331 3.47284 892.183 2.96906 860.757 3.06562C 844.801 3.11464 615.91 1.88891 600.393 2.16391Z"/>
<path id="path3_stroke" d="M 0.256683 622L -16.4107 627.334L -11.7812 641.801L 3.19317 639.252L 0.256683 622ZM 79.2567 622L 77.4647 604.592L 79.2567 622ZM 213.757 622L 214.857 639.465L 213.757 622ZM 429.257 622L 431.427 639.365L 429.257 622ZM 578.757 622L 580.689 639.393L 578.757 622ZM 813.257 622L 811.468 604.592L 810.384 604.703L 809.322 604.948L 813.257 622ZM 1204.76 622L 1211.45 638.17L 1225.12 632.511L 1221.81 618.085L 1204.76 622ZM 1193.76 542.5L 1210.54 547.472L 1193.76 542.5ZM 1193.76 472.5L 1177.71 465.522L 1175.17 471.364L 1176.98 477.472L 1193.76 472.5ZM 1225.76 461L 1237.53 473.949L 1240.31 471.422L 1241.81 467.978L 1225.76 461ZM 1216.81 416.632L 1233.96 413.148L 1216.81 416.632ZM 1303.26 412L 1288.17 403.127L 1285.76 407.235L 1285.76 412L 1303.26 412ZM 1303.26 366.5L 1292.41 352.765L 1288.82 355.602L 1287.07 359.837L 1303.26 366.5ZM 1358.26 349.5L 1369.93 362.542L 1373.47 359.367L 1374.92 354.834L 1358.26 349.5ZM 1342.76 321L 1334.73 305.449L 1325.26 310.339L 1325.26 321L 1342.76 321ZM 1405.26 306L 1417.93 318.069L 1420.87 314.978L 1422.06 310.879L 1405.26 306ZM 1428.26 200L 1428.26 182.5L 1424.6 182.5L 1421.24 183.967L 1428.26 200ZM 1467.76 257L 1452.18 264.986L 1485.26 257L 1467.76 257ZM 1481.26 200L 1481.26 182.5L 1472.64 182.5L 1467.39 189.33L 1481.26 200ZM 1517.26 187L 1530.92 197.932L 1537.16 190.133L 1533.62 180.794L 1517.26 187ZM 1517.26 154.5L 1517.26 137L 1510.01 137L 1504.88 142.126L 1517.26 154.5ZM 1552.76 132L 1552.76 149.5L 1560.28 149.5L 1565.46 144.036L 1552.76 132ZM 1552.76 88.5L 1555.92 71.2879L 1546.5 69.5577L 1539.96 76.5594L 1552.76 88.5ZM 1622.26 66.5L 1605.23 62.4668L 1604.76 64.4559L 1604.76 66.5L 1622.26 66.5ZM 1622.26 0L 1637.34 -8.87285L 1632.27 -17.5L 1622.26 -17.5L 1622.26 0ZM 1517.26 4.99997L 1520.13 -12.2619L 1517.26 4.99997ZM 1322.26 4.99997L 1319.13 22.2177L 1319.13 22.2177L 1322.26 4.99997ZM 1225.76 4.99997L 1229.5 -12.0958L 1225.76 4.99997ZM 1102.76 4.99997L 1101.17 22.4281L 1102.76 4.99997ZM 949.757 4.99997L 950.908 -12.4621L 949.757 4.99997ZM 690.257 4.99997L 692.427 -12.3649L 690.257 4.99997ZM 346.257 4.99997L 338.876 -10.8677L 328.757 -6.16081L 328.757 4.99997L 346.257 4.99997ZM 386.257 75.5L 390.245 92.5395L 403.757 89.3771L 403.757 75.5L 386.257 75.5ZM 248.257 75.5L 239.96 60.0917L 235.789 62.3374L 233.321 66.3799L 248.257 75.5ZM 213.757 132L 202.983 145.79L 212.006 152.839L 222.078 147.395L 213.757 132ZM 181.757 75.5L 196.984 66.8757L 191.957 58L 181.757 58L 181.757 75.5ZM 121.257 75.5L 109.241 62.7772L 106.651 65.2227L 105.224 68.4856L 121.257 75.5ZM 136.226 199.222L 153.72 198.766L 136.226 199.222ZM 110.074 289.12L 97.9802 301.769L 110.074 289.12ZM 35.7567 293.5L 25.4637 279.347L 15.5688 286.543L 18.93 298.308L 35.7567 293.5ZM 79.2567 349.5L 96.1658 354.009L 97.7509 348.065L 95.2677 342.436L 79.2567 349.5ZM 79.2567 449.5L 95.2256 456.658L 98.0152 450.436L 95.8586 443.966L 79.2567 449.5ZM 45.2567 550L 62.1505 554.566L 62.7567 552.323L 62.7567 550L 45.2567 550ZM 860.757 2.85039L 860.81 20.3503L 860.757 2.85039ZM 1220.47 414.034L 1212.59 429.657L 1220.47 414.034ZM 133.925 201.223L 132.26 218.644L 133.925 201.223ZM 108.573 293.373L 109.159 275.883L 108.573 293.373ZM 3.19317 639.252C 13.1 637.466 24.9954 638.082 38.7463 638.878C 52.4975 639.673 67.7747 640.708 81.0487 639.408L 77.4647 604.592C 67.2386 605.712 54.7659 604.746 40.767 603.936C 26.7679 603.127 10.9133 602.534 -2.67981 604.748L 3.19317 639.252ZM 81.0487 639.408C 96.9784 637.735 121.341 638.257 146.59 638.949C 171.838 639.64 197.753 640.522 214.857 639.465L 212.657 604.535C 197.261 605.525 172.926 604.657 147.548 603.962C 122.172 603.267 95.5349 602.765 77.4647 604.592L 81.0487 639.408ZM 214.857 639.465C 245.756 637.498 287.189 638.944 327.347 640.172C 367.509 641.399 406.864 642.385 431.427 639.365L 427.086 604.635C 405.149 607.427 368.504 606.413 328.416 605.188C 288.325 603.962 245.257 602.502 212.657 604.535L 214.857 639.465ZM 431.427 639.365C 449.952 636.986 475.094 638.177 502.09 639.399C 529.087 640.621 557.826 641.88 580.689 639.393L 576.824 604.607C 556.688 606.898 530.676 605.657 503.673 604.435C 476.669 603.212 448.561 602.014 427.086 604.635L 431.427 639.365ZM 580.689 639.393C 603.757 636.83 650.732 638.95 699.278 640.8C 723.095 641.707 746.878 642.513 767.117 642.523C 786.874 642.531 805.225 641.813 817.192 639.052L 809.322 604.948C 801.788 606.687 787.264 607.531 767.131 607.523C 747.479 607.518 724.356 606.73 700.611 605.825C 654.032 604.05 603.256 601.67 576.824 604.607L 580.689 639.393ZM 815.045 639.408C 850.497 635.734 905.861 636.746 958.025 638.181C 1009.14 639.587 1059.05 641.562 1080.04 639.409L 1076.47 604.591C 1058.47 606.438 1012.37 604.663 958.988 603.194C 906.652 601.754 849.016 600.766 811.468 604.592L 815.045 639.408ZM 1080.04 639.409C 1098.18 637.495 1124.85 638.977 1149.82 640.228C 1162.3 640.854 1174.42 641.432 1184.3 641.469C 1189.32 641.483 1194.32 641.337 1198.31 640.989C 1202.14 640.648 1207.07 639.982 1211.45 638.17L 1198.07 605.83C 1199 605.197 1193.28 606.509 1184.42 606.469C 1175.32 606.443 1164.02 605.896 1151.57 605.272C 1126.66 604.023 1097.33 602.505 1076.47 604.591L 1080.04 639.409ZM 1221.81 618.085C 1218.04 601.806 1213.3 588.704 1210.7 577.07C 1208.05 565.598 1207.16 557.805 1210.54 547.472L 1176.98 537.528C 1172.35 554.195 1173.46 570.902 1176.56 584.805C 1179.71 598.546 1184.47 611.694 1187.7 625.915L 1221.81 618.085ZM 1210.54 547.472C 1211.63 542.508 1215.17 538.817 1220.09 533.118C 1222.54 530.281 1225.5 526.877 1227.84 523.529C 1230.11 520.239 1233.76 514.218 1233.76 506.5L 1198.76 506.5C 1198.76 503.282 1200.21 501.949 1199.02 503.674C 1197.91 505.342 1196.16 507.281 1193.59 510.257C 1188.48 516.183 1180.77 525.992 1176.98 537.528L 1210.54 547.472ZM 1233.76 506.5C 1233.76 491.732 1223.18 481.666 1218.96 477.388C 1212.5 470.858 1211 469.081 1210.54 467.528L 1176.98 477.472C 1180.52 489.419 1190.26 498.142 1194.06 501.987C 1200.08 508.084 1198.76 508.268 1198.76 506.5L 1233.76 506.5ZM 1209.81 479.478C 1208.81 481.76 1207.09 482.596 1207.1 482.588C 1208.01 482.064 1208.86 482.02 1211.68 481.685C 1214.5 481.334 1218.05 481.112 1221.64 480.609C 1224.26 480.231 1231.75 479.198 1237.53 473.949L 1213.98 448.051C 1217.01 445.302 1219.75 445.519 1216.64 445.969C 1214.49 446.294 1211.33 446.478 1207.46 446.94C 1203.59 447.418 1197.78 448.593 1193.08 450.521C 1187.49 452.966 1181.2 457.49 1177.71 465.522L 1209.81 479.478ZM 1241.81 467.978C 1244.72 461.273 1244.54 454.386 1243.96 449.538C 1243.37 444.79 1242.02 439.282 1240.68 434.793C 1237.99 425.894 1234.9 418.093 1233.96 413.148L 1199.66 420.117C 1201.32 427.977 1204.9 437.289 1207.15 444.837C 1208.27 448.572 1208.94 451.121 1209.21 453.641C 1209.49 456.062 1209 455.656 1209.71 454.022L 1241.81 467.978ZM 1212.59 429.657C 1220.42 433.584 1228.15 438.568 1236.13 442.915C 1243.72 447.038 1254 452 1265.26 452L 1265.26 417C 1263.55 417 1260.07 416.087 1252.83 412.156C 1245.98 408.449 1237.79 403.2 1228.36 398.411L 1212.59 429.657ZM 1265.26 452C 1276.18 452 1288.64 447.699 1298.02 442.479C 1302.78 439.795 1308.34 435.718 1311.98 431.991C 1315.72 428.056 1320.76 421.192 1320.76 412L 1285.76 412C 1285.76 408.058 1287.8 406.632 1286.59 407.899C 1285.72 408.815 1283.89 410.288 1281 411.896C 1274.88 415.301 1268.34 417 1265.26 417L 1265.26 452ZM 1318.34 420.873C 1322.25 414.234 1322.41 406.486 1322.37 402.329C 1322.31 397.502 1321.75 391.965 1321.2 387.253C 1320.66 382.541 1320.14 378.419 1319.96 375.01C 1319.72 370.806 1320.26 371.176 1319.44 373.163L 1287.07 359.837C 1284.51 366.074 1284.8 373.194 1285.01 376.99C 1285.28 381.581 1285.91 386.709 1286.43 391.247C 1286.95 395.785 1287.36 399.498 1287.37 402.671C 1287.41 406.514 1286.77 405.516 1288.17 403.127L 1318.34 420.873ZM 1314.1 380.235C 1313.34 380.838 1314.13 380.078 1318.98 378.797C 1323.27 377.657 1328.42 376.676 1334.15 375.542C 1339.89 374.408 1346.31 373.087 1351.86 371.498C 1356.92 370.033 1364.36 367.52 1369.93 362.542L 1346.59 336.458C 1347.4 335.729 1346.78 336.53 1342.13 337.877C 1337.95 339.1 1333 340.092 1327.36 341.208C 1321.72 342.324 1315.5 343.531 1310.06 344.953C 1305.2 346.235 1297.93 348.412 1292.41 352.765L 1314.1 380.235ZM 1374.92 354.834C 1380.42 337.662 1368.33 325.564 1364.47 321.651C 1361.95 319.107 1360.15 317.513 1359.18 316.284C 1358.11 314.994 1360.26 316.908 1360.26 321L 1325.26 321C 1325.26 329.592 1329.85 335.755 1332.3 338.7C 1334.86 341.706 1337.69 344.331 1339.54 346.224C 1344.44 351.186 1340.09 348.838 1341.59 344.166L 1374.92 354.834ZM 1350.78 336.551C 1352.77 335.387 1355.37 334.861 1360.51 334.023C 1365.76 333.145 1371.73 332.555 1378.08 331.822C 1384.44 331.086 1391.6 330.115 1397.68 328.63C 1403.46 327.191 1411.82 324.479 1417.93 318.069L 1392.58 293.931C 1393.69 292.771 1393.68 293.559 1389.23 294.666C 1385.07 295.728 1380.14 296.351 1374.06 297.053C 1367.97 297.757 1361.16 298.449 1354.8 299.493C 1348.33 300.576 1340.49 302.613 1334.73 305.449L 1350.78 336.551ZM 1422.06 310.879C 1423.83 303.524 1422.95 294.207 1421.1 288.38C 1419.19 282.846 1416.17 277.067 1413.65 272.642C 1411.12 268.223 1408.89 264.584 1407.35 261.282C 1405.82 258.14 1405.99 256.094 1405.76 257L 1370.76 257C 1370.76 264.657 1373.43 271.455 1375.75 276.327C 1378.09 281.197 1380.95 285.964 1383.24 289.983C 1385.53 293.995 1387.04 296.685 1387.9 299.448C 1388.81 301.917 1387.96 301.516 1388.45 301.121L 1422.06 310.879ZM 1405.76 257C 1405.94 258.209 1406.14 254.399 1408.19 249.992C 1410.3 245.29 1413.01 240.663 1416.62 235.494C 1424.36 224.369 1432.02 217.453 1435.27 216.033L 1421.24 183.967C 1408.49 189.547 1396.15 203.63 1387.89 215.506C 1383.5 221.837 1379.21 229.21 1376.33 235.508C 1373.53 241.659 1370.76 249.434 1370.76 257L 1405.76 257ZM 1428.26 217.5C 1424.94 217.5 1422.65 216.449 1421.84 216.038C 1422.1 216.185 1420.68 215.365 1420.8 215.432C 1420.84 215.47 1420.55 215.261 1420.5 215.214C 1419.97 214.824 1421.39 216.016 1422.65 217.503C 1425.43 220.748 1428.57 225.167 1432.25 230.787C 1439.71 242.138 1447.37 255.579 1452.18 264.986L 1483.33 249.014C 1478.15 238.921 1469.56 223.862 1461.51 211.588C 1457.45 205.396 1453.02 199.221 1449.3 194.825C 1447.31 192.491 1444.69 189.822 1442.61 188.085C 1441.04 186.808 1435.73 182.5 1428.26 182.5L 1428.26 217.5ZM 1485.26 257C 1485.26 233.698 1488.87 218.806 1495.13 210.67L 1467.39 189.33C 1453.64 207.194 1450.26 232.302 1450.26 257L 1485.26 257ZM 1481.26 217.5C 1502.33 217.5 1520.41 211.067 1530.92 197.932L 1503.59 176.068C 1502.1 177.933 1496.19 182.5 1481.26 182.5L 1481.26 217.5ZM 1533.62 180.794C 1530.82 173.414 1529.8 169.597 1529.66 167.285C 1529.53 166.086 1529.87 166.363 1529.62 166.718C 1529.57 167.184 1528.92 167.431 1529.63 166.874L 1504.88 142.126C 1496.9 150.104 1494.16 159.701 1494.72 169.34C 1495.21 177.653 1498.19 186.086 1500.89 193.206L 1533.62 180.794ZM 1517.26 172C 1535.67 172 1545.19 159.939 1549.8 154.182C 1555.66 146.853 1554.62 149.5 1552.76 149.5L 1552.76 114.5C 1534.9 114.5 1525.6 128.397 1522.47 132.318C 1518.07 137.811 1517.84 137 1517.26 137L 1517.26 172ZM 1565.46 144.036C 1572.5 136.604 1573.24 127.352 1573.06 121.695C 1572.82 116.218 1571.6 110.116 1570.57 105.601C 1569.53 101.082 1568.69 97.8267 1568.48 95.3544C 1568.15 92.0698 1569.49 96.2239 1565.55 100.441L 1539.96 76.5594C 1532.53 84.526 1533.24 94.8051 1533.66 98.8955C 1534.2 103.798 1535.48 109.168 1536.45 113.399C 1537.42 117.633 1538.07 120.407 1538.08 122.805C 1538.15 125.023 1537.51 122.646 1540.05 119.964L 1565.46 144.036ZM 1549.6 105.712C 1566.38 108.796 1587.28 104.201 1602.47 98.8959C 1610.37 96.1172 1618.44 92.4283 1623.97 89.088C 1626.95 87.2446 1630.49 84.5608 1632.74 82.3552C 1634.76 80.3072 1639.76 74.781 1639.76 66.5L 1604.76 66.5C 1604.76 63.1671 1605.84 60.7755 1606.49 59.6295C 1607.14 58.4658 1607.74 57.8596 1607.81 57.7854C 1608.12 57.3973 1607.34 58.2554 1605.72 59.2244C 1602.04 61.5091 1597.34 63.6328 1590.92 65.8541C 1577.48 70.5488 1563.63 72.7041 1555.92 71.2879L 1549.6 105.712ZM 1639.29 70.5332C 1641.79 59.7756 1643.24 43.2936 1643.32 29.3954C 1643.35 22.3895 1643.03 15.0922 1642.39 9.32581C 1641.81 4.2906 1640.68 -3.19273 1637.34 -8.87285L 1607.17 8.87285C 1606.33 7.44273 1607.01 8.0219 1607.61 13.2836C 1608.14 17.814 1608.35 23.048 1608.32 29.2296C 1608.27 41.7064 1607.23 54.2244 1605.23 62.4668L 1639.29 70.5332ZM 1622.26 -17.5C 1604.97 -17.4822 1582.39 -15.4569 1562.53 -13.8492C 1552.61 -13.0457 1543.47 -12.3532 1535.69 -12.0361C 1528.03 -11.7164 1523.14 -11.7055 1520.13 -12.2619L 1514.38 22.2619C 1520.12 23.1638 1528.61 23.2788 1537.12 22.9345C 1545.51 22.5875 1555.34 21.8477 1565.36 21.0366C 1585.38 19.4152 1606.55 17.4822 1622.26 17.5L 1622.26 -17.5ZM 1520.13 -12.2619C 1500.32 -15.4675 1475.24 -14.477 1454.03 -13.2193C 1443.42 -12.5893 1433.64 -11.9151 1425.35 -11.6469C 1416.7 -11.364 1411.4 -11.605 1408.77 -12.1431L 1401.74 22.143C 1408.87 23.6049 1417.94 23.6139 1426.49 23.3344C 1435.41 23.0401 1445.66 22.3392 1456.11 21.7192C 1477.03 20.477 1498.19 19.4675 1514.38 22.2619L 1520.13 -12.2619ZM 1408.77 -12.1431C 1396.18 -14.7254 1377.71 -13.4677 1363.06 -12.5695C 1346.28 -11.5406 1333.03 -10.8287 1325.39 -12.2178L 1319.13 22.2177C 1331.99 24.5559 1350.48 23.2679 1365.2 22.3649C 1382.06 21.3313 1394.83 20.7254 1401.74 22.143L 1408.77 -12.1431ZM 1325.39 -12.2178C 1309.08 -15.1831 1287.57 -13.8259 1270.07 -12.6982C 1260.94 -12.11 1252.44 -11.5245 1244.99 -11.3526C 1237.66 -11.1717 1232.94 -11.27 1229.5 -12.0958L 1222.02 22.0957C 1228.58 23.4574 1237.48 23.8278 1245.82 23.6376C 1254.04 23.4385 1263.26 22.8131 1272.32 22.2294C 1291.19 21.0133 1307.94 20.183 1319.13 22.2177L 1325.39 -12.2178ZM 1229.5 -12.0958C 1210.85 -16.1739 1182.34 -15.5394 1158.42 -14.4771C 1146.06 -13.9279 1134.24 -13.2178 1124.45 -12.7554C 1114.72 -12.2943 1107.93 -12.0711 1104.34 -12.4282L 1101.17 22.4281C 1106.84 22.9119 1116.04 22.6806 1126.11 22.2056C 1136.12 21.7319 1147.89 21.0244 1159.97 20.4884C 1184.92 19.3803 1208.66 19.1739 1222.02 22.0957L 1229.5 -12.0958ZM 1104.34 -12.4282C 1075.88 -14.9888 1045.17 -14.4252 1017.98 -13.5121C 990.767 -12.597 967.137 -11.3622 950.908 -12.4621L 948.605 22.4621C 966.877 23.6368 992.246 22.3717 1019.16 21.4681C 1046.09 20.5626 1074.63 19.9888 1101.17 22.4281L 1104.34 -12.4282ZM 692.427 -12.3649C 635.131 -19.5268 547.355 -12.5 523.757 -12.5L 523.757 22.5C 553.159 22.5 633.382 15.5268 688.086 22.3648L 692.427 -12.3649ZM 523.757 -12.5C 502.817 -12.4911 464.118 -14.9788 427.546 -16.2397C 409.245 -16.869 391.173 -17.187 376.441 -16.7094C 368.992 -16.4623 361.799 -15.9694 356.025 -15.2236C 350.418 -14.4909 344.094 -13.2945 338.876 -10.8677L 353.637 20.8676C 352.665 21.4273 356.141 20.0393 360.56 19.4814C 365.25 18.86 370.748 18.4936 377.588 18.2718C 391.434 17.812 408.331 18.119 426.342 18.7396C 462.396 19.9788 501.697 22.491 523.757 22.5L 523.757 -12.5ZM 328.757 4.99997C 328.757 14.6852 334.285 23.8155 337.831 29.2746C 341.99 35.6498 347.368 42.615 352.312 49.1363C 357.259 55.6593 361.682 61.5765 364.947 67.1399C 368.126 72.4328 368.41 77.0359 368.757 75.5L 403.757 75.5C 403.757 65.4945 399.07 56.0777 395.067 49.3131C 390.832 42.2047 385.254 34.6531 380.201 27.9886C 375.146 21.3224 370.524 15.3814 367.183 10.2098C 363.228 4.12197 363.757 3.06472 363.757 4.99997L 328.757 4.99997ZM 382.269 58.4604C 378.929 59.242 370.454 59.6389 356.997 59.3402C 344.252 59.0596 329.217 58.2434 314.231 57.4613C 299.245 56.6791 284.224 55.9294 272.151 55.8209C 266.036 55.7698 260.11 55.9006 255.501 56.2763C 251.638 56.5983 245.181 57.2802 239.96 60.0917L 256.553 90.9082C 254.582 91.9698 254.141 91.511 258.409 91.1553C 261.931 90.8532 266.251 90.7692 271.847 90.8196C 283.195 90.9143 297.456 91.6334 312.407 92.4137C 327.359 93.194 342.918 94.0341 356.22 94.3316C 368.81 94.611 381.834 94.5079 390.245 92.5395L 382.269 58.4604ZM 233.321 66.3799C 225.685 79.0816 221.27 91.6624 216.978 100.994C 212.679 110.392 209.415 114.454 205.435 116.605L 222.078 147.395C 236.599 139.546 243.848 126.391 248.806 115.555C 253.77 104.652 257.355 93.983 263.192 84.62L 233.321 66.3799ZM 224.53 118.21C 219.011 114.324 216.482 109.213 212.386 100.12C 208.211 90.929 203.897 79.2045 196.984 66.8757L 166.529 84.1243C 172.113 93.8601 175.799 104.136 180.5 114.553C 185.28 125.07 192.502 137.176 202.983 145.79L 224.53 118.21ZM 181.757 58C 172.186 58.0585 160.131 56.0201 148.277 54.89C 142.274 54.3272 135.438 54.0191 129.826 54.4862C 124.243 54.9946 115.829 56.5551 109.241 62.7772L 133.273 88.2227C 131.184 90.1948 129.833 89.6304 133 89.3419C 136.138 89.0121 139.739 89.2352 144.986 89.7349C 155.633 90.7299 169.327 92.9415 181.757 93L 181.757 58ZM 105.224 68.4856C 102.968 73.6414 102.497 79.2801 102.401 83.4721C 102.317 87.7658 102.633 93.1586 103.175 98.3461C 104.254 108.504 106.356 120.85 108.615 133.244C 113.289 158.882 118.321 183.937 118.732 199.679L 153.72 198.766C 153.218 179.507 147.342 150.527 143.047 126.967C 140.822 114.762 138.925 103.718 137.982 94.6795C 137.513 90.2687 137.311 87.1116 137.392 84.2767C 137.459 81.3402 137.833 81.2715 137.289 82.5143L 105.224 68.4856ZM 135.589 183.802C 119.16 182.232 105.017 187.034 94.5891 196.984C 84.6322 206.485 79.5112 219.268 77.4892 231.559C 73.5962 255.223 80.1265 284.7 97.9802 301.769L 122.167 276.471C 114.707 269.339 109.497 252.606 112.025 237.241C 113.213 230.017 115.843 225.081 118.751 222.306C 121.188 219.981 125.023 217.952 132.26 218.644L 135.589 183.802ZM 109.159 275.883C 95.0678 275.426 79.6201 273.626 65.8875 272.821C 58.9425 272.421 51.6645 272.295 45.736 272.787C 40.0527 273.284 32.032 274.57 25.4637 279.347L 46.0497 307.653C 44.5655 308.732 44.487 308.03 48.7828 307.654C 52.8334 307.275 57.5711 307.394 63.8573 307.762C 76.587 308.495 92.4633 310.329 107.987 310.863L 109.159 275.883ZM 18.93 298.308C 20.9758 305.468 25.7581 312.016 29.5462 316.729C 33.6228 321.783 38.6599 327.229 43.3928 332.307C 48.1252 337.384 52.6194 342.173 56.4005 346.733C 60.127 351.199 62.1844 353.927 63.2456 356.564L 95.2677 342.436C 92.5789 336.573 87.8238 329.801 83.316 324.36C 78.8627 319.015 73.7007 313.491 68.9955 308.443C 64.2909 303.396 60.1093 298.904 56.8266 294.802C 53.6569 290.891 52.5009 287.675 52.5834 288.692L 18.93 298.308ZM 62.3476 344.991C 62.7056 343.648 62.6183 344.954 57.8886 349.643C 53.8202 353.697 48.5244 358.146 42.9508 363.045C 37.3709 367.953 31.0895 373.792 26.6337 379.285C 22.8696 383.994 15.3957 394.498 18.8868 407.154L 52.6266 397.846C 54.1177 403.252 50.5812 405.381 53.9734 401.137C 56.6739 397.676 60.7674 393.984 66.0626 389.329C 71.364 384.667 77.4431 379.522 82.531 374.498C 86.9576 370.109 93.8078 362.852 96.1658 354.009L 62.3476 344.991ZM 18.8868 407.154C 21.1764 415.453 26.931 421.895 31.1567 426.078C 35.6348 430.479 41.0826 434.909 45.9055 438.829C 50.7289 442.75 54.9183 446.147 58.2917 449.573C 61.5648 452.816 62.8745 456.468 62.6547 455.034L 95.8586 443.966C 93.1834 435.94 87.699 429.509 83.1122 424.896C 78.4388 420.228 72.8469 415.625 67.9828 411.671C 63.1182 407.716 58.9723 404.396 55.7785 401.203C 52.3324 397.792 52.337 396.797 52.6266 397.846L 18.8868 407.154ZM 63.2878 442.341C 63.508 441.26 61.4837 444.775 57.1027 448.779C 52.6101 452.912 46.8338 457.653 40.8982 462.96C 34.9689 468.272 28.28 474.862 23.3581 481.412C 18.3337 488.196 13.2567 497.465 13.2567 508.5L 48.2567 508.5C 48.2567 508.285 48.4297 506.367 51.4834 502.244C 54.6396 497.888 58.857 493.853 64.2402 489.04C 69.6171 484.222 75.5595 479.338 80.77 474.564C 85.4125 470.303 91.9331 464.003 95.2256 456.658L 63.2878 442.341ZM 13.2567 508.5C 13.2567 520.647 19.7452 531.346 22.6216 536.652C 26.4569 543.728 27.7567 547.034 27.7567 550L 62.7567 550C 62.7567 536.966 56.8065 526.272 53.3918 519.973C 49.0182 511.904 48.2567 509.853 48.2567 508.5L 13.2567 508.5ZM 28.3628 545.434C 28.5394 544.539 27.8547 546.934 26.5461 549.181C 25.1735 551.592 23.5464 554.018 21.3359 557.094C 16.8611 563.341 11.2575 570.282 5.63378 577.422C 0.00599541 584.568 -5.86277 592.244 -9.98907 598.878C -12.1315 602.366 -14.381 606.743 -15.6668 610.255C -16.9367 613.856 -18.6562 620.317 -16.4107 627.334L 16.9241 616.666C 18.1695 620.558 16.95 623.004 17.3404 621.897C 17.7147 620.702 18.2855 619.681 19.7837 617.278C 22.9386 612.131 27.6323 606.057 33.1296 599.078C 38.6308 592.093 44.7147 584.534 49.7712 577.5C 54.4526 570.977 59.9756 562.613 62.1505 554.566L 28.3628 545.434ZM 950.908 -12.4621C 924.048 -14.2277 892.297 -14.7458 860.703 -14.6495L 860.81 20.3503C 892.068 20.2535 922.613 20.7429 948.605 22.4621L 950.908 -12.4621ZM 860.703 -14.6495C 822.105 -14.5298 783.111 -13.512 752.011 -12.7662C 719.833 -11.9945 698.371 -11.6219 692.427 -12.3649L 688.086 22.3648C 697.398 23.5289 722.791 22.9447 752.85 22.2238C 783.988 21.477 822.616 20.4665 860.81 20.3503L 860.703 -14.6495ZM 1233.96 413.148C 1235.15 419.017 1232.66 425.1 1227.73 428.529C 1223.05 431.787 1217.2 431.984 1212.59 429.657L 1228.36 398.411C 1221.79 395.098 1213.89 395.523 1207.75 399.791C 1201.37 404.23 1198.03 412.105 1199.66 420.117L 1233.96 413.148ZM 118.732 199.679C 118.447 188.745 128.054 183.082 135.589 183.802L 132.26 218.644C 142.216 219.595 154.069 212.131 153.72 198.766L 118.732 199.679ZM 97.9802 301.769C 92.6739 296.696 92.7215 290.107 94.0644 286.16C 95.4471 282.097 100.254 275.585 109.159 275.883L 107.987 310.863C 118.917 311.229 125.206 303.291 127.199 297.434C 129.152 291.694 128.938 282.944 122.167 276.471L 97.9802 301.769Z"/>
<path id="path4_fill" d="M 114.734 43.9058C 119.224 30.0861 138.776 30.0861 143.266 43.9058L 154.595 78.7721C 156.603 84.9524 162.362 89.1368 168.86 89.1368L 205.521 89.1368C 220.052 89.1368 226.094 107.731 214.338 116.272L 184.679 137.821C 179.421 141.64 177.222 148.411 179.23 154.591L 190.558 189.457C 195.049 203.277 179.232 214.769 167.476 206.228L 137.817 184.679C 132.559 180.86 125.441 180.86 120.183 184.679L 90.5242 206.228C 78.7685 214.769 62.9513 203.277 67.4415 189.457L 78.7703 154.591C 80.7784 148.411 78.5785 141.64 73.3212 137.821L 43.6622 116.272C 31.9065 107.731 37.9481 89.1368 52.479 89.1368L 89.1396 89.1368C 95.638 89.1368 101.397 84.9524 103.405 78.7721L 114.734 43.9058Z"/>
<path id="path5_fill" fill-rule="evenodd" d="M 208.024 116.272C 219.78 107.731 213.738 89.1368 199.207 89.1368L 151.649 89.1368L 88.1863 203.5L 113.861 184.727C 119.12 180.881 126.26 180.87 131.531 184.7L 161.162 206.228C 172.918 214.769 188.735 203.277 184.245 189.457L 172.916 154.591C 170.908 148.411 173.108 141.64 178.365 137.821L 208.024 116.272Z"/>
</defs>
</svg>
