<svg width="431" height="297" viewBox="0 0 431 297" version="1.1" xmlns="http://www.w3.org/2000/svg" xmlns:xlink="http://www.w3.org/1999/xlink">
<title>tw-bw</title>
<desc>Created using Figma</desc>
<g id="Canvas" transform="translate(922 1767)">
<g id="tw-bw">
<g id="Group">
<g id="Twitter  x28 alt x29">
<use xlink:href="#path0_fill" transform="translate(-922 -1767)"/>
</g>
</g>
</g>
</g>
<defs>
<path id="path0_fill" d="M 381.384 131.733C 405.541 129.74 421.927 118.758 428.233 103.857C 419.519 109.21 392.469 115.046 377.53 109.488C 376.798 105.978 375.98 102.644 375.177 99.634C 363.794 57.836 324.82 24.162 283.983 28.23C 287.287 26.896 290.638 25.654 293.979 24.539C 298.474 22.929 324.847 18.638 320.694 9.329C 317.194 1.141 284.972 15.517 278.905 17.396C 286.914 14.384 300.159 9.203 301.578 -1.77002e-06C 289.308 1.683 277.263 7.484 267.956 15.919C 271.316 12.302 273.865 7.894 274.406 3.15C 241.68 24.057 222.563 66.207 207.092 107.094C 194.944 95.321 184.177 86.05 174.518 80.902C 147.421 66.371 115.022 51.21 64.163 32.33C 62.602 49.157 72.485 71.531 100.963 86.41C 94.793 85.584 83.51 87.427 74.486 89.588C 78.161 108.865 90.163 124.747 122.655 132.427C 107.806 133.407 100.132 136.786 93.177 144.069C 99.94 157.476 116.443 173.255 146.13 170.016C 113.124 184.242 132.672 210.587 159.529 206.658C 113.713 253.981 41.479 250.503 0 210.922C 108.299 358.494 343.716 298.196 378.799 156.056C 405.084 156.28 420.536 146.951 430.117 136.666C 414.973 139.236 393.023 136.58 381.384 131.733Z"/>
</defs>
</svg>
