<svg width="512" height="384" viewBox="0 0 512 384" version="1.1" xmlns="http://www.w3.org/2000/svg" xmlns:xlink="http://www.w3.org/1999/xlink">
<title>em-bw</title>
<desc>Created using Figma</desc>
<g id="Canvas" transform="translate(1812 1115)">
<g id="em-bw">
<g id="Group">
<g id="Vector">
<use xlink:href="#path0_fill" transform="translate(-1812 -1115)"/>
</g>
</g>
</g>
</g>
<defs>
<path id="path0_fill" d="M 448 0L 64 0C 28.656 0 0 28.656 0 64L 0 320C 0 355.344 28.656 384 64 384L 448 384C 483.344 384 512 355.344 512 320L 512 64C 512 28.656 483.344 0 448 0ZM 342.656 170.781L 478.125 54.687C 479.063 57.687 480 60.687 480 64L 480 320C 480 322.219 479.156 324.188 478.719 326.281L 342.656 170.781ZM 448 32C 450.125 32 452 32.813 454 33.219L 256 202.938L 58 33.219C 60 32.813 61.875 32 64 32L 448 32ZM 33.266 326.25C 32.828 324.156 32 322.219 32 320L 32 64C 32 60.687 32.953 57.687 33.891 54.687L 169.313 170.75L 33.266 326.25ZM 64 352C 60.766 352 57.828 351.062 54.875 350.156L 193.625 191.593L 245.594 236.124C 248.578 238.719 252.297 240 256 240C 259.703 240 263.422 238.719 266.406 236.125L 318.375 191.594L 457.125 350.157C 454.188 351.062 451.25 352 448 352L 64 352Z"/>
</defs>
</svg>
