<svg width="160" height="160" viewBox="0 0 160 160" version="1.1" xmlns="http://www.w3.org/2000/svg" xmlns:xlink="http://www.w3.org/1999/xlink">
<title>organizing-icon-b</title>
<desc>Created using Figma</desc>
<g id="Canvas" transform="translate(341 115)">
<g id="organizing-icon-b">
<g id="backing">
<g id="Rectangle 4">
<mask id="mask0_outline_ins">
<use xlink:href="#path0_fill" fill="white" transform="translate(-341 -115)"/>
</mask>
<g mask="url(#mask0_outline_ins)">
<use xlink:href="#path1_stroke_2x" transform="translate(-341 -115)" fill="#FFFFFF"/>
</g>
</g>
<g id="Ellipse 6">
<use xlink:href="#path2_fill" transform="translate(-324 -98)" fill="#FFFFFF"/>
<mask id="mask1_outline_ins">
<use xlink:href="#path2_fill" fill="white" transform="translate(-324 -98)"/>
</mask>
<g mask="url(#mask1_outline_ins)">
<use xlink:href="#path3_stroke_2x" transform="translate(-324 -98)"/>
</g>
</g>
</g>
<g id="clipboard">
<g id="lines">
<g id="Rectangle 5">
<use xlink:href="#path4_fill" transform="translate(-281.347 -54.7044)"/>
</g>
<g id="Rectangle 5">
<use xlink:href="#path4_fill" transform="translate(-281.347 -46.3063)"/>
</g>
<g id="Rectangle 5">
<use xlink:href="#path4_fill" transform="translate(-281.347 -37.9081)"/>
</g>
<g id="Rectangle 5">
<use xlink:href="#path4_fill" transform="translate(-281.347 -29.5099)"/>
</g>
<g id="Rectangle 5">
<use xlink:href="#path4_fill" transform="translate(-281.347 -21.1117)"/>
</g>
<g id="Rectangle 5">
<use xlink:href="#path4_fill" transform="translate(-281.347 -12.7136)"/>
</g>
</g>
<g id="Subtract">
<use xlink:href="#path5_fill" transform="translate(-292 -65.2021)"/>
</g>
<g id="Ellipse 2">
<use xlink:href="#path6_fill" transform="translate(-253.67 -20.1885)" fill="#FFFFFF"/>
</g>
<g id="clip">
<g id="Union">
<use xlink:href="#path7_fill" transform="translate(-276.323 -75)" fill="#FFFFFF"/>
<mask id="mask2_outline_out">
<rect id="mask2_outline_inv" fill="white" x="-2" y="-2" width="30" height="20" transform="translate(-276.323 -75)"/>
<use xlink:href="#path7_fill" fill="black" transform="translate(-276.323 -75)"/>
</mask>
<g mask="url(#mask2_outline_out)">
<use xlink:href="#path8_stroke_2x" transform="translate(-276.323 -75)"/>
</g>
</g>
<g id="Ellipse">
<use xlink:href="#path9_fill" transform="translate(-265.601 -72.3173)"/>
</g>
</g>
</g>
<g id="button">
<g id="head">
<g id="Ellipse 3">
<use xlink:href="#path10_fill" transform="translate(-243.167 -5.20883)"/>
</g>
<g id="Ellipse 5">
<use xlink:href="#path11_fill" transform="translate(-240.726 -2.36849)" fill="#FFFFFF"/>
</g>
<g id="Ellipse 5">
<use xlink:href="#path11_fill" transform="translate(-235.842 -2.36849)" fill="#FFFFFF"/>
</g>
<g id="Ellipse 4">
<use xlink:href="#path12_fill" transform="translate(-239.809 1.22427)" fill="#FFFFFF"/>
</g>
</g>
<g id="Ellipse 2">
<use xlink:href="#path13_stroke" transform="translate(-254.562 -21.4393)"/>
</g>
<g id="Group">
<g id="Rectangle 5">
<use xlink:href="#path14_fill" transform="matrix(1 0 0 -1 -251.306 -1.1512)"/>
</g>
<g id="Rectangle 5">
<use xlink:href="#path14_fill" transform="matrix(1 0 0 -1 -251.306 1.28338)"/>
</g>
</g>
<g id="Group">
<g id="Rectangle 5">
<use xlink:href="#path14_fill" transform="matrix(1 0 0 -1 -229.331 -1.1512)"/>
</g>
<g id="Rectangle 5">
<use xlink:href="#path14_fill" transform="matrix(1 0 0 -1 -229.331 1.28338)"/>
</g>
</g>
<g id="Group">
<g id="e">
<use xlink:href="#path15_fill" transform="matrix(0.953827 0.300356 -0.301463 0.953478 -232.33 -18)"/>
</g>
<g id="v">
<use xlink:href="#path16_fill" transform="matrix(0.913011 -0.407936 0.409619 0.912257 -253 -17.6767)"/>
</g>
<g id="O">
<use xlink:href="#path17_fill" transform="matrix(0.996433 -0.0843822 0.0848686 0.996392 -244 -15.4506)"/>
</g>
<g id="t">
<use xlink:href="#path18_fill" transform="matrix(0.989923 0.141605 -0.14241 0.989808 -237.457 -23)"/>
</g>
<g id="!">
<use xlink:href="#path19_fill" transform="matrix(0.90943 0.415856 -0.417329 0.908755 -225.902 -18)"/>
</g>
</g>
</g>
</g>
</g>
<defs>
<path id="path0_fill" d="M 0 0L 160 0L 160 160L 0 160L 0 0Z"/>
<path id="path1_stroke_2x" d="M 0 0L 0 -1L -1 -1L -1 0L 0 0ZM 160 0L 161 0L 161 -1L 160 -1L 160 0ZM 160 160L 160 161L 161 161L 161 160L 160 160ZM 0 160L -1 160L -1 161L 0 161L 0 160ZM 0 1L 160 1L 160 -1L 0 -1L 0 1ZM 159 0L 159 160L 161 160L 161 0L 159 0ZM 160 159L 0 159L 0 161L 160 161L 160 159ZM 1 160L 1 0L -1 0L -1 160L 1 160Z"/>
<path id="path2_fill" d="M 125 62.5C 125 97.0178 97.0178 125 62.5 125C 27.9822 125 0 97.0178 0 62.5C 0 27.9822 27.9822 0 62.5 0C 97.0178 0 125 27.9822 125 62.5Z"/>
<path id="path3_stroke_2x" d="M 123 62.5C 123 95.9132 95.9132 123 62.5 123L 62.5 127C 98.1224 127 127 98.1224 127 62.5L 123 62.5ZM 62.5 123C 29.0868 123 2 95.9132 2 62.5L -2 62.5C -2 98.1224 26.8776 127 62.5 127L 62.5 123ZM 2 62.5C 2 29.0868 29.0868 2 62.5 2L 62.5 -2C 26.8776 -2 -2 26.8776 -2 62.5L 2 62.5ZM 62.5 2C 95.9132 2 123 29.0868 123 62.5L 127 62.5C 127 26.8776 98.1224 -2 62.5 -2L 62.5 2Z"/>
<path id="path4_fill" d="M 0 1.25C 0 0.559644 0.559644 0 1.25 0L 34.2596 0C 34.9499 0 35.5096 0.559644 35.5096 1.25C 35.5096 1.94036 34.9499 2.5 34.2596 2.5L 1.25 2.5C 0.559644 2.5 0 1.94036 0 1.25Z"/>
<path id="path5_fill" fill-rule="evenodd" d="M 0 4C 0 1.79086 1.79086 0 4 0L 53.5255 0C 55.7347 0 57.5255 1.79086 57.5255 4L 57.5255 44.2417C 55.9824 43.6019 54.3084 43.2077 52.5542 43.1088L 52.5542 8.89893C 52.5542 6.68979 50.7633 4.89893 48.5542 4.89893L 8.97134 4.89893C 6.76221 4.89893 4.97134 6.68979 4.97134 8.89893L 4.97134 56.7529C 4.97134 58.9621 6.76221 60.7529 8.97134 60.7529L 36.8707 60.7529C 37.2809 62.8551 38.1412 64.7997 39.349 66.4855L 4 66.4855C 1.79086 66.4855 0 64.6946 0 62.4855L 0 4Z"/>
<path id="path6_fill" d="M 20.8233 13.647C 20.8233 21.8484 20.6291 22.745 12.301 22.745C 1.957 22.2834 -0.891561 25.5295 0.22774 14.85C 0.22774 6.64857 6.97897 0 15.307 0C 23.6351 0 20.8233 5.4456 20.8233 13.647Z"/>
<path id="path7_fill" fill-rule="evenodd" d="M 15.813 6.89851C 16.5157 6.1659 16.9466 5.17664 16.9466 4.088C 16.9466 1.83026 15.093 0 12.8064 0C 10.5198 0 8.66611 1.83026 8.66611 4.088C 8.66611 5.17664 9.09708 6.1659 9.79977 6.89851L 3.76108 6.89851C 1.89404 6.89851 0.312134 8.27349 0.052063 10.1223C -0.391815 13.2778 2.05814 16.0965 5.24469 16.0965L 20.4119 16.0965C 23.8387 16.0965 26.4733 13.0653 25.996 9.67197C 25.7722 8.08141 24.4113 6.89851 22.8051 6.89851L 15.813 6.89851Z"/>
<path id="path8_stroke_2x" d="M 15.813 6.89851L 14.7304 5.86017L 12.2957 8.39851L 15.813 8.39851L 15.813 6.89851ZM 9.79977 6.89851L 9.79977 8.39851L 13.317 8.39851L 10.8823 5.86017L 9.79977 6.89851ZM 0.052063 10.1223L 1.53744 10.3313L 1.53744 10.3313L 0.052063 10.1223ZM 25.996 9.67197L 27.4813 9.46303L 27.4813 9.46303L 25.996 9.67197ZM 15.4466 4.088C 15.4466 4.77186 15.1778 5.39377 14.7304 5.86017L 16.8955 7.93684C 17.8535 6.93803 18.4466 5.58142 18.4466 4.088L 15.4466 4.088ZM 12.8064 1.5C 14.2826 1.5 15.4466 2.6766 15.4466 4.088L 18.4466 4.088C 18.4466 0.983925 15.9034 -1.5 12.8064 -1.5L 12.8064 1.5ZM 10.1661 4.088C 10.1661 2.6766 11.3302 1.5 12.8064 1.5L 12.8064 -1.5C 9.70937 -1.5 7.16611 0.983925 7.16611 4.088L 10.1661 4.088ZM 10.8823 5.86017C 10.4349 5.39377 10.1661 4.77186 10.1661 4.088L 7.16611 4.088C 7.16611 5.58142 7.75921 6.93803 8.71725 7.93684L 10.8823 5.86017ZM 3.76108 8.39851L 9.79977 8.39851L 9.79977 5.39851L 3.76108 5.39851L 3.76108 8.39851ZM 1.53744 10.3313C 1.69336 9.22283 2.64176 8.39851 3.76108 8.39851L 3.76108 5.39851C 1.14633 5.39851 -1.06909 7.32415 -1.43331 9.91338L 1.53744 10.3313ZM 5.24469 14.5965C 2.96966 14.5965 1.22054 12.5841 1.53744 10.3313L -1.43331 9.91338C -2.00417 13.9715 1.14661 17.5965 5.24469 17.5965L 5.24469 14.5965ZM 20.4119 14.5965L 5.24469 14.5965L 5.24469 17.5965L 20.4119 17.5965L 20.4119 14.5965ZM 24.5106 9.88091C 24.861 12.3716 22.9271 14.5965 20.4119 14.5965L 20.4119 17.5965C 24.7502 17.5965 28.0856 13.759 27.4813 9.46303L 24.5106 9.88091ZM 22.8051 8.39851C 23.6636 8.39851 24.391 9.03076 24.5106 9.88092L 27.4813 9.46303C 27.1535 7.13206 25.159 5.39851 22.8051 5.39851L 22.8051 8.39851ZM 15.813 8.39851L 22.8051 8.39851L 22.8051 5.39851L 15.813 5.39851L 15.813 8.39851Z"/>
<path id="path9_fill" d="M 4.0519 2.01206C 4.0519 3.12329 3.14485 4.02412 2.02595 4.02412C 0.907048 4.02412 0 3.12329 0 2.01206C 0 0.90083 0.907048 0 2.02595 0C 3.14485 0 4.0519 0.90083 4.0519 2.01206Z"/>
<path id="path10_fill" d="M 7.82666 11.885C 7.36081 13.7419 7.54034 12.6848 6.17327 12.6848C 5.56549 12.6848 5.20642 13.5657 5.04588 11.885C -2.83302 8.27435 -0.732717 0 6.17327 0C 13.0793 0 14.6241 8.27435 7.82666 11.885Z"/>
<path id="path11_fill" d="M 2.44163 1.21729C 2.44163 1.88958 1.89505 2.43458 1.22082 2.43458C 0.546578 2.43458 0 1.88958 0 1.21729C 0 0.544998 0.546578 0 1.22082 0C 1.89505 0 2.44163 0.544998 2.44163 1.21729Z"/>
<path id="path12_fill" d="M 5.59761 0.384982C 5.59761 1.89531 4.34454 3.11968 2.79881 3.11968C 1.25307 3.11968 0 1.89531 0 0.384982C 0 -0.752424 0.710752 0.992689 2.79881 0.992689C 4.78014 0.992689 5.59761 -0.752425 5.59761 0.384982Z"/>
<path id="path13_stroke" d="M 33.8117 17.2197C 33.8117 26.3131 26.4131 33.6893 17.2808 33.6893L 17.2808 35.1893C 27.2365 35.1893 35.3117 27.1465 35.3117 17.2197L 33.8117 17.2197ZM 17.2808 33.6893C 8.1486 33.6893 0.75 26.3131 0.75 17.2197L -0.75 17.2197C -0.75 27.1465 7.32519 35.1893 17.2808 35.1893L 17.2808 33.6893ZM 0.75 17.2197C 0.75 8.12623 8.1486 0.75 17.2808 0.75L 17.2808 -0.75C 7.32519 -0.75 -0.75 7.29279 -0.75 17.2197L 0.75 17.2197ZM 17.2808 0.75C 26.4131 0.75 33.8117 8.12623 33.8117 17.2197L 35.3117 17.2197C 35.3117 7.29279 27.2365 -0.75 17.2808 -0.75L 17.2808 0.75Z"/>
<path id="path14_fill" d="M 0 0.5C 0 0.223858 0.223858 0 0.5 0L 6.01102 0C 6.28716 0 6.51102 0.223858 6.51102 0.5C 6.51102 0.776142 6.28716 1 6.01102 1L 0.5 1C 0.223858 1 0 0.776142 0 0.5Z"/>
<path id="path15_fill" d="M 2.3 6.85C 2.38667 7.13667 2.53 7.37 2.73 7.55C 2.93 7.73 3.20667 7.82 3.56 7.82C 3.66667 7.82 3.78 7.81333 3.9 7.8C 4.02667 7.78 4.15 7.75667 4.27 7.73C 4.39 7.69667 4.50333 7.66333 4.61 7.63C 4.71667 7.59 4.81 7.55333 4.89 7.52C 4.90333 7.71333 4.91 7.92 4.91 8.14C 4.91667 8.35333 4.92 8.56667 4.92 8.78C 4.92 9.13333 4.91 9.45 4.89 9.73C 4.37 9.98333 3.78667 10.11 3.14 10.11C 2.84 10.11 2.53667 10.0767 2.23 10.01C 1.92333 9.94333 1.62667 9.81667 1.34 9.63C 1.08667 9.46333 0.876667 9.27 0.71 9.05C 0.55 8.82333 0.423333 8.59333 0.33 8.36C 0.236667 8.12 0.173333 7.88667 0.14 7.66C 0.106667 7.43333 0.09 7.23 0.09 7.05C 0.09 6.78333 0.12 6.50667 0.18 6.22C 0.246667 5.92667 0.346667 5.65 0.48 5.39C 0.613333 5.12333 0.783333 4.88 0.99 4.66C 1.19667 4.44 1.44 4.26667 1.72 4.14C 2.06 3.98667 2.42 3.91 2.8 3.91C 3.2 3.91 3.56 3.99 3.88 4.15C 4.2 4.31 4.46 4.53 4.66 4.81C 4.85333 5.07667 4.97333 5.37333 5.02 5.7C 5.07333 6.02667 5.1 6.41 5.1 6.85L 2.3 6.85ZM 2.87 4.99C 2.73 4.99 2.59667 5.05 2.47 5.17C 2.34333 5.28333 2.26 5.48667 2.22 5.78L 3.53 5.78C 3.50333 5.51333 3.42333 5.31667 3.29 5.19C 3.16333 5.05667 3.02333 4.99 2.87 4.99Z"/>
<path id="path16_fill" d="M 5.954 6.226L 4.199 14L 1.742 14L -0.039 6.226L 1.898 6.226L 2.652 10.36C 2.678 10.516 2.717 10.646 2.769 10.75C 2.82967 10.854 2.90333 10.906 2.99 10.906C 3.13733 10.906 3.24567 10.724 3.315 10.36L 4.017 6.226L 5.954 6.226Z"/>
<path id="path17_fill" d="M 2.432 1.36C 3.22667 1.36 3.81333 1.64267 4.192 2.208C 4.57067 2.77333 4.76 3.59467 4.76 4.672C 4.76 5.76533 4.57333 6.608 4.2 7.2C 3.832 7.792 3.24267 8.088 2.432 8.088C 2.032 8.088 1.68533 8.01333 1.392 7.864C 1.09867 7.70933 0.856 7.488 0.664 7.2C 0.472 6.90667 0.330667 6.54933 0.24 6.128C 0.149333 5.70133 0.104 5.216 0.104 4.672C 0.104 3.57867 0.293333 2.75467 0.672 2.2C 1.05067 1.64 1.63733 1.36 2.432 1.36ZM 2.432 6.024C 2.60267 6.024 2.752 5.98667 2.88 5.912C 3.01333 5.832 3.12267 5.72533 3.208 5.592C 3.29333 5.45333 3.35733 5.29067 3.4 5.104C 3.44267 4.912 3.464 4.70133 3.464 4.472C 3.464 4.24267 3.44267 4.032 3.4 3.84C 3.35733 3.64267 3.29333 3.472 3.208 3.328C 3.12267 3.184 3.01333 3.072 2.88 2.992C 2.752 2.912 2.60267 2.872 2.432 2.872C 2.26133 2.872 2.112 2.91467 1.984 3C 1.86133 3.08 1.75467 3.192 1.664 3.336C 1.57867 3.48 1.51467 3.65067 1.472 3.848C 1.42933 4.04 1.408 4.248 1.408 4.472C 1.408 4.70133 1.42933 4.912 1.472 5.104C 1.51467 5.29067 1.57867 5.45333 1.664 5.592C 1.75467 5.72533 1.86133 5.832 1.984 5.912C 2.112 5.98667 2.26133 6.024 2.432 6.024Z"/>
<path id="path18_fill" d="M 1.05 5.004L 2.968 5.004L 2.968 6.628L 4.046 6.628L 4.046 10.352L 2.94 10.352L 2.94 12.312C 2.94 12.6947 2.97267 12.9513 3.038 13.082C 3.10333 13.2033 3.25267 13.264 3.486 13.264C 3.55133 13.264 3.64 13.2593 3.752 13.25C 3.864 13.2407 3.948 13.2267 4.004 13.208C 4.02267 13.2733 4.032 13.4087 4.032 13.614C 4.032 13.81 4.032 14.0107 4.032 14.216C 4.032 14.3933 4.032 14.5567 4.032 14.706C 4.032 14.846 4.02733 14.944 4.018 15C 3.906 15.0187 3.78 15.0327 3.64 15.042C 3.50933 15.0607 3.37867 15.0747 3.248 15.084C 3.12667 15.0933 3.01 15.098 2.898 15.098C 2.79533 15.1073 2.71133 15.112 2.646 15.112C 2.31 15.112 2.03467 15.0467 1.82 14.916C 1.60533 14.7853 1.43733 14.6127 1.316 14.398C 1.19467 14.174 1.11067 13.9267 1.064 13.656C 1.01733 13.376 0.994 13.0913 0.994 12.802C 0.994 12.69 0.994 12.5267 0.994 12.312C 1.00333 12.088 1.008 11.8547 1.008 11.612C 1.01733 11.3693 1.02667 11.136 1.036 10.912C 1.04533 10.6787 1.05 10.492 1.05 10.352L 0.21 10.352L 0.21 6.628L 1.05 6.628L 1.05 5.004Z"/>
<path id="path19_fill" d="M 3.107 3.288L 2.47 10.061L 0.897 10.061L 0.897 3.067L 3.107 3.288ZM 1.56 11.348C 1.77667 11.348 1.96733 11.3913 2.132 11.478C 2.30533 11.5647 2.44833 11.6773 2.561 11.816C 2.68233 11.946 2.77333 12.0933 2.834 12.258C 2.89467 12.414 2.925 12.5657 2.925 12.713C 2.925 12.9037 2.886 13.0857 2.808 13.259C 2.73867 13.4323 2.639 13.584 2.509 13.714C 2.38767 13.844 2.24033 13.948 2.067 14.026C 1.90233 14.104 1.729 14.143 1.547 14.143C 1.313 14.143 1.10933 14.104 0.936 14.026C 0.762667 13.9567 0.619667 13.8613 0.507 13.74C 0.394333 13.61 0.307667 13.467 0.247 13.311C 0.195 13.155 0.169 12.9947 0.169 12.83C 0.169 12.6567 0.199333 12.4833 0.26 12.31C 0.320667 12.128 0.407333 11.9677 0.52 11.829C 0.641333 11.6817 0.788667 11.5647 0.962 11.478C 1.13533 11.3913 1.33467 11.348 1.56 11.348Z"/>
</defs>
</svg>
