<svg width="160" height="160" viewBox="0 0 160 160" version="1.1" xmlns="http://www.w3.org/2000/svg" xmlns:xlink="http://www.w3.org/1999/xlink">
<title>policy-icon-b</title>
<desc>Created using Figma</desc>
<g id="Canvas" transform="translate(420 324)">
<g id="policy-icon-b">
<g id="Rectangle">
<mask id="mask0_outline_ins">
<use xlink:href="#path0_fill" fill="white" transform="translate(-420 -324)"/>
</mask>
<g mask="url(#mask0_outline_ins)">
<use xlink:href="#path1_stroke_2x" transform="translate(-420 -324)" fill="#FFFFFF"/>
</g>
</g>
<g id="Ellipse 2">
<use xlink:href="#path2_fill" transform="translate(-403 -308)" fill="#FFFFFF"/>
<mask id="mask1_outline_ins">
<use xlink:href="#path2_fill" fill="white" transform="translate(-403 -308)"/>
</mask>
<g mask="url(#mask1_outline_ins)">
<use xlink:href="#path3_stroke_2x" transform="translate(-403 -308)"/>
</g>
</g>
<g id="scroll">
<g id="Vector">
<use xlink:href="#path4_stroke" transform="matrix(0.983224 0.182402 -0.181556 0.983381 -382.501 -284)"/>
</g>
<g id="Vector">
<use xlink:href="#path5_fill" transform="matrix(0.983224 0.182402 -0.181556 0.983381 -379.599 -283.462)"/>
<use xlink:href="#path6_stroke" transform="matrix(0.983224 0.182402 -0.181556 0.983381 -379.599 -283.462)"/>
</g>
<g id="Vector">
<use xlink:href="#path7_fill" transform="matrix(0.983224 0.182402 -0.181556 0.983381 -379.599 -283.462)"/>
<use xlink:href="#path8_fill" transform="matrix(0.983224 0.182402 -0.181556 0.983381 -379.599 -283.462)"/>
<use xlink:href="#path9_fill" transform="matrix(0.983224 0.182402 -0.181556 0.983381 -379.599 -283.462)"/>
<use xlink:href="#path10_fill" transform="matrix(0.983224 0.182402 -0.181556 0.983381 -379.599 -283.462)"/>
<use xlink:href="#path11_stroke" transform="matrix(0.983224 0.182402 -0.181556 0.983381 -379.599 -283.462)"/>
</g>
</g>
</g>
</g>
<defs>
<path id="path0_fill" d="M 0 0L 160 0L 160 160L 0 160L 0 0Z"/>
<path id="path1_stroke_2x" d="M 0 0L 0 -1L -1 -1L -1 0L 0 0ZM 160 0L 161 0L 161 -1L 160 -1L 160 0ZM 160 160L 160 161L 161 161L 161 160L 160 160ZM 0 160L -1 160L -1 161L 0 161L 0 160ZM 0 1L 160 1L 160 -1L 0 -1L 0 1ZM 159 0L 159 160L 161 160L 161 0L 159 0ZM 160 159L 0 159L 0 161L 160 161L 160 159ZM 1 160L 1 0L -1 0L -1 160L 1 160Z"/>
<path id="path2_fill" d="M 125 62.5C 125 97.0178 97.0178 125 62.5 125C 27.9822 125 0 97.0178 0 62.5C 0 27.9822 27.9822 0 62.5 0C 97.0178 0 125 27.9822 125 62.5Z"/>
<path id="path3_stroke_2x" d="M 123 62.5C 123 95.9132 95.9132 123 62.5 123L 62.5 127C 98.1224 127 127 98.1224 127 62.5L 123 62.5ZM 62.5 123C 29.0868 123 2 95.9132 2 62.5L -2 62.5C -2 98.1224 26.8776 127 62.5 127L 62.5 123ZM 2 62.5C 2 29.0868 29.0868 2 62.5 2L 62.5 -2C 26.8776 -2 -2 26.8776 -2 62.5L 2 62.5ZM 62.5 2C 95.9132 2 123 29.0868 123 62.5L 127 62.5C 127 26.8776 98.1224 -2 62.5 -2L 62.5 2Z"/>
<path id="path4_stroke" d="M 14.0339 26.9845L 13.5689 27.1685L 14.0339 26.9845ZM 10.1714 19.5178L 10.4936 19.1355L 10.4936 19.1355L 10.1714 19.5178ZM 7.94703 29.4843L 7.70837 29.9237L 8.03538 30.1013L 8.29941 29.8391L 7.94703 29.4843ZM 51.6557 54.0441L 51.3367 54.4292L 51.3424 54.4338L 51.6557 54.0441ZM 2.95159 19.3973L 2.63833 19.0076L 2.63833 19.0076L 2.95159 19.3973ZM 25.6071 4.48599L 25.3399 4.06328L 25.3322 4.06834L 25.6071 4.48599ZM 20.9556 28.6072L 20.6333 28.9895L 20.6366 28.9922L 20.9556 28.6072ZM 12.8036 31.7863L 13.1081 32.1829L 13.1081 32.1829L 12.8036 31.7863ZM 18.9846 26.946L 18.6623 27.3283L 18.6623 27.3283L 18.9846 26.946ZM 30.9682 1.09708L 31.2353 1.51971L 31.2353 1.51971L 30.9682 1.09708ZM 72.4063 29.0458L 72.0875 29.4309L 72.0973 29.4391L 72.1076 29.4467L 72.4063 29.0458ZM 12.8717 24.7379L 13.2637 24.4275L 13.2637 24.4275L 12.8717 24.7379ZM 11.7204 23.708L 12.0115 23.3015L 12.0115 23.3015L 11.7204 23.708ZM 13.1509 25.2403L 13.148 25.7402L 13.7228 25.7435L 13.6464 25.1738L 13.1509 25.2403ZM 11.3894 20.5444L 11.0671 20.9267L 11.0671 20.9267L 11.3894 20.5444ZM 5.09456 18.1668L 5.27304 18.6339L 5.27304 18.6339L 5.09456 18.1668ZM 39.283 1.62645L 38.9641 2.0116L 38.9641 2.0116L 39.283 1.62645ZM 57.6335 52.8558L 57.1425 52.7611L 57.1425 52.7611L 57.6335 52.8558ZM 69.8399 61.8657L 69.4857 61.5127L 69.4857 61.5127L 69.8399 61.8657ZM 58.6759 50.6282L 58.3296 50.2676L 58.3296 50.2676L 58.6759 50.6282ZM 63.3208 48.4625L 63.3754 48.9595L 63.3208 48.4625ZM 60.9272 58.8684L 61.0478 58.3831L 61.0478 58.3831L 60.9272 58.8684ZM 62.4181 62.4556L 62.1483 62.8765L 62.1698 62.8903L 62.1927 62.9019L 62.4181 62.4556ZM 60.9272 61.4998L 60.6139 61.8894L 60.6348 61.9062L 60.6574 61.9207L 60.9272 61.4998ZM 67.5498 52.2899L 67.2156 52.6617L 67.2156 52.6617L 67.5498 52.2899ZM 64.4593 55.7984L 64.5409 56.2917L 64.6984 56.2656L 64.8116 56.1531L 64.4593 55.7984ZM 67.1083 58.4298L 67.3844 58.8467L 67.4189 58.8238L 67.4493 58.7955L 67.1083 58.4298ZM 68.4328 49.6304L 68.6984 49.2067L 68.6984 49.2067L 68.4328 49.6304ZM 66.2253 58.8684L 66.1032 58.3835L 66.068 58.3923L 66.0345 58.4062L 66.2253 58.8684ZM 64.9008 59.3069L 65.0191 59.7927L 64.9008 59.3069ZM 67.9826 62.9274L 68.0723 63.4193L 68.1155 63.4114L 68.1566 63.3962L 67.9826 62.9274ZM 66.9665 63.1159L 67.096 63.5988L 66.9665 63.1159ZM 95.3644 42.6414L 95.6657 43.0404L 95.6928 43.02L 95.7168 42.9961L 95.3644 42.6414ZM 58.0399 51.2978L 57.6269 51.016L 57.6269 51.016L 58.0399 51.2978ZM 85.6514 32.5543L 85.3752 32.1373L 85.365 32.1445L 85.6514 32.5543ZM 90.5079 31.2386L 90.5079 31.7386L 90.5079 31.7386L 90.5079 31.2386ZM 97.1304 37.8171L 97.6304 37.8171L 97.6304 37.8171L 97.1304 37.8171ZM 93.1569 31.6772L 92.9007 32.1066L 92.9007 32.1066L 93.1569 31.6772ZM 56.5125 15.889L 56.8314 15.5038L 56.8314 15.5038L 56.5125 15.889ZM 7.94703 32.9314C 3.831 32.9314 0.5 29.6178 0.5 25.5372L -0.5 25.5372C -0.5 30.1764 3.28501 33.9314 7.94703 33.9314L 7.94703 32.9314ZM 13.5689 27.1685C 13.7028 27.5067 13.8988 28.0571 13.9739 28.663C 14.0523 29.2732 13.9935 29.8246 13.7201 30.2104L 14.536 30.7886C 15.0247 30.099 15.0563 29.2402 14.9658 28.5355C 14.8719 27.8265 14.6397 27.1571 14.4988 26.8006L 13.5689 27.1685ZM 0.5 25.5372C 0.5 23.2159 1.57682 21.1439 3.26484 19.787L 2.63833 19.0076C 0.725467 20.5452 -0.5 22.8988 -0.5 25.5372L 0.5 25.5372ZM 20.6366 28.9922L 51.3367 54.4291L 51.9747 53.6591L 21.2746 28.2222L 20.6366 28.9922ZM 12.499 31.3898C 11.2199 32.3795 9.68905 32.9391 7.94703 32.9314L 7.94703 33.9314C 9.86284 33.9238 11.7012 33.256 13.1081 32.1829L 12.499 31.3898ZM 18.6623 27.3283L 20.6333 28.9895L 21.2778 28.2249L 19.3068 26.5636L 18.6623 27.3283ZM 25.8743 4.90863L 31.2353 1.51971L 30.701 0.674437L 25.3399 4.06335L 25.8743 4.90863ZM 8.1857 29.045C 6.61163 28.1899 5.28423 27.073 4.63452 26.0077C 4.31167 25.4783 4.1807 25.0029 4.22057 24.5994C 4.25867 24.2138 4.4596 23.8218 4.95506 23.4527L 4.35762 22.6508C 3.67575 23.1588 3.29566 23.7901 3.22542 24.501C 3.15694 25.194 3.3903 25.8881 3.78077 26.5284C 4.55771 27.8023 6.053 29.0245 7.70837 29.9237L 8.1857 29.045ZM 4.87373 23.502C 5.66321 23.1208 6.83484 22.9303 8.06734 23.0178C 9.30865 23.1031 10.4996 23.4396 11.4292 24.1145L 12.0115 23.3015C 10.9348 22.5393 9.48271 22.1184 8.13811 22.0203C 6.78469 21.9243 5.42749 22.1242 4.43896 22.6014L 4.87373 23.502ZM 11.4292 24.1145C 11.7517 24.3455 12.2731 24.7875 12.4798 25.0484L 13.2637 24.4275C 12.9692 24.0557 12.3568 23.5488 12.0115 23.3015L 11.4292 24.1145ZM 12.4798 25.0484C 12.5129 25.0876 12.5134 25.0914 12.5421 25.1496C 12.5734 25.2125 12.6198 25.3123 12.7132 25.4821L 13.5885 24.9984C 13.5119 24.8605 13.4752 24.7804 13.4377 24.7048C 13.3976 24.6244 13.3436 24.5309 13.2637 24.4275L 12.4798 25.0484ZM 13.6464 25.1738C 13.6475 25.1818 13.6561 25.2393 13.6429 25.3139C 13.634 25.3643 13.562 25.6698 13.2235 25.7173C 13.0965 25.7351 12.9982 25.6996 12.9514 25.6785C 12.9014 25.6559 12.8666 25.63 12.8493 25.6162C 12.8146 25.5886 12.7936 25.5635 12.7892 25.5582C 12.7743 25.5406 12.7797 25.5438 12.8129 25.6005C 12.8704 25.6985 12.9516 25.8516 13.0462 26.0388C 13.2368 26.4158 13.4543 26.8782 13.5689 27.1685L 14.4988 26.8006C 14.3722 26.4814 14.1357 25.9776 13.9387 25.5877C 13.8395 25.3915 13.7436 25.2111 13.6756 25.0949C 13.6387 25.0321 13.59 24.9583 13.5541 24.9141C 13.5383 24.8958 13.4999 24.8573 13.4729 24.8345C 13.4674 24.8301 13.3141 24.6948 13.0845 24.727C 12.7423 24.775 12.6681 25.0836 12.6581 25.14C 12.6439 25.2207 12.6526 25.287 12.6553 25.3067L 13.6464 25.1738ZM 13.1537 24.7403C 12.0594 24.7341 11.1846 25.3755 10.3645 26.1791C 9.5402 26.9882 8.67961 28.0529 7.59466 29.1296L 8.29941 29.8391C 9.42197 28.7229 10.2803 27.6607 11.0645 26.8934C 11.853 26.1206 12.4763 25.7365 13.148 25.7402L 13.1537 24.7403ZM 13.1118 32.18L 13.2304 32.0872L 12.6138 31.2999L 12.4953 31.3927L 13.1118 32.18ZM 13.2341 32.0843C 13.698 31.7129 14.1404 31.2749 14.5157 30.8153L 13.7404 30.1837C 13.3999 30.6029 13.0333 30.9658 12.6101 31.3028L 13.2341 32.0843ZM 4.98435 23.4291C 6.71128 21.9281 7.89992 20.9502 8.85617 20.5261C 9.31774 20.3213 9.684 20.2658 10.0047 20.319C 10.3246 20.3719 10.6614 20.5432 11.0454 20.9072L 11.7334 20.1815C 11.2508 19.724 10.7396 19.427 10.1681 19.3324C 9.59743 19.2379 9.02895 19.3555 8.4507 19.612C 7.32729 20.1103 6.01589 21.2076 4.32834 22.6743L 4.98435 23.4291ZM 11.7116 20.1621L 10.4936 19.1355L 9.84918 19.9001L 11.0671 20.9267L 11.7116 20.1621ZM 4.91608 17.6997C 4.59883 17.8212 4.27709 17.9675 3.97993 18.1246L 4.44791 19.0083C 4.71821 18.8649 4.98443 18.7439 5.27304 18.6339L 4.91608 17.6997ZM 3.93903 18.1488L 2.6767 18.9796L 3.22648 19.8149L 4.48881 18.9841L 3.93903 18.1488ZM 4.48881 18.9841L 25.882 4.90365L 25.3322 4.06834L 3.93903 18.1488L 4.48881 18.9841ZM 11.0776 20.9352C 11.1026 20.9551 11.1224 20.9718 11.1471 20.9938L 11.811 20.2461C 11.777 20.2159 11.737 20.1822 11.7012 20.1535L 11.0776 20.9352ZM 3.26484 19.787C 3.63794 19.4864 4.02078 19.2339 4.44791 19.0083L 3.97993 18.1246C 3.51092 18.3736 3.04875 18.6784 2.63833 19.0076L 3.26484 19.787ZM 11.0671 20.9267L 11.1568 21.0023L 11.8013 20.2376L 11.7116 20.1621L 11.0671 20.9267ZM 12.6101 31.3028C 12.5728 31.3326 12.537 31.3606 12.499 31.3898L 13.1081 32.1829C 13.1498 32.1509 13.193 32.117 13.2341 32.0842L 12.6101 31.3028ZM 72.1076 29.4467L 80.9376 36.0252L 81.5351 35.2233L 72.705 28.6448L 72.1076 29.4467ZM 10.4936 19.1355C 9.00635 17.8819 6.92917 16.9305 4.91608 17.6997L 5.27304 18.6339C 6.77548 18.0597 8.46433 18.7329 9.84918 19.9001L 10.4936 19.1355ZM 31.2353 1.51971C 33.6452 -0.00361782 36.7703 0.195562 38.9641 2.0116L 39.6018 1.24129C 37.0743 -0.85097 33.4762 -1.07983 30.701 0.674437L 31.2353 1.51971ZM 58.2321 54.8274C 57.9995 54.1813 57.9714 53.7227 58.1244 52.9505L 57.1425 52.7611C 56.9734 53.6589 57.0196 54.3808 57.2889 55.1596L 58.2321 54.8274ZM 71.5968 55.4958C 71.8538 57.8031 71.013 59.9799 69.4857 61.5127L 70.1941 62.2186C 71.9254 60.481 72.8828 58.0076 72.5906 55.3851L 71.5968 55.4958ZM 59.0221 50.9889C 60.1838 49.8656 61.6432 49.1422 63.3754 48.9595L 63.2661 47.9655C 61.3627 48.1824 59.6092 49.0471 58.3296 50.2676L 59.0221 50.9889ZM 61.0478 58.3831C 59.8441 58.0842 58.989 57.0838 58.2933 55.1627L 57.3531 55.5032C 58.0869 57.5297 59.1118 58.9327 60.8067 59.3536L 61.0478 58.3831ZM 62.688 62.0347L 61.1971 61.0789L 60.6574 61.9207L 62.1483 62.8765L 62.688 62.0347ZM 61.2406 61.1101L 51.9691 53.6545L 51.3424 54.4338L 60.6139 61.8894L 61.2406 61.1101ZM 67.884 51.918C 67.5631 51.6296 67.0491 51.1589 66.3263 50.8712C 65.5703 50.5809 64.6161 50.5126 63.4088 50.9416L 63.7437 51.8839C 64.744 51.5284 65.4515 51.6065 65.9678 51.8047C 66.5173 52.0057 66.8862 52.3657 67.2156 52.6617L 67.884 51.918ZM 63.3539 50.9649C 61.8312 51.7212 61.2701 53.1525 61.5431 54.3726C 61.8189 55.6053 62.9419 56.5564 64.5409 56.2917L 64.3776 55.3051C 63.3276 55.4789 62.6847 54.895 62.5189 54.1542C 62.3504 53.4008 62.6723 52.42 63.7987 51.8605L 63.3539 50.9649ZM 67.2156 52.6617C 67.4745 52.8944 67.6667 53.3185 67.7075 53.9174L 68.7052 53.8494C 68.6538 53.0958 68.4024 52.3839 67.884 51.918L 67.2156 52.6617ZM 67.7075 53.9174C 67.7107 53.9651 67.7128 54.0084 67.7141 54.0575L 68.7137 54.0308C 68.7121 53.9714 68.7091 53.9075 68.7052 53.8494L 67.7075 53.9174ZM 67.7141 54.0575C 67.7529 55.5096 67.9497 56.9617 66.7673 58.0641L 67.4493 58.7955C 69.0352 57.3169 68.7474 55.2917 68.7137 54.0308L 67.7141 54.0575ZM 64.8116 56.1531C 65.1676 55.7995 65.9926 55.2368 66.7813 54.8118C 67.1696 54.6022 67.5116 54.4434 67.782 54.3581C 67.9078 54.3173 67.9642 54.3035 68.0147 54.3051C 68.0672 54.3043 67.8808 54.3245 67.7705 54.1285L 68.6421 53.6383C 68.4695 53.3313 68.1445 53.303 67.9993 53.3052C 67.852 53.3098 67.6514 53.3507 67.4778 53.4055C 67.1492 53.5114 66.7225 53.7077 66.3068 53.9315C 65.4876 54.373 64.564 54.9896 64.1069 55.4437L 64.8116 56.1531ZM 67.7705 54.1285C 67.7373 54.0694 67.7272 54.0145 67.7253 53.9778C 67.7244 53.9599 67.7254 53.9461 67.7264 53.9374C 67.7274 53.9287 67.7286 53.9237 67.7288 53.9231L 68.699 54.1652C 68.7315 54.0349 68.7521 53.8339 68.6421 53.6383L 67.7705 54.1285ZM 63.3754 48.9595C 65.1472 48.7567 66.7671 49.1689 68.1672 50.054L 68.6984 49.2067C 67.1603 48.2494 65.2164 47.7591 63.2661 47.9655L 63.3754 48.9595ZM 68.1672 50.054C 70.0188 51.215 71.3376 53.1699 71.5968 55.4958L 72.5906 55.3851C 72.2961 52.7415 70.796 50.522 68.6984 49.2067L 68.1672 50.054ZM 63.8311 51.8429C 65.1017 51.0861 66.8027 50.5782 68.5605 50.1138L 68.305 49.1469C 66.5309 49.6158 64.6999 50.1704 63.3215 50.9825L 63.8311 51.8429ZM 66.8322 58.0129C 66.6295 58.1476 66.5435 58.2164 66.4621 58.2599C 66.3805 58.3069 66.3138 58.3313 66.1032 58.3835L 66.3474 59.3532C 66.6122 59.2857 66.8005 59.2144 66.9482 59.1338C 67.0963 59.0497 67.2141 58.959 67.3844 58.8467L 66.8322 58.0129ZM 66.2253 58.8684C 66.0345 58.4062 66.0345 58.4062 66.0346 58.4062C 66.0346 58.4062 66.0346 58.4062 66.0346 58.4061C 66.0346 58.4061 66.0346 58.4061 66.0346 58.4061C 66.0346 58.4062 66.0346 58.4062 66.0345 58.4062C 66.0343 58.4063 66.034 58.4064 66.0335 58.4066C 66.0324 58.4071 66.0309 58.4077 66.0287 58.4086C 66.0239 58.4105 66.0173 58.4132 66.008 58.4169C 65.9888 58.4247 65.962 58.4353 65.9266 58.4492C 65.8542 58.4774 65.755 58.5152 65.6339 58.5586C 65.3886 58.6467 65.0826 58.7484 64.7824 58.8211L 65.0191 59.7927C 65.3584 59.7096 65.7147 59.592 65.9718 59.4998C 66.1019 59.4531 66.2138 59.4105 66.2899 59.3808C 66.3287 59.3657 66.3604 59.353 66.3812 59.3447C 66.3919 59.3404 66.4007 59.3368 66.4062 59.3346C 66.4091 59.3334 66.4116 59.3324 66.4131 59.3318C 66.4139 59.3314 66.4146 59.3311 66.4151 59.3309C 66.4153 59.3308 66.4156 59.3307 66.4157 59.3307C 66.4158 59.3307 66.4159 59.3306 66.4159 59.3306C 66.4159 59.3306 66.416 59.3306 66.416 59.3306C 66.416 59.3306 66.4161 59.3305 66.2253 58.8684ZM 64.7824 58.8211C 63.7258 59.0786 62.4189 58.7236 61.0478 58.3831L 60.8067 59.3536C 62.0704 59.6674 63.666 60.1224 65.0191 59.7927L 64.7824 58.8211ZM 66.3472 59.3533C 67.1718 59.1459 68.5388 58.574 69.7627 57.9077C 70.377 57.5731 70.9813 57.1985 71.4577 56.8356C 71.9234 56.4801 72.3515 56.0747 72.5476 55.6501L 71.6398 55.2308C 71.5532 55.4184 71.2984 55.6992 70.8509 56.0407C 70.414 56.375 69.8746 56.7084 69.2846 57.0294C 68.0997 57.6744 66.8151 58.2044 66.1033 58.3835L 66.3472 59.3533ZM 69.4857 61.5127C 69.4136 61.5851 69.3454 61.6525 69.2783 61.7178L 69.9755 62.4347C 70.0455 62.3665 70.1193 62.2936 70.1941 62.2186L 69.4857 61.5127ZM 69.2783 61.7178C 68.6293 62.3489 68.267 62.2885 67.8086 62.4586L 68.1566 63.3962C 68.3815 63.3127 69.1251 63.2617 69.9755 62.4347L 69.2783 61.7178ZM 67.9826 62.9274C 67.8929 62.4355 67.8929 62.4355 67.8929 62.4355C 67.8929 62.4355 67.8928 62.4355 67.8928 62.4355C 67.8928 62.4355 67.8928 62.4355 67.8927 62.4355C 67.8926 62.4356 67.8924 62.4356 67.8922 62.4356C 67.8917 62.4357 67.891 62.4359 67.89 62.436C 67.8882 62.4364 67.8854 62.4369 67.8818 62.4375C 67.8746 62.4388 67.8641 62.4408 67.8506 62.4432C 67.8237 62.4481 67.7853 62.4552 67.739 62.4636C 67.6465 62.4805 67.5227 62.5032 67.3978 62.5262C 67.1709 62.5679 66.8811 62.6211 66.8371 62.6329L 67.096 63.5988C 67.0886 63.6008 67.3068 63.5597 67.5788 63.5097C 67.7033 63.4868 67.8266 63.4642 67.919 63.4473C 67.9651 63.4389 68.0034 63.4318 68.0303 63.4269C 68.0437 63.4245 68.0542 63.4226 68.0614 63.4213C 68.0649 63.4206 68.0677 63.4201 68.0695 63.4198C 68.0705 63.4196 68.0712 63.4195 68.0716 63.4194C 68.0719 63.4194 68.072 63.4193 68.0721 63.4193C 68.0722 63.4193 68.0722 63.4193 68.0723 63.4193C 68.0723 63.4193 68.0723 63.4193 68.0723 63.4193C 68.0723 63.4193 68.0723 63.4193 67.9826 62.9274ZM 68.2125 63.3714L 69.8567 62.5203L 69.397 61.6322L 67.7527 62.4834L 68.2125 63.3714ZM 69.9282 62.4753L 95.6657 43.0404L 95.0631 42.2423L 69.3256 61.6772L 69.9282 62.4753ZM 58.4529 51.5796C 58.4962 51.5146 58.547 51.4573 58.6373 51.3644L 57.9192 50.6684C 57.8106 50.7808 57.7046 50.9035 57.6269 51.016L 58.4529 51.5796ZM 58.6373 51.3644C 58.737 51.2614 58.8617 51.1429 59.0221 50.9889L 58.3296 50.2676C 58.1709 50.4199 58.0332 50.5509 57.9192 50.6684L 58.6373 51.3644ZM 85.365 32.1445C 80.4593 35.5725 73.6232 39.9534 68.0073 43.5964C 65.1991 45.418 62.6931 47.0569 60.8898 48.2977C 59.9866 48.9192 59.2497 49.448 58.7418 49.8482C 58.4846 50.051 58.2695 50.2352 58.1249 50.3787C 58.0482 50.4554 57.9702 50.5445 57.9206 50.6134C 57.8795 50.6715 57.7782 50.8208 57.7782 51.0164L 58.7782 51.0164C 58.7782 51.1546 58.7112 51.2273 58.7371 51.1907C 58.7545 51.1649 58.7763 51.141 58.8305 51.0873C 58.9477 50.9701 59.1191 50.824 59.3609 50.6335C 59.8509 50.2471 60.5615 49.7374 61.4567 49.1215C 63.2503 47.8874 65.7449 46.2559 68.5515 44.4353C 74.1651 40.7939 81.0156 36.4035 85.9378 32.9642L 85.365 32.1445ZM 90.5079 30.7386C 88.417 30.7436 86.7658 31.2235 85.3753 32.1374L 85.9274 32.9712C 87.186 32.1309 88.5577 31.7336 90.5079 31.7386L 90.5079 30.7386ZM 95.7168 42.9961C 97.634 41.0916 97.6304 39.1558 97.6304 37.8171L 96.6304 37.8171C 96.6304 39.1099 96.6268 40.6826 95.012 42.2866L 95.7168 42.9961ZM 97.6304 37.8171C 97.6304 36.2365 97.4039 35.0493 96.72 34.0121C 96.0471 32.9913 94.9691 32.176 93.4131 31.2478L 92.9007 32.1066C 94.4352 33.022 95.344 33.7417 95.8852 34.5625C 96.4154 35.3668 96.6304 36.3277 96.6304 37.8171L 97.6304 37.8171ZM 93.4131 31.2478C 92.5403 30.7271 91.8074 30.7386 90.5079 30.7386L 90.5079 31.7386C 91.8574 31.7386 92.3031 31.7501 92.9007 32.1066L 93.4131 31.2478ZM 62.1927 62.9019C 63.3241 63.471 64.2584 63.7404 65.0234 63.8138C 65.8109 63.8822 66.4913 63.7605 67.096 63.5988L 66.8371 62.6329C 66.2705 62.7852 65.7656 62.8833 65.116 62.8181C 64.4441 62.7578 63.6897 62.5402 62.6435 62.0093L 62.1927 62.9019ZM 58.1244 52.9505C 58.1792 52.6633 58.2053 52.3841 58.2525 52.1393C 58.2983 51.8952 58.3403 51.7339 58.4529 51.5796L 57.6269 51.016C 57.4369 51.3052 57.3264 51.6597 57.2701 51.9523C 57.2151 52.244 57.1893 52.5221 57.1425 52.7611L 58.1244 52.9505ZM 11.1568 21.0023L 18.0197 26.7866L 18.6642 26.022L 11.8013 20.2376L 11.1568 21.0023ZM 18.0197 26.7866L 18.6623 27.3283L 19.3068 26.5636L 18.6642 26.022L 18.0197 26.7866ZM 14.4765 30.858L 18.6904 26.7629L 17.9935 26.0457L 13.7796 30.1409L 14.4765 30.858ZM 38.9641 2.0116L 56.1937 16.2741L 56.8314 15.5038L 39.6018 1.24129L 38.9641 2.0116ZM 56.1937 16.2741L 72.0875 29.4309L 72.7251 28.6606L 56.8314 15.5038L 56.1937 16.2741Z"/>
<path id="path5_fill" d="M 1.70476 23.0517C -0.64992 24.806 1.76601 27.7301 4.99545 29.4843C 7.20296 27.2915 8.43326 25.2303 10.1993 25.2403C 10.0292 24.9325 10.0331 24.8806 9.92015 24.7379C 9.66959 24.4216 9.10264 23.9471 8.76879 23.708C 6.76241 22.2709 3.48277 22.1933 1.70476 23.0517Z"/>
<path id="path6_stroke" d="M 7.21982 19.5178L 7.54206 19.1355L 7.54206 19.1355L 7.21982 19.5178ZM 11.1765 30.4995L 10.828 30.1409L 10.8072 30.1612L 10.7888 30.1837L 11.1765 30.4995ZM 4.99545 29.4843L 4.75678 29.9237L 5.0838 30.1013L 5.34782 29.8391L 4.99545 29.4843ZM 48.7041 54.0441L 48.3851 54.4292L 48.3908 54.4338L 48.7041 54.0441ZM 22.6555 4.48599L 22.3883 4.06328L 22.3806 4.06834L 22.6555 4.48599ZM 18.004 28.6072L 17.6817 28.9895L 17.685 28.9922L 18.004 28.6072ZM 9.85197 31.7863L 10.1565 32.1829L 10.1565 32.1829L 9.85197 31.7863ZM 16.033 26.946L 15.7108 27.3283L 15.7108 27.3283L 16.033 26.946ZM 28.0166 1.09708L 28.2838 1.51971L 28.2838 1.51971L 28.0166 1.09708ZM 69.4547 29.0458L 69.1359 29.4309L 69.1457 29.4391L 69.156 29.4467L 69.4547 29.0458ZM 9.92015 24.7379L 10.3121 24.4275L 10.3121 24.4275L 9.92015 24.7379ZM 8.76879 23.708L 9.05994 23.3015L 9.05994 23.3015L 8.76879 23.708ZM 10.1993 25.2403L 10.1964 25.7402L 11.0495 25.7451L 10.6369 24.9984L 10.1993 25.2403ZM 8.43778 20.5444L 8.11554 20.9267L 8.11555 20.9267L 8.43778 20.5444ZM 2.14297 18.1668L 2.32145 18.6339L 2.14297 18.1668ZM 36.3314 1.62645L 36.0125 2.0116L 36.0125 2.0116L 36.3314 1.62645ZM 54.6819 52.8558L 54.1909 52.7611L 54.6819 52.8558ZM 66.8883 61.8657L 66.5341 61.5127L 66.5341 61.5127L 66.8883 61.8657ZM 55.7243 50.6282L 55.378 50.2676L 55.378 50.2676L 55.7243 50.6282ZM 60.3692 48.4625L 60.4238 48.9595L 60.4238 48.9595L 60.3692 48.4625ZM 57.9757 58.8684L 57.8107 59.3404L 57.8326 59.348L 57.8552 59.3536L 57.9757 58.8684ZM 59.4665 62.4556L 59.1967 62.8765L 59.2182 62.8903L 59.2411 62.9019L 59.4665 62.4556ZM 57.9757 61.4998L 57.6623 61.8894L 57.6832 61.9062L 57.7058 61.9207L 57.9757 61.4998ZM 64.5982 52.2899L 64.264 52.6617L 64.264 52.6617L 64.5982 52.2899ZM 61.5077 55.7984L 61.5893 56.2917L 61.7468 56.2656L 61.8601 56.1531L 61.5077 55.7984ZM 64.1567 58.4298L 64.4328 58.8467L 64.4673 58.8238L 64.4977 58.7955L 64.1567 58.4298ZM 65.4812 49.6304L 65.7468 49.2067L 65.7468 49.2067L 65.4812 49.6304ZM 63.2737 58.8684L 63.1516 58.3835L 63.1164 58.3923L 63.0829 58.4062L 63.2737 58.8684ZM 61.9492 59.3069L 62.0676 59.7927L 61.9492 59.3069ZM 65.031 62.9274L 65.1207 63.4193L 65.1639 63.4114L 65.205 63.3962L 65.031 62.9274ZM 64.015 63.1159L 64.1444 63.5988L 64.015 63.1159ZM 92.4128 42.6414L 92.7141 43.0404L 92.7412 43.02L 92.7652 42.9961L 92.4128 42.6414ZM 55.0883 51.2978L 54.6753 51.016L 54.6753 51.016L 55.0883 51.2978ZM 55.3267 51.0164L 54.9676 50.6684L 54.9676 50.6684L 55.3267 51.0164ZM 87.5563 31.2386L 87.5563 31.7386L 87.5563 31.7386L 87.5563 31.2386ZM 94.1788 37.8171L 94.6788 37.8171L 94.6788 37.8171L 94.1788 37.8171ZM 90.2053 31.6772L 89.9492 32.1066L 89.9492 32.1066L 90.2053 31.6772ZM 17.685 28.9922L 48.3851 54.4291L 49.0231 53.6591L 18.323 28.2222L 17.685 28.9922ZM 9.54742 31.3898C 8.26832 32.3795 6.73746 32.9391 4.99545 32.9314L 4.99545 33.9314C 6.91125 33.9238 8.74962 33.256 10.1565 32.1829L 9.54742 31.3898ZM 15.7108 27.3283L 17.6818 28.9895L 18.3262 28.2249L 16.3552 26.5636L 15.7108 27.3283ZM 22.9227 4.90863L 28.2838 1.51971L 27.7494 0.674437L 22.3884 4.06335L 22.9227 4.90863ZM 36.0125 2.0116L 69.1359 29.4309L 69.7736 28.6606L 36.6502 1.24129L 36.0125 2.0116ZM 5.23411 29.045C 3.66004 28.1899 2.33265 27.073 1.68293 26.0077C 1.36008 25.4783 1.22911 25.0029 1.26899 24.5994C 1.30709 24.2138 1.50801 23.8218 2.00348 23.4527L 1.40604 22.6508C 0.724163 23.1588 0.344077 23.7901 0.273832 24.501C 0.205355 25.194 0.438711 25.8881 0.829187 26.5284C 1.60613 27.8023 3.10141 29.0245 4.75678 29.9237L 5.23411 29.045ZM 1.92214 23.502C 2.71162 23.1208 3.88325 22.9303 5.11575 23.0178C 6.35706 23.1031 7.54797 23.4396 8.47763 24.1145L 9.05994 23.3015C 7.98322 22.5393 6.53112 22.1184 5.18652 22.0203C 3.8331 21.9243 2.47591 22.1242 1.48737 22.6014L 1.92214 23.502ZM 8.47763 24.1145C 8.80008 24.3455 9.32156 24.7875 9.52819 25.0484L 10.3121 24.4275C 10.0176 24.0557 9.40519 23.5488 9.05994 23.3015L 8.47763 24.1145ZM 9.52819 25.0484C 9.56128 25.0876 9.56178 25.0914 9.59048 25.1496C 9.62179 25.2125 9.66818 25.3123 9.76164 25.4821L 10.6369 24.9984C 10.5603 24.8605 10.5236 24.7804 10.4861 24.7048C 10.446 24.6244 10.392 24.5309 10.3121 24.4275L 9.52819 25.0484ZM 10.2021 24.7403C 9.1078 24.7341 8.233 25.3755 7.41296 26.1791C 6.58861 26.9882 5.72802 28.0529 4.64308 29.1296L 5.34782 29.8391C 6.47038 28.7229 7.3287 27.6607 8.11288 26.8934C 8.90138 26.1206 9.52474 25.7365 10.1964 25.7402L 10.2021 24.7403ZM 10.1602 32.18L 10.2788 32.0872L 9.66223 31.2999L 9.5437 31.3927L 10.1602 32.18ZM 10.2825 32.0843C 10.7464 31.7129 11.1888 31.2749 11.5641 30.8153L 10.7888 30.1837C 10.4483 30.6029 10.0817 30.9658 9.65852 31.3028L 10.2825 32.0843ZM 1.96449 17.6997C 1.64725 17.8212 1.3255 17.9675 1.02834 18.1246L 1.49632 19.0083C 1.76663 18.8649 2.03285 18.7439 2.32145 18.6339L 1.96449 17.6997ZM 0.987445 18.1488L -0.27489 18.9796L 0.27489 19.8149L 1.53722 18.9841L 0.987445 18.1488ZM 1.53722 18.9841L 22.9304 4.90365L 22.3806 4.06834L 0.987445 18.1488L 1.53722 18.9841ZM 8.12597 20.9352C 8.15099 20.9551 8.17077 20.9718 8.19547 20.9938L 8.85946 20.2461C 8.82539 20.2159 8.78542 20.1822 8.74958 20.1535L 8.12597 20.9352ZM 8.11555 20.9267L 8.20523 21.0023L 8.84969 20.2376L 8.76001 20.1621L 8.11555 20.9267ZM 9.65852 31.3028C 9.62117 31.3326 9.58537 31.3606 9.54742 31.3898L 10.1565 32.1829C 10.1982 32.1509 10.2414 32.117 10.2825 32.0842L 9.65852 31.3028ZM 69.156 29.4467L 77.986 36.0252L 78.5835 35.2233L 69.7534 28.6448L 69.156 29.4467ZM 7.54206 19.1355C 6.05476 17.8819 3.97758 16.9305 1.96449 17.6997L 2.32145 18.6339C 3.8239 18.0597 5.51274 18.7329 6.89759 19.9001L 7.54206 19.1355ZM 28.2838 1.51971C 30.6936 -0.00361782 33.8187 0.195562 36.0125 2.0116L 36.6502 1.24129C 34.1227 -0.85097 30.5246 -1.07983 27.7494 0.674437L 28.2838 1.51971ZM 55.3006 54.9027C 55.2293 54.5251 55.1446 54.2877 55.1102 54.0301C 55.0702 53.7593 55.0688 53.4777 55.1728 52.9505L 54.1909 52.7611C 54.0733 53.3831 54.0727 53.8309 54.1203 54.1719C 54.1735 54.5261 54.2631 54.783 54.3172 55.0843L 55.3006 54.9027ZM 68.6452 55.4958C 68.9022 57.8031 68.0614 59.9799 66.5341 61.5127L 67.2425 62.2186C 68.9738 60.481 69.9312 58.0076 69.639 55.3851L 68.6452 55.4958ZM 56.0705 50.9889C 57.2322 49.8656 58.6916 49.1422 60.4238 48.9595L 60.3145 47.9655C 58.4111 48.1824 56.6576 49.0471 55.378 50.2676L 56.0705 50.9889ZM 58.1406 58.3964C 57.1336 58.0444 56.2198 57.1765 55.9251 56.4417L 54.9969 56.814C 55.4145 57.8552 56.5727 58.9077 57.8107 59.3404L 58.1406 58.3964ZM 59.7364 62.0347L 58.2455 61.0789L 57.7058 61.9207L 59.1967 62.8765L 59.7364 62.0347ZM 58.289 61.1101L 49.0175 53.6545L 48.3908 54.4338L 57.6623 61.8894L 58.289 61.1101ZM 64.9324 51.918C 64.6115 51.6296 64.0975 51.1589 63.3747 50.8712C 62.6187 50.5809 61.6645 50.5126 60.4573 50.9416L 60.7921 51.8839C 61.7924 51.5284 62.4999 51.6065 63.0162 51.8047C 63.5657 52.0057 63.9347 52.3657 64.264 52.6617L 64.9324 51.918ZM 60.4023 50.9649C 58.8796 51.7212 58.3185 53.1525 58.5915 54.3726C 58.8673 55.6053 59.9903 56.5564 61.5893 56.2917L 61.426 55.3051C 60.376 55.4789 59.7331 54.895 59.5674 54.1542C 59.3988 53.4008 59.7207 52.42 60.8471 51.8605L 60.4023 50.9649ZM 64.264 52.6617C 64.5229 52.8944 64.7151 53.3185 64.7559 53.9174L 65.7536 53.8494C 65.7022 53.0958 65.4509 52.3839 64.9324 51.918L 64.264 52.6617ZM 64.7559 53.9174C 64.7592 53.9651 64.7612 54.0084 64.7625 54.0575L 65.7621 54.0308C 65.7605 53.9714 65.7575 53.9075 65.7536 53.8494L 64.7559 53.9174ZM 64.7625 54.0575C 64.8013 55.5096 64.9981 56.9617 63.8157 58.0641L 64.4977 58.7955C 66.0836 57.3169 65.7958 55.2917 65.7621 54.0308L 64.7625 54.0575ZM 61.8601 56.1531C 62.216 55.7995 63.041 55.2368 63.8297 54.8118C 64.218 54.6022 64.56 54.4434 64.8304 54.3581C 64.9562 54.3173 65.0126 54.3035 65.0631 54.3051C 65.1157 54.3043 64.9292 54.3245 64.8189 54.1285L 65.6905 53.6383C 65.5179 53.3313 65.1929 53.303 65.0477 53.3052C 64.9004 53.3098 64.6998 53.3507 64.5262 53.4055C 64.1976 53.5114 63.7709 53.7077 63.3553 53.9315C 62.536 54.373 61.6124 54.9896 61.1553 55.4437L 61.8601 56.1531ZM 64.8189 54.1285C 64.7857 54.0694 64.7756 54.0145 64.7738 53.9778C 64.7728 53.9599 64.7738 53.9461 64.7748 53.9374C 64.7758 53.9287 64.777 53.9237 64.7772 53.9231L 65.7474 54.1652C 65.7799 54.0349 65.8005 53.8339 65.6905 53.6383L 64.8189 54.1285ZM 60.4238 48.9595C 62.1956 48.7567 63.8155 49.1689 65.2156 50.054L 65.7468 49.2067C 64.2087 48.2494 62.2648 47.7591 60.3145 47.9655L 60.4238 48.9595ZM 65.2156 50.054C 67.0672 51.215 68.3861 53.1699 68.6452 55.4958L 69.639 55.3851C 69.3445 52.7415 67.8444 50.522 65.7468 49.2067L 65.2156 50.054ZM 60.8795 51.8429C 62.1501 51.0861 63.8511 50.5782 65.6089 50.1138L 65.3535 49.1469C 63.5793 49.6158 61.7483 50.1704 60.3699 50.9825L 60.8795 51.8429ZM 63.8806 58.0129C 63.6779 58.1476 63.5919 58.2164 63.5105 58.2599C 63.4289 58.3069 63.3622 58.3313 63.1516 58.3835L 63.3958 59.3532C 63.6606 59.2857 63.8489 59.2144 63.9967 59.1338C 64.1447 59.0497 64.2625 58.959 64.4328 58.8467L 63.8806 58.0129ZM 63.2737 58.8684C 63.0829 58.4062 63.083 58.4062 63.083 58.4062C 63.083 58.4062 63.083 58.4062 63.083 58.4061C 63.083 58.4061 63.083 58.4061 63.083 58.4061C 63.083 58.4062 63.083 58.4062 63.0829 58.4062C 63.0827 58.4063 63.0824 58.4064 63.0819 58.4066C 63.0808 58.4071 63.0793 58.4077 63.0771 58.4086C 63.0723 58.4105 63.0657 58.4132 63.0564 58.4169C 63.0372 58.4247 63.0104 58.4353 62.975 58.4492C 62.9027 58.4774 62.8034 58.5152 62.6823 58.5586C 62.437 58.6467 62.131 58.7484 61.8308 58.8211L 62.0676 59.7927C 62.4068 59.7096 62.7631 59.592 63.0202 59.4998C 63.1503 59.4531 63.2622 59.4105 63.3383 59.3808C 63.3771 59.3657 63.4088 59.353 63.4296 59.3447C 63.4403 59.3404 63.4491 59.3368 63.4546 59.3346C 63.4575 59.3334 63.46 59.3324 63.4615 59.3318C 63.4623 59.3314 63.4631 59.3311 63.4635 59.3309C 63.4637 59.3308 63.464 59.3307 63.4641 59.3307C 63.4642 59.3307 63.4643 59.3306 63.4643 59.3306C 63.4643 59.3306 63.4644 59.3306 63.4644 59.3306C 63.4644 59.3306 63.4645 59.3305 63.2737 58.8684ZM 61.8308 58.8211C 60.7742 59.0786 59.4673 58.7236 58.0962 58.3831L 57.8552 59.3536C 59.1188 59.6674 60.7144 60.1224 62.0676 59.7927L 61.8308 58.8211ZM 63.3957 59.3533C 64.2203 59.1459 65.5872 58.574 66.8111 57.9077C 67.4254 57.5731 68.0297 57.1985 68.5061 56.8356C 68.9718 56.4801 69.4 56.0747 69.596 55.6501L 68.6882 55.2308C 68.6016 55.4184 68.3468 55.6992 67.8993 56.0407C 67.4625 56.375 66.923 56.7084 66.333 57.0294C 65.1481 57.6744 63.8636 58.2044 63.1517 58.3835L 63.3957 59.3533ZM 66.5341 61.5127C 66.462 61.5851 66.3938 61.6525 66.3267 61.7178L 67.0239 62.4347C 67.0939 62.3665 67.1677 62.2936 67.2425 62.2186L 66.5341 61.5127ZM 66.3267 61.7178C 65.6777 62.3489 65.3154 62.2885 64.8571 62.4586L 65.205 63.3962C 65.4299 63.3127 66.1735 63.2617 67.0239 62.4347L 66.3267 61.7178ZM 65.031 62.9274C 64.9413 62.4355 64.9413 62.4355 64.9413 62.4355C 64.9413 62.4355 64.9413 62.4355 64.9412 62.4355C 64.9412 62.4355 64.9412 62.4355 64.9411 62.4355C 64.941 62.4356 64.9408 62.4356 64.9406 62.4356C 64.9401 62.4357 64.9394 62.4359 64.9385 62.436C 64.9366 62.4364 64.9338 62.4369 64.9302 62.4375C 64.923 62.4388 64.9125 62.4408 64.899 62.4432C 64.8721 62.4481 64.8337 62.4552 64.7874 62.4636C 64.695 62.4805 64.5711 62.5032 64.4462 62.5262C 64.2193 62.5679 63.9295 62.6211 63.8855 62.6329L 64.1444 63.5988C 64.137 63.6008 64.3552 63.5597 64.6272 63.5097C 64.7517 63.4868 64.875 63.4642 64.9674 63.4473C 65.0135 63.4389 65.0518 63.4318 65.0787 63.4269C 65.0921 63.4245 65.1026 63.4226 65.1098 63.4213C 65.1134 63.4206 65.1161 63.4201 65.1179 63.4198C 65.1189 63.4196 65.1196 63.4195 65.12 63.4194C 65.1203 63.4194 65.1204 63.4193 65.1206 63.4193C 65.1206 63.4193 65.1207 63.4193 65.1207 63.4193C 65.1207 63.4193 65.1207 63.4193 65.1207 63.4193C 65.1207 63.4193 65.1207 63.4193 65.031 62.9274ZM 65.2609 63.3714L 66.9051 62.5203L 66.4454 61.6322L 64.8012 62.4834L 65.2609 63.3714ZM 66.9766 62.4753L 92.7141 43.0404L 92.1115 42.2423L 66.374 61.6772L 66.9766 62.4753ZM 55.5013 51.5796C 55.5446 51.5146 55.5954 51.4573 55.6857 51.3644L 54.9676 50.6684C 54.859 50.7808 54.753 50.9035 54.6753 51.016L 55.5013 51.5796ZM 55.6857 51.3644C 55.7854 51.2614 55.9101 51.1429 56.0705 50.9889L 55.378 50.2676C 55.2193 50.4199 55.0817 50.5509 54.9676 50.6684L 55.6857 51.3644ZM 87.5563 30.7386C 85.4654 30.7436 83.8142 31.2235 82.4237 32.1374L 82.9758 32.9712C 84.2344 32.1309 85.6061 31.7336 87.5563 31.7386L 87.5563 30.7386ZM 92.7652 42.9961C 94.6825 41.0916 94.6788 39.1558 94.6788 37.8171L 93.6788 37.8171C 93.6788 39.1099 93.6752 40.6826 92.0605 42.2866L 92.7652 42.9961ZM 94.6788 37.8171C 94.6788 36.2365 94.4523 35.0493 93.7685 34.0121C 93.0955 32.9913 92.0175 32.176 90.4615 31.2478L 89.9492 32.1066C 91.4837 33.022 92.3924 33.7417 92.9336 34.5625C 93.4639 35.3668 93.6788 36.3277 93.6788 37.8171L 94.6788 37.8171ZM 90.4615 31.2478C 89.5887 30.7271 88.8558 30.7386 87.5563 30.7386L 87.5563 31.7386C 88.9058 31.7386 89.3516 31.7501 89.9492 32.1066L 90.4615 31.2478ZM 59.2411 62.9019C 60.3725 63.471 61.3068 63.7404 62.0718 63.8138C 62.8593 63.8822 63.5397 63.7605 64.1444 63.5988L 63.8855 62.6329C 63.3189 62.7852 62.814 62.8833 62.1644 62.8181C 61.4925 62.7578 60.7382 62.5402 59.692 62.0093L 59.2411 62.9019ZM 55.1728 52.9505C 55.2276 52.6633 55.2537 52.3841 55.3009 52.1393C 55.3467 51.8952 55.3887 51.7339 55.5013 51.5796L 54.6753 51.016C 54.4853 51.3052 54.3748 51.6597 54.3185 51.9523C 54.2635 52.244 54.2377 52.5221 54.1909 52.7611L 55.1728 52.9505ZM 8.20523 21.0023L 15.0681 26.7866L 15.7126 26.022L 8.8497 20.2376L 8.20523 21.0023ZM 15.0681 26.7866L 15.7108 27.3283L 16.3552 26.5636L 15.7126 26.022L 15.0681 26.7866ZM 11.5249 30.858L 15.7388 26.7629L 15.0419 26.0457L 10.828 30.1409L 11.5249 30.858ZM 8.76001 20.1621L 8.41225 19.8689L 7.76778 20.6336L 8.11554 20.9267L 8.76001 20.1621ZM 8.3865 19.8486C 7.92456 19.5148 7.37975 19.3182 6.87334 19.3006C 6.37392 19.2953 5.80667 19.4528 5.26465 19.7231C 4.19967 20.259 2.95472 21.3028 1.37675 22.6743L 2.03276 23.4291C 3.63995 22.0322 4.78443 21.0842 5.71418 20.6163C 6.16953 20.3847 6.50098 20.2872 6.85172 20.3003C 7.19547 20.3011 7.45227 20.3962 7.79353 20.6539L 8.3865 19.8486ZM 8.41225 19.8689L 7.54206 19.1355L 6.89759 19.9001L 7.76778 20.6336L 8.41225 19.8689ZM 7.79353 20.6539C 7.89608 20.7291 7.98807 20.8067 8.09377 20.9072L 8.78179 20.1815C 8.65471 20.0613 8.51526 19.9438 8.3865 19.8486L 7.79353 20.6539Z"/>
<path id="path7_fill" d="M 64.3437 52.256C 63.6935 51.6716 62.5777 50.5943 60.3702 51.3788C 57.7212 52.6945 58.8587 56.237 61.5077 55.7984C 62.3207 54.9908 64.7506 53.4057 65.0002 53.8495C 64.9542 53.1733 64.7324 52.6053 64.3437 52.256Z"/>
<path id="path8_fill" d="M 60.3702 51.3788C 62.5777 50.5943 63.6935 51.6716 64.3437 52.256C 64.7324 52.6053 64.9542 53.1733 65.0002 53.8495C 65.0217 53.8877 65.0252 53.9407 65.0078 54.0102C 65.1103 54.4457 65.1897 57.5433 63.9022 58.3959C 63.5642 58.6197 63.0353 58.9894 62.6733 59.0915C 64.2785 58.6446 68.3368 56.5993 68.8876 55.4066C 68.6108 52.9218 67.2013 50.8346 65.2267 49.5965C 63.4607 50.0631 61.6947 50.5943 60.3702 51.3788Z"/>
<path id="path9_fill" d="M 78.2183 35.5747L 69.4547 29.0458L 50.6115 13.2926L 42.3613 6.55259C 47.8291 11.9854 77.5402 33.9259 61.0288 46.9442C 65.6723 43.8891 73.0417 39.0314 78.2183 35.5747Z"/>
<path id="path10_fill" d="M 16.033 26.946L 18.004 28.6072L 21.3795 31.4041L 28.7544 37.5145C 12.6783 24.1185 10.2148 12.6742 17.9476 7.5846L 1.26233 18.5665C 1.54606 18.4162 1.84005 18.2825 2.14297 18.1668C 3.90074 17.4951 5.78375 18.3074 7.21982 19.5178L 8.43778 20.5444C 8.46821 20.5686 8.49808 20.5939 8.52746 20.62L 15.3903 26.4043L 16.033 26.946Z"/>
<path id="path11_stroke" d="M 7.21982 19.5178L 7.54206 19.1355L 7.54206 19.1355L 7.21982 19.5178ZM 48.7041 54.0441L 48.3851 54.4292L 48.3908 54.4338L 48.7041 54.0441ZM 0 19.3973L -0.313255 19.0076L 0.27489 19.8149L 0 19.3973ZM 22.6555 4.48599L 22.3883 4.06328L 22.3806 4.06834L 22.6555 4.48599ZM 18.004 28.6072L 17.6817 28.9895L 17.685 28.9922L 18.004 28.6072ZM 16.033 26.946L 15.7108 27.3283L 15.7108 27.3283L 16.033 26.946ZM 28.0166 1.09708L 28.2838 1.51971L 28.2838 1.51971L 28.0166 1.09708ZM 69.4547 29.0458L 69.134 29.4294L 69.1448 29.4384L 69.156 29.4467L 69.4547 29.0458ZM 8.43778 20.5444L 8.11554 20.9267L 8.11555 20.9267L 8.43778 20.5444ZM 2.14297 18.1668L 2.32145 18.6339L 2.14297 18.1668ZM 36.3314 1.62645L 36.0125 2.01161L 36.015 2.01366L 36.3314 1.62645ZM 66.8883 61.8657L 66.5341 61.5127L 66.5341 61.5127L 66.8883 61.8657ZM 55.7243 50.6282L 55.378 50.2676L 55.378 50.2676L 55.7243 50.6282ZM 60.3692 48.4625L 60.4238 48.9595L 60.3692 48.4625ZM 57.9757 58.8684L 58.0962 58.3831L 58.0962 58.3831L 57.9757 58.8684ZM 59.4665 62.4556L 59.1967 62.8765L 59.2182 62.8903L 59.2411 62.9019L 59.4665 62.4556ZM 57.9757 61.4998L 57.6623 61.8894L 57.6832 61.9062L 57.7058 61.9207L 57.9757 61.4998ZM 64.3437 52.256L 64.0095 52.6278L 64.0095 52.6278L 64.3437 52.256ZM 61.5077 55.7984L 61.5893 56.2917L 61.7468 56.2656L 61.8601 56.1531L 61.5077 55.7984ZM 65.0078 54.0102L 64.508 54.0236L 64.5094 54.0749L 64.5211 54.1248L 65.0078 54.0102ZM 63.9022 58.3959L 64.1783 58.8128L 63.9022 58.3959ZM 65.2267 49.5965L 65.4923 49.1729L 65.4923 49.1729L 65.2267 49.5965ZM 63.2737 58.8684L 63.1516 58.3835L 63.1165 58.3923L 63.0829 58.4062L 63.2737 58.8684ZM 61.9492 59.3069L 62.0676 59.7927L 61.9492 59.3069ZM 66.6753 62.0762L 67.0239 62.4347L 67.0239 62.4347L 66.6753 62.0762ZM 65.031 62.9274L 65.1207 63.4193L 65.1639 63.4114L 65.205 63.3962L 65.031 62.9274ZM 64.015 63.1159L 64.1444 63.5988L 64.015 63.1159ZM 55.0883 51.2978L 54.6753 51.016L 54.6753 51.016L 55.0883 51.2978ZM 15.3903 26.4043L 15.0681 26.7866L 15.0681 26.7866L 15.3903 26.4043ZM 56.6556 49.8185L 56.3813 49.4005L 56.3697 49.408L 56.3586 49.4162L 56.6556 49.8185ZM 78.2183 35.5747L 78.517 35.1738L 78.517 35.1738L 78.2183 35.5747ZM 50.6115 13.2926L 50.9322 12.909L 50.9278 12.9054L 50.6115 13.2926ZM 21.3795 31.4041L 21.6986 31.019L 21.6986 31.019L 21.3795 31.4041ZM 15.7108 27.3283L 17.6818 28.9895L 18.3262 28.2249L 16.3552 26.5636L 15.7108 27.3283ZM 22.9227 4.90863L 28.2838 1.51971L 27.7494 0.674437L 22.3884 4.06335L 22.9227 4.90863ZM 8.76001 20.1621L 7.54206 19.1355L 6.89759 19.9001L 8.11554 20.9267L 8.76001 20.1621ZM 1.96449 17.6997C 1.64725 17.8212 1.3255 17.9675 1.02834 18.1246L 1.49632 19.0083C 1.76663 18.8649 2.03285 18.7439 2.32145 18.6339L 1.96449 17.6997ZM 0.987445 18.1488L -0.27489 18.9796L 0.27489 19.8149L 1.53722 18.9841L 0.987445 18.1488ZM 8.12597 20.9352C 8.15099 20.9551 8.17077 20.9718 8.19547 20.9938L 8.85946 20.2461C 8.82539 20.2159 8.78542 20.1822 8.74958 20.1535L 8.12597 20.9352ZM 0.313255 19.787C 0.686356 19.4864 1.06919 19.2339 1.49632 19.0083L 1.02834 18.1246C 0.559329 18.3736 0.0971636 18.6784 -0.313255 19.0076L 0.313255 19.787ZM 8.11555 20.9267L 8.20523 21.0023L 8.84969 20.2376L 8.76001 20.1621L 8.11555 20.9267ZM 7.54206 19.1355C 6.05476 17.8819 3.97758 16.9305 1.96449 17.6997L 2.32145 18.6339C 3.8239 18.0597 5.51274 18.7329 6.89759 19.9001L 7.54206 19.1355ZM 28.2838 1.51971C 30.6936 -0.00361782 33.8187 0.195562 36.0125 2.0116L 36.6502 1.24129C 34.1227 -0.85097 30.5246 -1.07983 27.7494 0.674437L 28.2838 1.51971ZM 68.3907 55.4619C 68.6524 57.8107 68.034 60.0074 66.5341 61.5127L 67.2425 62.2186C 69.0012 60.4535 69.6721 57.9321 69.3845 55.3512L 68.3907 55.4619ZM 56.0705 50.9889C 57.2322 49.8656 58.6916 49.1422 60.4238 48.9595L 60.3145 47.9655C 58.4111 48.1824 56.6576 49.0471 55.378 50.2676L 56.0705 50.9889ZM 58.0962 58.3831C 57.5151 58.2388 56.8878 57.7814 56.3562 57.1194C 55.8171 56.4529 55.4405 55.6855 55.3006 54.9027L 54.3172 55.0843C 54.4908 55.9987 54.9728 56.9888 55.5765 57.7455C 56.1876 58.5065 56.987 59.138 57.8552 59.3536L 58.0962 58.3831ZM 59.7364 62.0347L 58.2455 61.0789L 57.7058 61.9207L 59.1967 62.8765L 59.7364 62.0347ZM 58.289 61.1101L 49.0175 53.6545L 48.3908 54.4338L 57.6623 61.8894L 58.289 61.1101ZM 64.6779 51.8841C 64.3571 51.5958 63.843 51.125 63.1202 50.8373C 62.3642 50.547 61.41 50.4787 60.2028 50.9077L 60.5376 51.85C 61.5379 51.4945 62.2454 51.5726 62.7617 51.7709C 63.3112 51.9718 63.6802 52.3318 64.0095 52.6278L 64.6779 51.8841ZM 60.1478 50.931C 58.6063 51.6966 58.1211 53.1578 58.4714 54.3838C 58.82 55.6039 59.9946 56.5557 61.5893 56.2917L 61.426 55.3051C 60.3717 55.4797 59.6531 54.8795 59.4329 54.1091C 59.2145 53.3446 59.485 52.3767 60.5926 51.8266L 60.1478 50.931ZM 64.0095 52.6278C 64.2684 52.8605 64.4606 53.2847 64.5014 53.8835L 65.4991 53.8155C 65.4477 53.0619 65.1964 52.35 64.6779 51.8841L 64.0095 52.6278ZM 64.5014 53.8835C 64.5047 53.9312 64.5067 53.9745 64.508 54.0236L 65.5076 53.9969C 65.506 53.9375 65.503 53.8736 65.4991 53.8155L 64.5014 53.8835ZM 61.8601 56.1531C 62.2397 55.7741 63.0018 55.2128 63.7214 54.784C 64.0782 54.5709 64.3873 54.4106 64.6323 54.3239C 64.6897 54.3031 64.7264 54.2918 64.7688 54.2822C 64.8068 54.2729 64.8411 54.273 64.8251 54.2725C 64.8209 54.273 64.8027 54.2711 64.8059 54.271C 64.7933 54.2692 64.7716 54.2649 64.7445 54.2542C 64.6841 54.2302 64.6122 54.1795 64.5644 54.0946L 65.436 53.6044C 65.2673 53.3045 64.9561 53.2687 64.7985 53.2729C 64.6278 53.2774 64.4505 53.3267 64.2948 53.3826C 63.9886 53.4935 63.5926 53.6967 63.209 53.9253C 62.4481 54.3801 61.5887 55.015 61.1553 55.4437L 61.8601 56.1531ZM 64.5644 54.0946C 64.5312 54.0355 64.5212 53.9806 64.5193 53.9439C 64.5183 53.926 64.5193 53.9122 64.5203 53.9035C 64.5213 53.8948 64.5225 53.8898 64.5227 53.8892L 65.493 54.1313C 65.5255 54.001 65.546 53.8 65.436 53.6044L 64.5644 54.0946ZM 60.4238 48.9595C 62.1909 48.7563 63.5567 49.1331 64.9611 50.0201L 65.4923 49.1729C 63.9585 48.2174 62.2695 47.7594 60.3145 47.9655L 60.4238 48.9595ZM 64.9611 50.0201C 66.8127 51.1812 68.1316 53.136 68.3907 55.4619L 69.3845 55.3512C 69.09 52.7076 67.5899 50.4881 65.4923 49.1729L 64.9611 50.0201ZM 60.625 51.809C 61.8956 51.0522 63.5966 50.5443 65.3544 50.0799L 65.099 49.1131C 63.3248 49.5819 61.4938 50.1365 60.1154 50.9486L 60.625 51.809ZM 63.2737 58.8684C 63.0829 58.4062 63.083 58.4062 63.083 58.4062C 63.083 58.4062 63.083 58.4062 63.083 58.4061C 63.083 58.4061 63.083 58.4061 63.083 58.4061C 63.083 58.4062 63.083 58.4062 63.0829 58.4062C 63.0827 58.4063 63.0824 58.4064 63.0819 58.4066C 63.0808 58.4071 63.0793 58.4077 63.0771 58.4086C 63.0723 58.4105 63.0657 58.4132 63.0564 58.4169C 63.0372 58.4247 63.0104 58.4353 62.975 58.4492C 62.9027 58.4774 62.8034 58.5152 62.6823 58.5586C 62.437 58.6467 62.131 58.7484 61.8308 58.8211L 62.0676 59.7927C 62.4068 59.7096 62.7631 59.592 63.0202 59.4998C 63.1503 59.4531 63.2623 59.4105 63.3383 59.3808C 63.3771 59.3657 63.4088 59.353 63.4296 59.3447C 63.4403 59.3404 63.4491 59.3368 63.4546 59.3346C 63.4575 59.3334 63.46 59.3324 63.4615 59.3318C 63.4623 59.3314 63.4631 59.3311 63.4635 59.3309C 63.4637 59.3308 63.464 59.3307 63.4641 59.3307C 63.4642 59.3307 63.4643 59.3306 63.4643 59.3306C 63.4643 59.3306 63.4644 59.3306 63.4644 59.3306C 63.4644 59.3306 63.4645 59.3305 63.2737 58.8684ZM 61.8308 58.8211C 60.7742 59.0786 59.4673 58.7236 58.0962 58.3831L 57.8552 59.3536C 59.1188 59.6674 60.7144 60.1224 62.0676 59.7927L 61.8308 58.8211ZM 66.5341 61.5127C 66.462 61.5851 66.3939 61.6525 66.3267 61.7178L 67.0239 62.4347C 67.0939 62.3665 67.1677 62.2936 67.2425 62.2186L 66.5341 61.5127ZM 66.3267 61.7178C 65.6777 62.3489 65.3154 62.2885 64.8571 62.4586L 65.205 63.3962C 65.4299 63.3127 66.1735 63.2617 67.0239 62.4347L 66.3267 61.7178ZM 65.031 62.9274C 64.9413 62.4355 64.9413 62.4355 64.9413 62.4355C 64.9413 62.4355 64.9413 62.4355 64.9412 62.4355C 64.9412 62.4355 64.9412 62.4355 64.9411 62.4355C 64.941 62.4356 64.9408 62.4356 64.9406 62.4356C 64.9401 62.4357 64.9394 62.4359 64.9385 62.436C 64.9366 62.4364 64.9338 62.4369 64.9302 62.4375C 64.923 62.4388 64.9125 62.4408 64.899 62.4432C 64.8721 62.4481 64.8337 62.4552 64.7874 62.4636C 64.695 62.4805 64.5711 62.5032 64.4462 62.5262C 64.2193 62.5679 63.9295 62.6211 63.8855 62.6329L 64.1444 63.5988C 64.137 63.6008 64.3552 63.5597 64.6272 63.5097C 64.7517 63.4868 64.875 63.4642 64.9674 63.4473C 65.0135 63.4389 65.0519 63.4318 65.0787 63.4269C 65.0921 63.4245 65.1026 63.4226 65.1098 63.4213C 65.1134 63.4206 65.1161 63.4201 65.1179 63.4198C 65.1189 63.4196 65.1196 63.4195 65.12 63.4194C 65.1203 63.4194 65.1204 63.4193 65.1206 63.4193C 65.1206 63.4193 65.1207 63.4193 65.1207 63.4193C 65.1207 63.4193 65.1207 63.4193 65.1207 63.4193C 65.1207 63.4193 65.1207 63.4193 65.031 62.9274ZM 65.2609 63.3714L 66.9051 62.5203L 66.4454 61.6322L 64.8012 62.4834L 65.2609 63.3714ZM 55.5013 51.5796C 55.5446 51.5146 55.5954 51.4573 55.6857 51.3644L 54.9676 50.6684C 54.859 50.7808 54.753 50.9035 54.6753 51.016L 55.5013 51.5796ZM 55.6857 51.3644C 55.7854 51.2614 55.9101 51.1429 56.0706 50.9889L 55.378 50.2676C 55.2193 50.4199 55.0817 50.5509 54.9676 50.6684L 55.6857 51.3644ZM 59.2411 62.9019C 60.3725 63.471 61.3068 63.7404 62.0718 63.8138C 62.8593 63.8822 63.5397 63.7605 64.1444 63.5988L 63.8855 62.6329C 63.3189 62.7852 62.814 62.8833 62.1644 62.8181C 61.4925 62.7578 60.7382 62.5402 59.692 62.0093L 59.2411 62.9019ZM 55.1728 52.9505C 55.2276 52.6633 55.2537 52.3841 55.3009 52.1393C 55.3467 51.8952 55.3887 51.7339 55.5013 51.5796L 54.6753 51.016C 54.4853 51.3052 54.3748 51.6597 54.3185 51.9523C 54.2635 52.244 54.2377 52.5221 54.1909 52.7611L 55.1728 52.9505ZM 8.20523 21.0023L 15.0681 26.7866L 15.7126 26.022L 8.8497 20.2376L 8.20523 21.0023ZM 15.0681 26.7866L 15.7108 27.3283L 16.3552 26.5636L 15.7126 26.022L 15.0681 26.7866ZM 56.3586 49.4162C 55.9286 49.7337 55.5782 50.0098 55.34 50.2222C 55.2169 50.3325 55.104 50.4456 55.0298 50.5343C 54.9887 50.5846 54.9391 50.6557 54.9096 50.7083C 54.8781 50.7663 54.8267 50.8763 54.8267 51.0164L 55.8267 51.0164C 55.8267 51.1185 55.7902 51.1821 55.7884 51.1855C 55.7882 51.1876 55.7831 51.192 55.8004 51.1717C 55.843 51.1193 55.9033 51.0598 56.0064 50.9678C 56.2208 50.7759 56.5349 50.529 56.9526 50.2207L 56.3586 49.4162ZM 68.4337 55.1969C 68.3526 55.3725 68.0881 55.6599 67.6078 56.0243C 67.1429 56.3777 66.5633 56.7402 65.9323 57.092C 64.6644 57.7993 63.2877 58.4014 62.5392 58.6098L 62.8075 59.5732C 63.6642 59.3346 65.1192 58.6907 66.4194 57.9654C 67.0725 57.6009 67.7111 57.2006 68.2122 56.821C 68.6979 56.4525 69.1472 56.037 69.3415 55.6162L 68.4337 55.1969ZM 62.5376 58.6103C 62.535 58.611 62.5547 58.6058 62.5508 58.6068C 62.5551 58.6057 62.5681 58.6025 62.585 58.5995C 62.593 58.5981 62.6101 58.5952 62.6321 58.5934C 62.6396 58.5928 62.7077 58.5859 62.7905 58.6061C 62.8428 58.622 62.9719 58.6918 63.0405 58.754C 63.1155 58.8613 63.1718 59.1004 63.1562 59.2158C 63.133 59.285 63.0764 59.3857 63.0498 59.4192C 63.0318 59.4389 62.9994 59.4696 62.9857 59.481C 62.9593 59.5023 62.9365 59.5161 62.9283 59.521C 62.9356 59.5168 62.8978 59.5379 62.9031 59.5351C 62.91 59.5316 62.8763 59.5481 62.8805 59.5461C 62.8855 59.5439 62.8631 59.5537 62.8654 59.5527C 62.8678 59.5517 62.8613 59.5544 62.867 59.5522C 62.8803 59.5472 62.9015 59.5393 62.9299 59.5289C 62.9873 59.5078 63.0673 59.4787 63.1476 59.4494C 63.2279 59.4201 63.3092 59.3903 63.3676 59.3687C 63.3972 59.3577 63.4241 59.3475 63.4414 59.3408C 63.4519 59.3366 63.4709 59.3288 63.4839 59.3229C 63.4912 59.3195 63.511 59.3094 63.5239 59.3022C 63.5358 59.2952 63.5686 59.2734 63.5889 59.2579C 63.6027 59.2468 63.638 59.2176 63.6733 59.1713C 63.6953 59.1425 63.8005 59.0022 63.7706 58.7961C 63.7338 58.5429 63.5397 58.4351 63.4614 58.4038C 63.3836 58.3726 63.3174 58.3693 63.2971 58.3684C 63.2473 58.3663 63.2085 58.3724 63.2007 58.3736C 63.1845 58.3763 63.1603 58.3814 63.1516 58.3835L 63.3957 59.3532C 63.3931 59.3539 63.3744 59.3587 63.3498 59.3624C 63.3424 59.3636 63.3038 59.3697 63.2542 59.3675C 63.234 59.3667 63.1678 59.3633 63.0901 59.3322C 63.0118 59.301 62.8178 59.1932 62.781 58.94C 62.751 58.7339 62.8562 58.5937 62.8782 58.5649C 62.9135 58.5187 62.9487 58.4895 62.9624 58.4785C 62.9931 58.4538 63.0199 58.4385 63.0267 58.4346C 63.0457 58.4237 63.0611 58.4166 63.0639 58.4154C 63.0773 58.4092 63.0864 58.4059 63.077 58.4095C 63.0657 58.414 63.0468 58.4211 63.0193 58.4313C 62.9634 58.452 62.8848 58.4808 62.8048 58.51C 62.7248 58.5392 62.6439 58.5686 62.5852 58.5902C 62.5557 58.601 62.5301 58.6105 62.5134 58.6168C 62.5041 58.6203 62.4916 58.6252 62.4833 58.6286C 62.4796 58.6301 62.4706 58.634 62.4648 58.6366C 62.4601 58.6388 62.4484 58.6445 62.4412 58.6481C 62.4359 58.651 62.4231 58.658 62.4157 58.6624C 62.4046 58.6692 62.3756 58.689 62.3581 58.7025C 62.3443 58.714 62.312 58.7447 62.2939 58.7644C 62.2673 58.798 62.2107 58.8986 62.1875 58.9678C 62.1719 59.0833 62.2282 59.3223 62.3032 59.4297C 62.3718 59.4918 62.501 59.5617 62.5532 59.5776C 62.636 59.5978 62.7042 59.5909 62.7118 59.5903C 62.7263 59.5889 62.75 59.5857 62.7592 59.5842C 62.7768 59.5808 62.8014 59.5748 62.8091 59.5727L 62.5376 58.6103ZM 78.517 35.1738L 69.7534 28.6448L 69.156 29.4467L 77.9196 35.9757L 78.517 35.1738ZM 77.9196 35.9757L 77.986 36.0252L 78.5835 35.2233L 78.517 35.1738L 77.9196 35.9757ZM 63.3957 59.3533C 63.3952 59.3534 63.369 59.3603 63.3353 59.3644C 63.3251 59.3657 63.3065 59.3676 63.283 59.368C 63.2664 59.3683 63.2129 59.3688 63.1473 59.3514C 63.1079 59.341 62.8802 59.2764 62.7987 59.0191C 62.7796 58.933 62.7838 58.7766 62.801 58.71C 62.8185 58.6649 62.8578 58.5931 62.8772 58.5657C 62.9158 58.5149 62.9552 58.4838 62.9681 58.4737C 62.9859 58.4599 63.001 58.45 63.0095 58.4447C 63.0266 58.434 63.0405 58.4267 63.0461 58.4239C 63.0381 58.4279 63.0748 58.4102 63.0708 58.4121C 63.0655 58.4143 63.0818 58.4075 63.0771 58.4093C 63.0648 58.414 63.045 58.4214 63.017 58.4318C 62.9603 58.4528 62.8811 58.4817 62.801 58.5109C 62.7209 58.5402 62.6401 58.5696 62.582 58.5911C 62.5526 58.6019 62.5268 58.6115 62.5102 58.6178C 62.5006 58.6215 62.4859 58.6273 62.4761 58.6315C 62.471 58.6337 62.4578 58.6398 62.4491 58.644C 62.4414 58.6479 62.4206 58.6593 62.4076 58.6672C 62.3966 58.6742 62.3688 58.6938 62.3524 58.7069C 62.3402 58.7174 62.3121 58.7442 62.2967 58.7609C 62.2752 58.7869 62.2286 58.8597 62.2066 58.9076C 62.1827 58.9864 62.1791 59.1791 62.2106 59.2858C 62.2619 59.3787 62.39 59.5052 62.4547 59.5425C 62.5656 59.5958 62.6664 59.592 62.6744 59.5919C 62.7246 59.5916 62.764 59.5833 62.7673 59.5827C 62.7808 59.5799 62.8006 59.5751 62.8075 59.5732L 62.5392 58.6098C 62.5405 58.6095 62.5561 58.605 62.5765 58.6011C 62.5795 58.6005 62.6186 58.5922 62.6687 58.5919C 62.6766 58.5919 62.7773 58.588 62.8882 58.6413C 62.9529 58.6786 63.081 58.8051 63.1323 58.898C 63.1638 59.0047 63.1602 59.1973 63.1362 59.2762C 63.0857 59.4038 62.9953 59.4728 62.9906 59.4767C 62.9659 59.4972 62.9447 59.5107 62.9357 59.5163C 62.9159 59.5286 62.8998 59.5367 62.8949 59.5391C 62.9028 59.5352 62.8673 59.5518 62.871 59.5502C 62.8755 59.5483 62.8621 59.5539 62.867 59.552C 62.8795 59.5472 62.8997 59.5397 62.9277 59.5294C 62.9843 59.5085 63.0636 59.4796 63.1438 59.4503C 63.2241 59.4211 63.3054 59.3913 63.3642 59.3696C 63.394 59.3586 63.4206 59.3486 63.4379 59.3419C 63.4481 59.338 63.4642 59.3314 63.4752 59.3267C 63.4806 59.3242 63.4944 59.3177 63.5032 59.3133C 63.5105 59.3095 63.5292 59.2989 63.5407 59.292C 63.5495 59.2863 63.5704 59.2718 63.5824 59.2627C 63.5954 59.2527 63.6349 59.2215 63.6735 59.1706C 63.6939 59.1437 63.8301 58.9637 63.752 58.7171C 63.6705 58.4598 63.4427 58.3952 63.4033 58.3847C 63.3376 58.3673 63.2841 58.3679 63.2674 58.3681C 63.2518 58.3686 63.2255 58.3705 63.2147 58.3717C 63.1929 58.3749 63.1617 58.3811 63.1517 58.3835L 63.3957 59.3533ZM 63.6261 57.979C 63.454 58.0931 63.2456 58.2359 63.0376 58.3618C 62.8304 58.4876 62.6684 58.5763 62.5376 58.6103L 62.8091 59.5727C 63.0402 59.5046 63.3237 59.3574 63.5559 59.217C 63.7874 59.0764 64.0125 58.9225 64.1783 58.8128L 63.6261 57.979ZM 64.5211 54.1248C 64.5135 54.0954 64.5357 54.2113 64.5439 54.3256C 64.5528 54.4453 64.5586 54.5881 64.5594 54.7617C 64.5612 55.1141 64.5425 55.5335 64.4809 55.9787C 64.4201 56.4257 64.3277 56.8446 64.1703 57.2216C 64.0181 57.5907 63.8321 57.8426 63.6261 57.979L 64.1783 58.8128C 64.616 58.5229 64.903 58.0678 65.0948 57.6028C 65.2814 57.1455 65.4042 56.603 65.4716 56.1146C 65.5383 55.6243 65.561 55.1344 65.5594 54.7569C 65.5576 54.3896 65.5343 54.0645 65.4945 53.8957L 64.5211 54.1248ZM 56.6556 49.8185C 56.9299 50.2365 56.9299 50.2365 56.9299 50.2365C 56.93 50.2365 56.93 50.2365 56.93 50.2365C 56.9301 50.2364 56.9301 50.2364 56.9302 50.2363C 56.9305 50.2362 56.9308 50.2359 56.9312 50.2357C 56.9321 50.2351 56.9333 50.2343 56.935 50.2331C 56.9384 50.2309 56.9435 50.2276 56.9503 50.2232C 56.9637 50.2143 56.9839 50.2011 57.0104 50.1837C 57.0634 50.1489 57.1422 50.0972 57.2448 50.0298C 57.4501 49.895 57.7511 49.6974 58.134 49.4458C 58.8997 48.9427 59.9932 48.2241 61.3036 47.3619L 60.754 46.5265C 59.4437 47.3885 58.3506 48.107 57.5849 48.61C 57.2021 48.8615 56.9012 49.0591 56.6959 49.1939C 56.5933 49.2613 56.5147 49.3129 56.4616 49.3477C 56.4351 49.3651 56.415 49.3783 56.4016 49.3871C 56.3948 49.3916 56.3898 49.3949 56.3864 49.3971C 56.3847 49.3982 56.3834 49.3991 56.3825 49.3996C 56.3821 49.3999 56.3818 49.4001 56.3816 49.4003C 56.3815 49.4003 56.3814 49.4004 56.3813 49.4004C 56.3813 49.4004 56.3813 49.4004 56.3813 49.4004C 56.3813 49.4005 56.3813 49.4005 56.6556 49.8185ZM 61.3036 47.3619C 65.9473 44.3067 73.3181 39.4481 78.4959 35.9906L 77.9406 35.1589C 72.7653 38.6148 65.3973 43.4715 60.754 46.5265L 61.3036 47.3619ZM 50.2908 13.6762L 69.134 29.4294L 69.7754 28.6622L 50.9322 12.909L 50.2908 13.6762ZM 36.015 2.01366L 42.0449 6.9398L 42.6776 6.16537L 36.6477 1.23923L 36.015 2.01366ZM 42.0449 6.9398L 50.2952 13.6799L 50.9278 12.9054L 42.6776 6.16537L 42.0449 6.9398ZM 61.3384 47.3368C 65.6029 43.9744 66.9156 39.988 66.342 35.8364C 65.775 31.7337 63.3741 27.5165 60.3322 23.5973C 54.2637 15.7784 45.3737 8.84093 42.7137 6.1979L 42.0089 6.90727C 44.8167 9.6971 53.5162 16.4463 59.5423 24.2104C 62.5477 28.0827 64.8204 32.1311 65.3514 35.9733C 65.8756 39.7668 64.7104 43.4048 60.7192 46.5515L 61.3384 47.3368ZM 17.685 28.9922L 21.0605 31.7891L 21.6986 31.019L 18.323 28.2222L 17.685 28.9922ZM 17.6727 7.16695L 0.987445 18.1488L 1.53722 18.9841L 18.2225 8.00226L 17.6727 7.16695ZM 18.2308 7.99671C 19.594 7.06001 21.1741 6.05958 22.9304 4.90365L 22.3806 4.06834C 20.6317 5.21945 19.0433 6.22532 17.6645 7.1725L 18.2308 7.99671ZM 18.2225 8.00226L 22.9304 4.90365L 22.3806 4.06834L 17.6727 7.16695L 18.2225 8.00226ZM 21.0605 31.7891L 28.4354 37.8996L 29.0734 37.1295L 21.6986 31.019L 21.0605 31.7891ZM 28.4354 37.8996L 48.3851 54.4291L 49.0231 53.6591L 29.0734 37.1295L 28.4354 37.8996ZM 17.6727 7.16695C 15.6749 8.48993 14.2743 10.297 13.6347 12.3795C 12.9933 14.4965 13.0939 16.9291 13.9465 19.5873C 15.6473 24.89 20.3649 31.1745 28.4343 37.8987L 29.0745 37.1304C 21.0677 30.4585 16.5156 24.3228 14.8988 19.2819C 14.0926 16.7684 14.0225 14.5484 14.5917 12.6695C 15.1626 10.7562 16.3539 9.22406 18.2225 8.00226L 17.6727 7.16695Z"/>
</defs>
</svg>
