<svg width="761" height="245" viewBox="0 0 761 245" version="1.1" xmlns="http://www.w3.org/2000/svg" xmlns:xlink="http://www.w3.org/1999/xlink">
<title>TN-2</title>
<desc>Created using Figma</desc>
<g id="Canvas" transform="translate(39 168)">
<g id="TN-2">
<g id="Group">
<g id="Vector 2">
<use xlink:href="#path0_fill" transform="translate(-30.8884 -160.92)" fill="#0687E2"/>
</g>
<g id="Vector 2">
<use xlink:href="#path1_fill" transform="translate(-30.8884 -160.92)" fill="#FA4C60"/>
</g>
<g id="Vector 2">
<use xlink:href="#path2_fill" transform="translate(-31 -161)" fill="#FFFFFF"/>
</g>
<g id="Vector 2">
<use xlink:href="#path3_stroke" transform="translate(-31 -160.921)"/>
</g>
</g>
<g id="Star">
<use xlink:href="#path4_fill" transform="translate(64 -95)"/>
</g>
<g id="Star">
<use xlink:href="#path5_fill" transform="translate(428 -95)"/>
</g>
<g id="Star">
<use xlink:href="#path4_fill" transform="translate(249 -95)"/>
</g>
</g>
</g>
<defs>
<path id="path0_fill" d="M 0.11776 229.803C 10.899 228.326 25.5798 230.697 36.3611 229.803C 51.9595 228.51 83.1563 230.56 98.0665 229.803C 127.199 228.326 175.6 231.951 196.933 229.803C 215.284 227.956 245.792 231.569 265.52 229.803C 288.229 227.771 355.211 233.129 373.103 229.803C 379.24 229.296 386.61 229.024 394.665 228.909L 394.665 1.05369C 359.508 1.14639 323.658 2.55033 316.673 1.84728C 290.982 -0.738917 252.445 1.84728 240.287 1.84728C 220.56 1.84728 168.718 -1.84729 158.854 1.84728C 158.854 7.5739 177.205 20.505 177.205 27.8941C 166.424 29.9262 119.858 25.3079 113.894 27.8941C 107.713 36.0461 106.554 45.074 98.0665 48.7686C 90.7261 44.1503 89.1189 36.0461 83.3857 27.8941C 73.2926 27.8941 59.7587 24.7537 55.6297 27.8941C 52.5967 33.477 61.4306 58.832 62.4218 72.2144C 62.5101 73.4054 61.4694 74.319 60.2758 74.2788C 42.3624 73.6747 39.5878 92.1321 46.6936 102.712C 47.8772 104.474 46.5367 108.277 44.417 108.161C 32.4332 107.502 20.4581 106.062 16.4043 108.436C 18.2394 113.609 32.9203 122.845 36.3611 129.126C 34.526 134.668 14.5692 143.35 16.4043 148.707C 18.2394 154.064 33.8378 159.976 36.3611 166.072C 33.379 171.429 14.1104 179.557 14.1104 187.87C 14.1104 192.858 20.7627 197.291 20.7627 203.202C 18.4688 210.037 -1.71736 225.185 0.11776 229.803Z"/>
<path id="path1_fill" d="M 494.679 229.803C 512.571 228.326 546.062 232.02 552.714 229.803C 549.502 218.535 543.997 210.407 547.667 200.431C 549.91 194.335 557.99 190.456 557.99 187.131C 557.99 182.328 549.502 179.557 547.667 174.569C 549.961 170.321 559.825 172.168 562.348 170.321C 564.642 166.072 557.99 156.466 557.99 152.217C 566.769 155.463 574.047 160.53 580.47 160.53C 586.893 160.53 597.903 156.096 597.903 152.217C 600.197 149.077 596.298 138.547 597.903 135.407C 602.262 132.636 618.778 132.266 623.136 129.126C 624.971 124.508 616.025 121.921 616.025 118.596C 623.136 115.641 640.111 116.934 644.698 113.054C 646.763 107.328 636.899 100.493 636.899 94.9509C 636.899 89.409 647.91 76.478 655.25 73.8918C 658.462 73.8918 668.784 87.7465 673.372 94.9509C 673.372 86.0839 674.978 78.6947 679.565 73.8918C 687.823 73.8918 693.329 71.8597 696.081 69.0888C 693.558 63.7316 692.411 60.0371 696.081 57.0814C 704.798 57.0814 705.028 48.7686 712.368 48.7686C 716.497 45.2587 709.157 35.468 712.368 32.6971C 723.608 34.3597 744.253 27.7094 744.253 24.569C 746.317 17.5493 746.547 3.1404 744.253 0C 729.113 0 704.11 2.92486 696.081 1.84728C 679.565 -0.369459 653.645 3.32511 644.698 1.84728C 635.752 0.369459 616.025 3.22435 606.62 1.84728C 594.004 0 571.524 3.46365 562.348 1.84728C 547.667 -0.738918 514.406 2.46864 505.919 1.84728C 480.686 1.05703e-06 451.554 2.6877 435.726 1.84728C 423.538 1.20014 409.161 1.01547 394.665 1.05369L 394.665 228.909C 430.564 228.397 480.065 231.01 494.679 229.803Z"/>
<path id="path2_fill" fill-rule="evenodd" d="M 49.8107 108.469C 49.8848 108.471 49.9589 108.473 50.0329 108.475C 50.7831 108.494 51.0938 107.355 50.4992 106.898L 50.4992 106.898C 51.171 107.415 50.7397 108.494 49.8107 108.469ZM 61.4414 74.4231C 61.5186 74.4291 61.5961 74.4353 61.6739 74.442C 62.1208 74.4801 62.5118 74.1323 62.4972 73.684L 62.4972 73.684C 62.5118 74.1331 61.9968 74.4659 61.4414 74.4231ZM 268.447 0.79947C 269 59.5 200.72 160.609 200.72 229.355C 204.024 229.452 312.036 230.085 315.402 230.19L 315.426 230.191C 339.159 230.933 363.38 231.69 373.103 229.883C 382.248 229.126 385.892 229.123 398.698 229.154C 398.698 138 461.091 95.0304 461.091 1.72608C 463.768 1.64779 458.285 1.79756 461.091 1.72608C 451.163 2.01645 442.298 2.27575 435.726 1.9268C 423.602 1.28307 409.312 1.09695 394.895 1.13262C 387.575 1.15073 275.566 0.697867 268.447 0.79947Z"/>
<path id="path3_stroke" d="M 0.11776 229.803L -6.38747 232.388L -4.36302 237.483L 1.06839 236.739L 0.11776 229.803ZM 36.3611 229.803L 36.9394 236.779L 36.3611 229.803ZM 98.0665 229.803L 97.7119 222.812L 98.0665 229.803ZM 196.933 229.803L 197.634 236.768L 196.933 229.803ZM 265.52 229.803L 264.896 222.831L 265.52 229.803ZM 373.103 229.803L 372.526 222.827L 372.172 222.856L 371.824 222.921L 373.103 229.803ZM 552.714 229.803L 554.927 236.444L 561.282 234.327L 559.446 227.885L 552.714 229.803ZM 547.667 200.431L 541.098 198.014L 541.098 198.014L 547.667 200.431ZM 547.667 174.569L 541.508 171.244L 540.007 174.023L 541.098 176.986L 547.667 174.569ZM 562.348 170.321L 566.483 175.969L 567.757 175.036L 568.508 173.646L 562.348 170.321ZM 559.043 156.372L 552.498 158.855L 559.043 156.372ZM 597.903 152.217L 592.251 148.088L 590.903 149.933L 590.903 152.217L 597.903 152.217ZM 597.903 135.407L 594.148 129.499L 592.539 130.522L 591.671 132.22L 597.903 135.407ZM 623.136 129.126L 627.228 134.805L 628.886 133.61L 629.641 131.711L 623.136 129.126ZM 616.025 118.596L 613.338 112.132L 609.025 113.925L 609.025 118.596L 616.025 118.596ZM 644.698 113.054L 649.218 118.4L 650.648 117.19L 651.284 115.428L 644.698 113.054ZM 655.25 73.8918L 655.25 66.8918L 654.053 66.8918L 652.924 67.2896L 655.25 73.8918ZM 679.565 73.8918L 679.565 66.8918L 676.572 66.8918L 674.504 69.0567L 679.565 73.8918ZM 696.081 69.0888L 701.048 74.0221L 704.504 70.5428L 702.414 66.106L 696.081 69.0888ZM 696.081 57.0814L 696.081 50.0814L 693.613 50.0814L 691.691 51.6295L 696.081 57.0814ZM 712.368 48.7686L 712.368 55.7686L 714.941 55.7686L 716.902 54.102L 712.368 48.7686ZM 712.368 32.6971L 713.392 25.7724L 710.222 25.3035L 707.795 27.3972L 712.368 32.6971ZM 744.253 24.569L 737.537 22.594L 737.253 23.561L 737.253 24.569L 744.253 24.569ZM 744.253 0L 749.905 -4.12891L 747.808 -7L 744.253 -7L 744.253 0ZM 696.081 1.84728L 695.15 8.78507L 696.081 1.84728ZM 606.62 1.84728L 607.634 -5.07887L 606.62 1.84728ZM 562.348 1.84728L 563.563 -5.04657L 562.348 1.84728ZM 505.919 1.84728L 505.408 8.8286L 505.919 1.84728ZM 435.726 1.84728L 436.097 -5.14287L 435.726 1.84728ZM 316.673 1.84728L 317.374 -5.11752L 317.374 -5.11752L 316.673 1.84728ZM 158.854 1.84728L 156.399 -4.70796L 151.854 -3.0057L 151.854 1.84728L 158.854 1.84728ZM 177.205 27.8941L 178.502 34.773L 184.205 33.698L 184.205 27.8941L 177.205 27.8941ZM 113.894 27.8941L 111.109 21.4719L 109.425 22.2022L 108.316 23.6648L 113.894 27.8941ZM 98.0665 48.7686L 94.3388 54.6935L 97.4693 56.663L 100.86 55.1868L 98.0665 48.7686ZM 83.3857 27.8941L 89.1114 23.8673L 87.0204 20.8941L 83.3857 20.8941L 83.3857 27.8941ZM 55.6297 27.8941L 51.3921 22.3225L 50.1961 23.2322L 49.4788 24.5525L 55.6297 27.8941ZM 62.4218 72.2144L 69.4027 71.6973L 62.4218 72.2144ZM 16.4043 108.436L 12.8666 102.396L 7.87172 105.321L 9.80722 110.777L 16.4043 108.436ZM 36.3611 129.126L 43.0062 131.326L 43.9639 128.434L 42.5002 125.763L 36.3611 129.126ZM 36.3611 166.072L 42.4773 169.476L 44.1228 166.52L 42.8289 163.395L 36.3611 166.072ZM 20.7627 203.202L 27.3989 205.43L 27.7627 204.346L 27.7627 203.202L 20.7627 203.202ZM 394.895 1.0531L 394.912 8.05308L 394.895 1.0531ZM 561.98 153.838L 559.173 160.251L 561.98 153.838ZM 673.459 91.5195L 680.449 91.8897L 673.459 91.5195ZM 60.2758 74.2788L 60.0399 81.2748L 60.2758 74.2788ZM 44.417 108.161L 44.8011 101.171L 44.417 108.161ZM 1.06839 236.739C 5.86221 236.056 11.5883 236.282 17.9138 236.577C 24.2393 236.871 31.057 237.25 36.9394 236.779L 35.7828 222.827C 30.8839 223.251 24.9706 222.89 18.5651 222.592C 12.1595 222.294 5.15454 222.073 -0.832875 222.868L 1.06839 236.739ZM 36.9394 236.779C 44.3932 236.153 55.7253 236.345 67.3175 236.6C 78.9093 236.856 90.6906 237.181 98.4211 236.794L 97.7119 222.812C 90.5321 223.182 79.2599 222.86 67.6262 222.604C 55.9928 222.347 43.9274 222.161 35.7828 222.827L 36.9394 236.779ZM 98.4211 236.794C 112.713 236.064 131.833 236.599 150.252 237.052C 168.672 237.506 186.543 237.872 197.634 236.768L 196.232 222.839C 185.989 223.883 168.993 223.51 150.597 223.057C 132.199 222.604 112.552 222.065 97.7119 222.812L 98.4211 236.794ZM 197.634 236.768C 206.333 235.876 218.069 236.316 230.455 236.768C 242.841 237.219 255.84 237.684 266.144 236.776L 264.896 222.831C 255.472 223.688 243.353 223.229 230.965 222.777C 218.577 222.326 205.884 221.883 196.232 222.839L 197.634 236.768ZM 266.144 236.776C 277.057 235.785 299.06 236.615 320.903 237.285C 331.825 237.62 342.691 237.917 351.936 237.92C 361.221 237.922 369.405 237.592 374.382 236.686L 371.824 222.921C 367.854 223.678 360.956 223.925 351.94 223.92C 342.885 223.918 332.231 223.626 321.332 223.292C 299.534 222.623 276.692 221.79 264.896 222.831L 266.144 236.776ZM 373.68 236.78C 390.087 235.414 415.642 235.786 439.585 236.317C 463.192 236.84 485.826 237.558 495.255 236.78L 494.102 222.827C 485.639 223.526 464.231 222.859 439.895 222.32C 415.896 221.789 389.609 221.422 372.526 222.827L 373.68 236.78ZM 495.255 236.78C 503.762 236.063 516.178 236.613 527.629 237.075C 533.355 237.306 538.856 237.518 543.337 237.531C 547.398 237.542 551.969 237.43 554.927 236.444L 550.501 223.162C 550.743 223.053 549.869 223.307 548.543 223.397C 547.127 223.501 545.463 223.537 543.374 223.531C 539.145 223.521 533.908 223.317 528.194 223.086C 516.762 222.625 503.487 222.066 494.102 222.827L 495.255 236.78ZM 559.446 227.885C 557.684 221.769 555.509 216.931 554.348 212.736C 553.168 208.639 552.777 206.297 554.237 202.848L 541.098 198.014C 538.887 204.541 539.414 211.251 540.872 216.529C 542.349 221.709 544.532 226.569 545.982 231.722L 559.446 227.885ZM 554.237 202.848C 554.693 201.608 555.956 200.184 558.446 197.859C 559.57 196.81 560.93 195.549 562.012 194.305C 562.963 193.192 564.99 190.648 564.99 187.131L 550.99 187.131C 550.99 185.277 552.006 184.464 551.373 185.205C 550.869 185.814 550.07 186.526 548.893 187.625C 546.783 189.595 542.884 193.159 541.098 198.014L 554.237 202.848ZM 564.99 187.131C 564.99 183.724 563.45 181.128 562.065 179.425C 560.816 177.936 559.173 176.5 557.939 175.494C 556.709 174.491 555.725 173.736 554.962 172.97C 554.213 172.252 554.239 171.907 554.237 172.152L 541.098 176.986C 542.018 179.235 543.789 181.597 545.146 182.952C 546.491 184.258 547.974 185.431 549.094 186.345C 550.211 187.255 550.805 187.724 551.205 188.261C 551.468 188.584 550.99 188.136 550.99 187.131L 564.99 187.131ZM 553.827 177.895C 553.241 178.98 552.444 179.135 552.899 178.975C 553.542 178.715 554.239 178.642 555.603 178.511C 556.967 178.376 558.572 178.296 560.121 178.119C 561.25 177.988 564.161 177.669 566.483 175.969L 558.213 164.672C 559.274 163.896 560.005 164.038 558.504 164.213C 557.422 164.343 555.944 164.413 554.24 164.578C 552.536 164.746 550.18 165.124 548.249 165.77C 546.13 166.516 543.24 168.034 541.508 171.244L 553.827 177.895ZM 568.508 173.646C 569.822 171.212 569.929 168.71 569.776 166.883C 569.615 165.236 569.137 163.239 568.656 161.747C 567.697 158.845 566.381 155.993 565.587 153.888L 552.498 158.855C 553.479 161.428 554.669 163.971 555.345 166.086C 555.68 167.101 555.803 167.517 555.825 168.051C 555.854 168.404 555.727 167.851 556.188 166.995L 568.508 173.646ZM 559.173 160.251C 562.496 161.702 565.809 163.397 569.117 164.792C 572.483 166.198 576.693 167.448 580.47 167.53L 580.47 153.53C 578.823 153.611 577.305 153.055 574.54 151.885C 571.716 150.704 568.497 149.053 564.788 147.426L 559.173 160.251ZM 580.47 167.53C 584.939 167.53 590.288 166.085 594.458 164.216C 596.569 163.259 598.991 161.829 600.612 160.49C 602.117 159.212 604.903 156.414 604.903 152.217L 590.903 152.217C 590.903 149.96 592.313 149.171 591.553 149.815C 590.909 150.398 590.177 150.804 588.733 151.44C 585.792 152.758 582.423 153.53 580.47 153.53L 580.47 167.53ZM 603.556 156.346C 605.579 153.576 605.665 150.268 605.645 148.622C 605.61 146.735 605.341 144.575 605.091 142.823C 604.841 141.072 604.608 139.611 604.531 138.425C 604.423 136.884 604.715 137.46 604.136 138.593L 591.671 132.22C 590.288 134.924 590.466 137.994 590.566 139.408C 590.696 141.177 590.994 143.134 591.231 144.8C 591.469 146.466 591.645 147.724 591.646 148.792C 591.662 150.102 591.375 149.287 592.251 148.088L 603.556 156.346ZM 601.659 141.314C 601.433 141.539 602.556 140.958 604.526 140.545C 606.564 140.11 608.997 139.736 611.621 139.318C 614.245 138.9 617.099 138.428 619.556 137.86C 621.787 137.34 624.89 136.49 627.228 134.805L 619.044 123.447C 619.224 123.217 618.301 123.784 616.379 124.225C 614.378 124.695 612.013 125.079 609.418 125.492C 606.824 125.905 604.038 126.339 601.618 126.851C 599.442 127.313 596.428 128.05 594.148 129.499L 601.659 141.314ZM 629.641 131.711C 631.083 128.082 630.239 124.735 628.761 122.332C 627.607 120.588 625.842 118.893 624.697 117.955C 623.553 117.023 622.718 116.427 622.257 115.959C 621.596 115.322 623.025 116.326 623.025 118.596L 609.025 118.596C 609.025 122.529 611.572 125.104 612.532 126.03C 613.691 127.128 614.977 128.09 615.84 128.797C 616.702 129.498 616.844 129.811 616.837 129.668C 616.52 129.152 616.106 127.861 616.631 126.541L 629.641 131.711ZM 618.712 125.06C 619.835 124.556 621.339 124.29 623.785 123.968C 626.267 123.634 629.061 123.411 631.957 123.142C 634.855 122.872 637.993 122.531 640.658 122.005C 643.126 121.51 646.607 120.607 649.218 118.4L 640.179 107.709C 640.496 107.441 640.134 107.831 637.907 108.278C 635.877 108.692 633.467 108.941 630.659 109.202C 627.849 109.464 624.779 109.714 621.935 110.09C 619.055 110.478 615.77 111.159 613.338 112.132L 618.712 125.06ZM 651.284 115.428C 652.616 111.734 651.813 108.315 650.819 105.912C 649.895 103.766 648.449 101.532 647.285 99.8875C 646.123 98.247 645.119 96.9303 644.434 95.7499C 643.711 94.5263 643.899 94.4043 643.899 94.9509L 629.899 94.9509C 629.899 98.2685 631.321 101.079 632.383 102.875C 633.482 104.713 634.816 106.502 635.861 107.979C 636.905 109.452 637.538 110.347 637.883 111.266C 638.157 111.929 637.814 111.512 638.113 110.68L 651.284 115.428ZM 643.899 94.9509C 643.899 95.4513 643.814 94.9269 644.83 93.1269C 645.773 91.4337 646.975 89.7825 648.619 87.8889C 652.068 83.8961 655.671 81.1653 657.576 80.494L 652.924 67.2896C 647.489 69.2044 641.916 74.2323 638.025 78.7371C 635.999 81.0922 633.989 83.8745 632.638 86.2454C 631.36 88.5094 629.899 91.6796 629.899 94.9509L 643.899 94.9509ZM 655.25 80.8918C 654.356 80.8918 653.709 80.6884 653.416 80.5801C 653.56 80.6446 652.936 80.3683 652.923 80.3541C 652.756 80.266 653.155 80.5013 653.603 80.9059C 654.622 81.8054 655.752 83.0282 657.183 84.7151C 660.099 88.1418 663.226 92.3907 665.694 96.023L 677.272 88.1531C 674.653 84.3016 671.076 79.4524 667.853 75.6518C 666.214 73.7251 664.417 71.8021 662.923 70.4591C 662.113 69.7425 661.024 68.9064 660.176 68.3793C 659.349 67.8784 657.556 66.8918 655.25 66.8918L 655.25 80.8918ZM 680.449 91.8897C 680.802 85.2332 682.337 81.1245 684.627 78.7268L 674.504 69.0567C 668.829 74.997 666.894 83.1234 666.469 91.1494L 680.449 91.8897ZM 679.565 80.8918C 688.639 80.8918 696.391 78.7096 701.048 74.0221L 691.115 64.1555C 690.267 65.0098 687.008 66.8918 679.565 66.8918L 679.565 80.8918ZM 702.414 66.106C 701.82 64.8456 701.413 63.9337 701.101 63.0355C 700.811 62.215 700.75 61.8069 700.74 61.6746C 700.735 61.6088 700.759 61.8731 700.594 62.2516C 700.432 62.6228 700.263 62.7013 700.472 62.5333L 691.691 51.6295C 688.079 54.538 686.465 58.4225 686.777 62.6945C 687.028 66.1248 688.532 69.489 689.749 72.0716L 702.414 66.106ZM 696.081 64.0814C 703.378 64.0814 707.354 60.2272 709.707 57.8583C 712.065 55.4847 712.01 55.7686 712.368 55.7686L 712.368 41.7686C 705.386 41.7686 701.546 46.2088 699.775 47.9916C 697.999 49.7791 697.502 50.0814 696.081 50.0814L 696.081 64.0814ZM 716.902 54.102C 720.249 51.2562 720.752 47.4129 720.653 44.8906C 720.524 42.6795 719.924 40.2282 719.446 38.5444C 718.967 36.8597 718.61 35.7782 718.539 35.0067C 718.422 34.0832 718.985 36.2336 716.941 37.997L 707.795 27.3972C 704.146 30.5461 704.421 34.9594 704.649 36.7607C 704.921 38.7139 705.539 40.819 705.978 42.367C 706.418 43.916 706.677 44.7437 706.664 45.4421C 706.679 45.8293 706.551 44.526 707.834 43.4351L 716.902 54.102ZM 711.344 39.6218C 718.429 40.6698 727.539 39.1087 734.421 37.1726C 737.962 36.1712 741.494 34.8726 743.943 33.6781C 745.258 33.0239 746.785 32.0926 747.773 31.3089C 748.433 30.7694 751.253 28.4702 751.253 24.569L 737.253 24.569C 737.253 22.8368 737.951 21.6594 738.276 21.1926C 738.164 21.3401 738.787 20.574 738.724 20.6452C 738.684 20.6818 738.904 20.473 738.915 20.4673C 739.1 20.2927 738.556 20.7324 737.76 21.1172C 735.987 22.0009 733.655 22.8499 730.63 23.6958C 724.379 25.4542 717.547 26.387 713.392 25.7724L 711.344 39.6218ZM 750.968 26.5441C 752.151 22.4247 752.847 16.0956 752.887 10.871C 752.9 8.23018 752.747 5.40435 752.442 3.19709C 752.171 1.2759 751.605 -1.80197 749.905 -4.12891L 738.6 4.12891C 738.047 3.37217 738.314 3.27306 738.58 5.15614C 738.812 6.75316 738.903 8.55711 738.887 10.7886C 738.87 15.3084 738.42 19.6936 737.537 22.594L 750.968 26.5441ZM 744.253 -7C 736.429 -6.99537 726.165 -6.25216 717.045 -5.65743C 707.52 -5.03626 700.154 -4.6689 697.013 -5.0905L 695.15 8.78507C 700.038 9.44105 709.187 8.88476 717.956 8.3129C 727.129 7.71459 736.938 6.99537 744.253 7L 744.253 -7ZM 697.013 -5.0905C 688.168 -6.25258 676.925 -5.88567 667.217 -5.42183C 662.36 -5.18962 657.84 -4.93908 653.994 -4.83856C 650.189 -4.73694 647.556 -4.75564 645.839 -5.05912L 643.558 8.75369C 646.314 9.18912 650.276 9.26279 654.363 9.15659C 658.41 9.04928 663.08 8.79182 667.885 8.56221C 677.503 8.1024 687.478 7.73041 695.15 8.78507L 697.013 -5.0905ZM 645.839 -5.05912C 640.443 -5.95054 632.354 -5.5212 625.486 -5.18198C 617.929 -4.80874 611.49 -4.51434 607.634 -5.07887L 605.606 8.77343C 611.155 9.58597 619.283 9.14145 626.177 8.80098C 633.76 8.42647 640.008 8.16728 643.558 8.75369L 645.839 -5.05912ZM 607.634 -5.07887C 600.659 -6.06772 591.195 -5.66389 582.831 -5.2299C 573.996 -4.77145 567.15 -4.41456 563.563 -5.04657L 561.134 8.74113C 566.722 9.7255 575.704 9.15875 583.556 8.75129C 591.88 8.31936 599.964 7.915 605.606 8.77343L 607.634 -5.07887ZM 563.563 -5.04657C 555.36 -6.49145 542.603 -6.27997 531.561 -5.88506C 519.798 -5.46439 510.167 -4.86044 506.43 -5.13403L 505.408 8.8286C 510.158 9.17636 521.401 8.48721 532.061 8.106C 543.441 7.69901 554.655 7.59982 561.134 8.74113L 563.563 -5.04657ZM 506.43 -5.13403C 493.504 -6.07345 479.562 -5.86467 467.106 -5.52773C 454.641 -5.19027 443.682 -4.73238 436.097 -5.14287L 435.355 8.83744C 443.598 9.26737 455.118 8.80161 467.485 8.46715C 479.86 8.13216 493.101 7.92074 505.408 8.8286L 506.43 -5.13403ZM 317.374 -5.11752C 291.099 -7.73795 252.21 -5.14879 240.287 -5.15272L 240.287 8.84728C 252.679 8.84336 290.865 6.26011 315.972 8.81209L 317.374 -5.11752ZM 240.287 -5.15272C 230.604 -5.15039 212.809 -6.07086 196.066 -6.53549C 187.69 -6.76754 179.479 -6.88442 172.78 -6.70892C 166.492 -6.54281 160.164 -6.1183 156.399 -4.70796L 161.31 8.40253C 162.476 7.96558 166.327 7.46644 173.15 7.28619C 179.563 7.11532 187.395 7.22936 195.678 7.45913C 212.254 7.91814 230.243 8.84496 240.287 8.84728L 240.287 -5.15272ZM 151.854 1.84728C 151.854 4.28799 152.778 6.34667 153.504 7.67045C 154.216 8.94578 155.287 10.4606 156.273 11.6885C 158.191 14.0553 160.666 16.6372 162.934 19.046C 165.202 21.4552 167.216 23.6234 168.698 25.6578C 170.366 27.9278 170.205 28.5043 170.205 27.8941L 184.205 27.8941C 184.205 23.5894 181.751 19.7785 179.979 17.3669C 178.019 14.7194 175.445 11.9115 173.126 9.44851C 170.806 6.98503 168.694 4.79859 167.17 2.89932C 166.436 1.99418 166.073 1.50152 165.782 0.944709C 165.504 0.436347 165.854 0.838236 165.854 1.84728L 151.854 1.84728ZM 175.909 21.0153C 174.042 21.367 169.847 21.4982 163.729 21.3888C 157.844 21.2842 150.91 20.9814 144.037 20.6925C 137.164 20.4036 130.325 20.1283 124.836 20.089C 122.066 20.0702 119.456 20.1159 117.416 20.2507C 115.648 20.3693 113.111 20.604 111.109 21.4719L 116.679 34.3163C 116.169 34.5377 116.391 34.351 118.354 34.2192C 120.044 34.1036 122.135 34.07 124.738 34.0887C 129.994 34.1244 136.588 34.3917 143.449 34.6801C 150.311 34.9685 157.414 35.2776 163.478 35.3866C 169.31 35.4908 174.978 35.4372 178.502 34.773L 175.909 21.0153ZM 108.316 23.6648C 104.751 28.4539 102.697 33.1561 100.759 36.5452C 98.8769 39.8888 97.9836 41.4185 95.2726 42.3503L 100.86 55.1868C 106.637 52.424 110.567 47.5925 112.932 43.4605C 115.24 39.374 116.857 35.4863 119.472 32.1235L 108.316 23.6648ZM 101.794 42.8437C 99.2173 41.3842 98.0809 39.5457 96.2255 36.2267C 94.3344 32.8758 92.3321 28.5009 89.1114 23.8673L 77.6599 31.921C 80.1724 35.4394 81.8404 39.1925 84.0212 43.0863C 86.2379 47.0119 89.5752 51.5346 94.3388 54.6935L 101.794 42.8437ZM 83.3857 20.8941C 78.8013 20.9094 73.1592 20.1469 67.802 19.7366C 65.0994 19.5322 62.1834 19.423 59.7771 19.588C 57.4832 19.7563 54.1195 20.2481 51.3921 22.3225L 59.8673 33.4657C 59.2044 33.9699 59.0807 33.6767 60.8011 33.5505C 62.4091 33.4212 64.2817 33.5083 66.7403 33.6963C 71.7055 34.0712 77.877 34.8789 83.3857 34.8941L 83.3857 20.8941ZM 49.4788 24.5525C 48.328 26.6707 48.0754 28.9702 48.015 30.5915C 47.9641 32.209 48.0949 34.2701 48.325 36.1522C 48.7827 39.8039 49.6973 44.2501 50.6864 48.6613C 52.6616 57.4654 55.0169 66.6465 55.441 72.7315L 69.4027 71.6973C 68.8355 64.3999 66.2784 54.2123 64.347 45.5976C 63.3828 41.2994 62.5957 37.5236 62.2191 34.4329C 62.032 32.9438 61.9626 32.0035 62.0052 31.1135C 62.0383 30.2273 62.1731 30.5132 61.7806 31.2357L 49.4788 24.5525ZM 60.5117 67.2827C 48.5446 66.8792 40.564 73.1925 37.4931 81.9958C 34.6747 90.0753 36.1856 99.6214 40.8827 106.615L 52.5045 98.8086C 50.0957 95.2223 49.4411 90.25 50.7119 86.6069C 51.7302 83.6877 54.0936 81.0743 60.0399 81.2748L 60.5117 67.2827ZM 44.8011 101.171C 38.9226 100.849 32.8429 100.319 27.6407 100.164C 25.0054 100.089 22.3024 100.121 20.1076 100.334C 17.9668 100.549 15.2193 101.018 12.8666 102.396L 19.942 114.476C 19.8664 114.611 20.0802 114.392 21.5049 114.264C 23.0702 114.1 24.87 114.088 27.2332 114.158C 32.0279 114.295 37.9276 114.814 44.033 115.15L 44.8011 101.171ZM 9.80722 110.777C 10.8481 113.711 13.1878 116.239 14.8583 117.913C 16.7263 119.778 19.0331 121.786 21.2042 123.662C 23.375 125.538 25.4408 127.31 27.1786 128.998C 28.9891 130.752 29.898 131.898 30.222 132.489L 42.5002 125.763C 41.1038 123.214 38.8872 120.849 36.9201 118.943C 34.8801 116.971 32.5158 114.934 30.3569 113.068C 28.1983 111.204 26.2758 109.54 24.7674 108.023C 23.0616 106.314 22.8781 105.748 23.0014 106.096L 9.80722 110.777ZM 29.7159 126.925C 29.9463 126.23 30.2093 126.101 29.7557 126.593C 29.2882 127.114 28.7593 127.571 27.8429 128.3C 25.9568 129.812 23.5116 131.467 20.9611 133.273C 18.4073 135.082 15.5529 137.218 13.5221 139.236C 12.4378 140.343 11.1177 142.052 10.3764 143.47C 9.48815 145.278 8.75797 147.986 9.78208 150.976L 23.0266 146.439C 23.5919 148.089 23.0839 149.353 22.943 149.64C 22.9371 149.744 22.9013 149.644 23.4586 149.098C 24.7109 147.808 26.6163 146.423 29.0517 144.699C 31.4903 142.971 34.2637 141.082 36.5783 139.24C 37.7622 138.292 39.0792 137.12 40.0472 136.084C 41.029 135.02 42.3171 133.407 43.0062 131.326L 29.7159 126.925ZM 9.78208 150.976C 10.9544 154.398 13.7715 156.856 15.5787 158.297C 17.6068 159.903 20.0768 161.52 22.2906 162.969C 24.5046 164.418 26.4573 165.694 28.0304 166.98C 29.5417 168.186 29.919 169.125 29.8932 168.749L 42.8289 163.395C 41.4904 160.161 38.849 157.726 36.8424 156.101C 34.7237 154.395 32.1891 152.716 29.9586 151.256C 27.728 149.795 25.7967 148.549 24.3051 147.349C 22.5927 145.984 22.7718 145.695 23.0266 146.439L 9.78208 150.976ZM 30.2448 162.667C 30.3496 162.479 29.8698 163.162 27.4655 164.94C 25.3879 166.478 22.7343 168.232 20.0244 170.184C 17.3148 172.139 14.2687 174.556 12.0156 176.972C 9.79085 179.39 7.11044 183.119 7.11044 187.87L 21.1104 187.87C 21.1104 188.464 20.8386 188.06 22.3199 186.449C 23.7728 184.835 25.7303 183.327 28.2105 181.541C 30.6906 179.752 33.4133 177.95 35.7873 176.198C 37.8345 174.685 40.8815 172.343 42.4773 169.476L 30.2448 162.667ZM 7.11044 187.87C 7.11044 192.986 10.4518 197.349 11.6295 199.098C 13.4796 201.847 13.7627 202.707 13.7627 203.202L 27.7627 203.202C 27.7627 197.786 24.7196 193.474 23.2436 191.281C 21.0952 188.089 21.1104 187.741 21.1104 187.87L 7.11044 187.87ZM 14.1265 200.975C 14.2512 200.313 13.0927 202.691 11.0851 204.936C 9.03586 207.24 6.46772 209.802 3.88741 212.44C 1.30502 215.08 -1.39979 217.93 -3.30638 220.398C -4.30565 221.709 -5.39794 223.425 -6.02813 224.807C -6.64511 226.215 -7.66872 229.164 -6.38747 232.388L 6.62299 227.218C 7.44546 229.288 6.65124 230.753 6.7959 230.423C 6.92734 230.065 7.12895 229.787 7.79991 228.922C 9.23378 227.037 11.3748 224.807 13.8963 222.229C 16.4199 219.648 19.2137 216.853 21.5371 214.25C 23.6269 211.905 26.3062 208.685 27.3989 205.43L 14.1265 200.975ZM 436.097 -5.14287C 423.833 -5.79262 409.349 -5.98247 394.877 -5.94688L 394.912 8.05308C 409.275 8.01733 423.371 8.19974 435.355 8.83744L 436.097 -5.14287ZM 394.877 -5.94688C 377.197 -5.90283 359.333 -5.5272 345.062 -5.25159C 330.444 -4.96927 320.33 -4.82004 317.374 -5.11752L 315.972 8.81209C 320.016 9.21918 331.398 9.01492 345.333 8.7458C 359.615 8.46995 377.362 8.0962 394.912 8.05308L 394.877 -5.94688ZM 565.587 153.888C 566.159 155.394 565.946 157.798 564.019 159.418C 562.279 160.88 560.287 160.739 559.173 160.251L 564.788 147.426C 561.76 146.1 557.929 146.249 555.013 148.699C 551.91 151.306 551.186 155.397 552.498 158.855L 565.587 153.888ZM 665.694 96.023C 670.182 102.627 680.057 99.3029 680.449 91.8897L 666.469 91.1494C 666.627 88.1579 668.8 86.3189 670.717 85.7644C 672.649 85.2054 675.544 85.6096 677.272 88.1531L 665.694 96.023ZM 55.441 72.7315C 55.1673 69.0369 58.3154 67.2087 60.5117 67.2827L 60.0399 81.2748C 64.6234 81.4294 69.8528 77.7739 69.4027 71.6973L 55.441 72.7315ZM 40.8827 106.615C 40.2083 105.611 40.1399 104.731 40.1359 104.412C 40.1312 104.048 40.1964 103.792 40.2746 103.592C 40.3422 103.419 40.5533 102.945 41.1298 102.422C 41.7587 101.851 43.0354 101.074 44.8011 101.171L 44.033 115.15C 49.7872 115.466 52.5296 110.695 53.3136 108.689C 54.1966 106.431 54.89 102.36 52.5045 98.8086L 40.8827 106.615Z"/>
<path id="path4_fill" d="M 41.9728 17.5548C 43.7693 12.0278 51.5885 12.0278 53.385 17.5548L 57.0361 28.7871C 57.8395 31.2589 60.1431 32.9324 62.7422 32.9324L 74.5523 32.9324C 80.3652 32.9324 82.7815 40.3713 78.0781 43.7871L 68.5276 50.7233C 66.4238 52.2511 65.5435 54.9601 66.3473 57.4328L 69.9962 68.6586C 71.7929 74.186 65.467 78.7835 60.7643 75.3681L 51.2047 68.4254C 49.1022 66.8984 46.2556 66.8984 44.1531 68.4254L 34.5936 75.3681C 29.8908 78.7835 23.5649 74.186 25.3616 68.6586L 29.0105 57.4328C 29.8143 54.9601 28.934 52.2511 26.8302 50.7233L 17.2797 43.7871C 12.5764 40.3713 14.9926 32.9324 20.8055 32.9324L 32.6156 32.9324C 35.2147 32.9324 37.5183 31.2589 38.3217 28.7871L 41.9728 17.5548Z"/>
<path id="path5_fill" d="M 41.9728 17.5548C 43.7693 12.0278 51.5885 12.0278 53.385 17.5548L 57.0361 28.7871C 57.8395 31.2589 60.1431 32.9324 62.7422 32.9324L 74.5523 32.9324C 80.3652 32.9324 82.7815 40.3713 78.0781 43.7871L 68.5276 50.7233C 66.4238 52.2511 65.5435 54.9601 66.3473 57.4328L 69.9962 68.6586C 71.7929 74.186 65.467 78.7835 60.7643 75.3681L 51.2047 68.4254C 49.1022 66.8984 46.2556 66.8984 44.1531 68.4254L 34.5936 75.3681C 29.8908 78.7835 23.5649 74.186 25.3616 68.6586L 29.0105 57.4328C 29.8143 54.9601 28.934 52.2511 26.8302 50.7233L 17.2797 43.7871C 12.5764 40.3713 14.9926 32.9324 20.8055 32.9324L 32.6156 32.9324C 35.2147 32.9324 37.5183 31.2589 38.3217 28.7871L 41.9728 17.5548Z"/>
</defs>
</svg>
