<svg width="673" height="301" viewBox="0 0 673 301" version="1.1" xmlns="http://www.w3.org/2000/svg" xmlns:xlink="http://www.w3.org/1999/xlink">
<title>VA</title>
<desc>Created using Figma</desc>
<g id="Canvas" transform="translate(432 388)">
<g id="VA">
<g id="Vector 3">
<mask id="mask0_outline_out">
<rect id="mask0_outline_inv" fill="white" x="-13" y="-10" width="630" height="301" transform="translate(-419 -378)"/>
<use xlink:href="#path0_fill" fill="black" transform="translate(-419 -378)"/>
</mask>
<g mask="url(#mask0_outline_out)">
<use xlink:href="#path1_stroke_2x" transform="translate(-419 -378)"/>
</g>
</g>
<g id="Vector 4">
<mask id="mask1_outline_out">
<rect id="mask1_outline_inv" fill="white" x="-11" y="-10" width="74" height="107" transform="translate(178.166 -250.64)"/>
<use xlink:href="#path2_fill" fill="black" transform="translate(178.166 -250.64)"/>
</mask>
<g mask="url(#mask1_outline_out)">
<use xlink:href="#path3_stroke_2x" transform="translate(178.166 -250.64)"/>
</g>
</g>
<g id="Star">
<use xlink:href="#path4_fill" transform="translate(-74 -285)"/>
</g>
</g>
</g>
<defs>
<path id="path0_fill" d="M 78.9949 278.063C 65.6013 277.245 1.64003 276.155 0 275.064C 2.46005 269.885 32.8007 266.614 35.8074 262.525C 42.0942 249.713 50.5677 255.165 58.7679 250.531C 59.5818 242.685 63.6271 241.821 67.4292 241.009L 67.5147 240.99C 71.8881 236.902 65.6013 234.721 78.9949 224.635C 88.2885 216.185 90.7485 216.185 100.315 212.096C 104.142 207.189 110.976 203.695 116.716 199.012C 119.722 196.558 122.086 192.197 123.823 190.561C 128.743 185.927 130.929 188.108 128.743 192.469C 129.703 195.557 133.936 193.015 131.203 200.374C 139.403 205.554 140.496 213.186 142.136 212.914C 151.156 212.641 149.243 216.457 151.703 218.093C 156.077 221.637 157.443 220.001 162.09 220.001C 168.923 220.546 168.587 216.18 172.75 213.731C 183.957 208.552 182.864 205.554 184.504 205.009C 185.324 207.189 189.971 210.733 190.791 212.914C 203.911 211.551 209.104 213.459 215.664 208.552C 217.031 206.644 214.571 203.918 217.031 201.192C 220.311 201.737 223.591 202.01 226.051 205.009C 229.605 204.191 242.998 198.194 244.912 196.558C 247.372 194.923 248.465 197.649 250.105 194.378C 255.025 189.743 258.032 190.289 258.852 189.198C 259.125 187.563 257.759 185.927 258.852 185.109C 261.039 184.292 265.139 177.944 264.592 177.477C 262.679 175.841 258.852 171.48 258.852 169.572C 259.399 167.391 265.685 163.009 267.052 159.759C 274.159 142.858 280.172 145.584 283.999 135.498C 288.373 131.409 286.186 120.233 294.933 115.326C 295.479 109.602 299.306 111.238 299.579 109.875C 301.766 106.058 305.866 99.2435 304.226 92.9739C 306.686 92.4288 307.506 87.2496 308.053 85.3414C 311.333 85.8866 319.533 85.3414 322.54 96.5176C 329.92 102.211 334.434 96.8022 337.574 96.5176C 340.58 96.245 341.674 74.1652 353.701 71.4393C 357.254 67.8956 353.701 63.8068 358.347 59.9905C 362.174 61.3535 367.368 67.8956 369.008 67.8956C 371.468 65.4424 372.288 59.9905 374.748 58.0824C 385.38 51.0138 387.855 47.199 390.851 42.5814L 390.875 42.5447C 394.155 39.8189 393.881 31.6412 401.808 25.099C 401.262 22.3731 396.888 17.1939 403.175 15.5583C 407.275 11.1969 407.275 3.83696 407.275 0.0206587C 409.735 -0.79711 431.055 22.9182 448.276 25.9167C 448.549 21.8279 451.829 19.102 452.923 16.3761C 454.563 11.1969 456.203 12.2872 457.569 11.4695C 459.483 10.1065 463.9 11.9679 467.956 12.2872C 472.33 12.8324 470.69 16.8823 472.33 17.1938C 478.07 18.2842 475.336 21.5553 472.33 22.9182C 470.69 29.1878 472.603 33.5492 478.343 36.5477C 483.81 37.0929 489.55 40.0914 491.737 44.1803C 492.557 45.2706 494.197 48.5417 495.837 48.5417C 501.577 49.0869 504.037 53.0849 507.044 53.9935C 516.064 56.7194 510.87 77.1637 508.137 76.6185C 499.664 74.4378 501.577 83.1607 499.937 83.4333C 498.844 83.9785 496.383 79.8896 493.65 84.251C 492.83 84.7962 488.73 95.4272 488.73 101.969C 492.83 102.515 509.23 97.3354 511.69 97.8806C 511.69 100.879 509.777 107.149 511.69 107.694C 519.617 112.055 519.344 116.689 522.351 116.417C 525.084 116.417 528.364 119.824 531.371 121.323C 536.838 124.049 536.838 121.051 538.751 121.323C 545.038 121.323 553.511 133.925 555.971 134.68C 563.078 136.861 575.378 145.584 575.105 152.126C 574.285 152.944 570.185 150.49 569.092 151.308C 569.638 152.671 573.356 154.034 574.012 155.125C 574.832 156.487 573.465 165.756 569.638 169.027C 568.818 170.117 568.818 175.024 569.092 176.932C 565.812 176.932 556.791 170.662 555.971 168.481C 551.325 161.121 544.764 157.305 540.938 155.125C 537.931 152.671 531.098 146.402 528.911 141.495C 528.911 145.039 529.457 151.036 530.551 152.126C 534.104 157.305 546.951 167.664 554.058 170.935C 555.971 172.025 554.878 176.932 555.971 177.749C 558.158 181.021 567.725 181.069 570.185 182.384C 577.839 186.472 578.932 190.834 578.385 201.737C 575.925 201.737 566.358 196.831 564.992 195.74C 564.992 198.739 566.632 202.828 571.552 204.736C 569.092 204.736 564.445 209.097 561.438 208.007C 558.978 207.462 552.691 197.103 551.325 195.74C 550.505 194.378 538.478 184.564 535.744 184.564C 536.291 187.018 552.691 206.371 560.618 212.914C 562.805 215.094 568.818 215.367 570.185 216.73C 574.558 219.728 574.558 227.634 578.385 230.359C 575.378 229.269 569.365 235.266 564.992 233.358C 562.531 232.54 562.531 224.09 555.971 216.73C 554.331 215.367 535.471 207.189 533.831 207.189C 536.564 214.822 540.938 219.456 546.678 221.637C 548.591 221.637 550.778 218.132 552.145 218.911C 554.058 220.001 552.691 230.087 554.878 232.54C 562.258 231.995 560.501 238.81 561.438 240.445C 562.531 242.353 571.005 246.715 572.645 245.352C 572.645 243.716 570.564 240.761 571.552 239.627C 577.018 233.358 582.759 237.447 583.579 239.627C 591.232 235.266 590.685 241.263 592.325 239.627C 594.239 240.99 594.239 232.268 598.339 239.627C 596.972 259.527 607.086 266.614 606.539 269.067C 604.079 269.612 596.152 268.468 593.692 269.067C 546.678 280.516 344.407 281.606 153.89 280.789C 152.523 280.516 151.976 277.82 149.79 277.518C 139.95 276.155 90.4752 282.424 78.9949 278.063Z"/>
<path id="path1_stroke_2x" d="M 0 275.064L -9.03283 270.774L -12.7486 278.597L -5.53648 283.392L 0 275.064ZM 78.9949 278.063L 82.5464 268.715L 81.1236 268.174L 79.6044 268.081L 78.9949 278.063ZM 149.79 277.518L 151.162 267.612L 151.162 267.612L 149.79 277.518ZM 153.89 280.789L 151.934 290.595L 152.881 290.784L 153.847 290.789L 153.89 280.789ZM 593.692 269.067L 596.058 278.783L 593.692 269.067ZM 606.539 269.067L 608.703 278.83L 614.916 277.454L 616.3 271.242L 606.539 269.067ZM 598.339 239.627L 608.315 240.313L 608.519 237.353L 607.075 234.761L 598.339 239.627ZM 592.325 239.627L 598.127 231.483L 591.246 226.581L 585.264 232.547L 592.325 239.627ZM 583.579 239.627L 574.219 243.147L 578.345 254.12L 588.53 248.316L 583.579 239.627ZM 571.552 239.627L 564.015 233.055L 564.014 233.056L 571.552 239.627ZM 572.645 245.352L 579.037 253.043L 582.645 250.044L 582.645 245.352L 572.645 245.352ZM 561.438 240.445L 570.115 235.474L 570.115 235.473L 561.438 240.445ZM 554.878 232.54L 547.413 239.194L 550.695 242.876L 555.615 242.513L 554.878 232.54ZM 552.145 218.911L 547.193 227.599L 547.193 227.599L 552.145 218.911ZM 546.678 221.637L 543.126 230.985L 544.842 231.637L 546.678 231.637L 546.678 221.637ZM 533.831 207.189L 533.831 197.189L 519.628 197.189L 524.416 210.561L 533.831 207.189ZM 555.971 216.73L 563.436 210.076L 562.938 209.517L 562.363 209.039L 555.971 216.73ZM 564.992 233.358L 568.991 224.192L 568.576 224.011L 568.146 223.868L 564.992 233.358ZM 578.385 230.359L 574.976 239.76L 584.187 222.215L 578.385 230.359ZM 570.185 216.73L 563.124 223.811L 563.773 224.459L 564.53 224.978L 570.185 216.73ZM 560.618 212.914L 567.68 205.833L 567.346 205.501L 566.983 205.201L 560.618 212.914ZM 535.744 184.564L 535.744 174.564L 523.271 174.564L 525.984 186.739L 535.744 184.564ZM 551.325 195.74L 542.756 200.896L 543.391 201.951L 544.263 202.821L 551.325 195.74ZM 561.438 208.007L 564.847 198.606L 564.236 198.384L 563.602 198.244L 561.438 208.007ZM 571.552 204.736L 571.552 214.736L 575.168 195.413L 571.552 204.736ZM 564.992 195.74L 571.228 187.924L 554.992 174.969L 554.992 195.74L 564.992 195.74ZM 578.385 201.737L 578.385 211.737L 587.896 211.737L 588.373 202.238L 578.385 201.737ZM 570.185 182.384L 574.897 173.563L 574.897 173.563L 570.185 182.384ZM 555.971 177.749L 564.285 172.192L 563.333 170.768L 561.961 169.742L 555.971 177.749ZM 554.058 170.935L 559.009 162.246L 558.633 162.032L 558.239 161.851L 554.058 170.935ZM 530.551 152.126L 538.797 146.469L 538.271 145.702L 537.612 145.045L 530.551 152.126ZM 528.911 141.495L 538.045 137.424L 518.911 141.495L 528.911 141.495ZM 540.938 155.125L 534.616 162.873L 535.262 163.4L 535.987 163.813L 540.938 155.125ZM 555.971 168.481L 565.331 164.962L 564.972 164.006L 564.427 163.143L 555.971 168.481ZM 569.092 176.932L 569.092 186.932L 580.626 186.932L 578.991 175.514L 569.092 176.932ZM 569.638 169.027L 563.141 161.425L 562.306 162.139L 561.646 163.016L 569.638 169.027ZM 574.012 155.125L 565.443 160.28L 565.443 160.28L 574.012 155.125ZM 569.092 151.308L 563.102 143.3L 556.951 147.901L 559.81 155.031L 569.092 151.308ZM 575.105 152.126L 582.167 159.207L 584.933 156.447L 585.096 152.543L 575.105 152.126ZM 555.971 134.68L 558.905 125.12L 558.905 125.12L 555.971 134.68ZM 538.751 121.323L 537.341 131.223L 538.042 131.323L 538.751 131.323L 538.751 121.323ZM 531.371 121.323L 526.909 130.272L 526.909 130.272L 531.371 121.323ZM 522.351 116.417L 522.351 106.417L 521.898 106.417L 521.448 106.458L 522.351 116.417ZM 511.69 107.694L 516.511 98.9324L 515.519 98.3868L 514.431 98.0766L 511.69 107.694ZM 511.69 97.8806L 521.69 97.8806L 521.69 89.8541L 513.854 88.1174L 511.69 97.8806ZM 488.73 101.969L 478.73 101.969L 478.73 110.728L 487.412 111.882L 488.73 101.969ZM 493.65 84.251L 499.187 92.5785L 500.98 91.3862L 502.124 89.5615L 493.65 84.251ZM 499.937 83.4333L 498.297 73.5686L 496.817 73.8146L 495.475 74.4841L 499.937 83.4333ZM 508.137 76.6185L 505.645 86.3029L 505.911 86.3715L 506.181 86.4254L 508.137 76.6185ZM 507.044 53.9935L 509.936 44.4211L 509.936 44.4211L 507.044 53.9935ZM 495.837 48.5417L 496.782 38.5865L 496.311 38.5417L 495.837 38.5417L 495.837 48.5417ZM 491.737 44.1803L 482.919 48.8962L 483.282 49.5753L 483.745 50.1907L 491.737 44.1803ZM 478.343 36.5477L 473.713 45.4113L 475.427 46.3065L 477.351 46.4984L 478.343 36.5477ZM 472.33 22.9182L 468.201 13.8103L 463.861 15.7776L 462.655 20.3876L 472.33 22.9182ZM 472.33 17.1938L 470.463 27.0182L 470.463 27.0182L 472.33 17.1938ZM 467.956 12.2872L 469.193 2.36402L 468.968 2.33591L 468.741 2.31807L 467.956 12.2872ZM 457.569 11.4695L 462.704 20.0506L 463.046 19.8458L 463.371 19.6143L 457.569 11.4695ZM 452.923 16.3761L 462.204 20.0988L 462.343 19.7516L 462.456 19.3949L 452.923 16.3761ZM 448.276 25.9167L 446.56 35.7685L 457.512 37.6755L 458.254 26.5838L 448.276 25.9167ZM 407.275 0.0206587L 404.121 -9.46877L 397.275 -7.19319L 397.275 0.0206587L 407.275 0.0206587ZM 403.175 15.5583L 405.693 25.2361L 408.485 24.5098L 410.461 22.4077L 403.175 15.5583ZM 401.808 25.099L 408.174 32.8115L 412.79 29.0014L 411.613 23.1325L 401.808 25.099ZM 390.875 42.5447L 384.483 34.8538L 383.314 35.8259L 382.486 37.1017L 390.875 42.5447ZM 390.851 42.5814L 382.462 37.1384L 382.462 37.1384L 390.851 42.5814ZM 374.748 58.0824L 369.211 49.7548L 368.907 49.957L 368.619 50.1808L 374.748 58.0824ZM 369.008 67.8956L 369.008 77.8956L 373.142 77.8956L 376.069 74.9764L 369.008 67.8956ZM 358.347 59.9905L 361.703 50.5702L 356.373 48.6718L 352.001 52.2627L 358.347 59.9905ZM 353.701 71.4393L 355.911 81.1919L 358.721 80.5549L 360.762 78.52L 353.701 71.4393ZM 337.574 96.5176L 338.476 106.477L 338.476 106.477L 337.574 96.5176ZM 322.54 96.5176L 312.883 99.1155L 313.76 102.374L 316.432 104.435L 322.54 96.5176ZM 308.053 85.3414L 309.693 75.4768L 300.896 74.0145L 298.44 82.5872L 308.053 85.3414ZM 304.226 92.9739L 302.063 83.2108L 291.924 85.4576L 294.552 95.5046L 304.226 92.9739ZM 299.579 109.875L 290.903 104.903L 290.094 106.314L 289.775 107.908L 299.579 109.875ZM 294.933 115.326L 299.825 124.048L 304.39 121.487L 304.887 116.277L 294.933 115.326ZM 283.999 135.498L 277.17 128.193L 275.473 129.779L 274.65 131.951L 283.999 135.498ZM 267.052 159.759L 276.27 163.635L 276.27 163.635L 267.052 159.759ZM 258.852 169.572L 249.152 167.14L 248.852 168.337L 248.852 169.572L 258.852 169.572ZM 264.592 177.477L 271.09 169.875L 264.592 177.477ZM 258.852 185.109L 255.349 175.743L 254.009 176.244L 252.862 177.102L 258.852 185.109ZM 258.852 189.198L 266.844 195.209L 268.312 193.256L 268.715 190.847L 258.852 189.198ZM 250.105 194.378L 243.249 187.098L 241.96 188.312L 241.166 189.896L 250.105 194.378ZM 244.912 196.558L 239.375 188.231L 238.873 188.565L 238.414 188.957L 244.912 196.558ZM 226.051 205.009L 218.32 211.351L 222.252 216.144L 228.294 214.754L 226.051 205.009ZM 217.031 201.192L 218.671 191.328L 213.273 190.43L 209.607 194.493L 217.031 201.192ZM 215.664 208.552L 221.654 216.56L 222.893 215.633L 223.794 214.375L 215.664 208.552ZM 190.791 212.914L 181.43 216.433L 184.147 223.658L 191.824 222.86L 190.791 212.914ZM 184.504 205.009L 193.864 201.489L 190.478 192.484L 181.349 195.519L 184.504 205.009ZM 172.75 213.731L 168.555 204.654L 168.107 204.861L 167.681 205.112L 172.75 213.731ZM 162.09 220.001L 162.885 210.033L 162.488 210.001L 162.09 210.001L 162.09 220.001ZM 151.703 218.093L 157.999 210.323L 157.632 210.026L 157.24 209.765L 151.703 218.093ZM 142.136 212.914L 141.834 202.918L 141.161 202.939L 140.496 203.049L 142.136 212.914ZM 131.203 200.374L 121.828 196.893L 119.004 204.497L 125.863 208.829L 131.203 200.374ZM 128.743 192.469L 119.803 187.987L 117.996 191.591L 119.194 195.441L 128.743 192.469ZM 123.823 190.561L 130.679 197.841L 130.679 197.841L 123.823 190.561ZM 116.716 199.012L 110.394 191.263L 116.716 199.012ZM 100.315 212.096L 104.245 221.291L 106.616 220.278L 108.201 218.246L 100.315 212.096ZM 78.9949 224.635L 85.0105 232.623L 85.3801 232.345L 85.7224 232.034L 78.9949 224.635ZM 67.5147 240.99L 69.6041 250.77L 72.3174 250.19L 74.3441 248.295L 67.5147 240.99ZM 67.4292 241.009L 69.518 250.788L 69.5186 250.788L 67.4292 241.009ZM 58.7679 250.531L 63.6878 259.237L 68.1819 256.697L 68.7145 251.563L 58.7679 250.531ZM 35.8074 262.525L 43.8637 268.449L 44.392 267.731L 44.7848 266.93L 35.8074 262.525ZM -5.53648 283.392C -4.2725 284.232 -3.10342 284.586 -2.80627 284.677C -2.46342 284.777 -1.91309 284.913 -1.63717 284.97C -1.22518 285.05 -0.614305 285.144 -0.192709 285.196C 0.534851 285.283 1.56369 285.374 2.61488 285.448C 4.64591 285.59 7.47348 285.733 10.7348 285.869C 17.2253 286.139 25.8581 286.406 34.804 286.662C 52.6932 287.173 71.8701 287.645 78.3855 288.044L 79.6044 268.081C 72.7262 267.663 53.2257 267.18 35.3758 266.67C 26.4521 266.415 17.95 266.153 11.5679 265.886C 8.39299 265.754 5.84988 265.626 4.01679 265.497C 3.13593 265.436 2.60935 265.391 2.21325 265.341C 2.07302 265.325 2.37589 265.374 2.30295 265.362C 2.19656 265.339 3.28206 265.62 3.05045 265.554C 3.23635 265.611 4.32375 265.93 5.53648 266.737L -5.53648 283.392ZM 75.4435 287.411C 80.2452 289.235 87.2677 289.58 93.4429 289.626C 100.105 289.671 107.993 289.328 115.573 288.899C 123.154 288.469 130.601 287.95 136.719 287.627C 143.263 287.281 147.114 287.242 148.418 287.423L 151.162 267.612C 147.545 267.111 141.522 267.345 135.663 267.655C 129.378 267.988 121.894 268.508 114.442 268.931C 106.988 269.353 99.7397 269.674 93.5892 269.626C 90.5522 269.605 88.1038 269.509 85.9306 269.286C 83.8789 269.088 81.9579 268.449 82.5464 268.715L 75.4435 287.411ZM 148.418 287.423C 146.885 287.211 145.709 286.554 144.971 285.972C 144.363 285.493 144.075 285.075 144.258 285.309C 144.338 285.411 144.474 285.593 144.672 285.849C 144.876 286.111 145.31 286.636 145.689 287.049C 146.498 287.911 148.56 289.923 151.934 290.595L 155.846 270.982C 158.536 271.518 160.017 273.091 160.272 273.362C 160.452 273.554 160.54 273.675 160.465 273.578C 160.389 273.481 160.247 273.29 160.037 273.02C 159.351 272.139 156.517 268.354 151.162 267.612L 148.418 287.423ZM 153.847 290.789C 249.13 291.198 347.449 291.129 427.804 289.526C 468 288.724 503.842 287.532 532.525 285.826C 560.99 284.132 583.308 281.888 596.058 278.783L 591.326 259.351C 580.569 261.971 559.973 264.157 531.336 265.861C 502.916 267.554 467.468 268.731 427.405 269.53C 347.242 271.13 249.166 271.198 153.933 270.789L 153.847 290.789ZM 596.058 278.783C 595.304 278.967 595.1 278.875 596.263 278.89C 597.186 278.9 598.274 278.961 599.566 279.032C 600.858 279.103 602.337 279.185 603.651 279.211C 604.731 279.232 606.788 279.255 608.703 278.83L 604.375 259.304C 605.06 259.152 605.204 259.237 604.028 259.215C 603.088 259.199 601.97 259.134 600.666 259.062C 599.361 258.99 597.852 258.911 596.52 258.892C 595.428 258.878 593.31 258.868 591.326 259.351L 596.058 278.783ZM 616.3 271.242C 617.141 267.469 615.709 264.443 615.324 263.631C 614.847 262.661 614.174 261.548 613.705 260.818C 612.798 259.411 611.911 258.128 611.071 256.408C 609.506 253.286 607.766 248.313 608.315 240.313L 588.362 238.942C 587.545 250.841 590.179 259.362 593.192 265.371C 594.641 268.217 596.094 270.41 596.888 271.643C 597.268 272.233 597.217 272.162 597.251 272.197C 597.185 272.056 596.948 271.546 596.773 270.776C 596.594 269.992 596.399 268.597 596.778 266.892L 616.3 271.242ZM 607.075 234.761C 606.392 233.536 605.587 232.259 604.618 231.114C 603.742 230.078 602.113 228.397 599.599 227.408C 596.519 226.197 593.16 226.438 590.344 227.977C 588.075 229.217 586.794 230.956 586.279 231.703C 585.785 232.447 585.317 233.288 585.134 233.637C 584.869 234.142 584.964 233.943 585.118 233.707C 585.12 233.704 586.182 231.905 588.563 230.738C 590.005 230.031 591.84 229.6 593.859 229.843C 595.79 230.076 597.232 230.845 598.127 231.483L 586.524 247.772C 587.658 248.58 589.324 249.441 591.468 249.699C 593.699 249.968 595.734 249.497 597.367 248.696C 598.882 247.953 599.917 247 600.531 246.347C 601.158 245.679 601.601 245.045 601.873 244.628C 602.36 243.881 602.776 243.06 602.842 242.935C 603.035 242.566 602.947 242.761 602.745 243.054C 602.607 243.256 601.736 244.543 599.934 245.528C 598.927 246.078 597.645 246.524 596.153 246.62C 594.661 246.716 593.337 246.437 592.279 246.02C 590.37 245.27 589.429 244.126 589.345 244.027C 589.169 243.818 589.261 243.879 589.603 244.494L 607.075 234.761ZM 585.264 232.547C 585.834 231.978 588.047 229.943 591.725 229.918C 595.334 229.894 597.561 231.854 597.963 232.209C 598.124 232.351 598.243 232.468 598.309 232.534C 598.269 232.493 598.413 232.64 598.418 232.646C 598.435 232.664 598.311 232.529 598.152 232.359C 597.853 232.041 596.964 231.194 596.11 230.533C 593.781 228.83 590.751 227.786 587.216 228.044C 584.109 228.271 581.224 229.459 578.627 230.939L 588.53 248.316C 589.76 247.615 589.677 247.918 588.671 247.991C 587.237 248.096 585.608 247.63 584.304 246.677C 583.817 246.321 583.531 246.005 583.558 246.034C 583.599 246.074 584.078 246.599 584.723 247.199C 585.424 247.818 587.938 249.945 591.861 249.918C 595.852 249.891 598.407 247.686 599.387 246.708L 585.264 232.547ZM 592.939 236.108C 591.895 233.333 589.974 231.303 588.375 230.022C 586.903 228.895 583.941 227.355 581.55 226.713C 575.37 225.291 568.917 227.433 564.015 233.055L 579.089 246.199C 579.521 245.703 579.517 245.906 578.94 246.109C 578.34 246.32 577.657 246.34 577.065 246.204C 576.552 246.086 576.171 245.872 575.869 245.63C 575.709 245.501 575.487 245.298 575.236 244.984C 575.018 244.711 574.579 244.107 574.219 243.147L 592.939 236.108ZM 564.014 233.056C 561.018 236.492 561.187 240.396 561.379 241.977C 561.584 243.667 562.111 245.121 562.336 245.736C 562.604 246.462 562.796 246.923 562.874 247.166C 563.011 247.565 562.645 246.715 562.645 245.352L 582.645 245.352C 582.645 244.143 582.46 243.125 582.304 242.446C 582.143 241.742 581.948 241.13 581.796 240.688C 581.655 240.278 581.49 239.838 581.377 239.543C 581.264 239.248 581.184 239.044 581.119 238.866C 581.056 238.693 581.076 238.737 581.077 238.751C 581.092 238.803 581.176 239.1 581.233 239.563C 581.286 240.005 581.354 240.903 581.129 242.051C 580.889 243.28 580.307 244.802 579.089 246.199L 564.014 233.056ZM 566.253 237.661C 567.475 236.646 568.706 236.152 569.577 235.909C 570.44 235.669 571.14 235.62 571.547 235.612C 571.97 235.604 572.276 235.637 572.424 235.657C 572.396 235.653 572.605 235.685 572.603 235.686C 572.609 235.686 572.636 235.691 572.662 235.698C 572.734 235.713 572.658 235.701 572.527 235.659C 572.384 235.615 572.347 235.602 572.166 235.534C 571.783 235.393 571.544 235.29 571.097 235.078C 570.264 234.686 569.504 234.25 569.007 233.915C 568.736 233.736 568.732 233.707 568.778 233.757C 568.822 233.796 568.967 233.927 569.166 234.148C 569.344 234.346 569.724 234.793 570.115 235.474L 552.762 245.417C 554.327 248.15 556.954 249.91 557.833 250.502C 559.147 251.378 561.024 252.434 562.576 253.172C 564.147 253.904 566.368 254.738 568.049 255.159C 569.026 255.379 570.744 255.6 571.928 255.609C 573.251 255.584 576.279 255.334 579.037 253.043L 566.253 237.661ZM 570.115 235.473C 570.574 236.274 570.796 236.953 570.897 237.301C 570.839 237.075 571.068 238.039 571.058 237.995C 571.064 237.992 571.052 237.934 571.01 237.49C 570.926 236.609 570.66 234.534 570.081 232.573C 569.39 230.643 567.027 227.021 564.405 224.977C 561.122 222.804 557.436 222.324 554.141 222.567L 555.615 242.513C 556.01 242.484 554.872 242.651 553.364 241.653C 551.805 240.621 551.223 239.253 551.068 238.777C 550.974 238.491 551.006 238.406 551.101 239.396C 551.13 239.701 551.199 240.484 551.322 241.232C 551.389 241.642 551.498 242.215 551.685 242.861C 551.867 243.489 552.186 244.412 552.762 245.417L 570.115 235.473ZM 562.343 225.886C 563.91 227.645 563.875 229.221 563.672 227.949C 563.528 227.122 563.477 226.101 563.392 224.639C 563.308 223.178 563.193 221.264 562.955 219.633C 562.807 218.716 562.432 217.161 562.039 216.077C 561.601 214.952 560.325 212.062 557.096 210.222L 547.193 227.599C 544.443 226.031 543.543 223.695 543.404 223.34C 543.169 222.735 543.146 222.404 543.188 222.677C 543.3 223.321 543.339 224.286 543.425 225.79C 543.512 227.292 543.649 229.32 543.923 231.109C 544.08 232.06 544.41 233.493 544.751 234.536C 545.152 235.708 545.912 237.51 547.413 239.194L 562.343 225.886ZM 557.096 210.222C 552.307 207.494 547.871 209.365 546.419 210.11C 544.895 210.892 543.626 211.964 543.303 212.226C 542.776 212.656 542.795 212.63 542.765 212.673C 542.776 212.666 544.266 211.637 546.678 211.637L 546.678 231.637C 548.441 231.637 549.917 231.235 550.991 230.823C 552.058 230.413 552.921 229.918 553.529 229.529C 554.63 228.826 555.659 227.957 555.93 227.737C 556.143 227.563 556.278 227.465 556.227 227.499C 556.218 227.505 556.159 227.548 556.059 227.613C 555.96 227.676 555.786 227.783 555.547 227.906C 555.136 228.117 554.128 228.586 552.685 228.745C 551.066 228.922 549.086 228.677 547.193 227.599L 557.096 210.222ZM 550.229 212.288C 547.769 211.354 545.208 209.298 543.245 203.818L 524.416 210.561C 527.921 220.346 534.107 227.558 543.126 230.985L 550.229 212.288ZM 533.831 217.189C 532.992 217.189 532.372 217.075 532.214 217.046C 532.348 217.073 531.752 216.944 531.784 216.952C 531.754 216.946 531.789 216.951 532.011 217.026C 532.539 217.201 533.191 217.443 534.124 217.807C 536.044 218.554 538.436 219.548 540.934 220.628C 543.433 221.708 545.84 222.787 547.772 223.703C 548.719 224.15 549.415 224.492 549.976 224.787C 550.858 225.249 550.337 225.05 549.58 224.421L 562.363 209.039C 561.196 208.069 559.727 207.317 559.257 207.07C 558.466 206.657 557.407 206.136 556.329 205.626C 554.213 204.624 551.494 203.404 548.868 202.269C 546.241 201.134 543.508 199.999 541.379 199.169C 540.288 198.745 539.185 198.338 538.361 198.061C 537.907 197.909 537.306 197.726 536.879 197.611C 536.671 197.556 535.369 197.189 533.831 197.189L 533.831 217.189ZM 548.506 223.384C 550.782 225.727 551.566 227.972 552.609 230.882C 553.114 232.28 553.664 233.963 554.309 235.467C 554.653 236.251 556.583 241.101 561.837 242.847L 568.146 223.868C 570.372 224.608 571.616 225.992 572.102 226.625C 572.564 227.228 572.715 227.64 572.624 227.432C 572.372 226.892 572.052 225.85 571.429 224.113C 570.217 220.753 567.721 215.092 563.436 210.076L 548.506 223.384ZM 560.993 242.523C 564.732 244.155 568.293 243.841 570.71 243.295C 572.812 242.778 575.056 241.863 576.406 241.238C 577.761 240.609 578.526 240.205 579.021 240.047C 579.782 239.774 577.767 240.772 574.976 239.76L 581.794 220.958C 577.5 219.401 573.606 220.741 572.257 221.225C 570.642 221.825 569.066 222.598 567.995 223.093C 566.92 223.592 565.954 223.823 566.303 223.787C 566.309 223.786 566.583 223.722 567.052 223.738C 567.553 223.756 568.241 223.865 568.991 224.192L 560.993 242.523ZM 584.187 222.215C 585.066 222.841 585.246 223.408 584.985 222.903C 584.644 222.287 584.364 221.477 583.835 220.088C 583.055 218.038 581.05 212.055 575.84 208.482L 564.53 224.978C 563.693 224.404 563.875 223.872 565.145 227.205C 565.641 228.509 566.352 230.374 567.224 232.099C 568.176 233.938 569.791 236.515 572.583 238.504L 584.187 222.215ZM 577.246 209.649C 575.935 208.341 574.551 207.606 573.759 207.23C 573.048 206.904 572.061 206.532 571.452 206.336C 570.327 205.984 569.131 205.688 568.247 205.456C 567.358 205.223 566.935 205.117 566.525 204.941C 566.127 204.783 566.811 204.966 567.68 205.833L 553.557 219.994C 555.519 221.951 557.775 222.987 559.161 223.536C 560.537 224.066 562.112 224.523 563.171 224.801C 564.235 225.08 564.935 225.244 565.39 225.395C 565.57 225.452 565.454 225.426 565.183 225.298C 564.991 225.207 564.094 224.778 563.124 223.811L 577.246 209.649ZM 566.983 205.201C 563.495 202.348 558 196.472 552.976 190.663C 550.476 187.774 548.311 185.145 546.675 183.015C 545.883 181.985 545.368 181.281 544.973 180.683C 544.806 180.434 544.778 180.369 544.8 180.417C 544.788 180.39 545.072 180.985 545.011 180.855C 545.097 181.051 545.33 181.605 545.505 182.389L 525.984 186.739C 526.343 188.353 527.034 189.613 527.253 190.013C 527.535 190.521 527.967 191.226 528.316 191.754C 528.955 192.709 529.872 193.971 530.818 195.203C 532.659 197.596 535.192 200.674 537.851 203.749C 543.146 209.865 549.814 216.937 554.253 220.626L 566.983 205.201ZM 535.744 194.564C 534.55 194.564 533.709 194.32 533.462 194.246C 533.14 194.148 532.972 194.067 533.003 194.081C 533.238 194.18 533.392 194.272 533.963 194.628C 535.215 195.394 536.602 196.386 538.2 197.602C 539.796 198.814 541.217 199.97 542.388 200.983C 542.948 201.467 543.291 201.776 543.583 202.06C 543.7 202.172 543.659 202.135 543.655 202.128C 543.678 202.155 543.34 201.755 543.411 201.84C 543.311 201.716 543.048 201.382 542.756 200.896L 559.893 190.585C 558.995 189.093 557.704 187.893 557.481 187.678C 556.947 187.164 556.195 186.483 555.47 185.855C 554.069 184.645 552.159 183.092 550.304 181.681C 548.451 180.273 546.268 178.726 544.47 177.61C 543.516 177.024 542.276 176.339 541.327 175.896C 540.593 175.56 538.408 174.564 535.744 174.564L 535.744 194.564ZM 544.263 202.821C 543.812 202.371 543.833 202.305 544.944 203.891C 545.741 205.029 546.779 206.536 547.875 208.049C 548.972 209.562 550.348 211.355 551.56 212.721C 552.219 213.451 553.211 214.436 553.992 215.095C 554.698 215.678 556.576 217.172 559.275 217.77L 563.602 198.244C 564.789 198.507 565.611 198.945 565.982 199.162C 566.391 199.401 566.64 199.602 566.715 199.664C 566.755 199.681 566.762 199.722 566.464 199.383C 565.763 198.611 565.021 197.627 564.068 196.311C 563.114 194.997 562.17 193.624 561.327 192.42C 560.902 191.812 560.455 191.183 560.083 190.681C 559.807 190.308 559.154 189.426 558.386 188.66L 544.263 202.821ZM 558.029 217.408C 561.585 218.698 564.818 218.104 566.681 217.573C 568.352 217.063 570.207 216.223 571.293 215.663C 572.378 215.1 573.126 214.672 573.632 214.44C 574.405 214.075 573.372 214.736 571.552 214.736L 571.552 194.736C 569.846 194.736 568.423 195.099 567.504 195.391C 566.709 195.655 565.694 196.073 565.081 196.36C 563.929 196.912 562.867 197.506 562.107 197.898C 561.348 198.292 561.077 198.339 561.201 198.339C 561.27 198.319 562.794 197.862 564.847 198.606L 558.029 217.408ZM 575.168 195.413C 575.028 195.358 574.939 195.312 574.889 195.283C 574.864 195.268 574.846 195.256 574.836 195.249C 574.825 195.242 574.82 195.238 574.82 195.237C 574.819 195.237 574.822 195.239 574.828 195.245C 574.833 195.25 574.84 195.258 574.849 195.267C 574.866 195.287 574.884 195.311 574.9 195.337C 574.932 195.388 574.951 195.436 574.964 195.48C 574.974 195.516 574.992 195.594 574.992 195.74L 554.992 195.74C 554.992 202.191 558.574 210.429 567.936 214.059L 575.168 195.413ZM 558.755 203.557C 559.904 204.474 561.56 205.391 562.536 205.922C 563.778 206.597 565.424 207.437 566.989 208.181C 568.552 208.922 570.4 209.734 571.916 210.31C 572.965 210.706 575.676 211.737 578.385 211.737L 578.385 191.737C 579.435 191.737 580.05 191.948 579.791 191.877C 579.575 191.822 579.443 191.775 578.977 191.598C 577.965 191.22 576.875 190.736 575.568 190.115C 574.263 189.496 573.107 188.905 572.093 188.353C 571.608 188.09 571.298 187.914 571.007 187.738C 570.641 187.519 570.839 187.613 571.228 187.924L 558.755 203.557ZM 588.373 202.238C 588.643 196.841 588.701 191.038 586.671 185.856C 584.331 179.887 579.931 176.252 574.897 173.563L 565.473 191.204C 566.858 191.944 567.481 192.454 567.75 192.719C 568.215 193.101 567.901 192.625 568.049 193.154C 568.342 193.9 568.674 195.731 568.398 201.237L 588.373 202.238ZM 574.897 173.563C 573.577 172.858 572.286 172.479 571.531 172.278C 570.77 172.079 569.824 171.878 569.084 171.738C 567.648 171.468 566.194 171.244 564.908 170.989C 563.62 170.737 563.001 170.611 562.405 170.353C 561.747 170.096 563.101 170.421 564.285 172.192L 547.658 183.307C 549.935 186.714 553.305 188.271 555.133 188.984C 557.022 189.697 559.359 190.278 561.044 190.612C 562.73 190.942 564.266 191.181 565.383 191.392C 566.959 191.689 566.447 191.724 565.473 191.204L 574.897 173.563ZM 561.961 169.742C 564.023 171.284 564.802 173.167 565.045 173.831C 565.321 174.586 565.386 175.125 565.388 175.135C 565.413 175.226 565.36 174.651 565.298 173.746C 565.243 172.96 565.119 171.278 564.606 169.53C 564.122 167.878 562.782 164.396 559.009 162.246L 549.107 179.623C 546.291 178.018 545.532 175.559 545.415 175.159C 545.269 174.663 545.299 174.463 545.347 175.142C 545.367 175.423 545.385 175.769 545.412 176.182C 545.44 176.603 545.499 177.281 545.573 177.851C 545.655 178.453 545.829 179.518 546.262 180.702C 546.662 181.795 547.646 184.011 549.982 185.757L 561.961 169.742ZM 558.239 161.851C 555.433 160.598 551.47 157.857 547.23 154.446C 542.756 150.857 539.676 147.75 538.797 146.469L 522.305 157.783C 524.979 161.682 530.099 166.343 534.714 170.046C 539.563 173.926 545.576 178.001 549.877 180.019L 558.239 161.851ZM 537.612 145.045C 538.253 145.685 538.658 146.28 538.882 146.646C 539.116 147.028 539.261 147.339 539.338 147.517C 539.485 147.854 539.523 148.031 539.497 147.933C 539.447 147.744 539.344 147.251 539.235 146.427C 539.022 144.807 538.911 142.859 538.911 141.495L 518.911 141.495C 518.915 143.553 519.092 146.591 519.406 149.034C 519.575 150.296 519.865 151.893 520.169 153.073C 520.342 153.722 521.091 156.815 523.49 159.207L 537.612 145.045ZM 519.777 145.566C 521.599 149.654 524.858 153.47 527.359 156.109C 530.022 158.905 532.955 161.515 534.616 162.873L 547.26 147.376C 545.913 146.281 543.927 144.529 541.875 142.351C 539.661 140.014 538.41 138.243 538.045 137.424L 519.777 145.566ZM 535.987 163.813C 539.775 165.971 544.383 168.32 547.516 173.82L 564.427 163.143C 558.266 153.923 549.754 148.639 545.889 146.436L 535.987 163.813ZM 546.611 172.001C 547.358 173.988 548.553 175.417 549.1 176.043C 549.694 176.713 550.587 177.595 551.284 178.215C 552.587 179.357 554.439 180.76 556.073 181.852C 557.703 182.931 559.799 184.147 561.511 184.964C 562.953 185.644 565.877 186.932 569.092 186.932L 569.092 166.932C 569.656 166.932 570.065 166.996 570.265 167.034C 570.477 167.074 570.595 167.111 570.603 167.113C 570.603 167.113 570.419 167.053 570.036 166.872C 569.268 166.51 568.239 165.924 567.145 165.197C 566.054 164.471 565.127 163.758 564.528 163.228C 564.213 162.954 564.104 162.808 564.172 162.898C 564.198 162.927 564.329 163.078 564.505 163.339C 564.658 163.566 565.017 164.125 565.331 164.962L 546.611 172.001ZM 578.991 175.514C 579 175.565 578.987 175.503 578.974 175.321C 578.957 175.114 578.949 174.974 578.94 174.701C 578.923 174.193 578.923 173.624 578.946 173.099C 578.958 172.81 578.966 172.671 578.989 172.441C 578.999 172.331 579 172.318 579.012 172.233C 579.017 172.193 579.015 172.207 579.02 172.174C 579.024 172.144 579.026 172.134 579.023 172.155C 579.02 172.173 579.019 172.175 579.017 172.182C 579.017 172.186 578.997 172.276 578.999 172.267C 578.982 172.338 578.948 172.476 578.888 172.664C 578.829 172.845 578.725 173.141 578.555 173.506C 578.39 173.857 578.101 174.412 577.63 175.037L 561.646 163.016C 559.851 165.403 559.425 168.11 559.314 168.752C 559.141 169.806 559.01 171.219 558.964 172.246C 558.887 174.261 558.997 176.888 559.193 178.35L 578.991 175.514ZM 576.136 176.628C 580.549 172.856 582.454 167.073 583.274 163.765C 583.731 161.876 584.081 159.61 584.191 158.063C 584.243 157.193 584.241 155.951 584.179 155.12C 584.126 154.499 583.939 152.227 582.58 149.969L 565.443 160.28C 564.76 159.145 564.502 158.167 564.411 157.781C 564.3 157.314 564.265 156.974 564.253 156.838C 564.23 156.569 564.249 156.521 564.234 156.76C 564.204 157.21 564.095 158.009 563.861 158.955C 563.627 159.901 563.333 160.724 563.05 161.31C 562.914 161.592 562.819 161.737 562.791 161.777C 562.758 161.823 562.859 161.666 563.141 161.425L 576.136 176.628ZM 582.58 149.969C 581.735 148.564 580.74 147.631 580.206 147.166C 579.606 146.643 579.03 146.235 578.627 145.964C 577.898 145.48 577.131 145.029 576.653 144.742C 576.104 144.413 576.03 144.349 576.112 144.412C 576.172 144.459 576.454 144.678 576.814 145.072C 577.145 145.434 577.845 146.27 578.373 147.585L 559.81 155.031C 560.475 156.687 561.41 157.864 562.052 158.566C 562.586 159.128 563.42 159.874 563.886 160.24C 564.738 160.882 565.767 161.534 566.368 161.895C 566.97 162.256 567.29 162.435 567.459 162.556C 567.505 162.587 567.332 162.476 567.063 162.241C 566.86 162.064 566.124 161.412 565.443 160.28L 582.58 149.969ZM 575.081 159.316C 573.063 160.826 571.066 161.075 570.214 161.125C 569.308 161.178 568.68 161.062 568.553 161.038C 568.348 161 568.347 160.981 569.123 161.232C 569.528 161.363 570.804 161.795 572.033 162.038C 572.658 162.162 573.867 162.366 575.318 162.27C 576.681 162.18 579.638 161.729 582.167 159.207L 568.044 145.045C 570.367 142.728 573.017 142.379 573.995 142.314C 575.06 142.243 575.805 142.397 575.914 142.418C 576.109 142.457 576.138 142.481 575.278 142.202C 574.79 142.045 573.509 141.616 572.201 141.374C 571.524 141.248 570.389 141.081 569.046 141.159C 567.758 141.235 565.394 141.586 563.102 143.3L 575.081 159.316ZM 585.096 152.543C 585.295 147.796 583.248 143.851 581.454 141.258C 579.717 138.81 577.052 136.054 574.704 134.082C 570.008 130.173 564.006 126.685 558.905 125.12L 553.038 144.24C 555.044 144.856 558.745 146.82 561.908 149.453C 563.489 150.753 564.291 151.54 565.006 152.636C 565.663 153.586 565.052 153.184 565.114 151.709L 585.096 152.543ZM 558.905 125.12C 560.824 125.709 561.827 126.763 561.344 126.343C 561.113 126.15 560.876 125.906 560.334 125.342C 559.204 124.169 557.669 122.471 555.903 120.684C 554.144 118.91 551.732 116.705 549.455 115.093C 547.211 113.533 543.417 111.323 538.751 111.323L 538.751 131.323C 537.228 131.323 536.851 130.689 538.041 131.516C 539.198 132.29 540.237 133.283 541.689 134.753C 543.135 136.211 544.573 137.805 545.92 139.207C 546.617 139.931 547.494 140.796 548.222 141.436C 548.697 141.85 550.504 143.463 553.038 144.24L 558.905 125.12ZM 540.161 111.423C 538.576 111.197 537.029 111.304 535.583 111.681C 534.225 112.035 533.203 112.567 532.642 112.884C 532.17 113.158 531.824 113.374 531.847 113.362C 531.861 113.354 532.165 113.167 532.629 112.979C 533.798 112.504 534.98 112.402 535.883 112.523C 536.55 112.612 536.618 112.765 535.833 112.374L 526.909 130.272C 528.857 131.244 530.975 132.045 533.24 132.347C 535.739 132.681 538.066 132.358 540.158 131.508C 540.945 131.168 541.844 130.687 542.186 130.482C 542.363 130.375 542.507 130.285 542.569 130.246C 542.63 130.209 542.414 130.336 542.477 130.299C 541.843 130.657 539.909 131.589 537.341 131.223L 540.161 111.423ZM 535.833 112.374C 535.113 112.015 534.78 111.66 532.358 110.023C 531.431 109.398 529.983 108.518 528.7 107.902C 527.265 107.236 525.046 106.417 522.351 106.417L 522.351 126.417C 521.656 126.417 521.124 126.309 520.801 126.223C 520.483 126.137 520.302 126.053 520.281 126.043C 520.087 125.974 520.548 126.178 521.158 126.593C 521.781 127.012 522.531 127.559 523.421 128.171C 524.297 128.771 525.523 129.582 526.909 130.272L 535.833 112.374ZM 521.448 106.458C 522.401 106.371 523.583 106.462 524.817 106.917C 525.996 107.353 526.784 107.96 527.184 108.316C 527.534 108.628 527.683 108.838 527.53 108.648C 527.368 108.45 527.136 108.139 526.76 107.654C 524.958 105.338 522.064 101.988 516.511 98.9324L 506.87 116.455C 509.332 117.622 509.81 118.434 510.972 119.932C 511.505 120.614 512.577 122.008 513.879 123.248C 516.072 125.203 519.263 126.738 523.254 126.376L 521.448 106.458ZM 514.431 98.0766C 517.16 98.8542 518.917 100.686 519.829 102.287C 520.606 103.65 520.766 104.795 520.805 105.101C 520.879 105.689 520.794 105.802 520.903 104.889C 520.993 104.111 521.152 103.165 521.315 102.055C 521.458 101.08 521.69 99.4537 521.69 97.8806L 501.69 97.8806C 501.639 97.3975 501.341 100.094 501.043 102.526C 500.895 103.8 500.798 105.946 500.962 107.603C 501.118 108.839 502.121 115.365 508.95 117.311L 514.431 98.0766ZM 513.854 88.1174C 511.635 87.6256 509.49 87.9272 508.899 88.0027C 507.949 88.1274 506.717 88.3477 505.628 88.5709C 503.518 89.0061 500.97 89.6174 498.533 90.1912C 496.095 90.7652 493.815 91.2935 491.873 91.6525C 489.465 92.1003 489.237 91.9488 490.048 92.0567L 487.412 111.882C 490.273 112.263 493.632 111.668 495.53 111.315C 497.892 110.873 500.635 110.243 503.117 109.659C 505.6 109.074 507.87 108.527 509.655 108.161C 510.513 107.984 510.999 107.893 511.433 107.841C 512.225 107.74 511.131 107.999 509.527 107.644L 513.854 88.1174ZM 498.73 101.969C 498.73 100.288 499.362 97.1932 500.412 93.8934C 500.9 92.3497 501.326 91.2053 501.738 90.2416C 501.916 89.8193 502.084 89.5077 502.017 89.624C 502.016 89.6273 501.925 89.787 501.942 89.7574C 501.974 89.7054 501.639 90.2261 501.705 90.1259C 501.599 90.2804 501.391 90.572 501.085 90.9211C 500.836 91.2055 500.199 91.9056 499.187 92.5785L 488.114 75.9236C 486.326 77.1122 485.344 78.6203 485.214 78.8101C 484.955 79.1975 484.587 79.8119 484.389 80.1771C 484.074 80.772 483.654 81.6643 483.332 82.4175C 482.745 83.8049 481.993 85.8293 481.353 87.8293C 480.121 91.7261 478.799 97.5292 478.73 101.969L 498.73 101.969ZM 502.124 89.5615C 502.112 89.5798 501.912 89.8995 501.456 90.3216C 500.978 90.7645 500.22 91.3167 499.162 91.716C 498.081 92.1241 496.981 92.2605 495.979 92.203C 495.028 92.1484 494.31 91.9286 493.906 91.7775C 493.517 91.6321 493.289 91.4997 493.335 91.5253C 493.404 91.5611 493.623 91.695 494.002 91.9085C 494.206 92.0215 494.628 92.2424 494.951 92.3968C 495.345 92.581 495.946 92.8389 496.694 93.0545C 498.111 93.4632 501.128 94.0137 504.399 92.3824L 495.475 74.4841C 498.473 72.9891 501.173 73.5311 502.236 73.8376C 502.806 74.0021 503.221 74.1855 503.419 74.2781C 503.292 74.2152 503.744 74.4407 503.754 74.447C 503.881 74.511 502.469 73.6922 500.911 73.0446C 498.942 72.3081 495.721 71.638 492.101 73.0039C 488.69 74.2912 486.521 76.7953 485.177 78.9406L 502.124 89.5615ZM 501.577 93.2979C 506.799 92.4298 508.944 88.3413 509.478 87.1928C 510.11 85.8355 510.394 84.5019 510.478 84.1271C 510.812 82.6333 510.756 82.8276 510.744 82.8567C 510.617 83.1717 509.902 84.7166 507.959 85.6815C 506.094 86.6077 504.884 86.1071 505.645 86.3029L 510.629 66.9341C 507.154 66.0396 503.005 65.8115 499.064 67.7685C 495.045 69.7641 493.118 73.0979 492.204 75.3551C 491.463 77.3421 491.091 79.1903 490.959 79.7665C 490.859 80.2138 490.957 79.5893 491.347 78.7527C 491.639 78.1249 493.484 74.3686 498.297 73.5686L 501.577 93.2979ZM 506.181 86.4254C 509.686 87.1244 512.512 85.9128 514.11 84.8776C 515.164 84.127 516.611 82.7171 517.231 81.9332C 518.105 80.712 519.146 78.7325 519.711 77.3135C 520.662 74.7997 521.605 70.873 521.953 67.4804C 522.25 64.1167 521.989 59.2976 520.922 55.6865C 519.553 51.4411 516.35 46.3593 509.936 44.4211L 504.151 63.566C 503.389 63.3358 502.716 62.8696 502.264 62.3528C 501.876 61.9093 501.825 61.6323 501.887 61.8242C 502.051 62.3325 502.23 63.6218 502.043 65.585C 501.864 67.4635 501.428 69.1437 501.065 70.0799C 500.855 70.621 500.857 70.429 501.259 69.8962C 501.448 69.6447 502.075 68.8439 503.238 68.0908C 504.465 67.2966 506.93 66.1807 510.093 66.8117L 506.181 86.4254ZM 509.936 44.4211C 510.681 44.6462 510.982 44.9281 510.498 44.5956C 510.007 44.2636 509.248 43.669 508.152 42.906C 506.03 41.4534 501.665 39.2619 496.782 38.5865L 494.891 58.4969C 495.749 58.3667 495.484 58.4467 496.778 59.3566C 497.391 59.7748 498.169 60.3842 499.165 61.0744C 500.167 61.7641 501.903 62.8865 504.151 63.566L 509.936 44.4211ZM 495.837 38.5417C 497.319 38.5417 498.515 38.9143 499.329 39.2805C 500.12 39.6368 500.656 40.0331 500.937 40.2618C 501.447 40.6775 501.625 40.9641 501.471 40.7593C 501.31 40.5541 501.186 40.3543 500.913 39.9274C 500.778 39.717 500.617 39.4634 500.454 39.2139C 500.282 38.9507 499.979 38.5069 499.729 38.1698L 483.745 50.1907C 483.788 50.2631 483.751 50.2142 484.072 50.7161C 484.388 51.2092 484.931 52.0315 485.487 52.7804C 486.061 53.533 487.261 54.8694 488.302 55.7653C 489.493 56.736 492.109 58.5417 495.837 58.5417L 495.837 38.5417ZM 500.555 39.4643C 496.254 31.4227 486.787 27.3402 479.335 26.5971L 477.351 46.4984C 478.709 46.6338 480.197 47.1009 481.413 47.7765C 482.713 48.499 483.004 49.0556 482.919 48.8962L 500.555 39.4643ZM 482.973 27.6842C 481.439 26.8828 481.53 26.4955 481.72 26.9276C 481.908 27.3534 481.561 27.1447 482.004 25.4489L 462.655 20.3876C 461.459 24.9613 461.248 30.0682 463.418 34.9916C 465.59 39.9215 469.507 43.2142 473.713 45.4113L 482.973 27.6842ZM 476.458 32.0262C 477.81 31.3889 479.78 30.1446 480.988 29.1301C 482.226 28.0477 484.23 25.9795 485.178 22.8612C 486.393 18.8624 485.444 14.3364 482.081 11.1247C 479.5 8.66064 476.318 7.77264 474.196 7.36952L 470.463 27.0182C 471.211 27.1602 469.84 27.09 468.268 25.5885C 467.34 24.703 466.395 23.353 465.944 21.552C 465.5 19.7767 465.694 18.1921 466.042 17.0465C 466.648 15.0526 467.764 14.1259 467.823 14.0742C 467.793 14.0579 468.049 13.8545 468.201 13.8103L 476.458 32.0262ZM 474.196 7.36952C 476.349 7.77845 478.184 8.93039 479.462 10.4308C 480.534 11.6885 480.944 12.8766 481.048 13.1863C 481.157 13.5095 481.204 13.7505 481.119 13.3863C 481.06 13.1326 480.914 12.5245 480.732 11.9092C 480.31 10.5251 479.382 8.11262 477.131 5.9802C 474.788 3.76041 471.938 2.70617 469.193 2.36402L 466.719 22.2104C 466.161 22.1409 464.746 21.7973 463.377 20.4999C 462.1 19.2899 461.684 18.0116 461.603 17.7471C 461.614 17.8026 461.575 17.6396 461.637 17.9101C 461.701 18.1817 461.879 18.893 462.091 19.5585C 462.34 20.3003 462.925 21.8601 464.238 23.401C 465.758 25.1847 467.901 26.5314 470.463 27.0182L 474.196 7.36952ZM 468.741 2.31807C 467.573 2.26374 465.948 1.81359 463.74 1.40731C 462.588 1.20152 460.759 0.982183 459.266 0.978652C 457.578 1.00618 454.598 1.30831 451.768 3.3246L 463.371 19.6143C 461.497 20.9491 459.787 20.9728 459.592 20.976C 459.331 20.9803 459.408 20.9481 460.178 21.0876C 460.911 21.2183 461.836 21.4244 462.974 21.6476C 464.109 21.8685 465.711 22.1313 467.171 22.2564L 468.741 2.31807ZM 452.435 2.8883C 453.585 2.19993 454.739 1.98303 454.052 2.15635C 453.618 2.26601 451.822 2.84881 450.159 3.7389C 446.249 6.1126 444.453 9.99778 443.389 13.3572L 462.456 19.3949C 462.576 19.0173 462.661 18.8061 462.699 18.7194C 462.737 18.6317 462.709 18.7129 462.59 18.9005C 462.467 19.0941 462.24 19.4127 461.88 19.7784C 461.508 20.1559 461.058 20.5198 460.538 20.8355C 460.023 21.1481 459.559 21.3406 459.235 21.4542C 459.081 21.5079 458.967 21.5411 458.917 21.555C 458.876 21.5667 458.861 21.5699 458.943 21.5492C 458.988 21.5377 459.175 21.4911 459.353 21.4436C 459.55 21.391 459.832 21.3125 460.157 21.2061C 460.821 20.9885 461.723 20.6377 462.704 20.0506L 452.435 2.8883ZM 443.641 12.6534C 443.587 12.7025 443.784 12.3989 443.437 12.9193C 443.08 13.4618 442.527 14.2326 441.893 15.2078C 440.61 17.1936 438.606 20.6412 438.298 25.2497L 458.254 26.5838C 458.219 27.1034 457.992 27.1437 458.691 26.0628C 459.048 25.5047 459.537 24.8274 460.111 23.9643C 460.669 23.1217 461.54 21.7538 462.204 20.0988L 443.641 12.6534ZM 449.991 16.065C 444.206 15.0576 436.399 10.0269 428.468 3.71389C 424.739 0.74782 421.371 -2.1784 418.659 -4.41524C 417.272 -5.55801 415.794 -6.71859 414.638 -7.5087C 413.953 -7.96605 412.801 -8.62953 411.966 -9.0152C 411.518 -9.21134 408.147 -10.8074 404.121 -9.46877L 410.429 9.51009C 408.331 10.2078 406.57 10.0015 405.735 9.8465C 404.84 9.68027 404.205 9.41987 403.938 9.30275C 403.416 9.07401 403.198 8.89905 403.436 9.05991C 403.984 9.42192 404.709 10.0034 405.936 11.0158C 408.452 13.0893 411.952 16.1259 416.012 19.3613C 423.662 25.4511 435.126 33.7774 446.56 35.7685L 449.991 16.065ZM 397.275 0.0206587C 397.275 1.92881 397.314 3.8381 396.919 5.82248C 396.569 7.77454 396.056 8.53144 395.889 8.70887L 410.461 22.4077C 414.394 18.2238 415.93 13.12 416.606 9.34766C 417.236 5.60763 417.275 1.92881 417.275 0.0206587L 397.275 0.0206587ZM 400.657 5.88046C 397.716 6.64563 394.036 8.33609 391.711 12.1231C 389.381 15.9164 389.687 19.744 390.131 21.9211C 390.563 23.794 391.324 25.7258 391.736 26.6736C 392.347 28.0818 392.13 27.6984 392.003 27.0654L 411.613 23.1325C 411.372 21.9316 410.994 20.9121 410.758 20.312C 410.52 19.7145 410.26 19.1211 410.079 18.703C 409.643 17.6995 409.675 17.6632 409.727 17.9185C 409.796 18.2556 410.152 20.3114 408.754 22.5883C 407.36 24.8591 405.49 25.2888 405.693 25.2361L 400.657 5.88046ZM 395.443 17.3864C 390.07 22.081 386.871 27.8191 385.366 31.4118C 384.595 33.2742 384.122 34.6356 383.722 35.5095C 383.306 36.4395 383.47 35.6963 384.483 34.8538L 397.266 50.2356C 399.92 48.0302 401.279 45.2426 401.982 43.6682C 402.702 42.0377 403.27 40.4347 403.832 39.0941C 404.992 36.281 405.62 34.6591 408.174 32.8115L 395.443 17.3864ZM 382.486 37.1017L 382.462 37.1384L 399.24 48.0243L 399.264 47.9877L 382.486 37.1017ZM 382.462 37.1384C 380.964 39.4472 380.152 40.7826 378.456 42.4806C 376.532 44.5029 374.093 46.5262 369.211 49.7548L 380.284 66.4099C 386.034 62.5699 390.149 59.1515 392.87 56.3449C 395.819 53.2139 397.742 50.3331 399.24 48.0243L 382.462 37.1384ZM 368.619 50.1808C 366.487 51.8345 365.192 53.8456 364.449 55.1629C 363.75 56.4271 363.113 57.852 362.69 58.8363C 362.268 59.8197 362.009 60.4524 361.727 60.9775C 361.474 61.4625 361.519 61.241 361.946 60.8148L 376.069 74.9764C 377.726 73.3236 378.796 71.5006 379.466 70.2138C 380.106 68.9671 380.668 67.6576 381.065 66.7329C 381.462 65.809 381.645 65.3599 381.869 64.9885C 382.048 64.6703 381.779 65.2844 380.877 65.9839L 368.619 50.1808ZM 369.008 57.8956C 370.495 57.8956 371.611 58.2493 372.161 58.455C 372.753 58.6762 373.159 58.9055 373.333 59.0084C 373.658 59.2008 373.752 59.3014 373.512 59.1059C 372.987 58.6837 372.266 58.0048 371.233 57.0629C 370.204 56.1255 368.823 54.9014 367.479 53.8628C 366.166 52.8573 364.139 51.4379 361.703 50.5702L 354.992 69.4108C 354.469 69.2246 354.526 69.1341 355.315 69.7386C 356.072 70.31 356.809 70.977 357.762 71.8455C 358.71 72.7095 359.835 73.7513 360.864 74.5983C 361.438 75.0632 362.398 75.7614 363.138 76.2153C 363.738 76.5705 365.968 77.8956 369.008 77.8956L 369.008 57.8956ZM 352.001 52.2627C 349.576 54.254 347.859 56.6231 346.829 59.2954C 346.062 61.528 345.72 63.9746 345.639 65.1152C 345.45 67.798 345.338 65.656 346.639 64.3586L 360.762 78.52C 365.616 73.6789 365.505 67.7207 365.589 66.5191C 365.649 65.6767 365.689 65.9756 365.492 66.4867C 365.53 66.4354 364.968 67.4684 365.027 67.3419C 365.049 67.3427 364.596 67.7722 364.694 67.7183L 352.001 52.2627ZM 351.49 61.6867C 345.468 63.0515 341.292 66.7817 338.526 70.4745C 336.073 73.8502 334.067 78.1851 332.861 81.4684C 331.655 84.7949 330.816 87.8084 330.179 89.72C 329.886 90.6105 329.782 90.7785 329.827 90.7419C 329.877 90.6484 330.239 89.9635 331.022 89.1749C 331.816 88.3755 333.7 86.8278 336.671 86.5584L 338.476 106.477C 341.823 106.173 344.068 104.421 345.214 103.267C 346.009 102.406 347.017 100.976 347.446 100.205C 348.084 98.9715 348.742 97.2753 349.162 96.0149C 349.952 93.6247 350.701 90.8968 351.648 88.3286C 352.595 85.717 353.304 84.0039 354.533 82.4644C 355.077 81.708 355.074 81.6815 355.569 81.3691C 356.004 81.0013 355.497 81.2199 355.911 81.1919L 351.49 61.6867ZM 336.671 86.5584C 335.032 86.707 333.681 87.1467 332.824 87.4671C 332.05 87.7638 331.224 88.1356 330.703 88.3794C 329.67 88.8626 329.351 89.0606 328.98 89.1216C 328.531 89.2785 329.422 89.0197 329.441 89.138C 329.868 89.156 329.483 89.3379 328.648 88.5999L 316.432 104.435C 322.665 109.244 328.901 109.895 334.314 108.397C 336.387 107.782 338.246 106.93 339.173 106.497C 340.567 105.846 339.773 106.359 338.476 106.477L 336.671 86.5584ZM 332.197 93.9197C 329.987 85.7061 325.344 80.5598 319.642 77.8877C 315.149 75.7821 309.276 75.4075 309.693 75.4768L 306.413 95.2061C 307.12 95.319 307.888 95.4041 308.414 95.4613C 308.943 95.5188 309.31 95.5572 309.729 95.6254C 310.645 95.7622 310.707 95.7274 311.156 95.998C 311.346 96.0873 311.508 96.1925 311.709 96.4404C 311.932 96.7147 312.437 97.4556 312.883 99.1155L 332.197 93.9197ZM 298.44 82.5872C 298.327 82.9866 298.205 83.4661 298.119 83.8195C 298.034 84.1675 297.956 84.4939 297.874 84.8179C 297.706 85.4835 297.616 85.8418 297.456 86.2592C 297.311 86.6589 297.343 86.4254 297.703 85.9309C 298.044 85.4622 299.392 83.8026 302.063 83.2108L 306.39 102.737C 310.29 101.873 312.663 99.3613 313.867 97.7085C 314.838 96.2934 315.814 94.2746 316.258 93.0784C 317.078 90.7271 317.827 87.5696 317.666 88.0956L 298.44 82.5872ZM 294.552 95.5046C 294.635 95.8231 294.715 96.8262 293.956 98.8839C 293.213 101.016 292.031 102.935 290.903 104.903L 308.256 114.846C 309.315 112.997 311.276 109.601 312.72 105.805C 314.148 101.933 315.457 96.3944 313.901 90.4433L 294.552 95.5046ZM 289.775 107.908C 290.296 105.31 291.81 103.377 293.402 102.207C 294.646 101.293 295.772 100.97 295.811 100.958C 295.756 100.974 295.939 100.921 295.849 100.945C 295.756 100.971 295.571 101.021 295.36 101.081C 294.957 101.199 294.022 101.517 293.252 101.847C 291.32 102.717 289.15 104.226 287.481 106.78C 285.908 109.185 285.219 111.847 284.978 114.376L 304.887 116.277C 304.919 115.943 304.914 116.663 304.221 117.723C 303.432 118.931 302.338 119.689 301.465 120.083C 301.113 120.241 300.867 120.308 300.906 120.297C 300.972 120.276 301.32 120.187 301.819 120.035C 302.263 119.895 303.738 119.431 305.245 118.324C 306.08 117.71 307 116.849 307.79 115.673C 308.594 114.475 309.118 113.167 309.384 111.841L 289.775 107.908ZM 290.04 106.605C 282.055 111.085 279.468 118.464 278.194 123.031C 277.567 125.296 277.206 127.04 276.803 128.249C 276.409 129.474 276.366 128.944 277.17 128.193L 290.829 142.803C 293.819 140.007 295.143 136.548 295.842 134.374C 296.533 132.183 296.991 130.06 297.458 128.406C 298.37 125.137 299.064 124.475 299.825 124.048L 290.04 106.605ZM 274.65 131.951C 273.694 134.47 273.097 134.794 269.915 137.779C 266.135 141.324 261.989 146.002 257.834 155.882L 276.27 163.635C 279.222 156.614 281.636 154.205 283.597 152.367C 286.154 149.968 290.478 146.612 293.349 139.045L 274.65 131.951ZM 257.834 155.882C 258.132 155.173 258.354 155.077 257.749 155.767C 257.2 156.404 256.535 157.052 255.646 157.924C 254.757 158.794 253.647 159.88 252.72 160.907C 252.225 161.464 251.51 162.353 251.026 163.048C 250.514 163.804 249.63 165.233 249.152 167.14L 268.552 172.003C 268.21 173.365 267.642 174.18 267.584 174.266C 267.613 174.241 267.431 174.455 267.623 174.245C 268.072 173.734 268.721 173.113 269.643 172.209C 270.565 171.306 271.762 170.113 272.793 168.946C 273.769 167.832 275.289 165.969 276.27 163.635L 257.834 155.882ZM 248.852 169.572C 248.852 172.752 250.213 175.289 250.729 176.221C 251.375 177.363 252.353 178.788 253.119 179.776C 254.636 181.701 256.766 183.926 258.095 185.078L 271.09 169.875C 270.971 169.774 270.643 169.47 270.178 168.975C 269.684 168.451 269.325 168.04 268.89 167.477C 268.474 166.944 268.275 166.623 268.231 166.542C 268.211 166.507 268.316 166.685 268.443 167.045C 268.547 167.336 268.852 168.253 268.852 169.572L 248.852 169.572ZM 258.095 185.078C 254.726 182.199 254.635 178.458 254.642 177.557C 254.651 176.303 254.91 175.386 254.991 175.108C 255.183 174.451 255.38 174.1 255.315 174.228C 255.164 174.544 255.008 174.792 254.57 175.406C 254.12 176.052 253.883 176.361 253.508 176.74C 253.361 176.9 253.566 176.695 253.555 176.715C 253.637 176.65 254.261 176.15 255.349 175.743L 262.355 194.476C 265.199 193.412 267.202 191.361 267.989 190.535C 268.98 189.479 270.144 188.019 270.924 186.918C 271.716 185.784 272.619 184.307 273.152 183.275C 273.465 182.646 273.943 181.497 274.193 180.703C 274.354 180.105 274.596 178.651 274.641 177.704C 274.649 176.658 274.526 172.813 271.09 169.875L 258.095 185.078ZM 252.862 177.102C 250.1 179.168 248.76 182.1 248.48 184.851C 248.265 186.974 248.718 188.753 248.818 189.169C 248.961 189.758 248.947 189.691 248.977 189.787C 248.94 189.586 248.792 188.725 248.989 187.55L 268.715 190.847C 269.048 188.854 268.832 187.175 268.65 186.181C 268.565 185.738 268.449 185.232 268.385 184.976C 268.32 184.717 268.284 184.584 268.271 184.525C 268.26 184.48 268.313 184.685 268.356 185.012C 268.4 185.338 268.466 186.007 268.378 186.875C 268.285 187.787 268.017 188.96 267.358 190.186C 266.687 191.436 265.785 192.411 264.842 193.117L 252.862 177.102ZM 250.86 183.188C 251.786 181.956 252.812 181.248 253.436 180.887C 253.745 180.709 253.995 180.592 254.138 180.529C 254.06 180.562 254.359 180.437 254.375 180.432C 254.537 180.367 253.499 180.713 252.348 181.156C 249.777 182.17 246.694 183.853 243.249 187.098L 256.961 201.657C 258.436 200.268 259.317 199.907 259.684 199.762C 260.002 199.626 260.502 199.483 261.288 199.199C 261.776 199.02 264.711 198.045 266.844 195.209L 250.86 183.188ZM 241.166 189.896C 241.17 189.886 241.324 189.574 241.676 189.13C 242.044 188.666 242.691 187.981 243.684 187.365C 244.73 186.718 245.838 186.348 246.873 186.189C 247.809 186.046 248.512 186.104 248.68 186.119C 248.768 186.126 248.816 186.133 248.722 186.122C 248.639 186.112 248.455 186.089 248.248 186.067C 247.785 186.018 246.976 185.949 245.992 186.002C 244.973 186.057 243.842 186.237 242.648 186.63C 241.462 187.021 240.371 187.569 239.375 188.231L 250.448 204.886C 249.548 205.484 248.346 205.904 247.069 205.973C 246.559 206 246.196 205.961 246.16 205.957C 246.152 205.959 246.46 205.997 246.952 206.044C 248.209 206.153 251.153 206.264 254.211 204.371C 256.881 202.719 258.295 200.355 259.044 198.859L 241.166 189.896ZM 238.414 188.957C 238.926 188.519 239.202 188.405 238.687 188.703C 238.275 188.943 237.817 189.188 237.118 189.543C 235.67 190.282 233.932 191.103 232.009 191.964C 230.083 192.827 228.228 193.615 226.565 194.268C 224.954 194.904 223.461 195.327 223.809 195.263L 228.294 214.754C 231.199 214.085 236.352 211.933 240.184 210.216C 242.293 209.271 244.484 208.235 246.196 207.364C 247.5 206.7 249.854 205.489 251.409 204.16L 238.414 188.957ZM 233.782 198.666C 228.456 192.174 220.734 191.671 218.671 191.328L 215.391 211.057C 216.312 211.209 217.043 211.314 217.662 211.431C 218.24 211.537 218.536 211.617 218.694 211.67C 218.827 211.714 218.773 211.71 218.635 211.621C 218.511 211.57 218.376 211.474 218.32 211.351L 233.782 198.666ZM 209.607 194.493C 207.784 196.513 206.665 198.82 206.174 201.222C 205.723 203.429 205.894 205.32 205.996 206.257C 206.047 206.718 206.093 207.052 206.113 207.232C 206.132 207.407 206.109 207.261 206.109 206.981C 206.109 206.312 206.243 204.533 207.535 202.729L 223.794 214.375C 225.769 211.618 226.109 208.782 226.109 206.981C 226.099 206.261 226.033 205.404 225.985 204.975C 225.936 204.553 225.897 204.27 225.88 204.101C 225.844 203.777 225.947 204.356 225.769 205.226C 225.552 206.29 225.048 207.235 224.455 207.892L 209.607 194.493ZM 209.675 200.544C 208.071 201.984 207.798 201.892 204.874 202.095C 201.671 202.372 196.982 202.239 189.757 202.967L 191.824 222.86C 197.719 222.225 202.187 222.365 206.501 222.029C 211.094 221.618 216.698 220.027 221.654 216.56L 209.675 200.544ZM 200.151 209.394C 199.311 207.161 197.91 205.439 197.243 204.643C 196.467 203.725 195.562 202.77 194.879 202.055C 194.196 201.339 193.733 200.862 193.382 200.435C 192.922 199.885 193.434 200.346 193.864 201.489L 175.144 208.528C 175.983 210.761 177.384 212.483 178.051 213.279C 178.828 214.198 179.732 215.152 180.415 215.868C 181.099 216.583 181.561 217.06 181.912 217.487C 182.373 218.037 181.86 217.576 181.43 216.433L 200.151 209.394ZM 181.349 195.519C 177.521 196.792 175.667 199.692 175.325 200.187C 174.893 200.818 174.91 200.862 174.817 200.904C 174.686 201.047 173.433 202.4 168.555 204.654L 176.945 222.809C 183.274 219.884 187.078 217.148 189.613 214.36C 190.852 212.938 191.604 211.806 191.778 211.559C 192.042 211.177 190.667 213.498 187.658 214.498L 181.349 195.519ZM 167.681 205.112C 165.663 206.378 163.734 208.153 162.807 209.186C 162.337 209.72 161.927 210.221 161.655 210.547C 161.386 210.873 161.339 210.936 161.246 211.024C 161.235 211.035 161.365 210.899 161.616 210.723C 161.883 210.534 162.206 210.357 162.558 210.226C 163.278 209.958 163.556 210.086 162.885 210.033L 161.295 229.969C 164.041 230.188 166.839 229.976 169.548 228.965C 171.937 227.948 174.464 226.088 175.597 224.954C 176.689 223.797 177.395 222.865 177.772 222.455C 178.166 221.998 177.884 222.394 177.82 222.351L 167.681 205.112ZM 162.09 210.001C 160.396 210.015 158.868 210.164 157.977 210.267C 156.87 210.395 156.913 210.376 157.026 210.378C 157.429 210.388 157.961 210.485 158.413 210.676C 158.732 210.811 158.635 210.839 157.999 210.323L 145.408 225.862C 148.751 228.571 152.252 230.273 156.562 230.373C 158.04 230.38 159.47 230.227 160.267 230.135C 161.075 230.042 161.46 229.987 162.09 230.001L 162.09 210.001ZM 157.24 209.765C 158.771 210.783 159.387 212.086 159.286 211.893C 159.138 211.626 158.333 210.042 156.996 208.308C 153.06 203.682 147.373 202.751 141.834 202.918L 142.438 222.909C 143.949 222.836 144.429 223.063 144.165 222.94C 143.597 222.767 142.608 222.261 141.763 221.268C 141.432 220.878 141.259 220.569 141.24 220.534C 141.215 220.498 141.356 220.766 141.592 221.217C 142.105 222.191 143.405 224.585 146.167 226.42L 157.24 209.765ZM 140.496 203.049C 144.722 202.347 147.552 204.591 148.419 205.416C 149.233 206.188 149.589 206.858 149.432 206.6C 149.176 206.196 148.651 205.145 147.719 203.567C 145.976 200.665 142.143 195.67 136.543 191.92L 125.863 208.829C 128.462 210.259 129.276 211.669 130.54 213.81C 131.111 214.754 131.679 215.883 132.346 216.995C 132.761 217.665 133.766 219.016 134.644 219.916C 135.918 221.125 139.14 223.549 143.776 222.778L 140.496 203.049ZM 140.577 203.856C 141.389 201.67 142.193 198.97 142.101 196.144C 142.05 194.57 141.719 192.785 140.835 191.006C 140.023 189.575 138.439 187.722 137.611 187.016C 136.75 186.368 135.713 185.746 135.356 185.556C 134.824 185.273 135.096 185.415 135.279 185.531C 136.195 186.113 137.643 187.417 138.291 189.498L 119.194 195.441C 119.7 197.065 120.505 198.55 121.587 199.834C 122.638 201.082 123.745 201.898 124.554 202.412C 124.891 202.623 125.319 202.868 125.53 202.983C 125.742 203.097 125.902 203.18 125.972 203.217C 126.163 203.319 125.682 203.086 125.105 202.623C 124.412 202.068 123.558 201.181 122.922 199.9C 122.302 198.65 122.135 197.522 122.112 196.793C 122.09 196.123 122.186 195.758 122.164 195.856C 122.146 195.936 122.065 196.256 121.828 196.893L 140.577 203.856ZM 137.682 196.951C 138.601 195.119 139.49 192.713 139.582 190.023C 139.669 187.497 138.965 182.368 133.935 179.474C 129.368 176.847 124.891 178.284 122.952 179.136C 120.658 180.144 118.651 181.695 116.966 183.282L 130.679 197.841C 131.454 197.11 131.566 197.197 130.997 197.446C 130.784 197.54 127.639 198.926 123.961 196.81C 119.819 194.427 119.559 190.371 119.594 189.336C 119.635 188.137 119.978 187.639 119.803 187.987L 137.682 196.951ZM 116.966 183.282C 115.88 184.304 114.983 185.459 114.43 186.19C 113.83 186.984 113.244 187.806 112.704 188.536C 111.534 190.119 110.832 190.906 110.394 191.263L 123.038 206.76C 125.606 204.664 127.59 202.044 128.787 200.424C 129.431 199.552 129.949 198.824 130.375 198.263C 130.847 197.64 130.896 197.636 130.679 197.841L 116.966 183.282ZM 110.394 191.263C 107.95 193.276 105.071 195.134 101.99 197.33C 98.8931 199.543 95.1399 202.589 92.43 205.946L 108.201 218.246C 109.318 216.696 110.895 215.542 113.606 213.61C 116.334 211.661 119.741 209.431 123.038 206.76L 110.394 191.263ZM 96.3853 202.901C 91.9549 204.802 88.5715 205.977 84.8885 207.884C 81.3167 209.795 77.349 212.638 72.2675 217.236L 85.7224 232.034C 89.9345 228.182 91.8435 226.8 94.2169 225.576C 96.479 224.348 99.109 223.479 104.245 221.291L 96.3853 202.901ZM 72.9794 216.647C 65.538 222.25 61.7521 226.978 60.2431 232.364C 59.6731 234.641 59.5308 235.645 59.5702 235.697C 59.5203 235.698 60.8404 233.298 60.6853 233.686L 74.3441 248.295C 76.9135 245.893 78.291 243.268 78.9699 240.56C 79.4003 238.634 79.5807 237.72 79.5015 237.76C 79.2908 238.511 79.0583 237.106 85.0105 232.623L 72.9794 216.647ZM 65.4253 231.211L 65.3398 231.229L 69.5186 250.788L 69.6041 250.77L 65.4253 231.211ZM 65.3404 231.229C 63.8382 231.55 59.411 232.315 55.6492 235.39C 51.3799 238.879 49.4022 243.899 48.8212 249.499L 68.7145 251.563C 68.8352 250.399 69.0269 250 69.0077 250.042C 68.9935 250.072 68.9315 250.197 68.7985 250.37C 68.6635 250.546 68.4957 250.72 68.3067 250.875C 67.9247 251.187 67.6602 251.253 67.8305 251.195C 67.9218 251.164 68.0876 251.113 68.3791 251.042C 68.6858 250.967 69.0187 250.895 69.518 250.788L 65.3404 231.229ZM 53.8479 241.825C 52.9876 242.411 52.5896 242.432 50.962 242.694C 49.3588 242.972 47.1354 243.151 44.5325 243.671C 41.9343 244.234 37.9858 245.716 34.8715 247.915C 32.1797 250.03 28.9823 253.891 26.83 258.12L 44.7848 266.93C 45.7759 264.753 45.9952 264.491 46.9167 263.881C 47.4155 263.354 47.2767 263.507 48.6077 263.252C 49.9341 262.954 51.7595 262.827 54.2479 262.423C 56.7118 262.003 60.448 260.968 63.6878 259.237L 53.8479 241.825ZM 27.7511 256.601C 29.0934 254.775 30.5511 254.403 29.4988 254.864C 28.787 255.186 27.9545 255.457 26.4942 255.88C 23.4654 256.766 19.5507 257.662 15.374 258.66C 11.1973 259.658 6.63285 260.8 2.99567 262.026C 1.09965 262.674 -1.12054 263.591 -2.7232 264.458C -4.1454 265.246 -7.3069 267.14 -9.03283 270.774L 9.03283 279.355C 7.92191 281.694 6.24669 282.353 6.96636 281.954C 7.50557 281.635 8.08282 281.415 9.42417 280.964C 12.2617 279.992 15.9316 279.09 20.0233 278.112C 24.1152 277.134 28.5031 276.121 32.0858 275.082C 33.9312 274.543 35.9815 273.847 37.5141 273.187C 38.7062 272.666 41.7697 271.297 43.8637 268.449L 27.7511 256.601Z"/>
<path id="path2_fill" d="M 29.0532 1.32337C 40.8597 3.72627 46.9315 -0.0135388 51.2003 3.68829e-05C 51.9529 0.00243023 52.2611 0.935055 51.9115 1.60155C 49.6956 5.82666 47.2696 16.215 44.6335 15.4981C 42.7201 16.0432 44.3601 10.864 40.26 13.3173C 32.3332 20.4047 32.3332 25.5839 27.4131 31.0357C 27.4131 32.126 29.8732 34.0342 29.8732 35.1246C 29.5998 35.9423 26.8664 36.7601 27.1398 37.5779C 27.1599 38.1184 27.153 38.6098 27.1342 39.0715C 27.0685 40.6809 22.3178 44.3157 23.0397 45.7556C 23.313 47.3911 26.8664 49.5718 26.3198 51.2074C 23.7579 55.1461 24.9531 59.3851 19.7596 61.2932C 18.9396 62.9287 19.9115 68.108 18.9396 70.2887C 17.8462 72.742 14.2928 73.0146 14.2928 74.3775C 13.6524 77.1453 12.1061 78.1938 12.6528 81.4649C 11.8919 82.7296 9.95405 81.4124 9.02355 84.4833C 8.88538 84.9393 8.46782 85.1991 8.18846 84.8131C 7.31668 83.6086 6.47944 80.4345 5.81934 79.5567C 2.84467 79.5567 5.23347 83.9504 4.96803 86.1811C 4.89554 86.7904 4.18937 86.6998 3.81464 86.2141C 2.83552 84.9448 1.44592 83.6379 1.44592 81.4649C 1.01894 73.9067 -0.740795 64.8369 0.352563 62.111C 1.9926 58.0221 3.52331 44.3926 5.81934 41.1215C 9.64609 35.6697 7.73271 31.8535 9.91943 25.5839C 11.5595 23.1306 14.0195 24.2209 15.9329 23.1306C 18.6663 19.3143 24.1331 2.14113 29.0532 1.32337Z"/>
<path id="path3_stroke_2x" d="M 51.2003 3.68829e-05L 51.2321 -9.99991L 51.2003 3.68829e-05ZM 29.0532 1.32337L 31.0475 -8.47574L 29.2366 -8.8443L 27.4136 -8.5413L 29.0532 1.32337ZM 15.9329 23.1306L 20.884 31.8189L 22.7872 30.7344L 24.0627 28.9535L 15.9329 23.1306ZM 9.91943 25.5839L 1.60596 20.0264L 0.897234 21.0865L 0.477263 22.2906L 9.91943 25.5839ZM 5.81934 41.1215L -2.36558 35.3764L -2.36559 35.3764L 5.81934 41.1215ZM 0.352563 62.111L 9.6338 65.8337L 9.63381 65.8337L 0.352563 62.111ZM 1.44592 81.4649L 11.4459 81.4649L 11.4459 81.1826L 11.43 80.9009L 1.44592 81.4649ZM 3.81464 86.2141L -4.10333 92.3219L -4.10332 92.3219L 3.81464 86.2141ZM 4.96803 86.1811L -4.96192 84.9996L -4.96192 84.9996L 4.96803 86.1811ZM 5.81934 79.5567L 13.8115 73.5463L 10.8111 69.5567L 5.81934 69.5567L 5.81934 79.5567ZM 8.18846 84.8131L 16.2895 78.9502L 16.2894 78.9502L 8.18846 84.8131ZM 9.02355 84.4833L 18.5939 87.3831L 18.5939 87.3831L 9.02355 84.4833ZM 12.6528 81.4649L 21.2215 86.6203L 23.1245 83.4573L 22.516 79.8165L 12.6528 81.4649ZM 14.2928 74.3775L 24.0354 76.632L 24.2928 75.5195L 24.2928 74.3775L 14.2928 74.3775ZM 18.9396 70.2887L 9.80566 66.2179L 9.80566 66.2179L 18.9396 70.2887ZM 19.7596 61.2932L 16.3109 51.9067L 12.5947 53.2721L 10.8203 56.8112L 19.7596 61.2932ZM 26.3198 51.2074L 34.7025 56.6598L 35.3991 55.5889L 35.804 54.3774L 26.3198 51.2074ZM 23.0397 45.7556L 32.9029 44.1072L 32.6545 42.6208L 31.979 41.2736L 23.0397 45.7556ZM 27.1342 39.0715L 17.1425 38.6638L 27.1342 39.0715ZM 27.1398 37.5779L 37.1329 37.2067L 37.0796 35.7707L 36.624 34.4077L 27.1398 37.5779ZM 29.8732 35.1246L 39.3573 38.2948L 39.8732 36.7516L 39.8732 35.1246L 29.8732 35.1246ZM 27.4131 31.0357L 19.9893 24.3359L 17.4132 27.1905L 17.4131 31.0356L 27.4131 31.0357ZM 40.26 13.3173L 35.1255 4.7362L 34.3064 5.22631L 33.5948 5.86254L 40.26 13.3173ZM 44.6335 15.4981L 47.2579 5.84859L 44.5711 5.11783L 41.8932 5.88084L 44.6335 15.4981ZM 51.9115 1.60155L 60.7675 6.24615L 60.7675 6.24614L 51.9115 1.60155ZM 51.2321 -9.99991C 49.183 -9.95812 46.8717 -9.55313 45.3596 -9.20699C 43.8855 -8.86745 42.5929 -8.53053 41.1873 -8.28512C 38.1685 -7.73002 35.5867 -7.4553 31.0475 -8.47574L 27.0588 11.1225C 34.3261 12.5049 40.6835 12.1112 44.7194 11.4005C 49.068 10.5843 51.5661 10.1532 51.1685 9.99999L 51.2321 -9.99991ZM 27.4136 -8.5413C 24.2163 -8.0099 21.9101 -6.34669 20.5511 -5.14062C 19.3843 -4.06757 17.9898 -2.42514 17.1149 -1.18901C 15.5224 1.12483 13.893 4.18898 12.6466 6.79849C 11.4068 9.40258 10.2699 12.0298 9.32818 14.1175C 8.39986 16.1775 7.6002 17.5244 7.80309 17.3077L 24.0627 28.9535C 25.4459 27.0223 26.7152 24.2129 27.5602 22.339C 28.566 20.1078 29.6158 17.675 30.6994 15.4066C 31.7764 13.1435 32.6071 11.5225 33.5087 10.2672C 33.8809 9.71868 33.9112 9.7804 33.8267 9.81794C 33.7191 9.91341 32.66 10.8611 30.6927 11.188L 27.4136 -8.5413ZM 10.9818 14.4423C 11.9359 13.8986 12.7091 13.7757 12.7382 13.7708C 12.8201 13.7467 12.1637 13.8319 11.2356 13.973C 10.3075 14.1306 8.2173 14.7126 6.60593 15.4795C 4.6072 16.5368 2.91103 18.0741 1.60596 20.0264L 18.2329 31.1414C 17.7478 31.867 16.9742 32.6207 15.9578 33.1584C 15.5048 33.398 15.1095 33.5381 14.8336 33.6184C 14.6976 33.658 14.5899 33.6833 14.5199 33.6982C 14.5302 33.6963 14.4424 33.714 14.4394 33.7144C 14.4365 33.7151 14.428 33.7167 14.4117 33.7192C 14.3466 33.7318 14.5546 33.6994 14.8319 33.6656C 15.1093 33.6318 15.6097 33.5671 16.0952 33.487C 17.175 33.3032 18.9732 32.9078 20.884 31.8189L 10.9818 14.4423ZM 0.477263 22.2906C -1.00996 26.9152 -1.21791 30.5427 -1.45238 32.5367C -1.66431 34.5047 -1.44724 34.4297 -2.36558 35.3764L 14.0043 46.8667C 16.9127 42.3615 18.0864 37.6525 18.4212 34.7821C 18.7334 31.9376 18.6621 30.5222 19.3616 28.8772L 0.477263 22.2906ZM -2.36559 35.3764C -4.05861 37.7884 -4.94643 40.839 -5.4196 42.5717C -5.98116 44.6427 -6.51292 47.1083 -6.96182 49.3284C -7.41019 51.5474 -7.81463 53.6745 -8.20012 55.4611C -8.57517 57.2087 -9.10517 58.765 -8.92869 58.3883L 9.63381 65.8337C 10.2773 64.1659 10.9067 61.7318 11.3516 59.6717C 11.7862 57.6505 12.2154 55.3991 12.6417 53.2908C 13.0675 51.1835 13.4514 49.3728 13.8739 47.8405C 14.3847 45.9699 14.5493 46.0903 14.0043 46.8667L -2.36559 35.3764ZM -8.92867 58.3883C -10.0113 61.0875 -10.0156 63.9522 -9.99703 65.3545C -9.96908 67.0414 -9.80858 69.0998 -9.62089 70.9746C -9.24774 74.6802 -8.7238 78.6204 -8.53816 82.0289L 11.43 80.9009C 11.1887 76.7512 10.6192 72.3774 10.2791 68.9771C 10.1102 67.2989 10.0091 66.1064 10.0012 65.0898C 9.984 63.7886 10.1698 64.4974 9.6338 65.8337L -8.92867 58.3883ZM -8.55408 81.4649C -8.3742 84.4396 -7.13288 87.9295 -6.23367 89.4514C -5.23128 90.9828 -4.32166 92.0236 -4.10333 92.3219L 11.7326 80.1062C 11.5393 79.8567 11.3255 79.5913 11.1807 79.4137C 11.0362 79.2367 10.9317 79.11 10.8403 78.9953C 10.6667 78.7783 10.6861 78.7865 10.7599 78.9053C 10.8474 79.0464 11.0321 79.3724 11.1887 79.8544C 11.3523 80.3578 11.4459 80.9104 11.4459 81.4649L -8.55408 81.4649ZM 14.898 87.3627C 15.169 85.0853 14.7459 82.9951 14.6133 82.3086C 14.4299 81.3714 14.2628 80.4321 14.2818 80.6504C 14.2877 80.6863 14.3032 80.8621 14.2984 80.8229C 14.3062 80.9322 14.3161 81.1317 14.3071 81.3996C 14.2917 81.861 14.2085 82.9855 13.6072 84.3387C 12.9293 85.8643 11.7016 87.4129 9.86654 88.4519C 8.17048 89.4122 6.62761 89.5567 5.81934 89.5567L 5.81934 69.5567C 4.2674 69.5567 2.14847 69.8386 0.0126512 71.0479C -1.67066 72.1826 -3.9109 74.7529 -4.66977 76.2176C -6.11279 79.4651 -5.63956 82.6029 -5.52631 83.4145C -5.35311 84.5735 -5.12072 85.5874 -5.02383 86.1013C -4.87614 86.866 -5.10019 86.1616 -4.96192 84.9996L 14.898 87.3627ZM -2.17278 85.5672C -2.5923 85.0094 -2.81103 84.5728 -2.84457 84.5066C -2.82958 84.5422 -2.91694 84.3482 -2.87282 84.4551C -2.76214 84.7134 -2.63089 85.0687 -2.42229 85.6172C -2.21399 86.1649 -1.91297 86.9385 -1.61051 87.6329C -1.33089 88.2687 -0.772943 89.4872 0.0874837 90.6761L 16.2894 78.9502C 16.714 79.5368 16.8403 79.9068 16.6972 79.5813C 16.5768 79.3143 16.4638 79.0137 16.2713 78.5075C 16.0791 78.0022 15.8228 77.3242 15.5636 76.7028C 15.4228 76.3699 15.1849 75.8457 14.9944 75.4638C 14.7853 75.0514 14.396 74.3235 13.8115 73.5463L -2.17278 85.5672ZM 18.5939 87.3831C 18.4957 87.7072 18.1049 88.7944 16.9873 89.9248C 16.4337 90.4847 15.8221 90.9311 15.2072 91.27C 14.613 91.5976 14.1081 91.7735 13.8241 91.8602C 13.5986 91.9292 13.4068 91.9693 13.6641 91.9099C 13.7788 91.8834 14.4055 91.7453 15.0936 91.5131C 15.8434 91.26 16.9535 90.8073 18.1228 89.9734C 19.3478 89.0999 20.4084 87.9717 21.2215 86.6203L 4.08417 76.3095C 4.70704 75.2742 5.5406 74.3816 6.51028 73.6901C 7.42435 73.0382 8.251 72.7141 8.69751 72.5634C 9.08241 72.4335 9.38619 72.3715 9.16673 72.4221C 9.02094 72.4558 8.50971 72.5784 7.97939 72.7333C 6.61574 73.15 4.61096 73.9962 2.76502 75.8632C 0.998591 77.6498 0.0166524 79.724 -0.546778 81.5835L 18.5939 87.3831ZM 22.516 79.8165C 22.5255 79.8732 22.5657 80.1876 22.5052 80.6541C 22.4458 81.1111 22.3282 81.4068 22.339 81.3792C 22.3697 81.2961 22.3948 81.2426 22.4952 81.0154C 22.596 80.7872 22.7479 80.447 22.9077 80.0687C 23.2153 79.3312 23.7116 77.9409 24.0354 76.632L 4.55029 72.1231C 4.54673 72.0481 4.61666 71.9767 4.4713 72.3165C 4.34256 72.6304 4.05624 73.2364 3.71627 74.0858C 2.79217 76.4454 2.16342 79.3665 2.78961 83.1133L 22.516 79.8165ZM 24.2928 74.3775C 24.2928 76.562 23.5308 78.3658 22.6557 79.6233C 21.8788 80.7397 21.0603 81.3673 20.7597 81.5866C 20.431 81.8265 20.2115 81.9395 20.3106 81.8847C 20.4128 81.8271 20.5901 81.7365 20.9021 81.5709C 21.4791 81.264 22.7462 80.5881 24.022 79.5613C 25.3685 78.4777 26.9825 76.8076 28.0736 74.3594L 9.80566 66.2179C 10.8127 63.9584 12.7021 63.2793 11.5104 63.9131C 11.4786 63.93 10.0651 64.632 8.97057 65.4307C 7.92517 66.1935 4.29285 69.0677 4.29285 74.3775L 24.2928 74.3775ZM 28.0736 74.3594C 29.0459 72.1777 29.2573 70.0224 29.3371 68.9051C 29.4154 67.7053 29.4157 66.3926 29.406 65.4794C 29.3962 64.5651 29.3812 64.0122 29.4085 63.6068C 29.4161 63.4605 29.4188 63.5608 29.3742 63.8115C 29.341 63.9982 29.1972 64.7816 28.699 65.7752L 10.8203 56.8112C 10.1171 58.2137 9.82425 59.5167 9.68342 60.3083C 9.56717 61.0079 9.46934 61.9672 9.436 62.5574C 9.38447 63.6512 9.398 64.8361 9.40715 65.6936C 9.41638 66.5523 9.42625 67.0454 9.38782 67.4812C 9.35082 67.9995 9.31928 67.3093 9.80566 66.2179L 28.0736 74.3594ZM 23.2084 70.6797C 25.6663 69.6911 28.5542 67.7086 30.0292 66.177C 31.5246 64.3889 32.8553 61.9095 33.3913 60.5191C 34.3559 57.8111 35.0471 56.5161 34.7025 56.6598L 17.937 45.755C 16.8113 47.5705 15.8938 49.7287 15.4642 50.9941C 15.2495 51.6377 15.0674 52.2399 14.9323 52.6776C 14.7978 53.1138 14.7429 53.297 14.6618 53.5045C 14.5631 53.7679 14.6929 53.3173 15.2015 52.7554C 15.4532 52.4774 15.7204 52.2569 15.9633 52.0984C 16.1966 51.9462 16.3367 51.8973 16.3109 51.9067L 23.2084 70.6797ZM 35.804 54.3774C 37.2761 49.9731 35.569 46.3646 34.7777 44.9674C 33.9295 43.4699 32.8599 42.2829 32.4375 41.8111C 31.9128 41.2267 31.5216 40.7634 31.5943 40.8723C 31.597 40.8758 31.7858 41.1101 32.0164 41.5239C 32.2326 41.9118 32.686 42.8094 32.9029 44.1072L 13.1765 47.4039C 13.4617 49.1107 14.0859 50.4342 14.5466 51.2607C 15.0217 52.1132 15.5287 52.799 15.8945 53.2625C 16.2276 53.6799 16.6357 54.1527 16.8963 54.4437C 17.1551 54.732 17.3727 54.9679 17.5369 55.1518C 17.7003 55.3338 17.7773 55.4363 17.7405 55.3851C 17.733 55.3756 17.6942 55.326 17.6358 55.2417C 17.5781 55.1585 17.4846 55.0173 17.375 54.8237C 17.1798 54.4791 16.7848 53.7103 16.5544 52.5965C 16.3068 51.4001 16.2509 49.7865 16.8355 48.0374L 35.804 54.3774ZM 37.1259 39.4792C 37.1493 38.8829 37.1592 38.002 37.1329 37.2067L 17.1467 37.949C 17.1605 38.2347 17.1568 38.3367 17.1425 38.6638L 37.1259 39.4792ZM 36.624 34.4077C 37.0596 35.7108 37.206 37.0775 37.0736 38.4119C 36.9446 39.7115 36.5717 40.789 36.1811 41.6019C 35.4565 43.1101 34.527 44.0078 34.1859 44.3218C 33.7787 44.6966 33.4591 44.9113 33.4027 44.9494C 33.4296 44.934 33.3133 45.0056 33.436 44.9323C 33.4757 44.9086 34.3582 44.401 35.0485 43.915C 35.4412 43.6386 36.1088 43.1428 36.8014 42.4373C 37.4277 41.7996 38.6463 40.422 39.3573 38.2948L 20.389 31.9543C 21.0317 30.0316 22.1051 28.8584 22.5306 28.4251C 23.0226 27.9241 23.4338 27.6327 23.5361 27.5607C 23.6456 27.4837 23.8106 27.3849 23.1669 27.7701C 22.9267 27.9137 21.7301 28.6041 20.6403 29.6073C 20.0772 30.1257 18.9768 31.2278 18.1539 32.9405C 17.2144 34.8959 16.6392 37.7072 17.6556 40.748L 36.624 34.4077ZM 39.8732 35.1246C 39.8732 33.1795 39.3449 31.6515 38.9742 30.7771C 38.585 29.8591 38.14 29.1327 37.8336 28.6686C 37.2605 27.8007 36.5911 27.0017 36.3742 26.7373C 35.976 26.252 36.0304 26.3015 36.1423 26.4708C 36.2181 26.5857 36.4708 26.9756 36.7255 27.5763C 36.9617 28.1334 37.4131 29.3633 37.4131 31.0358L 17.4131 31.0356C 17.4131 32.9807 17.9414 34.5088 18.3121 35.3832C 18.7013 36.3012 19.1463 37.0276 19.4527 37.4917C 20.0258 38.3595 20.6952 39.1586 20.9121 39.4229C 21.3102 39.9082 21.2558 39.8588 21.144 39.6894C 21.0682 39.5745 20.8154 39.1846 20.5608 38.584C 20.3246 38.0269 19.8732 36.797 19.8732 35.1246L 39.8732 35.1246ZM 34.8369 37.7355C 38.2168 33.8219 40.0081 30.202 41.4302 27.6829C 42.8791 25.0905 43.8966 23.3602 46.9253 20.7721L 33.5948 5.86254C 28.6966 10.3618 25.7507 14.7648 23.9879 17.8968C 22.1983 21.102 21.5295 22.7977 19.9893 24.3359L 34.8369 37.7355ZM 45.3946 21.8985C 45.3879 21.9025 45.2853 21.9639 45.0961 22.0498C 44.9097 22.1344 44.5844 22.2677 44.1377 22.3875C 43.2559 22.6241 41.6008 22.8821 39.6042 22.2998C 37.4928 21.684 36.006 20.4244 35.0987 19.2775C 34.3044 18.2735 33.97 17.3828 33.8924 17.1737C 33.8268 16.9971 33.7644 16.7785 33.9036 17.2473C 33.9621 17.4443 34.2314 18.393 34.7187 19.3995C 35.1861 20.365 36.4064 22.5823 39.0556 24.1154C 40.4414 24.9174 41.9712 25.3833 43.5314 25.5058C 45.0391 25.6241 46.3525 25.4063 47.3737 25.1153L 41.8932 5.88084C 43.5982 5.39502 46.3376 5.22204 49.0731 6.80508C 51.4298 8.16887 52.4323 10.0902 52.7203 10.6852C 53.0282 11.321 53.1566 11.8247 53.0762 11.5542C 53.03 11.3999 52.8637 10.8349 52.6412 10.2106C 52.3927 9.54154 51.8533 8.22059 50.7835 6.86839C 49.6007 5.37338 47.768 3.84753 45.2039 3.09971C 42.7546 2.38536 40.54 2.64551 38.9557 3.07053C 37.4112 3.48485 36.1126 4.14556 35.1255 4.7362L 45.3946 21.8985ZM 42.009 25.1475C 45.948 26.2189 49.291 24.8965 51.3062 23.5007C 52.586 22.524 54.1722 20.8014 54.8643 19.8113C 55.9326 18.1639 57.021 15.8461 57.7162 14.1137C 59.4417 9.79554 59.9453 7.81382 60.7675 6.24615L 43.0556 -3.04306C 42.2634 -1.5011 41.452 0.522464 40.8398 2.16385C 40.2323 3.79473 39.6796 5.35724 39.144 6.69243C 38.6261 7.9957 38.0809 8.86629 38.2781 8.63546C 38.3143 8.58164 38.439 8.40102 38.6624 8.1529C 38.8775 7.91399 39.2885 7.49561 39.9182 7.05949C 41.2874 6.11108 43.9779 4.9565 47.2579 5.84859L 42.009 25.1475ZM 51.1685 9.99999C 46.6441 9.9856 43.7476 6.90861 42.6917 4.28365C 41.744 1.9276 41.8462 -0.737021 43.0556 -3.04305L 60.7675 6.24614C 62.3265 3.27362 62.4494 -0.190555 61.2468 -3.18014C 59.9361 -6.43864 56.5092 -9.98313 51.2321 -9.99991L 51.1685 9.99999ZM -4.10332 92.3219C -2.44998 94.4652 0.428154 96.4867 4.19506 96.6034C 6.24193 96.6668 8.92468 96.1293 11.2692 94.1456C 13.6646 92.1188 14.6457 89.4826 14.898 87.3627L -4.96192 84.9996C -4.74592 83.1843 -3.88025 80.7652 -1.64931 78.8776C 0.530669 77.0331 2.99986 76.5568 4.81429 76.613C 8.11631 76.7153 10.454 78.4487 11.7326 80.1062L -4.10332 92.3219ZM 0.0874547 90.676C 1.16625 92.1666 2.99055 93.8457 5.69495 94.6108C 7.75361 94.9836 11.376 94.6022 12.9175 94.0119C 16.3793 92.3825 17.9774 89.4175 18.5939 87.3831L -0.546774 81.5835C -0.0685225 80.0051 1.25181 77.398 4.40037 75.9161C 6.1602 75.0878 8.55925 74.6362 11.1398 75.3663C 13.683 76.0858 15.3503 77.6526 16.2895 78.9502L 0.0874547 90.676ZM 31.979 41.2736C 33.3309 43.9699 32.9914 46.4255 32.6989 47.5789C 32.415 48.6987 31.9883 49.3967 31.9149 49.5176C 31.7754 49.7475 31.7795 49.6904 32.384 48.9852C 32.7429 48.5665 33.6614 47.5284 34.3577 46.6023C 34.7318 46.1048 35.2725 45.3441 35.7601 44.4171C 36.1742 43.6298 37.0293 41.8473 37.1259 39.4792L 17.1425 38.6638C 17.2227 36.6981 17.915 35.3811 18.0595 35.1063C 18.2776 34.6918 18.4419 34.4903 18.3727 34.5824C 18.1806 34.8516 17.8094 35.2578 17.1992 35.969C 16.5869 36.6839 15.5592 37.9689 14.8164 39.1425C 14.3982 39.8318 13.7183 41.0626 13.3124 42.663C 12.8981 44.2971 12.568 47.1813 14.1003 50.2375L 31.979 41.2736Z"/>
<path id="path4_fill" d="M 38.7447 14.6353C 40.2415 10.0287 46.7585 10.0287 48.2553 14.6353L 52.1438 26.6028C 52.8132 28.663 54.7329 30.0578 56.8991 30.0578L 69.4825 30.0578C 74.3262 30.0578 76.34 36.2558 72.4215 39.1028L 62.2412 46.4992C 60.4888 47.7724 59.7555 50.0293 60.4249 52.0894L 64.3134 64.057C 65.8101 68.6635 60.5377 72.4942 56.6192 69.6472L 46.4389 62.2508C 44.6865 60.9776 42.3135 60.9776 40.5611 62.2508L 30.3808 69.6472C 26.4623 72.4942 21.1899 68.6635 22.6866 64.057L 26.5751 52.0894C 27.2445 50.0293 26.5112 47.7724 24.7588 46.4992L 14.5785 39.1028C 10.66 36.2558 12.6738 30.0578 17.5175 30.0578L 30.1009 30.0578C 32.2671 30.0578 34.1868 28.663 34.8562 26.6028L 38.7447 14.6353Z"/>
</defs>
</svg>
